<?xml version="1.0" standalone="no"?>
<!DOCTYPE svg PUBLIC "-//W3C//DTD SVG 1.1//EN" "http://www.w3.org/Graphics/SVG/1.1/DTD/svg11.dtd" >
<svg xmlns="http://www.w3.org/2000/svg">
<metadata>Generated by IcoMoon</metadata>
<defs>
<font id="npt-icons" horiz-adv-x="1024">
<font-face units-per-em="1024" ascent="960" descent="-64" />
<missing-glyph horiz-adv-x="1024" />
<glyph unicode="&#x20;" horiz-adv-x="512" d="" />
<glyph unicode="&#xe900;" glyph-name="enlarge-h" d="M488 860h48v-824h-48v824zM10 448l240 292v-190h180v-208h-180v-186l-240 292zM1014 448l-240 292v-190h-180v-208h180v-186l240 292z" />
<glyph unicode="&#xe901;" glyph-name="enlarge-v" d="M100 472h824v-48h-824v48zM512 950l-292-240h190v-180h208v180h186l-292 240zM512-54l-292 240h190v180h208v-180h186l-292-240z" />
<glyph unicode="&#xe902;" glyph-name="marker-default" d="M482 910c0 50 60 50 60 0v-924c0-50-60-50-60 0v924z" />
<glyph unicode="&#xe903;" glyph-name="marker-fix" d="M482 910c0 50 60 50 60 0v-924c0-50-60-50-60 0v924zM600 560l20 50 80 80-90 80c40 40 90 50 140 20l100 100c-50 50 0 100 50 50l80-80c50-50 0-100-50-50l-100-100c30-50 20-100-20-140l-90 90-80-80-40-20z" />
<glyph unicode="&#xe904;" glyph-name="marker-point" d="M482 910c0 50 60 50 60 0v-924c0-50-60-50-60 0v924zM740 40c0-38.66-31.34-70-70-70s-70 31.34-70 70c0 38.66 31.34 70 70 70s70-31.34 70-70z" />
<glyph unicode="&#xe905;" glyph-name="marker-zero" d="M482 910c0 50 60 50 60 0v-924c0-50-60-50-60 0v924zM710-20c140 0 140 300 0 300s-140-300 0-300zM710 30c-90 0-90 200 0 200s90-200 0-200z" />
<glyph unicode="&#xe906;" glyph-name="reduce-h" d="M488 860h48v-824h-48v824zM430 448l-240 292v-190h-180v-208h180v-186l240 292zM594 448l240 292v-190h180v-208h-180v-186l-240 292z" />
<glyph unicode="&#xe907;" glyph-name="reduce-v" d="M100 472h824v-48h-824v48zM512 530l-292 240h190v180h208v-180h186l-292-240zM512 366l-292-240h190v-180h208v180h186l-292 240z" />
<glyph unicode="&#xe908;" glyph-name="eg-achr" d="M552.382 314.42v51.949l289.256 126.781v-55.351l-229.379-97.714 229.379-98.642v-55.351l-289.256 128.327zM52.568 861.537v-827.073h918.864v827.073zM4.38 909.725h1015.241v-923.45h-1015.241zM236.424 550.48c-0.718-47.616-1.428-71.137-2.141-118.753h336.047l2.141 118.753zM580.306 805.75c-13.312-0.471-24.639-2.854-33.459-4.518-24.859-4.688-46.244-14.198-64.8-24.753-20.175-11.476-41.945-26.411-61.106-47.953-16.803-18.892-24.426-36.604-30.4-48.071-10.412-19.984-18.639-39.971-25.882-59.176-9.561-25.35-16.969-50.321-23.835-74.165-8.564-29.742-16.527-60.066-23.294-91.059-9.917-45.42-13.26-86.242-21.576-119.388-5.835-23.257-11.433-43.308-18.376-58.024-2.093-4.436-4.102-6.666-6.235-9.976-7.019 8.485-14.571 16.783-21.788 20.541-18.23 9.493-32.635 10.674-46 10.635-48.315-0.134-68.665-28.19-81.694-56.094-11.803-25.278-11.803-46.039 0-71.318 15.532-33.266 42-44.882 60.024-51.224 33.651-11.84 61.231-5.68 78.871-2.353 24.86 4.688 46.268 14.198 64.824 24.753 20.289 11.541 41.909 26.526 60.965 47.812 16.583 18.523 24.572 36.161 30.847 48.188 10.085 19.33 18.978 39.726 26.235 61.059 11.384 33.462 17.397 65.114 23.929 92.871 8.614 36.601 14.784 71.555 22.329 103.812 6.788 29.017 13.512 57.177 21.247 84.071 7.38 25.661 12.565 46.56 18.918 60.024 2.467 5.229 4.87 8.144 7.341 11.765 7.572-7.097 15.698-13.561 21.906-16.471 15.445-7.239 27.327-9.074 39.2-9.929 28.159-2.030 53.533 4.83 75.341 31.929 20.702 25.725 26.293 52.342 13.459 85.294-15.464 39.704-43.885 48.63-61.553 54.847-16.826 5.92-32.124 7.342-45.435 6.871z" />
<glyph unicode="&#xe909;" glyph-name="eg-apv" d="M57.015 866.046v-827.073h918.864v827.073zM8.827 914.234h1015.241v-923.45h-1015.241zM280.665 191.418v-39.539h458.782v39.539h-458.782zM258.672 234.547v-125.797h43.986v125.797h-43.986zM721.342 234.547v-125.797h43.986v125.797h-43.986zM818.612 522.362l-231.048-123.556v38.137l168.823 85.767-168.823 86.81v38.137zM519.103 545.077v-46.331h206.564v46.331zM272.376 742.532q-43.137 0-66.912-44.494t-23.775-125.268q0-80.432 23.775-124.926t66.912-44.494q43.382 0 67.157 44.494t23.775 124.926q0 80.774-23.775 125.268t-67.157 44.494zM272.376 838.023q88.235 0 138.235-70.506t50-194.747q0-123.899-50-194.405t-138.235-70.506q-87.99 0-138.235 70.506-50 70.506-50 194.405 0 124.241 50 194.747 50.245 70.506 138.235 70.506zM908.624 750.058h-46.331v-423.411h46.331z" />
<glyph unicode="&#xe90a;" glyph-name="eg-arrow" d="M512 947.459l-150.541-225.812 60.141-40.094 54.141 81.224v-826.776h72.282v827.106l54.376-81.553 60.141 40.094z" />
<glyph unicode="&#xe90b;" glyph-name="eg-battery" d="M0.682 959.318v-1022.635h1022.635v1022.635zM48.871 911.129h926.259v-926.259h-926.259zM179.624 478.824v-84.329h192.753v84.329zM330.212 617.953v-361.412h84.329v361.412zM535.012 678.188v-481.882h84.329v481.882zM866.141 479.412l-304.8-1.2 0.329-84.329 304.8 1.2zM171.915 789.448v-36.141h144.565v36.141zM700.951 790.107l-0.329-36.141 144.259-1.318 0.329 36.141zM754.315 845.778v-144.565h36.141v144.565z" />
<glyph unicode="&#xe90c;" glyph-name="eg-breaker" d="M1047.976 986.329l-1074.259-4.612 0.141-60.118 2.165-1007.318 1074.259-4.612zM927.741 865.341l1.788-834.682-833.294 3.576-1.788 827.529z" />
<glyph unicode="&#xe90d;" glyph-name="eg-bus" d="M453.2 960v-1024h120.471v1024z" />
<glyph unicode="&#xe90e;" glyph-name="eg-cable" d="M289.383 264.946h433.694v60.235h-433.694zM9.124-8.536l379.506 303.6-379.506 303.6zM69.36 116.781v356.541l222.847-178.282zM641.807 295.064l379.506-303.6v607.2zM738.207 295.039l222.871 178.306v-356.588z" />
<glyph unicode="&#xe90f;" glyph-name="eg-car" d="M499.082 848.847l-102.235-102.235 34.071-34.071 68.165 68.141 68.141-68.141 34.071 34.071zM498 957.059l-102.212-102.235 34.071-34.071 68.141 68.141 68.165-68.141 34.071 34.071zM429.859 179.129l-34.071-34.071 102.212-102.235 102.235 102.235-34.071 34.071-68.165-68.165zM430.918 70.918l-34.071-34.094 102.235-102.212 102.212 102.212-34.071 34.094-68.141-68.165zM474.447 791.271l-4.329-686.188 48.188-0.306 4.329 686.188z" />
<glyph unicode="&#xe910;" glyph-name="eg-car-breaker" d="M503.859 837.012l-102.235-102.212 34.094-34.071 68.141 68.141 68.141-68.141 34.071 34.071zM502.8 945.224l-102.235-102.212 34.071-34.071 68.165 68.141 68.141-68.141 34.071 34.071zM434.635 167.294l-34.071-34.071 102.235-102.212 102.212 102.212-34.071 34.071-68.165-68.141zM435.718 59.082l-34.094-34.071 102.235-102.212 102.212 102.212-34.071 34.071-68.141-68.141zM479.224 779.765v-169.129h48.188v169.129zM479.224 297.929l-4.329-204.306 48.188-1.012 4.329 204.282zM318.4 629.576v-366.353h366.376v366.353zM366.588 581.388h270v-269.976h-270z" />
<glyph unicode="&#xe911;" glyph-name="eg-cb" d="M457.788 960v-457.788h108.424v457.788zM283.106 610.635v-108.424h457.788v108.424zM283.106 369.694v-108.424h457.788v108.424zM457.788 345.6v-409.6h108.424v409.6z" />
<glyph unicode="&#xe912;" glyph-name="eg-cc" d="M582.541 737.459v-257.718h72.282v257.718zM407.6 492.635v-72.282h422.165v72.282zM582.541 295.694v-257.718h72.282v257.718zM407.6 355.082v-72.282h422.165v72.282z" />
<glyph unicode="&#xe913;" glyph-name="eg-compensating-reactor" d="M479.054 777.761v-84.329c195.060 0 350.565-148.984 350.565-330.753s-155.507-330.776-350.565-330.776c-195.057 0-350.565 149.005-350.565 330.776h-84.329c0-229.846 196.483-415.106 434.894-415.106s434.894 185.258 434.894 415.106c0 229.848-196.485 415.082-434.894 415.082zM452.348 932.326v-239.671h85.506v239.671zM44.842 425.55v-85.859h489.035v85.859zM452.937 416.914v-456.094h84.329v456.094zM18.042 948.42v-36.141h987.929v36.141z" />
<glyph unicode="&#xe914;" glyph-name="eg-control-cooling-system" d="M574.603 249.183c-6.325 0.523-15.963 3.010-23.323 6.019-46.661 24.291-64.965 63.73-68.552 107.133l-0.363 4.527 1.29-0.287c0.709-0.158 3.948-1.309 7.196-2.558s8.588-2.896 11.865-3.66c5.196-1.211 7.2-1.392 15.666-1.417 10.723-0.030 15.365 0.64 24.145 3.489 8.944 2.902 20.109 9.403 27.174 15.823 1.826 1.659 3.58 3.017 3.897 3.017s2.948-1.534 5.848-3.409c2.899-1.875 10.611-6.763 17.136-10.862 25.251-15.862 34.86-22.952 43.758-32.29 6.017-6.314 10.352-13.043 12.219-18.965 1.582-5.021 1.663-15.573 0.157-20.494-3.333-10.888-12.096-23.4-21.789-31.109-7.846-6.24-18.685-11.613-27.38-13.574-4.006-0.903-16.377-2.018-20.988-1.891-1.483 0.042-5.064 0.27-7.957 0.509zM360.364 348.598c-10.617 2.992-19.239 9.6-26.335 20.182-15.037 22.428-16.107 48.977-3.005 74.535 13.481 26.296 38.692 44.789 70.911 52.016 10.462 2.346 31.526 2.369 44.724 0.047 9.484-1.668 22.914-5.373 22.914-6.322 0-0.313-1.922-2.624-4.271-5.135-5.328-5.695-9.622-12.104-13.317-19.876-4.943-10.398-6.678-18.526-6.678-31.273 0-12.15 1.646-19.992 6.562-31.265l2.123-4.869-1.243-0.916c-49.771-36.662-57.475-41.558-72.457-46.042-6.616-1.516-13.537-1.796-19.93-1.083zM509.753 375.017c-13.968 2.714-22.38 7.127-31.821 16.694-8.286 8.396-11.919 14.497-15.034 25.25-7.030 24.266 2.792 50.603 24.11 64.648 4.811 3.17 12.832 6.677 19.34 8.458 5.299 1.449 21.311 1.268 27.073-0.306 14.155-3.868 27.616-13.577 34.762-25.072 11.474-18.457 12.659-38.855 3.359-57.802-7.568-15.419-21.11-26.532-37.52-30.791-6.665-1.73-18.26-2.244-24.269-1.077zM523.614 411.528c6.691 1.4 12.104 5.769 15.173 12.249 1.564 3.301 1.707 4.056 1.707 9.023 0 5.183-0.089 5.602-2.034 9.537-8.075 16.339-31.4 16.012-39.116-0.548-1.282-2.753-1.437-3.723-1.437-9.017 0-5.271 0.158-6.27 1.415-8.966 4.309-9.242 14.408-14.346 24.293-12.278zM593.376 437.491c-1.608 18.887-8.926 34.937-21.847 47.914-10.506 10.552-21.106 16.255-37.777 20.327l-1.888 0.461 0.163 25.58c0.231 36.242 0.794 42.975 4.524 54.118 3.394 10.138 8.165 17.733 13.531 21.538 9.723 6.896 19.207 9.13 33.556 7.906 10.934-0.933 15.074-2.086 24.808-6.907 20.48-10.145 35.383-30.272 41.214-55.659 1.808-7.872 2.366-14.54 2.045-24.45-0.33-10.21-1.092-15.189-3.881-25.365-5.771-21.058-17.435-39.225-35.704-55.61-5.358-4.806-17.353-14.302-18.064-14.302-0.167 0-0.473 2.002-0.681 4.449zM511.999 799.722c-194.014 0-351.671-157.68-351.671-351.694 0-97.007 39.367-185.037 102.988-248.659l25.553 25.553c-57.122 57.122-92.4 135.865-92.4 223.106 0 174.482 141.047 315.553 315.529 315.553s315.529-141.071 315.529-315.553c0-87.241-35.278-165.984-92.4-223.106l25.553-25.553c63.621 63.621 102.988 151.652 102.988 248.659 0 194.014-157.657 351.694-351.671 351.694zM511.999 934.969c-268.451 0-486.988-218.513-486.988-486.965s218.537-486.988 486.988-486.988c268.451 0 486.988 218.537 486.988 486.988s-218.537 486.965-486.988 486.965zM511.999 850.64c222.877 0 402.659-179.759 402.659-402.635s-179.782-402.659-402.659-402.659c-222.877 0-402.659 179.782-402.659 402.659s179.782 402.635 402.659 402.635zM339.482 207.251l-40.471-59.906c19.667-13.287 40.692-24.733 62.824-34.094 44.263-18.722 92.984-29.059 143.929-29.059s99.666 10.337 143.929 29.059c22.132 9.361 43.156 20.807 62.824 34.094l-40.471 59.906c-15.829-10.694-32.713-19.915-50.494-27.435-35.562-15.041-74.609-23.341-115.788-23.341s-80.226 8.3-115.788 23.341c-17.781 7.521-34.665 16.741-50.494 27.435zM337.576 302.381l-92.635-73.835 22.541-28.259 92.635 73.835zM302.823 380.922l-102.988-50.565 15.929-32.447 102.988 50.588zM293.693 442.404l-114.165-11.271 3.529-35.953 114.188 11.247zM184.329 528.051l-1.788-36.094 113.318-5.624 1.788 36.094zM223.435 640.804l-15.647-32.565 103.459-49.647 15.624 32.565zM302.282 726.451l-26.376-24.706 78.447-83.741 26.376 24.706zM391.67 779.604l-30.941-18.682 59.247-98.259 30.941 18.659zM684.211 295.887l-20.612-29.694 96.965-67.318 20.612 29.694zM719.929 373.722l-15.929-32.424 102.988-50.588 15.929 32.447zM729.035 435.204l-3.529-35.976 114.165-11.271 3.553 35.976zM838.399 520.851l-113.294-5.624 1.788-36.094 113.294 5.624zM799.317 633.604l-103.435-49.647 15.624-32.588 103.435 49.647zM720.47 719.251l-78.447-83.741 26.376-24.706 78.447 83.741zM631.058 772.381l-59.224-98.259 30.941-18.659 59.247 98.259z" />
<glyph unicode="&#xe915;" glyph-name="eg-conv" d="M108.988 969.271l0.047-30.188 2.188-1012.353h803.788l-2.235 1042.541zM169.341 909.035h683.341l1.976-922.071h-683.341zM845.129 967.459l-728.659-983.341 67.741-50.212 728.682 983.341zM481.694 815.153c-19.252-2.295-42.247-6.773-63.2-21.553s-36.66-36.32-52.588-66.282c-14.278-26.858-24.717-28.789-48.565-32.541 3.949 0.621-17.81 5.577-35.035 17.694s-30.659 25.153-30.659 25.153l-59.059-60.188c0 0 17.493-17.292 41.176-33.953s52.819-38.925 96.682-32.024c36.098 5.68 83.4 26.378 109.929 76.282 12.804 24.085 21.679 33.379 26.729 36.941s9.481 4.952 24.588 6.753c-4.67-0.557 21.428-7.891 41.082-22.753s35.153-30.612 35.153-30.612l60.306 58.941c0 0-19.097 19.643-44.588 38.918s-55.081 44.812-101.953 39.224zM760.212 204.941l-246.682-1.553 0.541-84.329 246.659 1.553z" />
<glyph unicode="&#xe916;" glyph-name="eg-cooling-system" d="M486.199-45.337c-46.738 3.461-86.464 11.459-125.723 25.311-119.832 42.281-215.234 124.803-272.395 235.615-30.737 59.587-48.93 121.815-53.389 182.607-1.683 22.953-0.637 85.882 1.707 102.688 9.286 66.566 32.199 132.641 65.205 188.029 40.794 68.459 102.91 129.816 172.841 170.729 56.583 33.104 116.416 53.038 189.642 63.181 13.366 1.851 85.448 1.82 105.651-0.043 21.051-1.944 44.041-6.044 68.007-12.129 97.68-24.799 179.771-75.324 247.8-152.514 50.425-57.216 86.155-126.032 105.284-202.78 6.129-24.59 11.172-54.471 12.725-75.399 1.347-18.156 0.632-71.115-1.233-91.248-3.934-42.471-17.986-96.831-35.829-138.603-17.545-41.072-44.321-85.959-68.509-114.843-19.54-23.334-65.083-67.909-84.939-83.133-10.971-8.412-36.633-25.328-50.563-33.33-15.614-8.969-46.944-24.293-61.637-30.147-40.686-16.209-87.826-28.147-128.356-32.505-10.622-1.142-75.773-2.263-86.29-1.484zM564.399-0.536c23.935 1.988 56.38 8.618 84.293 17.224 69.51 21.432 130.363 58.14 182.168 109.889 69.544 69.469 112.718 156.357 126.817 255.22 1.103 7.735 1.87 23.771 2.24 46.819 0.622 38.794-0.674 58.834-5.76 88.986-13.965 82.806-56.543 166.298-116.227 227.909-69.052 71.282-155.364 115.637-256.274 131.699-15.717 2.502-37.869 3.701-69.032 3.738-28.89 0.032-34.803-0.257-48.538-2.389-34.329-5.328-57.011-10.536-83.593-19.196-98.412-32.060-185.721-101.597-239.815-191-33.611-55.551-55.557-120.996-61.767-184.198-1.915-19.488-1.598-74.198 0.545-94.186 7.22-67.341 32.789-137.494 71.031-194.884 42.666-64.031 100.437-115.428 168.552-149.953 45.469-23.047 95.848-38.616 145.047-44.824 23.904-3.016 69.597-3.405 100.312-0.854zM440.897 58.642c-55.707 13.215-107.052 38.047-154.243 74.597-14.919 11.555-48.685 44.755-62.362 61.317-5.144 6.229-9.348 11.568-9.342 11.865 0.011 0.761 16.177 12.226 16.539 11.732 10.595-14.476 33.364-39.131 48.374-52.381 49.232-43.459 102.758-71.642 164.613-86.674 9.896-2.405 18.766-4.6 19.711-4.879 1.541-0.454 1.568-1.297 0.261-8.206-0.801-4.235-1.997-8.352-2.659-9.149-1.727-2.082-6.238-1.698-20.893 1.779zM635.313 81.393c-12.65 1.045-31.926 6.019-46.646 12.037-58.149 23.774-104.282 74.751-124.079 137.106-6.384 20.109-10.315 43.395-13.024 77.16l-0.727 9.053 2.58-0.575c1.419-0.316 7.895-2.619 14.392-5.117s17.175-5.792 23.73-7.319c10.393-2.422 14.401-2.785 31.332-2.833 21.447-0.060 30.73 1.28 48.29 6.978 17.888 5.805 40.218 18.806 54.349 31.645 3.653 3.319 7.16 6.034 7.794 6.034s5.897-3.068 11.695-6.818c5.799-3.75 21.221-13.526 34.272-21.725 50.502-31.723 69.719-45.904 87.517-64.58 12.034-12.627 20.704-26.085 24.437-37.93 3.165-10.042 3.327-31.146 0.314-40.988-6.666-21.777-24.193-46.801-43.577-62.217-15.693-12.48-37.37-23.227-54.759-27.148-8.011-1.806-32.755-4.036-41.976-3.782-2.966 0.083-10.128 0.539-15.914 1.017zM438.2 128.683c-45.674 15.213-82.785 34.334-118.109 60.855-19.407 14.57-48.346 41.119-51.787 47.509l-2.049 3.804 6.424 5.927c3.533 3.26 6.667 5.946 6.963 5.969s7.351-6.386 15.676-14.243c34.805-32.848 56.912-48.93 90.138-65.575 26.652-13.351 50.723-23.144 69.038-28.086 4.634-1.25 8.996-2.96 9.693-3.8 2.736-3.297-1.55-18.801-5.169-18.701-1.069 0.036-10.437 2.883-20.818 6.341zM863.961 278.344c-4.585 2.167-8.336 4.374-8.336 4.905s2.854 8.337 6.342 17.348c18.887 48.793 25.699 82.248 26.767 131.459 0.856 39.486-1.755 63.801-11.042 102.805-5.881 24.698-5.815 22.879-0.904 24.938 6.954 2.916 11.452 3.107 13.735 0.584 3.758-4.152 11.378-35.654 15.959-65.97 3.144-20.81 3.956-68.593 1.552-91.323-4.264-40.31-11.925-71.476-27.265-110.918-3.23-8.305-6.458-15.701-7.172-16.434-1.028-1.055-3.040-0.51-9.635 2.607zM206.836 280.223c-21.234 5.983-38.478 19.199-52.669 40.365-30.074 44.856-32.214 97.954-6.009 149.069 26.962 52.593 77.384 89.579 141.822 104.031 20.925 4.693 63.051 4.737 89.447 0.095 18.969-3.337 45.829-10.747 45.829-12.643 0-0.627-3.844-5.248-8.542-10.269-10.657-11.39-19.244-24.208-26.633-39.752-9.885-20.797-13.357-37.052-13.357-62.547 0-24.3 3.292-39.984 13.124-62.53l4.246-9.737-2.486-1.831c-99.542-73.325-114.951-83.116-144.914-92.085-11.886-3.558-31.194-4.606-39.859-2.164zM809.245 306.501c-3.882 1.916-6.040 3.682-6.245 5.109-0.171 1.2 1.373 7.995 3.434 15.101 8.314 28.673 13.428 57.709 15.796 89.687 0.997 13.448 1.002 21.6 0.024 35.594-1.494 21.4-4.71 47.425-7.664 62.005-1.161 5.729-2.11 10.901-2.11 11.494 0 1.459 9.241 4.516 13.65 4.516 5.026 0 6.456-2.775 9.514-18.47 5.017-25.752 6.424-42.301 6.451-75.91 0.024-31.787-0.828-43.673-4.841-67.414-2.426-14.349-9.278-41.729-13.767-55.010-3.65-10.8-4.824-11.352-14.242-6.703zM505.614 333.061c-27.936 5.428-44.76 14.254-63.643 33.387-16.572 16.791-23.837 28.995-30.068 50.5-14.061 48.533 5.583 101.207 48.22 129.295 9.623 6.339 25.664 13.355 38.679 16.915 10.597 2.899 42.621 2.537 54.146-0.613 28.311-7.736 55.232-27.153 69.525-50.144 22.948-36.914 25.318-77.71 6.718-115.604-15.137-30.838-42.22-53.064-75.040-61.582-13.331-3.46-36.521-4.489-48.538-2.154zM533.335 406.083c13.382 2.8 24.207 11.539 30.347 24.497 3.128 6.602 3.413 8.112 3.413 18.047 0 10.366-0.179 11.204-4.069 19.075-16.15 32.678-62.801 32.024-78.231-1.097-2.565-5.506-2.874-7.446-2.874-18.034 0-10.543 0.315-12.541 2.829-17.932 8.619-18.485 28.815-28.692 48.586-24.556zM672.86 458.009c-3.216 37.774-17.852 69.874-43.694 95.828-21.013 21.103-42.213 32.511-75.554 40.654l-3.775 0.922 0.326 51.16c0.462 72.483 1.587 85.95 9.048 108.237 6.788 20.276 16.33 35.465 27.061 43.076 19.447 13.792 38.414 18.261 67.112 15.813 21.869-1.866 30.149-4.171 49.616-13.815 40.96-20.29 70.767-60.544 82.429-111.319 3.616-15.745 4.732-29.080 4.091-48.899-0.66-20.421-2.184-30.378-7.762-50.731-11.543-42.117-34.871-78.451-71.407-111.219-10.717-9.611-34.705-28.604-36.128-28.604-0.333 0-0.946 4.004-1.363 8.899zM286.654 620.729c-9.266 7.484-8.993 6.601-4.025 13.038 5.959 7.721 36.23 37.398 48.266 47.319 31.094 25.63 63.288 45.081 100.294 60.595 20.713 8.683 34.785 13.166 36.6 11.66 1.38-1.145 7.501-16.191 6.846-16.829-0.166-0.162-8.553-3.295-18.638-6.963-58.477-21.269-109.050-55.679-155.751-105.972-3.718-4.004-7.084-7.263-7.48-7.242-0.396 0.024-3.146 1.999-6.112 4.395zM228.389 648.266c-5.386 3.57-10.228 8.017-10.228 9.393 0 1.741 11.486 16.447 23.22 29.731 39.251 44.433 84.823 77.975 137.685 101.338 27.281 12.057 72.74 26.106 79.215 24.481 2.982-0.749 4.068-4.004 4.138-12.404l0.059-5.868-20.494-5.635c-41.284-11.351-73.738-25.875-108.903-48.734-7.692-5-16.914-11.315-20.494-14.033-20.808-15.799-52.861-47.572-69.069-68.465-5.339-6.883-9.959-12.545-10.266-12.582-0.307-0.048-2.491 1.213-4.854 2.778z" />
<glyph unicode="&#xe917;" glyph-name="eg-copt" d="M325.2 351.671l0.071-24.165 1.082-379.788h404.988l-1.153 403.953zM373.529 303.482h308.612l0.871-307.576h-308.612zM686.965 331.882l-315.6-333.318 26.259-24.847 315.6 333.318zM608.965 98.188c-7.297-0.809-16.156-2.352-24.447-7.788s-14.584-13.466-20.729-24.212c-4.796-8.385-7.919-8.849-16.753-10.141 2.056 0.301-5.982 1.818-12.306 5.953s-11.224 8.565-11.224 8.565l-24.353-26.706c0 0 6.731-6.18 15.812-12.118s20.209-13.958 37.294-11.459c13.738 2.009 32.348 9.471 42.918 27.953 4.673 8.171 7.652 10.945 9.153 11.929s2.971 1.469 8.612 2.094c-2.35-0.26 7.296-2.578 14.541-7.671s12.965-10.471 12.965-10.471l24.894 26.188c0 0-7.328 7.003-17.082 13.859s-21.053 16.045-39.294 14.024zM533.459 268.612l-120.824-0.541 0.165-36.141 120.824 0.541zM534.071 212.518l-120.824-0.541 0.165-36.141 120.824 0.541zM57.859 870.918v-780.518h286.871v36.141h-250.729v744.376zM965.247 870.988l-36.141-0.141 2.988-744.306h-220.047v-36.141h256.329zM82.447 531.388v-36.141h412.188v36.141zM585.294 531.388v-36.141h360.612v36.141zM599.812 905.012l-146.729-129.953h-370.635v-36.141h384.329l157.012 139.059zM624.824 775.059v-36.141h321.082v36.141zM469.765 594.847v-145.059h118.988v145.059zM505.906 558.706h46.706v-72.776h-46.706z" />
<glyph unicode="&#xe918;" glyph-name="eg-ct" d="M495.247 959.718v-1023.435h120.471v1023.435zM538.071 876.8v-108.424h216.847v108.424zM568.871 877.247c-112.616 0-203.051-14.123-271.976-47.929s-116.847-97.268-116.847-170.612c0-73.344 43.447-140.558 111.835-183.6s161.729-66.471 276.988-66.471v108.424c-100.208 0-174.179 21.462-219.224 49.812s-61.176 59.068-61.176 91.835c0 32.768 11.657 51.44 56.165 73.271s121.384 36.847 224.235 36.847zM568.871 494.988c-114.637 0-207.328-21.165-275.882-62.071s-112.941-107.221-112.941-180.565c0-73.344 46.734-137.678 115.576-173.694s160.009-52.259 273.247-52.259v108.424c-102.229 0-178.374 16.578-222.965 39.906s-57.435 44.856-57.435 77.624c0 32.768 15.192 60.68 60.071 87.459s119.499 46.753 220.329 46.753zM540.259 137.176v-108.424h216.847v108.424z" />
<glyph unicode="&#xe919;" glyph-name="eg-current-transformer-phase" d="M829.173 892.053v-530.071h108.424v530.071zM469.456 392.759c0-115.259 23.405-208.577 66.447-276.965s110.256-111.835 183.6-111.835c73.344 0 136.805 47.898 170.612 116.824s47.929 159.36 47.929 271.976h-108.424c0-102.851-15.017-179.728-36.847-224.235s-40.503-56.141-73.271-56.141c-32.768 0-63.485 16.108-91.835 61.153s-49.788 119.015-49.788 219.224zM86.185 392.759c0-113.323 16.532-204.559 52.847-273.388s100.774-115.412 174.118-115.412c73.344 0 139.659 44.364 180.565 112.918s62.071 161.245 62.071 275.882h-108.424c0-100.83-19.974-175.451-46.753-220.329s-54.691-60.047-87.459-60.047c-32.768 0-54.678 12.973-78.212 57.576s-40.329 120.655-40.329 222.8zM86.468 870.124v-505.976h108.424v505.976zM138.491 817.065c-66.323 0-120.471-54.148-120.471-120.471s54.148-120.471 120.471-120.471c66.323 0 120.471 54.148 120.471 120.471s-54.148 120.471-120.471 120.471zM138.491 781.441c47.066 0 84.847-37.781 84.847-84.847s-37.781-84.824-84.847-84.824c-47.066 0-84.847 37.757-84.847 84.824s37.781 84.847 84.847 84.847zM885.503 817.065c-66.323 0-120.471-54.148-120.471-120.471s54.148-120.471 120.471-120.471c66.323 0 120.471 54.148 120.471 120.471s-54.148 120.471-120.471 120.471zM885.503 781.441c47.066 0 84.847-37.781 84.847-84.847s-37.781-84.824-84.847-84.824c-47.066 0-84.824 37.757-84.824 84.824s37.757 84.847 84.824 84.847z" />
<glyph unicode="&#xe91a;" glyph-name="eg-current-transformer-winding" d="M822.118 475.012v-216.847h108.424v216.847zM712.447 833.035c-73.344 0-140.558-43.447-183.6-111.835s-66.447-161.706-66.447-276.965h108.424c0 100.208 21.438 174.179 49.788 219.224s59.068 61.153 91.835 61.153c32.768 0 51.44-11.634 73.271-56.141s36.847-121.384 36.847-224.235h108.424c0 112.616-14.123 203.051-47.929 271.976s-97.268 116.824-170.612 116.824zM306.094 833.035c-73.344 0-137.678-46.734-173.694-115.576s-52.259-159.985-52.259-273.224h108.424c0 102.229 16.578 178.374 39.906 222.965s44.856 57.412 77.624 57.412c32.768 0 60.68-15.168 87.459-60.047s46.753-119.499 46.753-220.329h108.424c0 114.637-21.165 207.328-62.071 275.882s-107.221 112.918-180.565 112.918zM80.376 474.235v-216.847h108.424v216.847z" />
<glyph unicode="&#xe91b;" glyph-name="eg-dfz" d="M52.568 861.537v-827.073h918.864v827.073zM4.38 909.725h1015.241v-923.45h-1015.241zM795.341 827.247l0.824-0.047c-13.916 0.725-26.202 0.627-37.765-0.824-5.781-0.725-11.315-1.649-18.118-4.024s-17.164-4.588-27.082-21.318v-0.024c-5.364-9.051-4.424-10.147-4.894-12.024s-0.685-3.071-0.894-4.235c-0.419-2.329-0.719-4.363-1.035-6.729-0.633-4.733-1.291-10.502-2.047-17.365-1.512-13.725-3.342-31.597-5.412-50.424-4.14-37.652-10.359-82.183-13.247-92.965l-10.094-37.741c-18.131 19.322-39.396 36.465-65.529 48.259-46.556 21.011-88.655 28.8-135.6 16.871-100.133-25.445-157.932-130.599-167.906-236.024-4.987-52.712 2.468-107.582 27.976-155.882s70.398-88.939 132.118-108.588l0.965-0.306 0.988-0.259c59.004-15.67 118.076-3.027 163.365 17.859 30.864 14.234 58.59 38.020 81.529 65.788 7.376-17.505 15.692-33.048 26.424-46.329 20.045-24.807 52.352-39.788 82.541-39.788 34.327 0 67.206 19.296 86.965 46.918s30.643 62.249 37.153 104.024c1.776 11.398 4.057 19.574 0.776 35.388-1.64 7.907-6.293 19.695-16.8 28.306s-23.193 10.824-31.012 10.824c-28.124 0-37.191-16.001-43.294-25.506s-9.487-18.931-11.529-29.576c-2.338-12.187-15.45-20.8-18.212-20.8-3.366 0-0.915-2.015-5.835 4.259s-12.943 22.597-19.765 48.871l-8.706 33.435c4.616 13.711 31.623 93.612 46.871 144.8 25.517 85.664 60.212 252.282 60.212 252.282l10.306 49.176-114.235 3.718zM521.318 509.882c7.31 0.069 14.881-1.944 23.718-6.518 17.674-9.148 41.58-32.433 64.141-80.918 8.078-17.361 15.106-57.772 9.647-89.929s-16.983-52.237-43.153-60.447c-45.269-14.201-71.769-6.134-93.224 12.965s-37.922 55.083-40.8 102.353l-0.047 0.894-0.094 0.871c-4.692 45.648 26.728 99.741 57.718 114.753 7.747 3.753 14.784 5.907 22.094 5.976zM357.482 382.282c0.025-0.419 0.138-0.805 0.165-1.224 0.018-0.183-0.042-0.358-0.024-0.541l-0.141 1.765zM209.658 398.368l-130.71-252.582h47.363l83.612 152.108 84.406-152.108h47.363zM112.235 183.553l-0.4-49.388c93.52-0.727 188.847-0.541 188.847-0.541l-0.376 73.482c0 0-94.679-0.184-188.071 0.541z" />
<glyph unicode="&#xe91c;" glyph-name="eg-disconnector" d="M291.624 963.976v-94.424h576.306v94.424zM844.941 720.306l-378.635-539.882 1.129-244.188 84.329 0.376-1.012 217.365 363.224 517.906z" />
<glyph unicode="&#xe91d;" glyph-name="eg-dz" d="M170.314 221.34v55.66l223.719 290.36q23.832 30.922 45.28 53.805h-243.678v53.496h312.79v-53.496l-245.168-314.48-26.513-31.85h278.83v-53.496h-345.26zM564.43 419.552v51.949l289.256 126.781v-55.351l-229.379-97.714 229.379-98.642v-55.351l-289.256 128.327zM52.568 861.537v-827.073h918.864v827.073zM4.38 909.725h1015.241v-923.45h-1015.241z" />
<glyph unicode="&#xe91e;" glyph-name="eg-efn" d="M474.353 278.118v-155.647h75.294v155.647zM319.247 164.988v-60.235h385.506v60.235zM367.435 80.659v-60.235h289.129v60.235zM445.741-3.671v-60.235h132.518v60.235zM527.435 958.988c-50.969 0-95.007-7.637-130.659-29.294s-59.624-62.15-59.624-105.765c0-42.632 18.609-84.051 51.906-112.588s79.785-44.165 134.047-44.165v84.329c-38.322 0-63.733 10.623-79.176 23.859s-22.447 29.108-22.447 48.565c0 18.475 3.801 24.425 19.059 33.694s45.279 17.035 86.894 17.035zM509.412 959.929v-85.365h135.529v85.365zM523.106 690.4c-49.946 0-92.111-5.315-127.365-25.247s-58.588-60.45-58.588-103.082c0-42.632 22.381-83.167 57.388-104.518s77.96-28.141 128.565-28.141v84.329c-41.979 0-70.925 7.436-84.659 15.812s-16.965 13.061-16.965 32.518c0 19.457 2.278 22.045 15.765 29.671s43.221 14.329 85.859 14.329zM523.106 452.635c-49.946 0-92.111-5.315-127.365-25.247s-58.588-60.45-58.588-103.082c0-42.632 22.381-83.167 57.388-104.518s77.96-28.141 128.565-28.141v84.329c-41.979 0-70.925 7.436-84.659 15.812s-16.965 13.061-16.965 32.518c0 19.457 2.278 22.045 15.765 29.671s43.221 14.329 85.859 14.329z" />
<glyph unicode="&#xe91f;" glyph-name="eg-fan" d="M512 984.071c-295.568 0-536.071-240.503-536.071-536.071s240.503-536.071 536.071-536.071c295.568 0 536.071 240.503 536.071 536.071s-240.503 536.071-536.071 536.071zM512 899.741c249.993 0 451.741-201.748 451.741-451.741s-201.748-451.741-451.741-451.741c-249.993 0-451.741 201.748-451.741 451.741s201.748 451.741 451.741 451.741zM528.706 884.353l-9.553-72.8-42.447-323.176-353.6-152.071 378.8-303.788 52.165 397.341 361.035 155.247zM593.2 727.765l157.153-121.718-183.506-78.918zM463.929 391.082l-26.118-199.035-152.447 122.235z" />
<glyph unicode="&#xe920;" glyph-name="eg-fgc" d="M546.682 936.729c-8.601-0.374-14.179-3.535-17.035-9.224s-3.271-13.393-3.271-23.435c0-7.396-0.177-12.926-0.729-16.329-0.276-1.702-0.687-2.862-0.988-3.341s-0.104-0.325-0.306-0.306c-0.202 0.019-1.035 0.343-2.165 1.271s-2.559 2.383-4.259 4.353c-3.399 3.939-7.882 9.914-13.647 17.859-6.090 8.393-11.148 14.822-17.106 19.294s-12.813 6.841-21.906 7.082c-18.187 0.482-45.539-7.081-96.871-22.118-56.98-16.692-113.777-44.967-156.424-74.988-21.323-15.010-39.097-30.455-51.624-45.176s-19.906-28.732-19.906-41.176c0-14.089-10.901-25.506-24.094-25.506-11.86 0-23.663-10.155-35.082-26.541s-22.485-39.317-32.212-65.906c-19.453-53.178-33.541-121.025-33.718-180.353-0.145-48.796 0.597-75.672 6.118-90.376 2.76-7.352 7.031-11.782 12.824-13.624s12.791-1.285 21.576 0.165c9.428 1.556 16.503 2.689 21.106 3.082 2.279 0.195 3.955 0.167 4.847 0.024-0.098-0.157-0.080-0.22-0.753-0.988-0.974-1.111-2.6-2.638-4.8-4.494-4.401-3.712-11.136-8.848-20.141-15.647-9.040-6.826-15.907-12.109-20.541-17.812s-6.906-11.952-6.494-19.835c0.825-15.767 11.522-38.196 32.588-82.047 26.403-54.961 67.989-108.826 109.412-147.388 20.711-19.281 41.376-34.745 60.165-44.588s35.764-14.176 49.2-10.635c10.666 2.811 19.282 2.541 24.965-0.024s8.706-7.17 8.706-14.4c0-9.7 6.473-18.052 17.859-24.753s27.835-12.011 48.847-15.976c42.025-7.93 102.291-10.429 175.953-6.612h0.047l0.071 0.024c318.173 36.873 462.544 300.193 437.294 514.023-1.453 53.060-17.272 118.873-38.235 171.6-10.481 26.364-22.229 49.442-34.212 66.047s-24.222 27.035-36.306 27.035c-7.508 0-12.616 2.65-15.341 6.871s-3.182 10.302-0.376 17.671c3.986 10.466-1.325 23.584-12.424 37.859s-28.256 29.922-49.341 45.435c-42.17 31.026-99.981 61.501-155.859 78.447-57.563 17.457-88.209 26.206-105.412 25.459zM546.847 932.871c15.638 0.68 46.582-7.869 104.118-25.318 55.352-16.787 112.899-47.117 154.682-77.859 20.892-15.371 37.839-30.857 48.588-44.682s15.028-25.772 11.859-34.094c-3.114-8.177-2.785-15.673 0.753-21.153s10.139-8.659 18.588-8.659c9.758 0 21.464-9.214 33.153-25.412s23.364-39.064 33.765-65.224c20.801-52.319 36.542-117.907 37.976-170.282v-0.165c25.093-211.756-117.561-473.172-433.765-509.882-73.466-3.807-133.506-1.291-175.012 6.541-20.753 3.916-36.88 9.183-47.624 15.506s-15.953 13.418-15.953 21.412c0 8.405-4.090 14.817-10.988 17.929s-16.32 3.189-27.529 0.235c-11.874-3.129-28.078 0.718-46.424 10.329s-38.792 24.869-59.318 43.977c-41.051 38.217-82.422 91.816-108.565 146.235-21.061 43.84-31.472 66.435-32.212 80.588-0.37 7.077 1.463 12.027 5.647 17.176s10.841 10.368 19.859 17.176c9.010 6.803 15.759 11.93 20.306 15.765 2.273 1.918 4.010 3.511 5.224 4.894s2.169 2.506 2.024 4.306c-0.073 0.9-0.66 1.815-1.341 2.282s-1.396 0.672-2.165 0.8c-1.537 0.257-3.414 0.209-5.859 0-4.889-0.418-11.976-1.572-21.412-3.129-8.594-1.418-15.077-1.773-19.765-0.282s-7.878 4.64-10.376 11.294c-4.997 13.308-6.004 40.243-5.859 88.988 0.175 58.722 14.187 126.313 33.482 179.059 9.648 26.373 20.621 49.055 31.741 65.012s22.35 24.871 31.906 24.871c15.422 0 27.953 13.295 27.953 29.388 0 10.879 6.769 24.299 18.988 38.659s29.788 29.644 50.918 44.518c42.259 29.748 98.758 57.892 155.271 74.447 51.307 15.030 78.71 22.403 95.694 21.953 8.492-0.225 14.306-2.28 19.671-6.306s10.266-10.147 16.306-18.471c5.783-7.969 10.274-13.967 13.835-18.094 1.781-2.064 3.336-3.66 4.753-4.824s2.707-1.998 4.259-2.141c1.551-0.144 3.128 0.82 3.929 2.094s1.212 2.845 1.529 4.8c0.635 3.91 0.776 9.491 0.776 16.941 0 9.911 0.606 17.184 2.871 21.694s5.922 6.766 13.741 7.106zM622.899 5.341c89.806 44.567 44.597 133.847 30.844 261.476l-40.241 373.419-182.022-362.68c-110.897-220.962-65.026-266.442-39.508-278.491 30.765-14.526 212.86-2.69 230.927 6.276zM614.729 646.988l-184.988-368.565c-55.52-110.624-71.912-177.438-71.106-218.494s19.313-56.377 32.518-62.612c8.45-3.99 25.51-5.792 47.271-6.588s48.007-0.404 73.859 0.729c25.851 1.134 51.289 3.004 71.435 5.153 10.073 1.075 18.839 2.224 25.671 3.388s11.614 2.229 14.376 3.6c22.74 11.285 37.133 25.555 45.506 42.588s10.717 36.717 9.812 58.824c-1.811 44.212-16.554 98.386-23.412 162.024zM612.282 633.506l39.529-366.894c6.896-63.991 21.631-118.288 23.412-161.765 0.89-21.738-1.434-40.712-9.412-56.941s-21.602-29.825-43.765-40.824c-1.754-0.871-6.612-2.128-13.318-3.271s-15.392-2.272-25.412-3.341c-20.039-2.138-45.424-4.023-71.2-5.153s-51.954-1.519-73.553-0.729c-21.599 0.79-38.832 2.962-45.765 6.235-12.313 5.814-29.498 19.24-30.282 59.176s15.306 106.345 70.682 216.682zM396.53 320.873l200.55 325.789-305.68-177.322c-263.453-152.827-215.159-180.183-187.087-235.174 24.9-48.777 134.665-172.228 153.135-172.228 6.060 0 68.647 116.521 139.082 258.935zM596.118 648.329l-305.694-177.318c-131.814-76.464-185.82-121.404-203.6-155.035-8.89-16.816-8.481-30.933-4-43.976s12.819-25.101 19.765-38.706c12.673-24.826 46.325-67.796 79.247-104.824 16.461-18.514 32.722-35.504 46.071-47.906 6.674-6.201 12.626-11.251 17.553-14.8s8.612-5.765 12-5.765c0.965 0 1.429 0.387 1.882 0.729s0.864 0.748 1.318 1.247c0.908 0.997 1.959 2.372 3.2 4.141 2.481 3.539 5.724 8.674 9.647 15.271 7.847 13.194 18.447 32.214 31.059 55.694 25.202 46.92 58.432 111.626 93.624 182.776l200.541 325.788zM591.412 641.153l-196.612-319.412c-35.21-71.191-68.454-135.92-93.647-182.824-12.597-23.452-23.195-42.449-30.988-55.553-3.897-6.552-7.106-11.646-9.482-15.035-1.188-1.695-2.161-2.962-2.871-3.741-0.265-0.291-0.43-0.45-0.588-0.588-1.319 0.077-4.91 1.607-9.505 4.918-4.709 3.392-10.574 8.36-17.176 14.494-13.205 12.269-29.41 29.201-45.812 47.647-32.803 36.893-66.456 80.025-78.682 103.976-7.091 13.89-15.317 25.884-19.553 38.212s-4.694 24.917 3.765 40.918c16.918 32.001 70.479 77.144 202.118 153.506zM932.433 293.534c7.155 27.572-37.109 21.132-120.731 113.092-63.929 70.303-172.673 240.475-177.591 235.519-8.879-8.947 116.599-498.402 134.716-554.255 6.911-21.306 29.369-13.423 82.909 46.887 40.311 45.409 75.227 137.678 80.697 158.757zM634.518 644.188c-0.535 0.030-1.31-0.201-1.788-0.682-0.628-0.633-0.737-1.191-0.847-1.741s-0.152-1.145-0.165-1.812c-0.025-1.334 0.107-3.016 0.329-5.106 0.445-4.18 1.346-9.954 2.659-17.153 2.626-14.399 6.88-34.472 12.282-58.494 10.804-48.044 26.206-111.818 42.471-177.059 32.528-130.481 68.363-266.589 77.529-294.847 1.834-5.653 4.91-9.828 9.553-11.388s10.322-0.445 17.153 3.106c13.662 7.101 32.651 24.246 59.482 54.471 20.404 22.984 39.248 57.519 53.741 88.988s24.574 59.744 27.388 70.588c1.906 7.345 0.215 13.13-4.541 18.165s-12.313 9.672-22.612 16.329c-20.598 13.314-52.342 34.539-94.024 80.376-31.809 34.981-74.992 95.087-110.776 145.788-17.892 25.35-33.93 48.37-45.835 64.753-5.953 8.191-10.87 14.723-14.494 19.106-1.812 2.191-3.279 3.828-4.494 4.941-0.608 0.557-1.141 0.989-1.788 1.318-0.323 0.164-0.688 0.323-1.224 0.353zM635.671 638.824c0.913-0.916 1.935-1.989 3.365-3.718 3.514-4.25 8.42-10.754 14.353-18.918 11.865-16.327 27.912-39.345 45.812-64.706 35.799-50.721 78.939-110.842 111.059-146.165 41.941-46.123 74.149-67.663 94.8-81.012 10.325-6.674 17.739-11.355 21.882-15.741s5.295-8.101 3.624-14.541c-2.656-10.235-12.767-38.642-27.176-69.929s-33.198-65.599-53.106-88.024c-26.708-30.086-45.697-47.033-58.376-53.624-6.34-3.295-10.933-3.94-14.118-2.871s-5.507 3.917-7.129 8.918c-8.951 27.595-44.915 164.142-77.435 294.588-16.26 65.223-31.679 128.974-42.471 176.965-5.396 23.995-9.628 44.054-12.235 58.353-1.304 7.149-2.209 12.871-2.635 16.871-0.164 1.541-0.187 2.563-0.212 3.553zM292.595 518.129c131.934 76.836 301.090 154.106 277.056 156.649-20.908 2.212-214.724 14.765-296.714 9.668l-149.238-9.278-29.253-73.673c-26.619-67.038-40.466-189.554-21.425-189.554 4.306 0 104.801 39.347 219.574 106.188zM272.824 686.376l-150.471-9.341-29.718-74.824c-13.416-33.788-23.526-81.26-27.953-120.424-2.213-19.582-3.004-37.062-2.024-49.812 0.49-6.375 1.395-11.557 2.918-15.365 0.761-1.904 1.675-3.471 2.894-4.659s2.832-1.953 4.541-1.953c1.007 0 1.445 0.222 2.494 0.541s2.408 0.779 4.118 1.388c3.42 1.219 8.167 3.039 14.094 5.412 11.853 4.746 28.441 11.763 48.471 20.871 40.059 18.215 93.933 44.774 151.388 78.235 65.9 38.379 141.15 76.893 196.941 106.141 27.896 14.624 50.899 26.931 65.529 35.788 7.315 4.429 12.51 7.936 15.365 10.706 1.427 1.385 2.606 2.5 2.471 4.494-0.067 0.997-0.786 1.974-1.553 2.424s-1.562 0.61-2.471 0.706c-21.391 2.263-214.66 14.792-297.035 9.671zM273.059 682.518c81.605 5.074 275.952-7.509 296.376-9.671 0.088-0.009 0.065-0.011 0.141-0.024-0.133-0.188-0.107-0.224-0.871-0.965-2.311-2.242-7.434-5.791-14.659-10.165-14.449-8.747-37.46-21.055-65.341-35.671-55.761-29.232-131.048-67.755-197.082-106.212-57.316-33.38-111.077-59.902-151.035-78.071-19.979-9.084-36.519-16.080-48.306-20.8-5.894-2.36-10.605-4.171-13.953-5.365-1.674-0.597-3-1.028-3.953-1.318s-1.833-0.376-1.365-0.376c-0.671 0-1.178 0.207-1.835 0.847s-1.369 1.741-2 3.318c-1.261 3.154-2.185 8.077-2.659 14.235-0.947 12.317-0.172 29.655 2.024 49.082 4.392 38.854 14.492 86.162 27.694 119.412l28.8 72.541zM937.015 599.603c-26.18 83.154-22.411 89.181-77.831 88.773-31.879-0.235-180.255-1.309-192.201-20.588-7.99-12.894 67.895-140.575 167.495-231.511 108.97-99.491 106.48-82.554 124.393-14.142 5.632 21.507-6.801 129.647-21.857 177.468zM859.176 690.306c-15.939-0.117-61.046-0.44-103.694-3.153-21.324-1.356-42.019-3.303-58.235-6.141-8.108-1.419-15.107-3.052-20.541-4.988s-9.401-4.054-11.365-7.224c-0.869-1.402-0.983-3.015-0.824-4.894s0.657-4.076 1.435-6.612c1.557-5.072 4.292-11.539 8.094-19.2 7.605-15.321 19.48-35.377 34.729-57.882 30.498-45.011 74.448-99.758 124.4-145.365 27.26-24.889 47.549-42.51 63.035-53.929s26.14-16.807 34.659-16.612c4.259 0.098 7.912 1.743 10.847 4.612s5.221 6.875 7.271 11.835c4.099 9.921 7.294 23.821 11.765 40.894 1.553 5.931 1.741 16.68 1.129 30.659s-2.111 31.028-4.259 48.918c-4.295 35.779-11.146 74.801-18.753 98.965-13.078 41.539-18.532 63.849-28.282 76.329-4.875 6.24-10.946 9.863-19.106 11.741s-18.416 2.149-32.306 2.047zM859.201 686.447c13.82 0.101 23.873-0.217 31.412-1.953s12.535-4.743 16.918-10.353c8.766-11.22 14.545-33.514 27.647-75.129 7.448-23.657 14.335-62.612 18.612-98.235 2.138-17.812 3.629-34.819 4.235-48.659s0.228-24.659-1.035-29.482c-4.486-17.133-7.699-31.014-11.576-40.4-1.939-4.693-4.047-8.242-6.4-10.541s-4.876-3.429-8.235-3.506c-6.719-0.154-17.004 4.587-32.259 15.835s-35.504 28.837-62.729 53.694c-49.647 45.329-93.441 99.871-123.788 144.659-15.173 22.394-27.005 42.372-34.494 57.459-3.744 7.544-6.406 13.878-7.859 18.612-0.727 2.367-1.147 4.336-1.271 5.788s0.129 2.331 0.259 2.541c1.023 1.65 4.297 3.786 9.388 5.6s11.902 3.427 19.882 4.824c15.96 2.793 36.588 4.743 57.835 6.094 42.495 2.703 87.519 3.036 103.459 3.153zM616.188 716.165c-12.083 1.98-24.395-1.23-32.259-12.541l-0.024-0.047-0.047-0.047c-10.89-17.756-12.566-33.045-4.965-43.812s23.743-16.376 47.035-16.376h0.212l0.212 0.047c20.813 4.777 31.219 13.804 33.812 24.306s-2.658 21.659-11.247 30.612c-8.589 8.953-20.646 15.879-32.729 17.859zM615.553 712.329c11.053-1.811 22.549-8.351 30.565-16.706s12.423-18.342 10.282-27.012c-2.129-8.624-10.844-16.747-30.682-21.365-22.518 0.042-37.217 5.598-43.647 14.706-6.447 9.132-5.36 22.455 5.082 39.506 6.998 10.016 17.369 12.678 28.4 10.871zM591.037 710.655c0 30.646-104.861 191.479-127.521 191.479-35.839 0-193.705-47.176-295.202-165.357 138.418 1.873 246.124-6.877 361.128-23.656 7.96-1.346 61.595-7.202 61.595-2.466zM463.506 904.071c-9.385 0-25.979-2.995-47.506-9.294s-47.873-15.92-76.282-29.247c-56.818-26.653-121.882-68.112-172.871-127.482l-2.8-3.271 4.282 0.071c138.313 1.872 245.881-6.881 360.8-23.647 4.23-0.715 19.488-2.485 33.953-3.529 7.233-0.522 14.215-0.851 19.482-0.753 2.634 0.049 4.82 0.185 6.518 0.518 0.849 0.166 1.58 0.367 2.282 0.753s1.6 1.261 1.6 2.471c0 4.383-1.732 10.313-4.682 17.741s-7.145 16.266-12.259 26c-10.227 19.468-24.081 42.5-38.635 64.565s-29.802 43.153-42.894 58.799c-6.546 7.823-12.56 14.282-17.718 18.847s-9.292 7.459-13.271 7.459zM463.506 900.188c1.687 0 5.792-2.121 10.706-6.471s10.823-10.713 17.294-18.447c12.942-15.467 28.165-36.473 42.659-58.447s28.281-44.905 38.424-64.212c5.071-9.653 9.221-18.414 12.094-25.647 2.74-6.898 4.076-12.206 4.212-15.553-0.195-0.060-0.243-0.106-0.541-0.165-1.266-0.248-3.34-0.4-5.859-0.447-5.038-0.094-11.958 0.212-19.129 0.729-14.343 1.036-29.87 2.875-33.6 3.506h-0.048c-113.7 16.589-220.761 25.153-356.894 23.553 50.070 57.050 113.158 97.455 168.541 123.435 28.224 13.24 54.393 22.796 75.718 29.035s37.889 9.129 46.424 9.129zM844.182 746.529c-19.785 68.312-120.415 130.091-214.944 152.744-40.723 12.453-81.043-0.679-68.508-41.715 7.673-25.118 69.339-141.168 71.033-141.484 56.557-10.554 157.514 8.762 212.419 30.456zM599.553 905.741c-9.541-0.123-18.271-1.93-25.412-5.529s-12.688-9.086-15.529-16.376c-2.842-7.29-2.968-16.283 0.259-26.847 2.008-6.574 7.312-18.473 14.212-32.918s15.394-31.327 23.694-47.435c8.3-16.108 16.393-31.444 22.541-42.776 3.074-5.666 5.676-10.324 7.553-13.6 0.938-1.638 1.687-2.945 2.259-3.859 0.286-0.457 0.515-0.81 0.729-1.106 0.107-0.148 0.213-0.27 0.353-0.424 0.070-0.077 0.141-0.168 0.282-0.282 0.071-0.057 0.172-0.113 0.306-0.188s0.605-0.234 0.612-0.235c57.385-10.708 158.188 8.717 213.482 30.565l1.647 0.635-0.494 1.694c-10.093 34.849-40.542 67.598-80.212 94.565-39.664 26.963-88.623 48.145-136.118 59.529h-0.024c-10.316 3.142-20.637 4.71-30.141 4.588zM599.624 901.812c9.080 0.12 19.055-1.341 29.059-4.4h0.047l0.047-0.023c47.028-11.27 95.647-32.301 134.871-58.965 38.498-26.171 67.645-57.788 77.882-90.588-54.668-21.225-153.421-39.978-208.753-29.906-0.111 0.166-0.196 0.29-0.353 0.541-0.521 0.833-1.287 2.080-2.212 3.694-1.85 3.229-4.417 7.879-7.482 13.529-6.131 11.301-14.23 26.622-22.518 42.706s-16.774 32.952-23.647 47.341c-6.874 14.389-12.149 26.392-13.977 32.376-3.041 9.954-2.818 18.005-0.353 24.329s7.185 11.049 13.647 14.306c6.462 3.257 14.661 4.939 23.741 5.059z" />
<glyph unicode="&#xe921;" glyph-name="eg-fgc-alter" d="M546.682 936.729c-8.601-0.374-14.179-3.535-17.035-9.224s-3.271-13.393-3.271-23.435c0-7.396-0.177-12.926-0.729-16.329-0.276-1.702-0.687-2.862-0.988-3.341s-0.104-0.325-0.306-0.306c-0.202 0.019-1.035 0.343-2.165 1.271s-2.559 2.383-4.259 4.353c-3.399 3.939-7.882 9.914-13.647 17.859-6.090 8.393-11.148 14.822-17.106 19.294s-12.813 6.841-21.906 7.082c-18.187 0.482-45.539-7.081-96.871-22.118-56.98-16.692-113.777-44.967-156.424-74.988-21.323-15.010-39.097-30.455-51.624-45.176s-19.906-28.732-19.906-41.176c0-14.089-10.901-25.506-24.094-25.506-11.86 0-23.663-10.155-35.082-26.541s-22.485-39.317-32.212-65.906c-19.453-53.178-33.541-121.025-33.718-180.353-0.145-48.796 0.597-75.672 6.118-90.376 2.76-7.352 7.031-11.782 12.824-13.624s12.791-1.285 21.576 0.165c9.428 1.556 16.503 2.689 21.106 3.082 2.279 0.195 3.955 0.167 4.847 0.024-0.098-0.157-0.080-0.22-0.753-0.988-0.974-1.111-2.6-2.638-4.8-4.494-4.401-3.712-11.136-8.848-20.141-15.647-9.040-6.826-15.907-12.109-20.541-17.812s-6.906-11.952-6.494-19.835c0.825-15.767 11.522-38.196 32.588-82.047 26.403-54.961 67.989-108.826 109.412-147.388 20.711-19.281 41.376-34.745 60.165-44.588s35.764-14.176 49.2-10.635c10.666 2.811 19.282 2.541 24.965-0.024s8.706-7.17 8.706-14.4c0-9.7 6.473-18.052 17.859-24.753s27.835-12.011 48.847-15.976c42.025-7.93 102.291-10.429 175.953-6.612h0.047l0.071 0.024c318.173 36.873 462.544 300.193 437.294 514.023-1.453 53.060-17.272 118.873-38.235 171.6-10.481 26.364-22.229 49.442-34.212 66.047s-24.222 27.035-36.306 27.035c-7.508 0-12.616 2.65-15.341 6.871s-3.182 10.302-0.376 17.671c3.986 10.466-1.325 23.584-12.424 37.859s-28.256 29.922-49.341 45.435c-42.17 31.026-99.981 61.501-155.859 78.447-57.563 17.457-88.209 26.206-105.412 25.459zM546.847 932.871c15.638 0.68 46.582-7.869 104.118-25.318 55.352-16.787 112.899-47.117 154.682-77.859 20.892-15.371 37.839-30.857 48.588-44.682s15.028-25.772 11.859-34.094c-3.114-8.177-2.785-15.673 0.753-21.153s10.139-8.659 18.588-8.659c9.758 0 21.464-9.214 33.153-25.412s23.364-39.064 33.765-65.224c20.801-52.319 36.542-117.907 37.976-170.282v-0.165c25.093-211.756-117.561-473.172-433.765-509.882-73.466-3.807-133.506-1.291-175.012 6.541-20.753 3.916-36.88 9.183-47.624 15.506s-15.953 13.418-15.953 21.412c0 8.405-4.090 14.817-10.988 17.929s-16.32 3.189-27.529 0.235c-11.874-3.129-28.078 0.718-46.424 10.329s-38.792 24.869-59.318 43.977c-41.051 38.217-82.422 91.816-108.565 146.235-21.061 43.84-31.472 66.435-32.212 80.588-0.37 7.077 1.463 12.027 5.647 17.176s10.841 10.368 19.859 17.176c9.010 6.803 15.759 11.93 20.306 15.765 2.273 1.918 4.010 3.511 5.224 4.894s2.169 2.506 2.024 4.306c-0.073 0.9-0.66 1.815-1.341 2.282s-1.396 0.672-2.165 0.8c-1.537 0.257-3.414 0.209-5.859 0-4.889-0.418-11.976-1.572-21.412-3.129-8.594-1.418-15.077-1.773-19.765-0.282s-7.878 4.64-10.376 11.294c-4.997 13.308-6.004 40.243-5.859 88.988 0.175 58.722 14.187 126.313 33.482 179.059 9.648 26.373 20.621 49.055 31.741 65.012s22.35 24.871 31.906 24.871c15.422 0 27.953 13.295 27.953 29.388 0 10.879 6.769 24.299 18.988 38.659s29.788 29.644 50.918 44.518c42.259 29.748 98.758 57.892 155.271 74.447 51.307 15.030 78.71 22.403 95.694 21.953 8.492-0.225 14.306-2.28 19.671-6.306s10.266-10.147 16.306-18.471c5.783-7.969 10.274-13.967 13.835-18.094 1.781-2.064 3.336-3.66 4.753-4.824s2.707-1.998 4.259-2.141c1.551-0.144 3.128 0.82 3.929 2.094s1.212 2.845 1.529 4.8c0.635 3.91 0.776 9.491 0.776 16.941 0 9.911 0.606 17.184 2.871 21.694s5.922 6.766 13.741 7.106zM622.899 5.341c89.806 44.567 44.597 133.847 30.844 261.476l-40.241 373.419-182.022-362.68c-110.897-220.962-65.026-266.442-39.508-278.491 30.765-14.526 212.86-2.69 230.927 6.276zM614.729 646.988l-184.988-368.565c-55.52-110.624-71.912-177.438-71.106-218.494s19.313-56.377 32.518-62.612c8.45-3.99 25.51-5.792 47.271-6.588s48.007-0.404 73.859 0.729c25.851 1.134 51.289 3.004 71.435 5.153 10.073 1.075 18.839 2.224 25.671 3.388s11.614 2.229 14.376 3.6c22.74 11.285 37.133 25.555 45.506 42.588s10.717 36.717 9.812 58.824c-1.811 44.212-16.554 98.386-23.412 162.024zM612.282 633.506l39.529-366.894c6.896-63.991 21.631-118.288 23.412-161.765 0.89-21.738-1.434-40.712-9.412-56.941s-21.602-29.825-43.765-40.824c-1.754-0.871-6.612-2.128-13.318-3.271s-15.392-2.272-25.412-3.341c-20.039-2.138-45.424-4.023-71.2-5.153s-51.954-1.519-73.553-0.729c-21.599 0.79-38.832 2.962-45.765 6.235-12.313 5.814-29.498 19.24-30.282 59.176s15.306 106.345 70.682 216.682zM396.53 320.873l200.55 325.789-305.68-177.322c-263.453-152.827-215.159-180.183-187.087-235.174 24.9-48.777 134.665-172.228 153.135-172.228 6.060 0 68.647 116.521 139.082 258.935zM596.118 648.329l-305.694-177.318c-131.814-76.464-185.82-121.404-203.6-155.035-8.89-16.816-8.481-30.933-4-43.976s12.819-25.101 19.765-38.706c12.673-24.826 46.325-67.796 79.247-104.824 16.461-18.514 32.722-35.504 46.071-47.906 6.674-6.201 12.626-11.251 17.553-14.8s8.612-5.765 12-5.765c0.965 0 1.429 0.387 1.882 0.729s0.864 0.748 1.318 1.247c0.908 0.997 1.959 2.372 3.2 4.141 2.481 3.539 5.724 8.674 9.647 15.271 7.847 13.194 18.447 32.214 31.059 55.694 25.202 46.92 58.432 111.626 93.624 182.776l200.541 325.788zM591.412 641.153l-196.612-319.412c-35.21-71.191-68.454-135.92-93.647-182.824-12.597-23.452-23.195-42.449-30.988-55.553-3.897-6.552-7.106-11.646-9.482-15.035-1.188-1.695-2.161-2.962-2.871-3.741-0.265-0.291-0.43-0.45-0.588-0.588-1.319 0.077-4.91 1.607-9.505 4.918-4.709 3.392-10.574 8.36-17.176 14.494-13.205 12.269-29.41 29.201-45.812 47.647-32.803 36.893-66.456 80.025-78.682 103.976-7.091 13.89-15.317 25.884-19.553 38.212s-4.694 24.917 3.765 40.918c16.918 32.001 70.479 77.144 202.118 153.506zM932.433 293.534c7.155 27.572-37.109 21.132-120.731 113.092-63.929 70.303-172.673 240.475-177.591 235.519-8.879-8.947 116.599-498.402 134.716-554.255 6.911-21.306 29.369-13.423 82.909 46.887 40.311 45.409 75.227 137.678 80.697 158.757zM634.518 644.188c-0.535 0.030-1.31-0.201-1.788-0.682-0.628-0.633-0.737-1.191-0.847-1.741s-0.152-1.145-0.165-1.812c-0.025-1.334 0.107-3.016 0.329-5.106 0.445-4.18 1.346-9.954 2.659-17.153 2.626-14.399 6.88-34.472 12.282-58.494 10.804-48.044 26.206-111.818 42.471-177.059 32.528-130.481 68.363-266.589 77.529-294.847 1.834-5.653 4.91-9.828 9.553-11.388s10.322-0.445 17.153 3.106c13.662 7.101 32.651 24.246 59.482 54.471 20.404 22.984 39.248 57.519 53.741 88.988s24.574 59.744 27.388 70.588c1.906 7.345 0.215 13.13-4.541 18.165s-12.313 9.672-22.612 16.329c-20.598 13.314-52.342 34.539-94.024 80.376-31.809 34.981-74.992 95.087-110.776 145.788-17.892 25.35-33.93 48.37-45.835 64.753-5.953 8.191-10.87 14.723-14.494 19.106-1.812 2.191-3.279 3.828-4.494 4.941-0.608 0.557-1.141 0.989-1.788 1.318-0.323 0.164-0.688 0.323-1.224 0.353zM635.671 638.824c0.913-0.916 1.935-1.989 3.365-3.718 3.514-4.25 8.42-10.754 14.353-18.918 11.865-16.327 27.912-39.345 45.812-64.706 35.799-50.721 78.939-110.842 111.059-146.165 41.941-46.123 74.149-67.663 94.8-81.012 10.325-6.674 17.739-11.355 21.882-15.741s5.295-8.101 3.624-14.541c-2.656-10.235-12.767-38.642-27.176-69.929s-33.198-65.599-53.106-88.024c-26.708-30.086-45.697-47.033-58.376-53.624-6.34-3.295-10.933-3.94-14.118-2.871s-5.507 3.917-7.129 8.918c-8.951 27.595-44.915 164.142-77.435 294.588-16.26 65.223-31.679 128.974-42.471 176.965-5.396 23.995-9.628 44.054-12.235 58.353-1.304 7.149-2.209 12.871-2.635 16.871-0.164 1.541-0.187 2.563-0.212 3.553zM292.595 518.129c131.934 76.836 301.090 154.106 277.056 156.649-20.908 2.212-214.724 14.765-296.714 9.668l-149.238-9.278-29.253-73.673c-26.619-67.038-40.466-189.554-21.425-189.554 4.306 0 104.801 39.347 219.574 106.188zM272.824 686.376l-150.471-9.341-29.718-74.824c-13.416-33.788-23.526-81.26-27.953-120.424-2.213-19.582-3.004-37.062-2.024-49.812 0.49-6.375 1.395-11.557 2.918-15.365 0.761-1.904 1.675-3.471 2.894-4.659s2.832-1.953 4.541-1.953c1.007 0 1.445 0.222 2.494 0.541s2.408 0.779 4.118 1.388c3.42 1.219 8.167 3.039 14.094 5.412 11.853 4.746 28.441 11.763 48.471 20.871 40.059 18.215 93.933 44.774 151.388 78.235 65.9 38.379 141.15 76.893 196.941 106.141 27.896 14.624 50.899 26.931 65.529 35.788 7.315 4.429 12.51 7.936 15.365 10.706 1.427 1.385 2.606 2.5 2.471 4.494-0.067 0.997-0.786 1.974-1.553 2.424s-1.562 0.61-2.471 0.706c-21.391 2.263-214.66 14.792-297.035 9.671zM273.059 682.518c81.605 5.074 275.952-7.509 296.376-9.671 0.088-0.009 0.065-0.011 0.141-0.024-0.133-0.188-0.107-0.224-0.871-0.965-2.311-2.242-7.434-5.791-14.659-10.165-14.449-8.747-37.46-21.055-65.341-35.671-55.761-29.232-131.048-67.755-197.082-106.212-57.316-33.38-111.077-59.902-151.035-78.071-19.979-9.084-36.519-16.080-48.306-20.8-5.894-2.36-10.605-4.171-13.953-5.365-1.674-0.597-3-1.028-3.953-1.318s-1.833-0.376-1.365-0.376c-0.671 0-1.178 0.207-1.835 0.847s-1.369 1.741-2 3.318c-1.261 3.154-2.185 8.077-2.659 14.235-0.947 12.317-0.172 29.655 2.024 49.082 4.392 38.854 14.492 86.162 27.694 119.412l28.8 72.541zM937.015 599.603c-26.18 83.154-22.411 89.181-77.831 88.773-31.879-0.235-180.255-1.309-192.201-20.588-7.99-12.894 67.895-140.575 167.495-231.511 108.97-99.491 106.48-82.554 124.393-14.142 5.632 21.507-6.801 129.647-21.857 177.468zM859.176 690.306c-15.939-0.117-61.046-0.44-103.694-3.153-21.324-1.356-42.019-3.303-58.235-6.141-8.108-1.419-15.107-3.052-20.541-4.988s-9.401-4.054-11.365-7.224c-0.869-1.402-0.983-3.015-0.824-4.894s0.657-4.076 1.435-6.612c1.557-5.072 4.292-11.539 8.094-19.2 7.605-15.321 19.48-35.377 34.729-57.882 30.498-45.011 74.448-99.758 124.4-145.365 27.26-24.889 47.549-42.51 63.035-53.929s26.14-16.807 34.659-16.612c4.259 0.098 7.912 1.743 10.847 4.612s5.221 6.875 7.271 11.835c4.099 9.921 7.294 23.821 11.765 40.894 1.553 5.931 1.741 16.68 1.129 30.659s-2.111 31.028-4.259 48.918c-4.295 35.779-11.146 74.801-18.753 98.965-13.078 41.539-18.532 63.849-28.282 76.329-4.875 6.24-10.946 9.863-19.106 11.741s-18.416 2.149-32.306 2.047zM859.201 686.447c13.82 0.101 23.873-0.217 31.412-1.953s12.535-4.743 16.918-10.353c8.766-11.22 14.545-33.514 27.647-75.129 7.448-23.657 14.335-62.612 18.612-98.235 2.138-17.812 3.629-34.819 4.235-48.659s0.228-24.659-1.035-29.482c-4.486-17.133-7.699-31.014-11.576-40.4-1.939-4.693-4.047-8.242-6.4-10.541s-4.876-3.429-8.235-3.506c-6.719-0.154-17.004 4.587-32.259 15.835s-35.504 28.837-62.729 53.694c-49.647 45.329-93.441 99.871-123.788 144.659-15.173 22.394-27.005 42.372-34.494 57.459-3.744 7.544-6.406 13.878-7.859 18.612-0.727 2.367-1.147 4.336-1.271 5.788s0.129 2.331 0.259 2.541c1.023 1.65 4.297 3.786 9.388 5.6s11.902 3.427 19.882 4.824c15.96 2.793 36.588 4.743 57.835 6.094 42.495 2.703 87.519 3.036 103.459 3.153zM616.188 716.165c-12.083 1.98-24.395-1.23-32.259-12.541l-0.024-0.047-0.047-0.047c-10.89-17.756-12.566-33.045-4.965-43.812s23.743-16.376 47.035-16.376h0.212l0.212 0.047c20.813 4.777 31.219 13.804 33.812 24.306s-2.658 21.659-11.247 30.612c-8.589 8.953-20.646 15.879-32.729 17.859zM615.553 712.329c11.053-1.811 22.549-8.351 30.565-16.706s12.423-18.342 10.282-27.012c-2.129-8.624-10.844-16.747-30.682-21.365-22.518 0.042-37.217 5.598-43.647 14.706-6.447 9.132-5.36 22.455 5.082 39.506 6.998 10.016 17.369 12.678 28.4 10.871zM591.037 710.655c0 30.646-104.861 191.479-127.521 191.479-35.839 0-193.705-47.176-295.202-165.357 138.418 1.873 246.124-6.877 361.128-23.656 7.96-1.346 61.595-7.202 61.595-2.466zM463.506 904.071c-9.385 0-25.979-2.995-47.506-9.294s-47.873-15.92-76.282-29.247c-56.818-26.653-121.882-68.112-172.871-127.482l-2.8-3.271 4.282 0.071c138.313 1.872 245.881-6.881 360.8-23.647 4.23-0.715 19.488-2.485 33.953-3.529 7.233-0.522 14.215-0.851 19.482-0.753 2.634 0.049 4.82 0.185 6.518 0.518 0.849 0.166 1.58 0.367 2.282 0.753s1.6 1.261 1.6 2.471c0 4.383-1.732 10.313-4.682 17.741s-7.145 16.266-12.259 26c-10.227 19.468-24.081 42.5-38.635 64.565s-29.802 43.153-42.894 58.799c-6.546 7.823-12.56 14.282-17.718 18.847s-9.292 7.459-13.271 7.459zM463.506 900.188c1.687 0 5.792-2.121 10.706-6.471s10.823-10.713 17.294-18.447c12.942-15.467 28.165-36.473 42.659-58.447s28.281-44.905 38.424-64.212c5.071-9.653 9.221-18.414 12.094-25.647 2.74-6.898 4.076-12.206 4.212-15.553-0.195-0.060-0.243-0.106-0.541-0.165-1.266-0.248-3.34-0.4-5.859-0.447-5.038-0.094-11.958 0.212-19.129 0.729-14.343 1.036-29.87 2.875-33.6 3.506h-0.048c-113.7 16.589-220.761 25.153-356.894 23.553 50.070 57.050 113.158 97.455 168.541 123.435 28.224 13.24 54.393 22.796 75.718 29.035s37.889 9.129 46.424 9.129zM844.182 746.529c-19.785 68.312-120.415 130.091-214.944 152.744-40.723 12.453-81.043-0.679-68.508-41.715 7.673-25.118 69.339-141.168 71.033-141.484 56.557-10.554 157.514 8.762 212.419 30.456zM599.553 905.741c-9.541-0.123-18.271-1.93-25.412-5.529s-12.688-9.086-15.529-16.376c-2.842-7.29-2.968-16.283 0.259-26.847 2.008-6.574 7.312-18.473 14.212-32.918s15.394-31.327 23.694-47.435c8.3-16.108 16.393-31.444 22.541-42.776 3.074-5.666 5.676-10.324 7.553-13.6 0.938-1.638 1.687-2.945 2.259-3.859 0.286-0.457 0.515-0.81 0.729-1.106 0.107-0.148 0.213-0.27 0.353-0.424 0.070-0.077 0.141-0.168 0.282-0.282 0.071-0.057 0.172-0.113 0.306-0.188s0.605-0.234 0.612-0.235c57.385-10.708 158.188 8.717 213.482 30.565l1.647 0.635-0.494 1.694c-10.093 34.849-40.542 67.598-80.212 94.565-39.664 26.963-88.623 48.145-136.118 59.529h-0.024c-10.316 3.142-20.637 4.71-30.141 4.588zM599.624 901.812c9.080 0.12 19.055-1.341 29.059-4.4h0.047l0.047-0.023c47.028-11.27 95.647-32.301 134.871-58.965 38.498-26.171 67.645-57.788 77.882-90.588-54.668-21.225-153.421-39.978-208.753-29.906-0.111 0.166-0.196 0.29-0.353 0.541-0.521 0.833-1.287 2.080-2.212 3.694-1.85 3.229-4.417 7.879-7.482 13.529-6.131 11.301-14.23 26.622-22.518 42.706s-16.774 32.952-23.647 47.341c-6.874 14.389-12.149 26.392-13.977 32.376-3.041 9.954-2.818 18.005-0.353 24.329s7.185 11.049 13.647 14.306c6.462 3.257 14.661 4.939 23.741 5.059z" />
<glyph unicode="&#xe922;" glyph-name="eg-fun-null" d="M52.568 861.537v-827.073h918.864v827.073zM4.38 909.725h1015.241v-923.45h-1015.241zM672.053 422.449l-66.305-49.3 167.846-218.846 66.305 49.3zM856.897 339.147l-49.3 66.305-218.846-167.846 49.3-66.305zM230.847 541.906c-0.718-47.616-1.428-71.137-2.141-118.753h336.047l2.141 118.753zM574.729 797.176c-13.312-0.471-24.639-2.854-33.459-4.518-24.859-4.688-46.244-14.198-64.8-24.753-20.175-11.476-41.945-26.411-61.106-47.953-16.803-18.892-24.426-36.604-30.4-48.071-10.412-19.984-18.639-39.971-25.882-59.176-9.561-25.35-16.969-50.321-23.835-74.165-8.564-29.742-16.527-60.066-23.294-91.059-9.917-45.42-13.26-86.242-21.576-119.388-5.835-23.257-11.433-43.308-18.376-58.024-2.093-4.436-4.102-6.666-6.235-9.976-7.019 8.485-14.571 16.783-21.788 20.541-18.23 9.493-32.635 10.674-46 10.635-48.315-0.134-68.665-28.19-81.694-56.094-11.803-25.278-11.803-46.039 0-71.318 15.532-33.266 42-44.882 60.024-51.224 33.651-11.84 61.231-5.68 78.871-2.353 24.86 4.688 46.268 14.198 64.824 24.753 20.289 11.541 41.909 26.526 60.965 47.812 16.583 18.523 24.572 36.161 30.847 48.188 10.085 19.33 18.978 39.726 26.235 61.059 11.384 33.462 17.397 65.114 23.929 92.871 8.614 36.601 14.784 71.555 22.329 103.812 6.788 29.017 13.512 57.177 21.247 84.071 7.38 25.661 12.565 46.56 18.918 60.024 2.467 5.229 4.87 8.144 7.341 11.765 7.572-7.097 15.698-13.561 21.906-16.471 15.445-7.239 27.327-9.074 39.2-9.929 28.159-2.030 53.533 4.83 75.341 31.929 20.702 25.725 26.293 52.342 13.459 85.294-15.464 39.704-43.885 48.63-61.553 54.847-16.826 5.92-32.124 7.342-45.435 6.871z" />
<glyph unicode="&#xe923;" glyph-name="eg-gas-protection" d="M694.238 823.698c-169.025 0-306.286-137.247-306.286-306.272s137.261-306.286 306.286-306.286c169.025 0 306.286 137.261 306.286 306.286s-137.261 306.272-306.286 306.272zM694.238 802.059c157.33 0 284.647-127.302 284.647-284.632s-127.316-284.647-284.647-284.647c-157.33 0-284.647 127.316-284.647 284.647s127.316 284.632 284.647 284.632zM694.238 787.915c-149.238 0-270.488-121.25-270.488-270.488s121.25-270.488 270.488-270.488c149.238 0 270.488 121.25 270.488 270.488s-121.25 270.488-270.488 270.488zM694.238 762.824c135.68 0 245.398-109.717 245.398-245.398s-109.717-245.412-245.398-245.412c-135.68 0-245.398 109.731-245.398 245.412s109.717 245.398 245.398 245.398zM813.559 241.898l2.169-179.355h-726.034v-86.461h764v292.934zM847.671 269.012v-286.894h-751.953v74.4h726.118l-2.259 185.459-12.047-0.141 2.094-173.271h-725.953v-98.494h776.047v298.941zM510.373 284.203v-225.742zM504.353 284.212v-225.741h12.047v225.741zM472.094 329.533l-1.085-271.072zM466.071 329.553l-1.082-271.059 12.047-0.047 1.082 271.059zM134.508 64c1.84 117.802 13.461 235.451 34.704 351.337 26.852 146.483 72.606 296.394 176.186 403.397 16.668 17.219 34.907 33.299 56.13 44.429 33.644 17.644 74.15 21.754 110.653 11.227s68.6-35.574 87.683-68.424l-53.791-30.687c-3.975 11.058-11.021 20.995-20.141 28.405s-20.289 12.273-31.927 13.9c-17.559 2.455-35.579-2.451-51.088-11.044s-28.776-20.701-41.116-33.431c-95.318-98.331-139.83-234.734-168.888-368.562-24.666-113.6-40.389-229.14-46.976-345.2zM455.176 885.341c-19.641-1.993-38.915-7.653-56.447-16.847-22.080-11.579-40.778-28.126-57.671-45.576-104.919-108.385-150.825-259.534-177.765-406.494-21.303-116.214-32.955-234.194-34.8-352.329l12.047-0.188c1.834 117.469 13.405 234.795 34.588 350.353 26.765 146.006 72.347 294.663 174.588 400.282 16.445 16.988 34.244 32.613 54.612 43.294 32.224 16.899 71.227 20.859 106.188 10.776 32.966-9.507 61.48-32.156 80.047-61.012l-42.941-24.494c-4.519 9.416-9.76 18.648-17.882 25.247-9.987 8.115-22.15 13.418-34.894 15.2-19.208 2.686-38.459-2.661-54.847-11.741-16.332-9.050-30.004-21.609-42.518-34.518-96.604-99.657-141.298-237.213-170.447-371.459-24.733-113.909-40.501-229.766-47.106-346.141l12.024-0.682c6.569 115.744 22.248 230.968 46.847 344.259 28.968 133.411 73.285 268.642 167.318 365.647 12.167 12.551 25.034 24.217 39.718 32.353 14.628 8.105 31.432 12.577 47.341 10.353 10.532-1.472 20.712-5.906 28.965-12.612s14.662-15.758 18.259-25.765l2.424-6.753 65.294 37.247-3.035 5.247c-19.888 34.236-53.18 60.229-91.224 71.2-19.022 5.486-39.041 7.146-58.682 5.153zM680.494 221.294v-59.271h-639.271v-36.141h675.412v95.412zM278.8 205.412c-6.653-0.001-12.046-5.394-12.047-12.047v0-100.894c0.001-6.653 5.394-12.046 12.047-12.047h137.788c6.653 0.001 12.046 5.394 12.047 12.047v0 100.894c-0.001 6.653-5.394 12.046-12.047 12.047v0zM290.847 181.318h113.694v-76.8h-113.694zM721.129 530.259c-5.509-0.787-10.436-2.973-14.753-5.6-4.303-2.619-8.003-5.664-11.482-8.541-3.478-2.876-6.767-5.596-10.118-7.765-3.338-2.161-6.791-3.768-10.188-4.447-4.519-0.903-9.633-0.283-14.612 1.341-5.012 1.635-9.985 4.256-15.176 7.106-5.195 2.852-10.649 5.948-16.8 8.282-6.176 2.343-13.105 3.895-20.306 3.153-10.863-1.119-19.587-6.948-27.176-12-7.525-5.010-14.655-9.509-21.812-10.518-4.675-0.659-9.754 0.084-14.682 1.788-4.952 1.712-9.813 4.376-14.706 7.388-9.804 6.035-20.151 13.863-33.318 16.918-12.466 2.892-25.82 0.703-36.706-6.024s-18.822-17.699-21.812-30.141l11.718-2.8c2.222 9.245 8.335 17.684 16.424 22.682s18.408 6.69 27.671 4.541c9.954-2.309 19.286-9.029 29.694-15.435 5.213-3.209 10.819-6.352 17.082-8.518 6.288-2.174 13.253-3.326 20.329-2.329 10.741 1.513 19.256 7.417 26.776 12.424 7.456 4.964 14.648 9.314 21.765 10.047 4.682 0.482 9.784-0.529 14.776-2.424 5.017-1.904 9.994-4.704 15.271-7.6 5.279-2.898 10.926-5.93 17.271-8 6.377-2.081 13.488-3.132 20.682-1.694 5.401 1.080 10.183 3.427 14.376 6.141 4.182 2.707 7.811 5.77 11.247 8.612 3.435 2.84 6.709 5.483 10.071 7.529 3.347 2.037 6.838 3.471 10.212 3.953 4.827 0.689 10.228-0.494 15.318-2.847 5.134-2.374 10.086-5.914 15.294-9.671 5.212-3.759 10.768-7.779 17.294-10.8 6.571-3.042 14.178-5.001 22.071-3.882 5.169 0.733 9.837 2.708 13.953 5.082 4.104 2.368 7.665 5.129 11.012 7.765 6.667 5.25 12.857 10.036 19.294 11.6 5.007 1.217 10.7 0.631 16.165-1.153 5.504-1.797 10.897-4.791 16.329-8.188 5.437-3.4 10.975-7.22 17.176-10.541 6.215-3.328 13.142-6.141 20.753-7.012 11.42-1.306 23.090 2.084 32.024 9.318s14.691 17.946 15.788 29.388l-12 1.153c-0.778-8.109-5.034-16.050-11.365-21.176s-14.989-7.655-23.082-6.729c-5.481 0.627-11.022 2.778-16.424 5.671-5.415 2.9-10.758 6.577-16.494 10.165-5.74 3.59-11.941 7.119-18.965 9.412-7.063 2.306-14.955 3.283-22.753 1.388-9.926-2.412-17.32-8.668-23.882-13.835-3.268-2.574-6.411-4.96-9.6-6.8-3.177-1.833-6.456-3.128-9.624-3.576-4.829-0.684-10.228 0.515-15.318 2.871-5.134 2.377-10.085 5.914-15.294 9.671-5.213 3.76-10.766 7.782-17.294 10.8-6.573 3.039-14.201 4.986-22.094 3.859zM635.318 933.506l-85.694-124.753 39.718-27.271 85.694 124.729zM723.294 455.765c-5.503-0.799-10.441-2.994-14.753-5.624-4.298-2.621-7.98-5.666-11.459-8.541-3.477-2.874-6.766-5.6-10.118-7.765-3.339-2.157-6.791-3.773-10.188-4.447-4.52-0.897-9.634-0.244-14.612 1.388-5.011 1.643-9.984 4.251-15.176 7.106-5.196 2.856-10.666 5.977-16.824 8.306-6.183 2.338-13.101 3.852-20.306 3.082-10.87-1.162-19.587-7.034-27.153-12.094-7.5-5.016-14.611-9.486-21.741-10.4-4.654-0.597-9.741 0.229-14.635 2.024-4.92 1.804-9.724 4.547-14.612 7.624-9.802 6.169-20.362 14.089-33.835 16.494-11.217 2.002-22.971-0.415-32.471-6.706s-16.335-16.162-18.871-27.271l11.741-2.682c1.824 7.991 6.954 15.381 13.788 19.906s15.625 6.334 23.694 4.894c9.882-1.764 19.252-8.356 29.529-14.824 5.152-3.242 10.676-6.45 16.894-8.729 6.243-2.289 13.194-3.594 20.306-2.682 10.802 1.385 19.39 7.318 26.918 12.353 7.461 4.99 14.611 9.358 21.718 10.118 4.674 0.499 9.786-0.489 14.776-2.376 5.016-1.897 9.998-4.678 15.271-7.576 5.276-2.9 10.906-5.945 17.247-8.024 6.374-2.090 13.484-3.169 20.682-1.741 5.403 1.072 10.203 3.431 14.4 6.141 4.185 2.703 7.809 5.747 11.247 8.588s6.709 5.503 10.071 7.553c3.347 2.041 6.836 3.486 10.212 3.976 4.828 0.701 10.222-0.49 15.318-2.824 5.14-2.354 10.11-5.859 15.318-9.6 5.212-3.745 10.742-7.768 17.247-10.8 6.548-3.052 14.14-5.038 22.024-4 10.294 1.355 18.313 7.298 25.106 12.588 6.731 5.243 12.907 10.116 19.388 11.906 5.315 1.468 11.421 1.076 17.341-0.565 5.958-1.651 11.851-4.521 17.906-7.694 6.058-3.175 12.346-6.695 19.341-9.388 7.017-2.702 14.806-4.542 22.941-3.929 8.836 0.666 17.285 4.273 23.882 10.188s11.107 13.924 12.729 22.635l-11.835 2.212c-1.124-6.034-4.348-11.785-8.918-15.882s-10.656-6.692-16.776-7.153c-5.699-0.429-11.765 0.894-17.694 3.176-5.951 2.291-11.864 5.535-18.094 8.8-6.233 3.267-12.871 6.581-20.282 8.635-7.449 2.065-15.684 2.814-23.741 0.588-9.746-2.692-17.026-8.922-23.576-14.024-6.489-5.054-12.898-9.299-19.294-10.141-4.851-0.638-10.248 0.591-15.341 2.965-5.136 2.394-10.099 5.921-15.318 9.671-5.223 3.752-10.78 7.782-17.318 10.776-6.582 3.015-14.211 4.933-22.094 3.788zM846.918 395.671c-7.89-0.518-15.663-2.633-22.729-6.329-8.355-4.371-14.931-10.296-21.435-14.988-6.458-4.658-13.21-8.242-19.812-8.659-4.996-0.315-10.405 1.137-15.529 3.624-5.157 2.503-10.167 6.031-15.459 9.718-5.295 3.689-10.946 7.587-17.529 10.424-6.625 2.854-14.217 4.568-22.024 3.365-5.46-0.842-10.355-3.018-14.659-5.624-4.29-2.598-8.010-5.593-11.506-8.447-6.958-5.681-13.521-10.807-20.4-12.282-4.548-0.976-9.688-0.495-14.706 0.988-5.048 1.492-10.060 3.971-15.247 6.706-5.19 2.737-10.608 5.751-16.612 8.165-6.020 2.42-12.689 4.222-19.765 4.071-10.725-0.23-20.168-4.8-28.306-9.671-8.099-4.847-15.263-10.085-22.729-13.341-10.942-4.772-23.617-5.783-35.176-2.8s-22.168 10.011-29.435 19.482l-9.576-7.341c8.946-11.66 21.769-20.116 36-23.788s29.54-2.464 43.012 3.412c9.121 3.978 16.665 9.601 24.094 14.047 7.391 4.423 15.009 7.795 22.376 7.953 4.846 0.104 9.968-1.172 15.012-3.2 5.061-2.035 10.124-4.822 15.482-7.647 5.361-2.826 11.071-5.712 17.459-7.6 6.418-1.896 13.524-2.749 20.635-1.224 10.652 2.285 18.575 9.071 25.506 14.729 3.449 2.816 6.74 5.437 10.118 7.482 3.365 2.037 6.858 3.499 10.259 4.024 4.854 0.749 10.295-0.326 15.435-2.541 5.182-2.233 10.195-5.59 15.412-9.224 5.22-3.636 10.714-7.592 17.082-10.682 6.401-3.106 13.74-5.292 21.529-4.8 10.242 0.647 18.887 5.702 26.118 10.918 7.184 5.182 13.353 10.618 19.953 14.071 11.009 5.759 24.732 6.671 36.4 2.4s21.545-13.812 26.235-25.318l11.176 4.541c-6.020 14.769-18.293 26.588-33.271 32.071-7.489 2.741-15.498 3.835-23.388 3.318zM709.765 332c-10.354-2.446-18.333-8.783-25.412-14.282-7.031-5.463-13.761-10.376-20.8-12.024-4.671-1.093-9.862-0.867-14.988 0.306-5.148 1.177-10.306 3.278-15.506 5.741-10.414 4.934-21.371 11.614-34.588 13.835-10.596 1.781-21.608 0.29-31.365-4.212s-18.031-11.912-23.553-21.129l10.329-6.212c4.251 7.095 10.749 12.935 18.259 16.4s16.173 4.641 24.329 3.271c10.277-1.727 20.32-7.557 31.435-12.824 5.565-2.637 11.513-5.134 17.976-6.612 6.486-1.483 13.496-1.927 20.424-0.306 10.364 2.426 18.353 8.757 25.435 14.259 7.035 5.466 13.737 10.407 20.776 12.071 5.023 1.187 10.625 0.813 16.047-0.659 5.449-1.479 10.806-4.058 16.094-7.129 10.588-6.149 21.151-14.539 34.471-19.247 11.558-4.085 24.205-4.771 36.141-1.976s22.963 9.020 31.506 17.812l-8.635 8.4c-6.907-7.108-15.973-12.235-25.624-14.494s-20.020-1.679-29.365 1.624c-10.844 3.833-20.872 11.584-32.447 18.306-5.793 3.364-12.047 6.451-18.965 8.329-6.945 1.886-14.528 2.513-21.976 0.753zM309.835 258.572h76.737v-57.212h-76.737zM309.835 265.341c-0.002 0-0.004 0-0.006 0-3.739 0-6.771-3.031-6.771-6.771 0-0.002 0-0.004 0-0.006v0-57.2c0-0.002 0-0.004 0-0.006 0-3.739 3.031-6.771 6.771-6.771 0.002 0 0.004 0 0.006 0h76.729c0.002 0 0.004 0 0.006 0 3.739 0 6.771 3.031 6.771 6.771 0 0.002 0 0.004 0 0.006v0 57.2c0 0.002 0 0.004 0 0.006 0 3.739-3.031 6.771-6.771 6.771-0.002 0-0.004 0-0.006 0v0zM316.612 251.812h63.2v-43.671h-63.2z" />
<glyph unicode="&#xe924;" glyph-name="eg-generator" d="M519.694 953.976c-279.030 0-505.976-226.947-505.976-505.976s226.947-505.976 505.976-505.976c279.030 0 505.976 226.947 505.976 505.976s-226.947 505.976-505.976 505.976zM519.694 884.212c241.331 0 436.235-194.881 436.235-436.212s-194.904-436.212-436.235-436.212c-241.331 0-436.212 194.881-436.212 436.212s194.881 436.212 436.212 436.212zM651.741 587.694c-39.985-2.59-72.545-21.72-98.682-44.306s-47.99-48.891-72.141-73.576c-38.502-39.353-75.216-79.919-106.165-82.565-16.643-1.423-62.984 16.478-99.388 39.082s-64.776 46.047-64.776 46.047l-46.094-55.671c0 0 31.589-26.22 72.729-51.765s89.931-54.289 143.671-49.694c74.753 6.391 118.218 69.831 151.671 104.024 26.512 27.098 48.027 52.376 67.741 69.412s35.493 25.56 56.094 26.894c17.932 1.162 65.862-19.713 103.294-45.459s66.353-52.212 66.353-52.212l48.871 53.271c0 0-32.086 29.487-74.259 58.494s-92.434 61.683-148.918 58.024z" />
<glyph unicode="&#xe925;" glyph-name="eg-gil" d="M480.918 938.565v-987.859h36.141v987.859zM292.024 965.835l206.965-251.294 206.941 251.294zM368.612 929.694h260.753l-130.376-158.306zM498.988 206.988l-204.424-277.435h408.847zM498.964 146.071l132.918-180.376h-265.811zM403.224 660.024v-411.482h182.847v411.482zM427.318 635.929h134.659v-363.294h-134.659z" />
<glyph unicode="&#xe926;" glyph-name="eg-high-frequency-choke" d="M99.082 260.282c0-72.2 14.347-130.528 41.388-173.035s69.384-68.635 115.718-68.635c46.333 0 89.393 25.637 117.835 68.024s44.282 101.079 44.282 173.647h-60.235c0-63.654-14.392-110.743-34.071-140.071s-42.622-41.365-67.812-41.365c-25.19 0-46.314 11.546-64.894 40.753s-31.976 76.66-31.976 140.682zM365.224 260.282c0-72.2 14.347-130.528 41.388-173.035s69.384-68.635 115.718-68.635c46.333 0 89.393 25.637 117.835 68.024s44.306 101.079 44.306 173.647h-60.235c0-63.654-14.415-110.743-34.094-140.071s-42.622-41.365-67.812-41.365c-25.19 0-46.314 11.546-64.894 40.753s-31.976 76.66-31.976 140.682zM629.765 260.282c0-72.2 14.347-130.528 41.388-173.035s69.384-68.635 115.718-68.635c46.333 0 89.393 25.637 117.835 68.024s44.306 101.079 44.306 173.647h-60.235c0-63.654-14.415-110.743-34.094-140.071s-42.622-41.365-67.812-41.365c-25.19 0-46.314 11.546-64.894 40.753s-31.976 76.66-31.976 140.682zM435.953 706.447l-341.647-1.177 4.659-450.659 60.235 0.612-4.024 390 280.988 0.988zM949.129 707.647l-356.965-1.2 0.212-60.235 296.518 1.012v-390.141h60.235zM419.2 779.929v-232.141h60.235v232.141zM567.812 779.929v-232.141h60.235v232.141zM146.794 449.799c0-14.242-11.545-25.788-25.788-25.788v0c-14.242 0-25.788 11.545-25.788 25.788v0c0 14.242 11.545 25.788 25.788 25.788v0c14.242 0 25.788-11.545 25.788-25.788v0zM121.012 510.024c-32.859 0-60.235-27.376-60.235-60.235s27.376-60.235 60.235-60.235c32.859 0 60.235 27.376 60.235 60.235s-27.376 60.235-60.235 60.235zM121.012 458.471c4.375 0 8.659-4.307 8.659-8.682s-4.284-8.659-8.659-8.659c-4.375 0-8.659 4.284-8.659 8.659s4.284 8.682 8.659 8.682zM945.167 449.799c0-14.242-11.545-25.788-25.788-25.788v0c-14.242 0-25.788 11.545-25.788 25.788v0c0 14.242 11.545 25.788 25.788 25.788v0c14.242 0 25.788-11.545 25.788-25.788v0zM919.388 510.024c-32.859 0-60.235-27.376-60.235-60.235s27.376-60.235 60.235-60.235c32.859 0 60.235 27.376 60.235 60.235s-27.376 60.235-60.235 60.235zM919.388 458.471c4.375 0 8.659-4.307 8.659-8.682s-4.284-8.659-8.659-8.659c-4.375 0-8.659 4.284-8.659 8.659s4.284 8.682 8.659 8.682z" />
<glyph unicode="&#xe927;" glyph-name="eg-high-frequency-filter" d="M758.753 958.588v-174.165h60.235v174.165zM859.176 958.588v-174.165h60.235v174.165zM226.7 64.747c0-14.242-11.545-25.788-25.788-25.788v0c-14.242 0-25.788 11.545-25.788 25.788v0c0 14.242 11.545 25.788 25.788 25.788v0c14.242 0 25.788-11.545 25.788-25.788v0zM200.918 108.612c-24.008 0-43.859-19.851-43.859-43.859s19.851-43.859 43.859-43.859c24.008 0 43.859 19.851 43.859 43.859s-19.851 43.859-43.859 43.859zM200.918 72.471c4.476 0 7.718-3.242 7.718-7.718s-3.242-7.718-7.718-7.718c-4.476 0-7.718 3.242-7.718 7.718s3.242 7.718 7.718 7.718zM675.482 911.247c-36.168 0.028-73.918-1.448-108.965-7.435s-68.156-16.403-94.353-37.459c-26.197-21.056-43.341-54.2-43.647-94.282-0.311-40.644 21.94-78.46 58.824-103.459s87.998-38.941 151.035-38.941v52.588c-55.162 0-96.090 12.6-121.553 29.859s-35.887 37.392-35.718 59.553c0.206 26.937 8.545 41.273 24 53.694s40.176 21.496 70.259 26.635c60.166 10.279 138.808 5.106 199.576 5.106v52.588c-28.715 0-63.291 1.525-99.459 1.553zM638.376 675.976c-62.712 0-113.426-12.626-150.353-36.4s-59.506-60.89-59.506-101.412c0-40.522 22.171-78.269 58.988-103.271s87.833-38.941 150.871-38.941v52.588c-55.162 0-95.932 12.604-121.341 29.859s-35.929 37.479-35.929 59.765c0 22.285 10.089 40.936 35.388 57.224s66.395 28.024 121.882 28.024zM638.376 443.671c-62.712 0-113.426-12.602-150.353-36.376s-59.506-60.913-59.506-101.435c0-40.522 22.171-78.245 58.988-103.247s87.833-38.965 150.871-38.965v52.588c-55.162 0-95.932 12.604-121.341 29.859s-35.929 37.479-35.929 59.765c0 22.285 10.089 40.936 35.388 57.224s66.395 28.024 121.882 28.024zM181.377 909.844c62.648 0 113.259-12.598 150.142-36.345s59.555-60.929 59.555-101.616c0-40.687-22.245-78.5-59.024-103.476s-87.706-38.886-150.673-38.886v52.895c55.232 0 96.092 12.638 121.539 29.919s35.892 37.428 35.892 59.548c0 22.12-10.019 40.67-35.361 56.986s-66.518 28.080-122.070 28.080zM181.377 676.135c62.648 0 113.259-12.598 150.142-36.345s59.555-60.929 59.555-101.616c0-40.687-22.245-78.5-59.024-103.476s-87.706-38.907-150.673-38.907v52.895c55.232 0 96.092 12.659 121.539 29.939s35.892 37.428 35.892 59.548c0 22.12-10.019 40.67-35.361 56.986s-66.518 28.080-122.070 28.080zM181.377 443.831c62.648 0 113.259-12.598 150.142-36.345s59.555-60.929 59.555-101.616c0-40.687-22.245-78.5-59.024-103.476s-87.706-38.907-150.673-38.907v52.895c55.232 0 96.092 12.659 121.539 29.939s35.892 37.428 35.892 59.548c0 22.12-10.019 40.67-35.361 56.986s-66.518 28.080-122.070 28.080zM602.282 212.447v-136.494h-399.788v-36.141h435.929v172.635zM181.741 206.635v-269.106h36.141v269.106z" />
<glyph unicode="&#xe928;" glyph-name="eg-high-frequency-setting-element" d="M128.060 661.665c0 55.224 12.782 99.837 36.876 132.35s61.819 52.497 103.101 52.497c41.282 0 79.646-19.609 104.987-52.029s39.454-77.312 39.454-132.818h-53.668c0 48.687-12.822 84.704-30.356 107.136s-37.975 31.639-60.418 31.639c-22.443 0-41.264-8.831-57.819-31.171s-28.49-58.635-28.49-107.604zM365.183 661.665c0 55.224 12.782 99.837 36.876 132.35s61.819 52.497 103.101 52.497c41.282 0 79.646-19.609 104.987-52.029s39.475-77.312 39.475-132.818h-53.668c0 48.687-12.843 84.704-30.377 107.136s-37.975 31.639-60.418 31.639c-22.443 0-41.264-8.831-57.819-31.171s-28.49-58.635-28.49-107.604zM600.881 661.665c0 55.224 12.782 99.837 36.876 132.35s61.819 52.497 103.101 52.497c41.282 0 79.646-19.609 104.987-52.029s39.475-77.312 39.475-132.818h-53.668c0 48.687-12.843 84.704-30.377 107.136s-37.975 31.639-60.418 31.639c-22.444 0-41.264-8.831-57.819-31.171s-28.49-58.635-28.49-107.604zM10.847 697.812v-36.141h141.012v36.141zM854.776 697.812v-36.141h165.106v36.141zM115.835 600.635c-7.397 0.32-15.275-1.276-23.012-5.035s-15.828-10.307-18.706-20.824l-0.235-0.871-0.118-0.918c-0.835-7.202 2.808-14.111 6.565-17.929s7.587-5.974 10.8-7.929c2.886-1.757 4.956-3.176 6.212-4.212-1.308-1.146-3.447-2.699-6.353-4.612-3.254-2.142-7.047-4.49-10.729-8.329s-7.453-10.661-6.447-18.071c0.844-6.215 4.964-11.892 9.059-14.729s7.802-3.899 10.682-4.824c2.88-0.924 5.004-1.671 5.765-2.094s-0.058 0.199-0.188 0.565l22.706 8.118c-2.112 5.912-6.806 10.155-10.8 12.376s-7.512 3.14-10.118 3.976c-0.227 0.072-0.165 0.070-0.376 0.141 1.203 0.906 1.901 1.573 3.694 2.753 3.194 2.102 7.025 4.431 10.753 8.094s7.759 9.768 7.529 17.2c-0.223 7.217-4.28 13.133-8.094 16.659s-7.665 5.659-10.776 7.553c-2.041 1.242-2.889 1.962-4.024 2.8 0.962 1.159 1.378 2.287 3.741 3.435 3.788 1.841 9.060 2.738 11.435 2.635zM944.282 602.282c-8.624-0.206-16.957-1.858-24.306-6.118s-13.399-11.59-15.835-20.494l-0.235-0.894-0.118-0.918c-0.835-7.202 2.808-14.111 6.565-17.929s7.587-5.974 10.8-7.929c2.886-1.757 4.956-3.176 6.212-4.212-1.308-1.146-3.447-2.699-6.353-4.612-3.254-2.142-7.047-4.49-10.729-8.329s-7.476-10.661-6.471-18.071c0.844-6.215 4.988-11.892 9.082-14.729s7.802-3.876 10.682-4.8c2.88-0.924 5.004-1.694 5.765-2.118s-0.058 0.223-0.188 0.588l22.706 8.094c-2.111 5.912-6.806 10.155-10.8 12.376s-7.512 3.164-10.118 4c-0.227 0.072-0.165 0.070-0.376 0.141 1.202 0.905 1.904 1.551 3.694 2.729 3.194 2.102 7.025 4.455 10.753 8.118s7.759 9.744 7.529 17.176c-0.223 7.217-4.303 13.133-8.118 16.659s-7.642 5.682-10.753 7.576c-2.253 1.371-3.332 2.232-4.447 3.082 0.778 1.231 1.223 2.719 2.824 3.647 2.642 1.532 7.072 2.733 12.824 2.871zM23.341 511.906v-425.859h984.188v425.859zM63.224 472.047h904.447v-346.141h-904.447zM99.412 692.494c-0.761-0.423-2.885-1.194-5.765-2.118s-6.588-1.963-10.682-4.8c-4.094-2.837-8.215-8.514-9.059-14.729-1.006-7.41 2.765-14.231 6.447-18.071s7.475-6.188 10.729-8.329c2.906-1.912 5.045-3.466 6.353-4.612-1.256-1.035-3.325-2.455-6.212-4.212-3.213-1.956-7.043-4.111-10.8-7.929s-7.4-10.751-6.565-17.953l0.118-0.894 0.235-0.894c5.183-18.938 23.174-27.118 37.694-29.529l3.953 23.788c-6.902 1.146-12.776 5.943-15.694 10.329 1.122 0.804 1.761 1.389 3.576 2.494 3.111 1.894 6.938 4.050 10.753 7.576s7.895 9.442 8.118 16.659c0.23 7.432-3.802 13.514-7.529 17.176s-7.559 6.016-10.753 8.118c-1.79 1.178-2.492 1.824-3.694 2.729 0.212 0.071 0.15 0.069 0.376 0.141 2.606 0.836 6.124 1.778 10.118 4s8.688 6.464 10.8 12.376l-22.706 8.094c0.13 0.365 0.949 1.012 0.188 0.588zM927.812 692.494c-0.761-0.423-2.885-1.194-5.765-2.118s-6.588-1.963-10.682-4.8c-4.094-2.837-8.239-8.514-9.082-14.729-1.006-7.41 2.765-14.231 6.447-18.071s7.499-6.188 10.753-8.329c2.906-1.912 5.045-3.466 6.353-4.612-1.256-1.035-3.325-2.455-6.212-4.212-3.213-1.956-7.043-4.111-10.8-7.929s-7.4-10.751-6.565-17.953l0.118-0.894 0.235-0.894c5.183-18.938 23.174-27.118 37.694-29.529l3.929 23.788c-6.902 1.146-12.776 5.943-15.694 10.329 1.122 0.804 1.781 1.387 3.6 2.494 3.111 1.894 6.938 4.050 10.753 7.576s7.895 9.442 8.118 16.659c0.23 7.432-3.802 13.514-7.529 17.176s-7.559 6.016-10.753 8.118c-1.786 1.176-2.493 1.825-3.694 2.729 0.211 0.071 0.151 0.069 0.376 0.141 2.606 0.836 6.124 1.778 10.118 4s8.665 6.464 10.776 12.376l-22.683 8.094c0.13 0.365 0.949 1.012 0.188 0.588z" />
<glyph unicode="&#xe929;" glyph-name="eg-high-voltage-lead" d="M53.529 309.468v-227.059h916.941v227.059zM89.671 273.327h844.659v-154.776h-844.659zM321.459 293.562v-188.729h36.141v188.729zM647.953 292.48v-188.753h36.141v188.753zM282.259 465.468l-181.553-3.459-27.953-173.106h237.435zM261.741 440.974l20.235-127.976h-180.918l20.235 125.318zM238.191 683.67c0 0-5.217-7.488-8.816-12.95-0.104 0.067-0.187 0.176-0.291 0.242-13.188 8.375-29.551 10.7-44.897 10.955-5.731 0.095-15.156-1.004-23.938-4.79-4.391-1.893-8.63-4.428-12.132-8.462s-6.254-10.317-6.038-17.438c0.215-7.074 3.946-12.108 7.729-15.141s8.195-4.923 12.804-6.392c9.217-2.938 19.143-3.906 24.678-3.989 18.271-0.276 33.224 11.884 43.721 24.192 5.589-6.089 9.475-13.566 9.085-26.323-0.225-7.337-1.796-13.469-4.458-18.707-14.469 10.102-32.225 15.073-48.638 15.745-7.026 0.288-18.911-1.089-29.853-4.911-5.471-1.911-10.652-4.367-14.954-8.099s-8.258-9.708-8.2-17.543c0.061-8.309 4.741-14.164 9.555-17.483s10.561-5.253 16.579-6.634c12.036-2.761 24.971-3.008 31.612-2.463 13.167 1.081 27.258 5.477 38.747 14.778 2.298 1.861 3.798 4.978 5.847 7.298 9.258-8.721 15.122-19.258 13.644-35.132-0.424-4.556-2.83-9.125-5.119-13.66-2.178 1.578-3.645 3.843-5.937 5.274-19.167 11.963-41.408 18.916-56.301 18.647-2.72-0.049-7.477-0.744-13.958-2.146s-14.292-3.515-21.765-6.498c-7.473-2.982-14.576-6.647-19.973-12.225-2.698-2.789-5.070-6.167-6.396-10.653s-1.221-10.003 0.347-14.748c6.006-18.168 21.836-25.131 36.372-28.861s28.341-3.75 33.863-3.158c12.848 1.378 28.81 8.406 42.578 19.523 5.055 4.082 9.273 9.385 13.442 14.642 2.722-2.565 6.508-4.761 8.491-7.45 5.028-6.817 7.18-13.165 6.665-19.599-0.073-0.907-0.775-2.722-4.246-5.168s-9.065-4.778-15.884-6.558c-13.638-3.561-32.186-5.19-50.666-5.682-36.96-0.982-73.731 2.463-73.731 2.463l-0.795-15.443c0 0 37.113-3.494 74.75-2.493 18.819 0.5 37.754 2.085 52.626 5.969 7.436 1.942 13.852 4.389 19.010 8.024s9.697 9.198 10.339 17.226c0.982 12.26-3.435 23.356-9.936 32.171-2.304 3.124-5.997 5.057-8.805 7.797 3.191 6.306 5.698 13.046 6.407 20.671 1.915 20.564-5.354 36.823-16.164 48.263 3.686 7.425 6.056 16.167 6.363 26.187 0.517 16.867-4.651 29.878-12.456 39.046 3.097 5.114 8.659 13.146 8.659 13.146zM184.053 666.444c12.754-0.212 25.482-2.742 35.633-7.752-8.733-9.224-19.624-17.704-32.273-17.513-4.615 0.070-14.25 1.045-22.157 3.566-3.954 1.26-7.504 2.983-9.589 4.654s-2.127 2.427-2.128 2.463c-0.060 1.983 0.341 3.104 2.028 5.047s4.677 3.961 8.177 5.47c7.001 3.019 15.999 4.136 20.309 4.065zM186.652 605.14c13.475-0.552 27.681-4.923 39.419-11.817-0.591-0.527-0.867-1.294-1.49-1.798-9.241-7.48-21.825-11.64-33.55-12.602-5.422-0.445-18.247-0.183-28.99 2.282-5.372 1.232-10.275 3.085-13.274 5.153s-3.3 3.19-3.305 3.853c-0.006 0.847 0.353 2.127 2.935 4.367s6.855 4.483 11.628 6.15c9.546 3.335 21.273 4.632 26.627 4.412zM182.776 545.226c11.878 0.215 33.778-6.28 51.316-17.226 1.222-0.763 1.825-1.825 3.002-2.629-2.973-3.486-5.581-7.168-9.298-10.169-12.172-9.828-27.194-16.262-37.593-17.377-3.723-0.399-17.652-0.444-30.805 2.931s-24.969 10.644-28.049 19.961c-0.507 1.533-0.427 1.83-0.168 2.705s1.081 2.414 2.722 4.11c3.281 3.391 9.454 6.962 16.243 9.671s14.212 4.736 20.331 6.059c6.119 1.323 11.327 1.947 12.3 1.964zM248.564 696.454l-111.089-1.239-36.384-236.044h181.526zM232.725 670.312l26.571-185.196h-134.557l28.408 184.32zM253.765 813.586l-123.529-2.4-18.965-119.929h161.459zM239.647 796.762l13.765-88.965h-122.776l13.788 87.106zM594.376 465.468l-181.529-3.459-27.953-173.106h237.412zM573.859 440.974l20.235-127.976h-180.918l20.235 125.318zM550.32 683.67c0 0-5.217-7.488-8.816-12.95-0.104 0.067-0.187 0.176-0.291 0.242-13.188 8.375-29.551 10.7-44.897 10.955-5.731 0.095-15.156-1.004-23.938-4.79-4.391-1.893-8.63-4.428-12.132-8.462s-6.254-10.317-6.038-17.438c0.215-7.074 3.946-12.108 7.729-15.141s8.195-4.923 12.804-6.392c9.217-2.938 19.143-3.906 24.678-3.989 18.271-0.276 33.224 11.884 43.721 24.192 5.589-6.089 9.475-13.566 9.085-26.323-0.225-7.337-1.796-13.469-4.458-18.707-14.469 10.102-32.225 15.073-48.638 15.745-7.026 0.288-18.911-1.089-29.853-4.911-5.471-1.911-10.652-4.367-14.954-8.099s-8.258-9.708-8.2-17.543c0.061-8.309 4.741-14.164 9.555-17.483s10.561-5.253 16.579-6.634c12.036-2.761 24.971-3.008 31.612-2.463 13.167 1.081 27.258 5.477 38.747 14.778 2.298 1.861 3.798 4.978 5.847 7.298 9.258-8.721 15.122-19.258 13.644-35.132-0.424-4.556-2.83-9.125-5.119-13.66-2.178 1.578-3.645 3.843-5.937 5.274-19.167 11.963-41.408 18.916-56.301 18.647-2.72-0.049-7.477-0.744-13.958-2.146s-14.292-3.515-21.765-6.498c-7.473-2.982-14.576-6.647-19.973-12.225-2.698-2.789-5.070-6.167-6.396-10.653s-1.221-10.003 0.347-14.748c6.006-18.168 21.836-25.131 36.372-28.861s28.341-3.75 33.863-3.158c12.848 1.378 28.81 8.406 42.578 19.523 5.055 4.082 9.273 9.385 13.442 14.642 2.722-2.565 6.508-4.761 8.491-7.45 5.028-6.817 7.18-13.165 6.665-19.599-0.073-0.907-0.775-2.722-4.246-5.168s-9.065-4.778-15.884-6.558c-13.638-3.561-32.186-5.19-50.666-5.682-36.96-0.982-73.731 2.463-73.731 2.463l-0.795-15.443c0 0 37.113-3.494 74.75-2.493 18.819 0.5 37.754 2.085 52.626 5.969 7.436 1.942 13.852 4.389 19.010 8.024s9.697 9.198 10.339 17.226c0.982 12.26-3.435 23.356-9.936 32.171-2.304 3.124-5.997 5.057-8.805 7.797 3.191 6.306 5.698 13.046 6.407 20.671 1.915 20.564-5.354 36.823-16.164 48.263 3.686 7.425 6.056 16.167 6.363 26.187 0.517 16.867-4.651 29.878-12.456 39.046 3.097 5.114 8.659 13.146 8.659 13.146zM496.181 666.444c12.754-0.212 25.482-2.742 35.633-7.752-8.733-9.224-19.624-17.704-32.273-17.513-4.615 0.070-14.25 1.045-22.157 3.566-3.954 1.26-7.504 2.983-9.589 4.654s-2.127 2.427-2.128 2.463c-0.060 1.983 0.341 3.104 2.028 5.047s4.677 3.961 8.177 5.47c7.001 3.019 15.999 4.136 20.309 4.065zM498.78 605.14c13.475-0.552 27.681-4.923 39.419-11.817-0.591-0.527-0.867-1.294-1.49-1.798-9.241-7.48-21.825-11.64-33.55-12.602-5.422-0.445-18.247-0.183-28.99 2.282-5.372 1.232-10.275 3.085-13.274 5.153s-3.3 3.19-3.305 3.853c-0.006 0.847 0.353 2.127 2.935 4.367s6.855 4.483 11.628 6.15c9.546 3.335 21.273 4.632 26.627 4.412zM494.904 545.226c11.878 0.215 33.778-6.28 51.316-17.226 1.222-0.763 1.825-1.825 3.002-2.629-2.973-3.486-5.581-7.168-9.298-10.169-12.172-9.828-27.194-16.262-37.593-17.377-3.723-0.399-17.652-0.444-30.805 2.931s-24.969 10.644-28.049 19.961c-0.507 1.533-0.427 1.83-0.168 2.705s1.081 2.414 2.722 4.11c3.281 3.391 9.454 6.962 16.243 9.671s14.212 4.736 20.331 6.059c6.119 1.323 11.327 1.947 12.3 1.964zM560.693 696.454l-111.089-1.239-36.384-236.044h181.526zM544.853 670.312l26.571-185.196h-134.557l28.408 184.32zM565.906 813.586l-123.529-2.4-18.965-119.929h161.435zM551.765 796.762l13.788-88.965h-122.8l13.788 87.106zM906.516 465.468l-181.553-3.459-27.953-173.106h237.435zM885.999 440.974l20.235-127.976h-180.918l20.235 125.318zM862.449 683.67c0 0-5.217-7.488-8.816-12.95-0.104 0.067-0.187 0.176-0.291 0.242-13.188 8.375-29.551 10.7-44.897 10.955-5.731 0.095-15.156-1.004-23.938-4.79-4.391-1.893-8.63-4.428-12.132-8.462s-6.254-10.317-6.038-17.438c0.215-7.074 3.946-12.108 7.729-15.141s8.195-4.923 12.804-6.392c9.217-2.938 19.143-3.906 24.678-3.989 18.271-0.276 33.224 11.884 43.721 24.192 5.589-6.089 9.475-13.566 9.085-26.323-0.225-7.337-1.796-13.469-4.458-18.707-14.469 10.102-32.225 15.073-48.638 15.745-7.026 0.288-18.911-1.089-29.853-4.911-5.471-1.911-10.652-4.367-14.954-8.099s-8.258-9.708-8.2-17.543c0.061-8.309 4.741-14.164 9.555-17.483s10.561-5.253 16.579-6.634c12.036-2.761 24.971-3.008 31.612-2.463 13.167 1.081 27.258 5.477 38.747 14.778 2.298 1.861 3.798 4.978 5.847 7.298 9.258-8.721 15.122-19.258 13.644-35.132-0.424-4.556-2.83-9.125-5.119-13.66-2.178 1.578-3.645 3.843-5.937 5.274-19.167 11.963-41.408 18.916-56.301 18.647-2.72-0.049-7.477-0.744-13.958-2.146s-14.292-3.515-21.765-6.498c-7.473-2.982-14.576-6.647-19.973-12.225-2.698-2.789-5.070-6.167-6.396-10.653s-1.221-10.003 0.347-14.748c6.006-18.168 21.836-25.131 36.372-28.861s28.341-3.75 33.863-3.158c12.848 1.378 28.81 8.406 42.578 19.523 5.055 4.082 9.273 9.385 13.442 14.642 2.722-2.565 6.508-4.761 8.491-7.45 5.028-6.817 7.18-13.165 6.665-19.599-0.073-0.907-0.775-2.722-4.246-5.168s-9.065-4.778-15.884-6.558c-13.638-3.561-32.186-5.19-50.666-5.682-36.96-0.982-73.731 2.463-73.731 2.463l-0.795-15.443c0 0 37.113-3.494 74.75-2.493 18.819 0.5 37.754 2.085 52.626 5.969 7.436 1.942 13.852 4.389 19.010 8.024s9.697 9.198 10.339 17.226c0.982 12.26-3.435 23.356-9.936 32.171-2.304 3.124-5.997 5.057-8.805 7.797 3.191 6.306 5.698 13.046 6.407 20.671 1.915 20.564-5.354 36.823-16.164 48.263 3.686 7.425 6.056 16.167 6.363 26.187 0.517 16.867-4.651 29.878-12.456 39.046 3.097 5.114 8.659 13.146 8.659 13.146zM808.31 666.444c12.754-0.212 25.482-2.742 35.633-7.752-8.733-9.224-19.624-17.704-32.273-17.513-4.615 0.070-14.25 1.045-22.157 3.566-3.954 1.26-7.504 2.983-9.589 4.654s-2.127 2.427-2.128 2.463c-0.060 1.983 0.341 3.104 2.028 5.047s4.677 3.961 8.177 5.47c7.001 3.019 15.999 4.136 20.309 4.065zM810.909 605.14c13.475-0.552 27.681-4.923 39.419-11.817-0.591-0.527-0.867-1.294-1.49-1.798-9.241-7.48-21.825-11.64-33.55-12.602-5.422-0.445-18.247-0.183-28.99 2.282-5.372 1.232-10.275 3.085-13.274 5.153s-3.3 3.19-3.305 3.853c-0.006 0.847 0.353 2.127 2.935 4.367s6.855 4.483 11.628 6.15c9.546 3.335 21.273 4.632 26.627 4.412zM807.033 545.226c11.878 0.215 33.778-6.28 51.316-17.226 1.222-0.763 1.825-1.825 3.002-2.629-2.973-3.486-5.581-7.168-9.298-10.169-12.172-9.828-27.194-16.262-37.593-17.377-3.723-0.399-17.652-0.444-30.805 2.931s-24.969 10.644-28.049 19.961c-0.507 1.533-0.427 1.83-0.168 2.705s1.081 2.414 2.722 4.11c3.281 3.391 9.454 6.962 16.243 9.671s14.212 4.736 20.331 6.059c6.119 1.323 11.327 1.947 12.3 1.964zM872.822 696.454l-111.089-1.239-36.384-236.044h181.526zM856.982 670.312l26.571-185.196h-134.557l28.408 184.32zM878.022 813.586l-123.529-2.4-18.965-119.929h161.459zM863.904 796.762l13.765-88.965h-122.776l13.788 87.106z" />
<glyph unicode="&#xe92a;" glyph-name="eg-ifl" d="M456.824 938.565v-1005.929h84.329v1005.929zM163.082 954.165l341.929-544.024 310.871 544.024zM313.506 871.035h359.153l-171.035-299.294z" />
<glyph unicode="&#xe92b;" glyph-name="eg-mes" d="M304.024 242.965l-150.212-208.659h732.259l-150.212 208.659zM346.635 182.729h346.612l49.976-88.188h-446.565zM409.647 515.718c-2.187-0.002-4.355-0.4-6.4-1.177l-365.129-150.329c-18.75-7.13-13.66-59.033 6.4-59.059h926.729c20.073 0 25.186 51.924 6.424 59.059l-341.035 150.329c-2.052 0.779-4.229 1.178-6.424 1.177zM412.965 455.482h213.929l149.576-90.094h-513.059zM381.459 359.625l-100.847-152.52h479.812l-109.859 152.52zM428.094 332.895h176.682l71.365-99.058h-313.529zM231.765 53.318c15.019-39.053 30.010-67.040 45.012-106.099l56.918 106.099zM697.508 53.318c15.019-39.053 39.773-78.117 54.774-117.176l56.894 117.176zM391.302 494.92l253.287-3.391v165.6l-250.603-7.593c0 0 1.060-121.73-2.684-154.616zM456.265 606.229h125.986v-92.106h-125.986zM409.647 765.224c-2.617-0.002-5.202-0.572-7.576-1.671l-292.847-102.118c-17.56-8.135-11.777-58.543 7.576-58.565h782.165c19.366-0.003 25.172 50.424 7.6 58.565l-268.753 102.118c-2.382 1.102-4.975 1.672-7.6 1.671zM413.647 729.082h212.588l118.424-65.976h-449.435zM518.706 959.859l-139.6-219.264c94.238-1.021 188.492-0.655 282.706-3.131zM518.871 869.003l52.376-95.087-102.871 1.683zM399.247 758.518l-9.2-116.588 60.118-2.847 9.224 116.588zM637.788 760l-60.141-2.776 9.224-119.647 60.118 2.776zM387.854 497.231l-8.682-136.729 63.458-1.835 8.682 136.706zM648.494 499.114l-60.437 0.758 3.247-147.906 60.437-0.734zM97.684 351.882l-36.059-0.847v-65.953c0.010-0.409-0.037-0.817 0-1.224v-33.741l36.059 3.271v33.129zM32.859 261.254v-36.141h93.576v36.141zM948.064 350.871l-36.071-0.847v-65.976c0.010-0.401-0.037-0.801 0-1.2v-33.765l36.071 3.271v33.153zM883.233 256.965v-36.141h93.576v36.141zM217.472 642.965l-36.059-0.847v-65.953c0.010-0.409-0.037-0.817 0-1.224v-33.741l36.059 3.271v98.494zM152.635 549.082v-36.141h93.6v36.141h-93.6zM837.225 649.106l-36.059-0.847v-65.953c0.010-0.409-0.037-0.817 0-1.224v-33.741l36.059 3.271v98.494zM772.4 555.224v-36.141h93.576v36.141h-93.576z" />
<glyph unicode="&#xe92c;" glyph-name="eg-motor" d="M512 960c-282.481 0-512-229.519-512-512s229.519-512 512-512c282.481 0 512 229.519 512 512s-229.519 512-512 512zM512 912.331c256.719 0 464.331-207.612 464.331-464.331s-207.612-464.331-464.331-464.331c-256.719 0-464.331 207.612-464.331 464.331s207.612 464.331 464.331 464.331zM512 839.454c-215.911 0-391.454-175.543-391.454-391.454s175.543-391.454 391.454-391.454c215.911 0 391.454 175.543 391.454 391.454s-175.543 391.454-391.454 391.454zM512 791.785c190.149 0 343.785-153.636 343.785-343.785s-153.636-343.785-343.785-343.785c-190.149 0-343.785 153.636-343.785 343.785s153.636 343.785 343.785 343.785zM340.81 634.405h75.444l95.496-253.7 95.997 253.7h75.444v-372.81h-49.377v327.363l-96.498-255.698h-50.881l-96.498 255.698v-327.363h-49.126v372.81z" />
<glyph unicode="&#xe92d;" glyph-name="eg-mtz" d="M57.015 866.046v-827.073h918.864v827.073zM8.827 914.234h1015.241v-923.45h-1015.241zM877.941 522.831v44.452l-252.582 108.484v-47.363l200.296-83.612-200.296-84.406v-47.363l252.582 109.807zM487.982 418.749v-32.736h-292.32v32.736c25.734 0.544 95.117 2.769 97.608 24.387v203.547c-20.315 28.083-69.62 23.329-97.608 23.322v32.736h292.32v-32.736c-25.858-0.553-95.667-2.063-98.111-23.322l-2.13-203.547c28.079-25.876 65.219-24.387 100.24-24.387zM280.665 191.418v-39.539h458.782v39.539h-458.782zM258.672 234.547v-125.797h43.986v125.797h-43.986zM721.342 234.547v-125.797h43.986v125.797h-43.986z" />
<glyph unicode="&#xe92e;" glyph-name="eg-oil-level" d="M185.929 229.247c-1.050-2.593-0.612-5.442-1.435-8.094l-0.306 0.071c-0.74-17.55-6.991-35.229-17.482-49.318s-25.633-25.157-42.235-30.894c-18.444-6.374-39.58-6.374-58.024 0l-15.741-45.553c28.903-9.989 60.603-9.989 89.506 0 22.647 7.827 42.079 22.374 57.765 40.376 13.169-19.028 31.095-34.397 53.624-40.776 16.837-4.768 34.645-5.060 51.624-0.824s32.577 12.87 45.2 24.988c2.148 2.062 3.582 4.684 5.529 6.918 18.026-19.225 42.27-31.754 68.871-32 28.061-0.26 54.759 11.973 73.341 32.941 18.979-21.207 46.256-33.321 74.729-32.941 27.527 0.367 53.086 13.053 71.412 33.412 0.164-0.186 0.187-0.45 0.353-0.635 20.595-22.977 50.908-35.114 81.671-32.706 30.647 2.399 58.596 19.004 75.388 44.753 0.261 0.4 0.216 0.914 0.471 1.318 0.083-0.094 0.129-0.213 0.212-0.306 18.463-20.715 42.303-36.218 68.729-44.682 30.782-9.859 64.182-9.859 94.965 0l-14.706 45.882c-21.007-6.728-44.546-6.728-65.553 0-18.088 5.793-34.821 16.668-47.459 30.847s-21.541 32.050-25.224 50.682l-0.518-0.141c-0.349 1.123 0.013 2.322-0.376 3.435l-46.376-12.635c0.223-1.129 0.858-2.124 1.106-3.247l-0.212-0.047c4.993-14.257 2.84-32.147-5.412-44.8s-23.74-21.833-38.8-23.012c-15.112-1.183-31.906 5.536-42.024 16.824s-14.988 28.731-12.165 43.624h-0.259c-0.308 3.079 0.839 6.091 0.235 9.153l-47.318-0.188c-0.583-3.074 0.687-6.065 0.4-9.153h-0.353c2.769-14.044-1.313-30.412-10.329-41.529s-24.181-18.468-38.494-18.659c-14.063-0.188-29.152 6.478-38.471 17.012s-14.090 26.324-12.188 40.259h-0.494c-0.206 2.399 0.788 4.712 0.4 7.106l-47.647-0.612c-0.328-2.407 0.714-4.698 0.565-7.106h-0.471c2.202-13.586-2.208-29.207-11.176-39.647s-23.743-17.139-37.506-17.012c-14.304 0.132-29.57 7.76-38.282 19.106-3.644 4.746-5.768 10.729-7.435 16.753 1.664 12.259 1.866 24.667-1.035 36.776l-46.776 0.4c-3.303-12.836-2.928-25.993-0.965-38.8-2.555-8.447-7.357-16.482-13.718-22.588-6.46-6.202-14.794-10.82-23.482-12.988s-18.231-2.016-26.847 0.424c-13.69 3.876-26.381 14.491-32.635 27.271-5.26 10.748-5.547 23.838-2.635 35.671 0.775 5.002 2.68 9.766 2.894 14.847zM1007.553 744.494l-294.588-155.459-56.282 106.518h-449.718v-368.188h530.753zM255.153 647.365h372.494l65.224-123.435 174.024 91.835-155.388-240.212h-456.353zM72.776 805.647l-30.4-194.494 194.4-268.918-2.259 78.259-6.776 235.435zM106.047 706.471l74.094-71.553 3.953-137.553-91.035 125.929zM375.2 782.094v-108.471h24.094v108.471zM308.071 808.847v-36.141h158.376v36.141zM913.356 521.763c0 0-63.005-146.509-32.542-190.915 23.731-34.592 48.99-33.17 71.593 2.169 28.96 45.279-39.051 188.746-39.051 188.746zM912.824 551.012l-10.541-24.494c0 0-16.010-37.192-28.212-80.282-6.101-21.545-11.309-44.608-13.035-65.859s-0.624-41.106 9.835-56.353c13.037-19.004 28.715-31.017 46.612-30.353s32.723 13.523 45.082 32.847c9.949 15.555 10.381 35.402 7.929 56.494s-8.456 43.842-15.294 65.059c-13.675 42.434-30.965 78.847-30.965 78.847zM913.976 487.294c6.062-13.993 10.27-21.676 18.306-46.612 6.545-20.309 12.127-41.928 14.282-60.471s0.225-33.622-4.306-40.706c-10.244-16.016-19.355-21.53-25.671-21.765s-15.142 4.341-25.835 19.929c-4.772 6.956-7.214 22.068-5.694 40.776s6.346 40.591 12.188 61.224c7.195 25.409 11.155 33.364 16.729 47.624z" />
<glyph unicode="&#xe92f;" glyph-name="eg-pmes" d="M713.554-16.89l85.495 205.985 67.055-24.271 126.73 132.393-98.446-169.462-61.642 21.631zM231.839 940.735v-291.682h-32.29v258.47h-117.332v-258.47h-32.29v291.682h181.913zM296.1 940.735h48.116l60.904-198.493 61.224 198.493h48.116v-291.682h-31.491v256.126l-61.543-200.055h-32.45l-61.543 200.055v-256.126h-31.331v291.682zM564.334 712.742q33.729-36.924 74.651-36.924 42.201 0 61.224 27.742t22.539 74.435h-127.563v33.212h127.563q-3.517 46.693-22.539 74.435-19.023 27.937-61.224 27.937-40.922 0-74.651-36.924v41.613q33.249 27.742 76.57 27.742 53.551 0 84.722-40.636 31.171-40.441 31.171-110.578 0-70.332-31.171-110.968-31.171-40.441-84.722-40.441-42.681 0-76.57 28.133v41.222zM986.346 918.267v-41.613q-16.305 18.56-34.848 27.742-18.383 9.182-39.164 9.182-40.922 0-62.662-30.673-21.74-30.477-21.74-88.306 0-57.633 21.74-88.306 21.74-30.477 62.662-30.477 20.781 0 39.164 9.182 18.543 9.182 34.848 27.742v-41.222q-16.944-14.066-35.967-21.1-18.863-7.033-39.963-7.033-54.19 0-85.362 40.441-31.171 40.636-31.171 110.773 0 70.332 31.171 110.773 31.171 40.636 85.362 40.636 21.42 0 40.283-7.033 19.023-6.838 35.647-20.709zM274.522-18.219l-49.164 217.537-70.209-12.496-102.33 152.043 68.146-183.753 64.426 10.817zM471.879 589.242c-98.846-11.56-184.995-71.786-211.485-181.537-6.945-28.775-3.194-61.444 8.274-95.355s31.629-68.665 63.544-94.378c50.176-40.426 69.53-62.907 69.53-62.907 7.825-9.265 20.286-13.738 32.632-10.654 17.303 4.322 27.826 21.853 23.504 39.156-1.36 5.444-4.027 10.216-7.583 14.067l0.123-0.143c0 0-24.572 27.956-77.701 70.761-19.738 15.902-34.596 40.274-42.885 64.785s-9.044 49.557-6.643 59.505c20.714 85.821 76.482 123.234 156.178 132.555 53.223 6.225 91.825-2.422 119.010-18.946s44.658-41.283 53.806-74.814c8.224-30.148 5.411-46.133-2.358-66.677s-23.020-45.086-37.189-79.961c-11.7-28.8-34.606-86.126-40.799-101.623l-125.807-45.105c-15.801-5.419-25.023-22.011-20.929-38.398 4.322-17.303 21.853-27.826 39.156-23.504 1.271 0.318 2.506 0.706 3.701 1.161l153.022 54.846 5.407 13.501c0 0 33.074 82.761 46.092 114.805 11.82 29.094 26.741 52.287 37.765 81.439s15.616 64.823 4.237 106.532c-12.756 46.755-40.614 87.496-82.549 112.986s-96.237 35.365-160.051 27.902zM418.117 471.71c89.969 16.479 157.331-43.219 159.897-114.528-34.433 49.828-180.284 91.51-159.897 114.528zM596.874 105.078c-11.307-1.433-29.177-6.484-50.918-13.156s-45.644-14.811-63.469-22.233c-8.912-3.711-16.061-6.93-22.081-11.021-3.010-2.046-6.379-3.289-9.492-10.641-1.556-3.676-2.001-10.448 0.693-15.397s6.46-7.006 9.095-8.157l5.552-2.421 5.798 1.836c0 0 81.359 25.618 113.069 38.431 12.283 4.963 18.859 7.718 24.404 11.238 1.386 0.88 2.725 1.469 5.183 4.399 1.229 1.465 3.242 3.709 3.876 8.753s-2.647 12.16-6.046 14.884c-6.799 5.449-9.15 3.762-11.036 3.791s-3.215-0.128-4.628-0.307zM512.172 27.362c-15.196-4.901-28.174-9.208-38.455-18.968-3.743-3.553-9.611-7.127-8.295-18.831 0.658-5.852 5.158-11.32 8.729-13.487s6.31-2.63 8.696-2.969c9.547-1.358 17.271 0.442 27.33 2.534 20.118 4.186 44.322 11.655 58.737 17.777 9.984 4.24 16.741 7.504 22.093 11.073 2.676 1.784 5.113 3.297 7.928 7.389 1.407 2.046 3.101 5.124 3.289 9.649s-2.049 9.816-4.74 12.664c-5.383 5.696-9.271 5.516-12.234 5.966s-5.551 0.47-8.343 0.39c-5.585-0.16-11.838-0.89-18.844-2.039-14.012-2.298-30.694-6.248-45.89-11.148z" />
<glyph unicode="&#xe930;" glyph-name="eg-pmes-alter" d="M505.318 930.635l-476.659-424.847c-7.441-6.649-12.103-16.274-12.103-26.988 0-9.251 3.476-17.69 9.192-24.082l-0.031 0.035c6.649-7.441 16.274-12.103 26.988-12.103 9.251 0 17.69 3.476 24.082 9.192l-0.035-0.031 451.788 402.682 452.518-431.624c6.473-6.181 15.263-9.986 24.941-9.986 10.287 0 19.569 4.297 26.151 11.195l0.013 0.014c6.181 6.473 9.985 15.263 9.985 24.941 0 10.275-4.288 19.548-11.171 26.129l-0.014 0.013-476.659 454.635c-6.474 6.18-15.263 9.984-24.941 9.984-9.25 0-17.689-3.475-24.082-9.191l0.035 0.031zM494.918 564.635c-54.467-7.091-103.188-36.35-133.318-92.565-9.753-18.196-13.321-42.559-11.106-69.059s10.782-55.106 29.224-78.871c31.278-40.306 42.376-61.718 42.376-61.718 2.855-5.374 8.418-8.972 14.821-8.972 2.84 0 5.515 0.708 7.858 1.957l-0.090-0.044c5.374 2.855 8.972 8.418 8.972 14.821 0 2.84-0.708 5.515-1.957 7.858l0.044-0.090c0 0-13.11 24.837-45.6 66.706-13.443 17.323-20.53 39.88-22.306 61.129s2.301 41.243 7.247 50.471c34.063 63.553 89.382 83.388 155.553 75.059 43.871-5.522 74.2-20.048 93.671-39.247s28.943-43.371 29.576-72.047c0.569-25.74-5.499-39.59-16.165-54.588s-27.113-30.473-44.306-53.435c-15.232-20.343-47.979-64.631-53.482-72.071l-110.071-10.682c-8.507-0.86-15.092-7.985-15.092-16.647 0-0.576 0.029-1.145 0.086-1.706l-0.006 0.071c0.861-8.506 7.985-15.090 16.647-15.090 0.568 0 1.129 0.028 1.682 0.084l-0.070-0.006 124.847 12.118 4.424 6c0 0 41.515 56.117 57.812 77.882 15.241 20.356 31.347 35.177 44.8 54.094s23.063 42.601 22.353 74.706c-0.795 35.955-13.716 69.676-39.553 95.153s-63.744 42.416-112.965 48.612c-18.961 2.387-37.75 2.481-55.906 0.118zM532.617 487.726c59.115-9.318 76.259-25.505 78.53-73.026-16.057 44.035-97.619 59.517-78.53 73.026zM528.494 505.318l-5.529-3.929c-2.647-1.873-5.521-4.425-7.647-8.541s-2.777-9.867-1.718-14.259c2.118-8.784 6.895-12.041 10.729-15.012 7.668-5.942 16.536-10.164 26.282-15.553 19.493-10.777 39.701-25.012 44.824-39.059l32.424 6.541c-1.227 25.675-7.129 47.229-23.247 62.259s-38.605 21.642-69.388 26.494zM459.114 163.541c0 0 64.835 4.139 88.656 7.583 77.135 11.153-103.242 4.017-88.656-7.583zM566.447 192.871c-9.643 1.187-23.257 0.636-40.471-0.306s-36.223-2.563-50.894-4.847c-7.336-1.142-13.252-2.204-19.106-4.424-2.927-1.11-6.279-1.374-10.941-7.765-2.331-3.195-4.323-9.587-2.965-14.988s4.455-8.36 6.635-10.094l5.035-4 6.447 0.4c0 0 63.78 3.93 89.976 7.718 9.974 1.442 15.184 2.177 20.776 4.094 1.398 0.479 2.772 0.682 5.882 3.012 1.555 1.165 4.059 2.974 5.859 7.765s0.401 12.471-2.235 16.047c-5.273 7.152-8.1 6.129-9.859 6.612s-2.936 0.628-4.141 0.776zM469.787 113.427c-17.837-10.407 38.609-9.221 58.907-5.909 61.573 10.048-38.73 17.68-58.907 5.909zM495.012 135.576c-12.292-0.853-22.713-1.315-33.647-7.694-3.828-2.234-10.116-4.237-11.6-15.694-0.742-5.728 2.176-12.057 5.035-15.035s5.297-4.084 7.341-4.941c8.178-3.43 14.171-3.275 22.118-3.6 15.892-0.651 34.862 0.398 47.129 2.4 8.219 1.341 13.912 2.525 19.059 4.424 2.573 0.949 5.055 1.727 8.659 5.012 1.802 1.642 4.133 4.247 5.365 8.565s0.386 9.914-1.482 13.341c-3.737 6.855-7.484 7.646-10 8.729s-4.61 1.634-6.847 2.141c-4.473 1.014-9.35 1.629-14.824 2.094-10.947 0.931-24.014 1.112-36.306 0.259zM96.306 527.153v-608.518h852.494v608.518h-72.282v-536.235h-707.929v536.235z" />
</font>
</defs>
</svg>
