<?xml version="1.0" encoding="UTF-8" standalone="no"?>
<svg
   viewBox="0 0 85 85"
   version="1.1"
   id="svg2"
   inkscape:version="1.1 (c68e22c387, 2021-05-23)"
   sodipodi:docname="eg-cooling-system.svg"
   xmlns:inkscape="http://www.inkscape.org/namespaces/inkscape"
   xmlns:sodipodi="http://sodipodi.sourceforge.net/DTD/sodipodi-0.dtd"
   xmlns="http://www.w3.org/2000/svg"
   xmlns:svg="http://www.w3.org/2000/svg"
   xmlns:rdf="http://www.w3.org/1999/02/22-rdf-syntax-ns#"
   xmlns:cc="http://creativecommons.org/ns#"
   xmlns:dc="http://purl.org/dc/elements/1.1/">
  <metadata
     id="metadata18">
    <rdf:RDF>
      <cc:Work
         rdf:about="">
        <dc:format>image/svg+xml</dc:format>
        <dc:type
           rdf:resource="http://purl.org/dc/dcmitype/StillImage" />
        <dc:title />
      </cc:Work>
    </rdf:RDF>
  </metadata>
  <defs
     id="defs16" />
  <sodipodi:namedview
     pagecolor="#ffffff"
     bordercolor="#666666"
     borderopacity="1"
     objecttolerance="10"
     gridtolerance="10"
     guidetolerance="10"
     inkscape:pageopacity="0"
     inkscape:pageshadow="2"
     inkscape:window-width="1920"
     inkscape:window-height="1018"
     id="namedview14"
     showgrid="false"
     inkscape:zoom="2.7764706"
     inkscape:cx="41.239407"
     inkscape:cy="55.466101"
     inkscape:window-x="-8"
     inkscape:window-y="-8"
     inkscape:window-maximized="1"
     inkscape:current-layer="svg2"
     inkscape:pagecheckerboard="0" />
  <path
     style="color:#000000;fill:#000000;-inkscape-stroke:none"
     d="M 40.358289,83.450858 C 36.47871,83.163552 33.181125,82.499669 29.922308,81.34983 19.975331,77.840138 12.056165,70.990239 7.3114273,61.791919 4.7600354,56.845701 3.2498415,51.680337 2.8797447,46.634102 2.7400181,44.72885 2.8268301,39.505184 3.0214409,38.110222 3.7922196,32.584731 5.6942225,27.099979 8.4339396,22.502344 11.820199,16.819713 16.976299,11.72659 22.781055,8.3304918 27.477893,5.5825825 32.444503,3.9279167 38.522847,3.0860033 c 1.109476,-0.1536759 7.092852,-0.1511063 8.769822,0.00357 1.747403,0.1613757 3.655718,0.5017207 5.645124,1.00679 8.108228,2.0585347 14.922431,6.2524687 20.569364,12.6598407 4.185688,4.74936 7.151507,10.461625 8.739378,16.832358 0.508742,2.041159 0.927348,4.521521 1.056257,6.258702 0.111837,1.507098 0.05246,5.90309 -0.102344,7.574275 -0.326522,3.525413 -1.49296,8.037712 -2.9741,11.505097 -1.456331,3.409313 -3.679008,7.135236 -5.686777,9.532881 -1.621959,1.936905 -5.402371,5.636977 -7.050582,6.900729 -0.910685,0.698267 -3.040846,2.102417 -4.197097,2.766623 -1.296092,0.744538 -3.896748,2.016509 -5.11637,2.5024 -3.377217,1.345451 -7.290247,2.336411 -10.654525,2.698209 -0.881719,0.0948 -6.289769,0.187824 -7.162708,0.123181 z M 46.849491,79.732 c 1.986775,-0.165022 4.679944,-0.715323 6.997007,-1.429723 5.769892,-1.778982 10.821156,-4.826062 15.121382,-9.121679 5.772686,-5.766496 9.356492,-12.978886 10.526842,-21.185232 0.09159,-0.642066 0.15526,-1.973166 0.185952,-3.886378 0.05166,-3.22022 -0.05595,-4.883649 -0.478101,-7.386541 C 78.043388,29.84889 74.509032,22.918408 69.554793,17.804201 63.822953,11.887267 56.65839,8.205422 48.282034,6.8721827 46.977419,6.664536 45.138636,6.5649743 42.55187,6.5619302 c -2.39813,-0.00269 -2.888934,0.021309 -4.029023,0.1982726 -2.849602,0.4422434 -4.732365,0.8745935 -6.938873,1.5934067 -8.168966,2.6612135 -15.4163,8.4333265 -19.90652,15.8544795 -2.7899987,4.611136 -4.6116627,10.043636 -5.127109,15.289907 -0.1589315,1.617617 -0.1326534,6.15905 0.045215,7.818146 0.5993303,5.589796 2.7217744,11.413056 5.896107,16.176918 3.541609,5.31507 8.337085,9.581393 13.991093,12.44728 3.774316,1.913105 7.956146,3.205419 12.040069,3.72075 1.984187,0.250369 5.777116,0.282675 8.326645,0.07091 z M 36.59787,74.819736 C 31.973742,73.72281 27.711691,71.661538 23.794532,68.62763 c -1.23837,-0.959141 -4.041198,-3.715001 -5.17655,-5.089802 -0.426997,-0.517059 -0.775954,-0.960249 -0.775443,-0.984873 8.95e-4,-0.06321 1.342828,-1.014838 1.372849,-0.973831 0.879447,1.201606 2.769459,3.248151 4.015457,4.348031 4.086665,3.607399 8.529717,5.946819 13.664143,7.194635 0.821455,0.19963 1.557718,0.381868 1.636139,0.40496 0.127928,0.03769 0.130158,0.107653 0.02168,0.681173 -0.06652,0.351555 -0.16579,0.693322 -0.220695,0.759478 -0.143395,0.172793 -0.517789,0.140911 -1.734277,-0.147665 z m 16.138086,-1.888503 c -1.050025,-0.08676 -2.650093,-0.499634 -3.871951,-0.999189 -4.826833,-1.973459 -8.65623,-6.204907 -10.299497,-11.38086 -0.529944,-1.669195 -0.856222,-3.60215 -1.08113,-6.404891 l -0.06035,-0.751511 0.21413,0.04772 c 0.117773,0.02622 0.655367,0.217388 1.19465,0.42473 0.53928,0.207344 1.425663,0.480745 1.969743,0.607551 0.862696,0.201075 1.195374,0.231157 2.600841,0.235185 1.780245,0.005 2.55081,-0.106238 4.008419,-0.579201 1.484865,-0.481819 3.338448,-1.561086 4.511378,-2.626797 0.303206,-0.275495 0.594326,-0.500897 0.646935,-0.500897 0.05264,0 0.489475,0.254688 0.970789,0.565969 0.481325,0.311292 1.761525,1.122773 2.844883,1.803311 4.192037,2.633297 5.787251,3.810414 7.264593,5.360605 0.998895,1.048146 1.71863,2.165268 2.028479,3.148474 0.262701,0.833595 0.27613,2.585352 0.02605,3.402286 -0.553294,1.807643 -2.008173,3.884845 -3.617255,5.164507 -1.302601,1.035925 -3.102033,1.928023 -4.545463,2.253469 -0.66501,0.149941 -2.718881,0.334999 -3.484326,0.313951 -0.246214,-0.0069 -0.840666,-0.04476 -1.321007,-0.08443 z M 36.374035,69.005821 C 32.582751,67.743016 29.502244,66.155805 26.57008,63.954376 24.959161,62.744915 22.556987,60.54121 22.271329,60.010787 l -0.170043,-0.315759 0.533255,-0.491971 c 0.293296,-0.270589 0.5534,-0.493565 0.578022,-0.495497 0.02462,-0.002 0.610181,0.530091 1.30124,1.182284 2.889112,2.726608 4.724109,4.06156 7.482163,5.443217 2.212308,1.10826 4.210373,1.9211 5.730674,2.331328 0.384674,0.103796 0.746723,0.245742 0.804569,0.315435 0.227102,0.273643 -0.128623,1.560612 -0.42908,1.55232 -0.08875,-0.003 -0.866332,-0.239288 -1.728094,-0.526323 z M 71.71554,56.582805 c -0.380555,-0.179884 -0.691918,-0.363104 -0.691918,-0.407155 0,-0.04406 0.23688,-0.692061 0.526398,-1.440009 1.567771,-4.05018 2.133206,-6.827212 2.221843,-10.912123 0.07108,-3.277656 -0.145662,-5.295952 -0.916557,-8.533612 -0.488155,-2.050163 -0.482677,-1.89912 -0.07503,-2.070049 0.577226,-0.242036 0.950582,-0.257912 1.140126,-0.04844 0.311916,0.344671 0.944482,2.959558 1.324705,5.476041 0.260999,1.727359 0.328402,5.693726 0.12883,7.580507 -0.353927,3.346084 -0.989841,5.933075 -2.263227,9.207086 -0.268136,0.689411 -0.536057,1.303281 -0.595372,1.364164 -0.08533,0.08756 -0.252377,0.04235 -0.79977,-0.216378 z M 17.16903,56.42681 c -1.76259,-0.496653 -3.194002,-1.593667 -4.371937,-3.35059 -2.496364,-3.723398 -2.674035,-8.130915 -0.498802,-12.373923 2.238095,-4.365625 6.42348,-7.435748 11.772337,-8.635404 1.736903,-0.38955 5.233737,-0.393249 7.424835,-0.0079 1.574579,0.276966 3.804166,0.892071 3.804166,1.049508 0,0.05203 -0.31907,0.4356 -0.709054,0.852425 -0.884576,0.94545 -1.597409,2.009417 -2.21075,3.299759 -0.820562,1.726294 -1.108716,3.075632 -1.108716,5.19187 0,2.017109 0.273248,3.318964 1.08943,5.190517 l 0.352466,0.808248 -0.206375,0.152019 c -8.262789,6.086518 -9.541815,6.89927 -12.028968,7.643743 -0.986618,0.295319 -2.589309,0.382345 -3.308632,0.179659 z m 50.004639,-2.181287 c -0.322224,-0.159037 -0.501401,-0.305632 -0.518374,-0.424093 -0.01422,-0.09958 0.113994,-0.663644 0.285022,-1.253475 0.690117,-2.380114 1.114625,-4.790292 1.311223,-7.444692 0.08273,-1.116316 0.08318,-1.792942 0.002,-2.954617 -0.123978,-1.776333 -0.391004,-3.936641 -0.636184,-5.146897 -0.09635,-0.475549 -0.175164,-0.904882 -0.175164,-0.954071 0,-0.121087 0.767053,-0.374871 1.133061,-0.374871 0.417236,0 0.535896,0.230374 0.789706,1.533116 0.416474,2.137636 0.533209,3.511293 0.535466,6.301094 0.002,2.638572 -0.06876,3.625217 -0.401881,5.595865 -0.201371,1.191077 -0.770162,3.463849 -1.142774,4.566223 -0.302991,0.896443 -0.400394,0.942283 -1.18218,0.556418 z M 41.9699,52.040834 c -2.318872,-0.450536 -3.715422,-1.183162 -5.282864,-2.771403 -1.375571,-1.393819 -1.978689,-2.406776 -2.49588,-4.191902 -1.167172,-4.028601 0.463472,-8.400941 4.002647,-10.732518 0.798775,-0.526226 2.130339,-1.108537 3.21068,-1.404077 0.879635,-0.240632 3.537877,-0.21055 4.494555,0.05085 2.35002,0.642145 4.584722,2.253915 5.771118,4.162382 1.904823,3.064178 2.101626,6.450536 0.557679,9.596055 -1.256473,2.559828 -3.50456,4.404735 -6.228915,5.111793 -1.106536,0.287188 -3.031507,0.372612 -4.02902,0.178808 z m 2.301091,-6.061368 c 1.110809,-0.232403 2.009388,-0.957789 2.519006,-2.033467 0.25963,-0.548017 0.28333,-0.673338 0.28333,-1.498034 0,-0.860464 -0.01487,-0.929988 -0.337757,-1.58337 -1.340615,-2.71257 -5.212963,-2.658276 -6.493817,0.09102 -0.212912,0.457027 -0.238573,0.618035 -0.238573,1.49698 0,0.875123 0.02615,1.04099 0.23483,1.4885 0.715439,1.534375 2.391906,2.381697 4.032981,2.038353 z M 55.852647,41.669191 C 55.585721,38.533644 54.37078,35.869064 52.22574,33.714755 50.481522,31.963 48.721735,31.016098 45.954153,30.340181 l -0.313369,-0.07655 0.02704,-4.246678 c 0.03832,-6.016683 0.131758,-7.134557 0.751083,-8.984495 0.563472,-1.683094 1.355551,-2.943908 2.246294,-3.575623 1.614252,-1.144825 3.188695,-1.515789 5.570841,-1.312566 1.815262,0.154858 2.502595,0.346226 4.118556,1.146722 3.400016,1.684255 5.874211,5.025623 6.842216,9.240328 0.300171,1.306926 0.392775,2.413905 0.339566,4.059009 -0.0548,1.695082 -0.181287,2.521639 -0.64431,4.211063 -0.958157,3.496035 -2.894542,6.512017 -5.927363,9.232073 -0.889571,0.797826 -2.880804,2.374364 -2.998926,2.374364 -0.02766,0 -0.07852,-0.332392 -0.113126,-0.738651 z M 23.794532,28.162128 c -0.769156,-0.621268 -0.746513,-0.547922 -0.334097,-1.082268 0.494668,-0.640918 3.007388,-3.104362 4.006445,-3.927866 2.581033,-2.127522 5.253412,-3.742111 8.325185,-5.029859 1.719354,-0.72079 2.88743,-1.092893 3.038115,-0.967843 0.114549,0.09507 0.622619,1.344019 0.568271,1.396942 -0.0138,0.01343 -0.709965,0.273499 -1.547108,0.577987 -4.854067,1.765534 -9.052032,4.621816 -12.928541,8.796528 -0.308651,0.332393 -0.588048,0.602911 -0.620889,0.601157 -0.03287,-0.002 -0.261161,-0.165905 -0.507381,-0.364778 z m -4.836428,-2.285764 c -0.447097,-0.296366 -0.848969,-0.66544 -0.848969,-0.779715 0,-0.144499 0.953392,-1.365202 1.927466,-2.467882 3.258109,-3.688275 7.041011,-6.472543 11.428949,-8.411856 2.264534,-1.000844 6.037953,-2.166978 6.575453,-2.032077 0.247551,0.06214 0.337703,0.332359 0.343496,1.02963 l 0.0049,0.487081 -1.701143,0.467734 c -3.426862,0.942228 -6.120871,2.147792 -9.03981,4.045292 -0.638465,0.41504 -1.40398,0.939226 -1.701142,1.164859 -1.727251,1.311449 -4.387883,3.948819 -5.733271,5.683135 -0.443193,0.571306 -0.826667,1.041305 -0.852174,1.04443 -0.02551,0.004 -0.206804,-0.100654 -0.402902,-0.230631 z"
     id="path4164" />
</svg>
