<?xml version="1.0" encoding="UTF-8" standalone="no"?>
<svg
   viewBox="0 0 85 85"
   version="1.1"
   id="svg2"
   inkscape:version="1.1 (c68e22c387, 2021-05-23)"
   sodipodi:docname="eg-ct.svg"
   xmlns:inkscape="http://www.inkscape.org/namespaces/inkscape"
   xmlns:sodipodi="http://sodipodi.sourceforge.net/DTD/sodipodi-0.dtd"
   xmlns="http://www.w3.org/2000/svg"
   xmlns:svg="http://www.w3.org/2000/svg"
   xmlns:rdf="http://www.w3.org/1999/02/22-rdf-syntax-ns#"
   xmlns:cc="http://creativecommons.org/ns#"
   xmlns:dc="http://purl.org/dc/elements/1.1/">
  <metadata
     id="metadata20">
    <rdf:RDF>
      <cc:Work
         rdf:about="">
        <dc:format>image/svg+xml</dc:format>
        <dc:type
           rdf:resource="http://purl.org/dc/dcmitype/StillImage" />
        <dc:title />
      </cc:Work>
    </rdf:RDF>
  </metadata>
  <defs
     id="defs18" />
  <sodipodi:namedview
     pagecolor="#ffffff"
     bordercolor="#666666"
     borderopacity="1"
     objecttolerance="10"
     gridtolerance="10"
     guidetolerance="10"
     inkscape:pageopacity="0"
     inkscape:pageshadow="2"
     inkscape:window-width="1700"
     inkscape:window-height="912"
     id="namedview16"
     showgrid="false"
     inkscape:zoom="3.9265224"
     inkscape:cx="42.403935"
     inkscape:cy="52.718405"
     inkscape:window-x="0"
     inkscape:window-y="0"
     inkscape:window-maximized="0"
     inkscape:current-layer="svg2"
     inkscape:pagecheckerboard="0" />
  <g
     id="g4153">
    <path
       style="color:#000000;fill:#000000;-inkscape-stroke:none"
       d="M 41.109375,0.0234375 V 84.976562 h 10 V 0.0234375 Z"
       id="path6" />
    <path
       style="color:#000000;fill:#000000;-inkscape-stroke:none"
       d="m 44.664062,6.90625 v 9 h 18 v -9 z"
       id="path8" />
    <path
       style="color:#000000;fill:#000000;-inkscape-stroke:none"
       d="m 47.220703,6.8691406 c -9.34802,0 -16.85482,1.1722806 -22.576172,3.9785154 -5.721351,2.806235 -9.699218,8.074018 -9.699218,14.16211 0,6.088092 3.606454,11.667425 9.283203,15.240234 5.676749,3.572809 13.424809,5.517578 22.992187,5.517578 v -9 c -8.318076,0 -14.458213,-1.781496 -18.197266,-4.134766 -3.739052,-2.353269 -5.078125,-4.90307 -5.078125,-7.623046 0,-2.719976 0.967661,-4.269961 4.66211,-6.082032 3.694449,-1.81207 10.075848,-3.058593 18.613281,-3.058593 z"
       id="path10" />
    <path
       style="color:#000000;fill:#000000;-inkscape-stroke:none"
       d="m 47.220703,38.599609 c -9.515754,0 -17.209866,1.75687 -22.900391,5.152344 -5.690524,3.395474 -9.374999,8.90019 -9.374999,14.988281 0,6.088092 3.87929,11.428326 9.593749,14.417969 5.71446,2.989644 13.281996,4.337891 22.681641,4.337891 v -9 c -8.485809,0 -14.806471,-1.376063 -18.507812,-3.3125 -3.701342,-1.936437 -4.767579,-3.723384 -4.767579,-6.44336 0,-2.719974 1.261052,-5.036934 4.986329,-7.259765 3.725276,-2.222832 9.919363,-3.88086 18.289062,-3.88086 z"
       id="path12" />
    <path
       style="color:#000000;fill:#000000;-inkscape-stroke:none"
       d="m 44.845703,68.300781 v 9 h 18 v -9 z"
       id="path14" />
  </g>
</svg>
