<?xml version="1.0" encoding="UTF-8" standalone="no"?>
<svg
   viewBox="0 0 85 85"
   version="1.1"
   id="svg2"
   inkscape:version="1.1 (c68e22c387, 2021-05-23)"
   sodipodi:docname="eg-car-breaker.svg"
   xmlns:inkscape="http://www.inkscape.org/namespaces/inkscape"
   xmlns:sodipodi="http://sodipodi.sourceforge.net/DTD/sodipodi-0.dtd"
   xmlns="http://www.w3.org/2000/svg"
   xmlns:svg="http://www.w3.org/2000/svg"
   xmlns:rdf="http://www.w3.org/1999/02/22-rdf-syntax-ns#"
   xmlns:cc="http://creativecommons.org/ns#"
   xmlns:dc="http://purl.org/dc/elements/1.1/">
  <metadata
     id="metadata22">
    <rdf:RDF>
      <cc:Work
         rdf:about="">
        <dc:format>image/svg+xml</dc:format>
        <dc:type
           rdf:resource="http://purl.org/dc/dcmitype/StillImage" />
      </cc:Work>
    </rdf:RDF>
  </metadata>
  <defs
     id="defs20" />
  <sodipodi:namedview
     pagecolor="#ffffff"
     bordercolor="#666666"
     borderopacity="1"
     objecttolerance="10"
     gridtolerance="10"
     guidetolerance="10"
     inkscape:pageopacity="0"
     inkscape:pageshadow="2"
     inkscape:window-width="1849"
     inkscape:window-height="965"
     id="namedview18"
     showgrid="false"
     inkscape:zoom="2.7764706"
     inkscape:cx="-37.457627"
     inkscape:cy="42.680085"
     inkscape:window-x="38"
     inkscape:window-y="22"
     inkscape:window-maximized="0"
     inkscape:current-layer="svg2"
     inkscape:pagecheckerboard="0" />
  <g
     id="g4152">
    <path
       style="color:#000000;fill:#000000;-inkscape-stroke:none"
       d="m 41.824219,10.208984 -8.486328,8.484375 2.830078,2.828125 5.65625,-5.65625 5.65625,5.65625 2.828125,-2.828125 z"
       id="path6" />
    <path
       style="color:#000000;fill:#000000;-inkscape-stroke:none"
       d="M 41.736328,1.2265625 33.25,9.7109375 l 2.828125,2.8281255 5.658203,-5.6562505 5.65625,5.6562505 2.828125,-2.8281255 z"
       id="path8" />
    <path
       style="color:#000000;fill:#000000;-inkscape-stroke:none"
       d="M 36.078125,65.800781 33.25,68.628906 l 8.486328,8.484375 8.484375,-8.484375 -2.828125,-2.828125 -5.658203,5.65625 z"
       id="path10" />
    <path
       style="color:#000000;fill:#000000;-inkscape-stroke:none"
       d="m 36.167969,74.783203 -2.830078,2.828125 8.486328,8.484375 8.484375,-8.484375 -2.828125,-2.828125 -5.65625,5.65625 z"
       id="path12" />
    <path
       style="color:#000000;fill:#000000;-inkscape-stroke:none"
       d="M 39.779297,14.960938 V 29 h 4 V 14.960938 Z m 0,39.996093 -0.359375,16.958985 4,0.08398 0.359375,-16.957031 z"
       id="path14" />
    <path
       style="color:#000000;fill:#000000;-inkscape-stroke:none"
       d="m 26.429687,27.427734 v 2 28.410157 h 30.41211 V 27.427734 Z m 4,4 h 22.41211 v 22.410157 h -22.41211 z"
       id="path16" />
  </g>
</svg>
