<?xml version="1.0" encoding="UTF-8" standalone="no"?>
<svg
   viewBox="0 0 85 85"
   version="1.1"
   id="svg2"
   inkscape:version="1.1 (c68e22c387, 2021-05-23)"
   sodipodi:docname="eg-current-transformer-winding.svg"
   xmlns:inkscape="http://www.inkscape.org/namespaces/inkscape"
   xmlns:sodipodi="http://sodipodi.sourceforge.net/DTD/sodipodi-0.dtd"
   xmlns="http://www.w3.org/2000/svg"
   xmlns:svg="http://www.w3.org/2000/svg"
   xmlns:rdf="http://www.w3.org/1999/02/22-rdf-syntax-ns#"
   xmlns:cc="http://creativecommons.org/ns#"
   xmlns:dc="http://purl.org/dc/elements/1.1/">
  <metadata
     id="metadata20">
    <rdf:RDF>
      <cc:Work
         rdf:about="">
        <dc:format>image/svg+xml</dc:format>
        <dc:type
           rdf:resource="http://purl.org/dc/dcmitype/StillImage" />
        <dc:title />
      </cc:Work>
    </rdf:RDF>
  </metadata>
  <defs
     id="defs18" />
  <sodipodi:namedview
     pagecolor="#ffffff"
     bordercolor="#666666"
     borderopacity="1"
     objecttolerance="10"
     gridtolerance="10"
     guidetolerance="10"
     inkscape:pageopacity="0"
     inkscape:pageshadow="2"
     inkscape:window-width="1920"
     inkscape:window-height="1018"
     id="namedview16"
     showgrid="false"
     inkscape:zoom="0.98163059"
     inkscape:cx="12.733914"
     inkscape:cy="40.748526"
     inkscape:window-x="-8"
     inkscape:window-y="-8"
     inkscape:window-maximized="1"
     inkscape:current-layer="svg2"
     showguides="false"
     inkscape:pagecheckerboard="0" />
  <g
     id="g4155">
    <path
       style="color:#000000;fill:#000000;-inkscape-stroke:none"
       d="m 68.242187,40.257812 v 18 h 9 v -18 z"
       id="path8" />
    <path
       style="color:#000000;fill:#000000;-inkscape-stroke:none"
       d="m 59.138672,10.539063 c -6.088093,-1e-6 -11.667425,3.606454 -15.240235,9.283203 -3.572809,5.676749 -5.515625,13.422856 -5.515625,22.990234 h 9 c 0,-8.318076 1.779543,-14.458213 4.132813,-18.197266 2.35327,-3.739052 4.90307,-5.076172 7.623047,-5.076172 2.719976,0 4.269961,0.965707 6.082031,4.660157 1.812071,3.694449 3.058594,10.075847 3.058594,18.613281 h 9 c 0,-9.348021 -1.172281,-16.85482 -3.978516,-22.576172 -2.806235,-5.721352 -8.074017,-9.697265 -14.162109,-9.697265 z"
       id="path10" />
    <path
       style="color:#000000;fill:#000000;-inkscape-stroke:none"
       d="m 25.408203,10.539063 c -6.088092,-1e-6 -11.428325,3.87929 -14.417969,9.593749 C 8.0005909,25.847272 6.6523437,33.412855 6.6523437,42.8125 h 9.0000003 c 0,-8.485809 1.376063,-14.806471 3.3125,-18.507813 1.936437,-3.701341 3.723383,-4.765625 6.443359,-4.765625 2.719974,0 5.036934,1.259099 7.259766,4.984375 2.222831,3.725277 3.880859,9.919363 3.880859,18.289063 h 9 c 0,-9.515755 -1.75687,-17.209866 -5.152344,-22.900391 -3.395473,-5.690524 -8.90019,-9.373046 -14.988281,-9.373046 z"
       id="path12" />
    <path
       style="color:#000000;fill:#000000;-inkscape-stroke:none"
       d="m 6.671875,40.322266 v 18 h 9 v -18 z"
       id="path14" />
    <text
       id="text4149"
       y="74.23101"
       x="5.4040718"
       style="line-height:0%;font-family:sans-serif;letter-spacing:0px;word-spacing:0px;fill:#000000;stroke-width:1px"
       xml:space="preserve"><tspan
         style="font-weight:bold;font-size:17.5px;line-height:1.25;-inkscape-font-specification:'sans-serif Bold'"
         y="74.23101"
         x="5.4040718"
         id="tspan4151"
         sodipodi:role="line">И1</tspan></text>
    <text
       id="text4153"
       y="74.461723"
       x="53.028908"
       style="line-height:0%;font-family:sans-serif;letter-spacing:0px;word-spacing:0px;fill:#000000;stroke-width:1px"
       xml:space="preserve"><tspan
         style="font-weight:bold;font-size:17.5px;line-height:1.25;-inkscape-font-specification:'sans-serif Bold'"
         y="74.461723"
         x="53.028908"
         id="tspan4155"
         sodipodi:role="line">И2</tspan></text>
  </g>
</svg>
