<?xml version="1.0" encoding="UTF-8" standalone="no"?>
<svg
   viewBox="0 0 85 85"
   version="1.1"
   id="svg2"
   inkscape:version="1.1 (c68e22c387, 2021-05-23)"
   sodipodi:docname="eg-control-cooling-system.svg"
   xmlns:inkscape="http://www.inkscape.org/namespaces/inkscape"
   xmlns:sodipodi="http://sodipodi.sourceforge.net/DTD/sodipodi-0.dtd"
   xmlns="http://www.w3.org/2000/svg"
   xmlns:svg="http://www.w3.org/2000/svg"
   xmlns:rdf="http://www.w3.org/1999/02/22-rdf-syntax-ns#"
   xmlns:cc="http://creativecommons.org/ns#"
   xmlns:dc="http://purl.org/dc/elements/1.1/">
  <metadata
     id="metadata18">
    <rdf:RDF>
      <cc:Work
         rdf:about="">
        <dc:format>image/svg+xml</dc:format>
        <dc:type
           rdf:resource="http://purl.org/dc/dcmitype/StillImage" />
        <dc:title />
      </cc:Work>
    </rdf:RDF>
  </metadata>
  <defs
     id="defs16">
    <inkscape:path-effect
       effect="spiro"
       id="path-effect4171"
       is_visible="true" />
    <inkscape:path-effect
       effect="spiro"
       id="path-effect4175"
       is_visible="true" />
  </defs>
  <sodipodi:namedview
     pagecolor="#ffffff"
     bordercolor="#666666"
     borderopacity="1"
     objecttolerance="10"
     gridtolerance="10"
     guidetolerance="10"
     inkscape:pageopacity="0"
     inkscape:pageshadow="2"
     inkscape:window-width="1920"
     inkscape:window-height="1018"
     id="namedview14"
     showgrid="false"
     inkscape:zoom="3.9265224"
     inkscape:cx="16.681428"
     inkscape:cy="53.737119"
     inkscape:window-x="-8"
     inkscape:window-y="-8"
     inkscape:window-maximized="1"
     inkscape:current-layer="svg2"
     inkscape:pagecheckerboard="0" />
  <g
     id="g4203"
     transform="translate(-1.8008423,0.72034073)">
    <path
       style="color:#000000;fill:#000000;-inkscape-stroke:none"
       d="m 49.497374,58.283039 c -0.525012,-0.04338 -1.325046,-0.249817 -1.935975,-0.499595 -3.873218,-2.01631 -5.392622,-5.290112 -5.690314,-8.892875 l -0.03017,-0.375756 0.107065,0.02386 c 0.05889,0.01311 0.327684,0.108694 0.597325,0.212365 0.26964,0.103672 0.712832,0.240373 0.984872,0.303776 0.431348,0.100537 0.597687,0.115578 1.30042,0.117592 0.890123,0.0025 1.275405,-0.05312 2.00421,-0.2896 0.742432,-0.24091 1.669224,-0.780543 2.255689,-1.313399 0.151603,-0.137747 0.297163,-0.250448 0.323467,-0.250448 0.02632,0 0.244738,0.127344 0.485395,0.282984 0.240662,0.155646 0.880762,0.561387 1.422441,0.901656 2.096019,1.316649 2.893626,1.905207 3.632297,2.680303 0.499447,0.524073 0.859315,1.082634 1.014239,1.574237 0.131351,0.416797 0.138065,1.292675 0.01302,1.701142 -0.276647,0.903822 -1.004086,1.942423 -1.808627,2.582254 -0.651301,0.517962 -1.551017,0.964011 -2.272732,1.126734 -0.332505,0.07497 -1.35944,0.1675 -1.742163,0.156976 -0.123107,-0.0035 -0.420333,-0.02238 -0.660503,-0.04221 z M 31.71391,50.030828 c -0.881295,-0.248327 -1.597,-0.796834 -2.18597,-1.675296 -1.24818,-1.861699 -1.337015,-4.065457 -0.2494,-6.186961 1.119045,-2.182813 3.21174,-3.717874 5.88617,-4.317702 0.86845,-0.194775 2.61687,-0.196625 3.71242,-0.0039 0.787285,0.138483 1.90208,0.446035 1.90208,0.524754 0,0.02602 -0.159535,0.2178 -0.354525,0.426212 -0.44229,0.472725 -0.798705,1.004709 -1.105375,1.64988 -0.41028,0.863147 -0.55436,1.537816 -0.55436,2.595935 0,1.008554 0.136625,1.659482 0.544715,2.595258 l 0.176235,0.404124 -0.10319,0.07601 c -4.131395,3.043259 -4.77091,3.449635 -6.014485,3.821872 -0.549195,0.125802 -1.12364,0.149074 -1.654315,0.08986 z M 44.114346,47.837839 C 42.95491,47.612571 42.256635,47.246258 41.472914,46.452138 40.78513,45.755228 40.48357,45.24875 40.224975,44.356187 c -0.583585,-2.014301 0.231735,-4.200471 2.001323,-5.366259 0.399387,-0.263113 1.065169,-0.554269 1.60534,-0.702039 0.439817,-0.120316 1.768938,-0.105275 2.247277,0.02542 1.17501,0.321073 2.292361,1.126958 2.885559,2.081191 0.952412,1.532089 1.050813,3.225268 0.27884,4.798028 -0.628237,1.279914 -1.75228,2.202367 -3.114458,2.555896 -0.553268,0.143594 -1.515753,0.186306 -2.01451,0.0894 z m 1.150546,-3.030684 c 0.555404,-0.116201 1.004694,-0.478894 1.259503,-1.016733 0.129815,-0.274009 0.141665,-0.336669 0.141665,-0.749017 0,-0.430232 -0.0074,-0.464994 -0.168879,-0.791685 -0.670307,-1.356285 -2.606481,-1.329138 -3.246908,0.04551 -0.106456,0.228513 -0.119287,0.309017 -0.119287,0.74849 0,0.437561 0.01308,0.520495 0.117415,0.74425 0.35772,0.767187 1.195953,1.190848 2.016491,1.019176 z M 51.05572,42.652018 C 50.922257,41.084244 50.314786,39.751954 49.242266,38.6748 48.370157,37.798922 47.490264,37.325471 46.106473,36.987513 l -0.156685,-0.03828 0.01352,-2.123339 c 0.01916,-3.008342 0.06588,-3.567279 0.375542,-4.492248 0.281736,-0.841547 0.677775,-1.471954 1.123147,-1.787811 0.807126,-0.572413 1.594347,-0.757895 2.78542,-0.656283 0.907631,0.07743 1.251298,0.173113 2.059278,0.573361 1.700008,0.842127 2.937106,2.512811 3.421108,4.620164 0.150086,0.653463 0.196388,1.206952 0.169783,2.029504 -0.0274,0.847541 -0.09064,1.26082 -0.322155,2.105532 -0.479078,1.748017 -1.447271,3.256008 -2.963681,4.616036 -0.444786,0.398913 -1.440402,1.187182 -1.499463,1.187182 -0.01383,0 -0.03926,-0.166196 -0.05656,-0.369325 z"
       id="path4164" />
    <path
       style="color:#000000;fill:#000000;-inkscape-stroke:none"
       d="m 44.300781,12.583984 c -16.104684,-10e-7 -29.191406,13.088676 -29.191406,29.19336 0,8.052342 3.267758,15.359556 8.548828,20.640625 l 2.121094,-2.121094 C 21.037731,55.55531 18.109375,49.019026 18.109375,41.777344 c 0,-14.483366 11.708041,-26.193361 26.191406,-26.19336 14.483366,0 26.191406,11.709994 26.191406,26.19336 0,7.241682 -2.928356,13.777966 -7.669921,18.519531 l 2.121093,2.121094 c 5.281069,-5.281069 8.548829,-12.588283 8.548828,-20.640625 0,-16.104684 -13.086722,-29.19336 -29.191406,-29.19336 z"
       id="ellipse6" />
    <path
       style="color:#000000;fill:#000000;-inkscape-stroke:none"
       d="m 44.300781,1.3574219 c -22.28357,0 -40.4238279,18.1383051 -40.4238279,40.4218751 0,22.28357 18.1402579,40.423828 40.4238279,40.423828 22.283571,0 40.423828,-18.140258 40.423828,-40.423828 0,-22.28357 -18.140257,-40.4218751 -40.423828,-40.4218751 z m 0,7 c 18.500493,0 33.423828,14.9213821 33.423828,33.4218751 0,18.500493 -14.923335,33.423828 -33.423828,33.423828 -18.500493,0 -33.423828,-14.923335 -33.423828,-33.423828 0,-18.500493 14.923335,-33.4218751 33.423828,-33.4218751 z"
       id="ellipse10" />
    <path
       style="color:#000000;fill:#000000;-inkscape-stroke:none"
       d="m 29.980469,61.763672 -3.359375,4.972656 c 1.632524,1.102912 3.377742,2.053049 5.214843,2.830078 3.674204,1.554057 7.718431,2.41211 11.947266,2.41211 4.228836,-10e-7 8.273062,-0.858053 11.947266,-2.41211 1.837102,-0.777028 3.582319,-1.727166 5.214843,-2.830078 l -3.359375,-4.972656 c -1.313954,0.88769 -2.715449,1.653067 -4.191406,2.277344 -2.951915,1.248554 -6.193151,1.937499 -9.611328,1.9375 -3.418177,0 -6.659415,-0.688946 -9.611328,-1.9375 -1.475958,-0.624278 -2.877452,-1.389654 -4.191406,-2.277344 z"
       id="ellipse6-4" />
    <path
       style="color:#000000;fill:#000000;fill-rule:evenodd;-inkscape-stroke:none"
       d="m 29.822266,53.867187 -7.689454,6.128907 1.871094,2.345703 7.689453,-6.128906 z"
       id="path4177" />
    <path
       style="color:#000000;fill:#000000;fill-rule:evenodd;-inkscape-stroke:none"
       d="m 26.9375,47.347656 -8.548828,4.197266 1.322265,2.693359 8.548829,-4.199219 z"
       id="path4177-4" />
    <path
       style="color:#000000;fill:#000000;fill-rule:evenodd;-inkscape-stroke:none"
       d="m 26.179687,42.244141 -9.476562,0.935546 0.292969,2.984375 9.478515,-0.933593 z"
       id="path4177-3" />
    <path
       style="color:#000000;fill:#000000;fill-rule:evenodd;-inkscape-stroke:none"
       d="m 17.101562,35.134766 -0.148437,2.996093 9.40625,0.466797 0.148437,-2.996094 z"
       id="path4177-5" />
    <path
       style="color:#000000;fill:#000000;fill-rule:evenodd;-inkscape-stroke:none"
       d="m 20.347656,25.775391 -1.298828,2.703125 8.587891,4.121093 1.296875,-2.703125 z"
       id="path4177-37" />
    <path
       style="color:#000000;fill:#000000;fill-rule:evenodd;-inkscape-stroke:none"
       d="m 26.892578,18.666016 -2.189453,2.050781 6.511719,6.951172 2.189453,-2.050782 z"
       id="path4177-37-9" />
    <path
       style="color:#000000;fill:#000000;fill-rule:evenodd;-inkscape-stroke:none"
       d="m 34.3125,14.253906 -2.568359,1.550782 4.917968,8.156249 2.56836,-1.548828 z"
       id="path4177-37-3" />
    <path
       style="color:#000000;fill:#000000;fill-rule:evenodd;-inkscape-stroke:none"
       d="m 58.595703,54.40625 -1.710937,2.464844 8.048828,5.58789 1.710937,-2.464843 z"
       id="path4177-9" />
    <path
       style="color:#000000;fill:#000000;fill-rule:evenodd;-inkscape-stroke:none"
       d="m 61.560547,47.945312 -1.322266,2.691407 8.548828,4.199218 1.322266,-2.693359 z"
       id="path4177-4-0" />
    <path
       style="color:#000000;fill:#000000;fill-rule:evenodd;-inkscape-stroke:none"
       d="M 62.316406,42.841797 62.023437,45.828125 71.5,46.763672 71.794922,43.777344 Z"
       id="path4177-3-5" />
    <path
       style="color:#000000;fill:#000000;fill-rule:evenodd;-inkscape-stroke:none"
       d="m 71.394531,35.732422 -9.404297,0.466797 0.148438,2.996093 9.404297,-0.466796 z"
       id="path4177-5-7" />
    <path
       style="color:#000000;fill:#000000;fill-rule:evenodd;-inkscape-stroke:none"
       d="m 68.150391,26.373047 -8.585938,4.121094 1.296875,2.705078 8.585938,-4.121094 z"
       id="path4177-37-6" />
    <path
       style="color:#000000;fill:#000000;fill-rule:evenodd;-inkscape-stroke:none"
       d="m 61.605469,19.263672 -6.511719,6.951172 2.189453,2.050781 6.511719,-6.951172 z"
       id="path4177-37-9-0" />
    <path
       style="color:#000000;fill:#000000;fill-rule:evenodd;-inkscape-stroke:none"
       d="m 54.183594,14.853516 -4.916016,8.15625 2.568359,1.548828 4.917969,-8.15625 z"
       id="path4177-37-3-6" />
  </g>
</svg>
