<?xml version="1.0" encoding="UTF-8" standalone="no"?>
<svg
   xmlns:osb="http://www.openswatchbook.org/uri/2009/osb"
   xmlns:dc="http://purl.org/dc/elements/1.1/"
   xmlns:cc="http://creativecommons.org/ns#"
   xmlns:rdf="http://www.w3.org/1999/02/22-rdf-syntax-ns#"
   xmlns:svg="http://www.w3.org/2000/svg"
   xmlns="http://www.w3.org/2000/svg"
   xmlns:sodipodi="http://sodipodi.sourceforge.net/DTD/sodipodi-0.dtd"
   xmlns:inkscape="http://www.inkscape.org/namespaces/inkscape"
   viewBox="0 0 85 85"
   version="1.1"
   id="svg2"
   inkscape:version="0.91 r13725"
   sodipodi:docname="eg-dfz.svg">
  <metadata
     id="metadata16">
    <rdf:RDF>
      <cc:Work
         rdf:about="">
        <dc:format>image/svg+xml</dc:format>
        <dc:type
           rdf:resource="http://purl.org/dc/dcmitype/StillImage" />
        <dc:title></dc:title>
      </cc:Work>
    </rdf:RDF>
  </metadata>
  <defs
     id="defs14">
    <linearGradient
       id="linearGradient5678"
       osb:paint="solid">
      <stop
         style="stop-color:#000000;stop-opacity:1;"
         offset="0"
         id="stop5680" />
    </linearGradient>
  </defs>
  <sodipodi:namedview
     pagecolor="#ffffff"
     bordercolor="#666666"
     borderopacity="1"
     objecttolerance="10"
     gridtolerance="10"
     guidetolerance="10"
     inkscape:pageopacity="0"
     inkscape:pageshadow="2"
     inkscape:window-width="1920"
     inkscape:window-height="1008"
     id="namedview12"
     showgrid="false"
     inkscape:zoom="2.8284271"
     inkscape:cx="33.463813"
     inkscape:cy="38.422835"
     inkscape:window-x="-4"
     inkscape:window-y="-4"
     inkscape:window-maximized="1"
     inkscape:current-layer="svg2"
     inkscape:pagecheckerboard="0" />
  <text
     xml:space="preserve"
     style="font-style:normal;font-weight:normal;font-size:17.5px;line-height:125%;font-family:'Times New Roman';letter-spacing:0px;word-spacing:0px;fill:#000000;fill-opacity:1;stroke:none;stroke-width:1px;stroke-linecap:butt;stroke-linejoin:miter;stroke-opacity:1;-inkscape-font-specification:'Times New Roman, ';font-stretch:normal;font-variant:normal;"
     x="-182.78709"
     y="31.966991"
     id="text4145"
     sodipodi:linespacing="125%"><tspan
       sodipodi:role="line"
       id="tspan4147"
       x="-182.78709"
       y="31.966991" /></text>
  <path
     inkscape:connector-curvature="0"
     id="rect4356-8-5"
     d="m 4.363548,8.1732223 0,68.6535557 76.272904,0 0,-68.6535558 z m -4.00000002,-4 84.27290402,0 0,76.6535557 -84.27290402,0 z"
     style="color:#000000;fill:#000000;fill-opacity:1;stroke:#000000;stroke-width:0.89699173;stroke-linecap:butt;stroke-linejoin:round;stroke-opacity:1"
     sodipodi:nodetypes="cccccccccc" />
  <text
     xml:space="preserve"
     style="font-style:normal;font-weight:normal;font-size:17.5px;line-height:125%;font-family:sans-serif;letter-spacing:0px;word-spacing:0px;fill:#000000;fill-opacity:1;stroke:none;stroke-width:1px;stroke-linecap:butt;stroke-linejoin:miter;stroke-opacity:1"
     x="-73.25"
     y="111"
     id="text5688"
     sodipodi:linespacing="125%"><tspan
       sodipodi:role="line"
       id="tspan5690"
       x="-73.25"
       y="111" /></text>
  <text
     xml:space="preserve"
     style="font-style:normal;font-weight:normal;font-size:17.5px;line-height:125%;font-family:sans-serif;letter-spacing:0px;word-spacing:0px;fill:#000000;fill-opacity:1;stroke:none;stroke-width:1px;stroke-linecap:butt;stroke-linejoin:miter;stroke-opacity:1"
     x="125.75"
     y="112.5"
     id="text5692"
     sodipodi:linespacing="125%"><tspan
       sodipodi:role="line"
       id="tspan5694"
       x="125.75"
       y="112.5" /></text>
  <flowRoot
     xml:space="preserve"
     id="flowRoot5696"
     style="fill:black;stroke:none;stroke-opacity:1;stroke-width:1px;stroke-linejoin:miter;stroke-linecap:butt;fill-opacity:1;font-family:GDT;font-style:normal;font-weight:normal;font-size:17.5px;line-height:125%;letter-spacing:0px;word-spacing:0px;-inkscape-font-specification:GDT;font-stretch:normal;font-variant:normal;"><flowRegion
       id="flowRegion5698"><rect
         id="rect5700"
         width="27.75"
         height="37.25"
         x="119.25"
         y="-4.000001"
         style="-inkscape-font-specification:GDT;font-family:GDT;font-weight:normal;font-style:normal;font-stretch:normal;font-variant:normal;" /></flowRegion><flowPara
       id="flowPara5702"></flowPara></flowRoot>  <g
     id="g5712">
    <g
       id="g5708">
      <text
         xml:space="preserve"
         style="font-style:normal;font-weight:normal;font-size:17.5px;line-height:125%;font-family:sans-serif;letter-spacing:0px;word-spacing:0px;fill:#000000;fill-opacity:1;stroke:none;stroke-width:1px;stroke-linecap:butt;stroke-linejoin:miter;stroke-opacity:1"
         x="62.25"
         y="114.5"
         id="text5704"
         sodipodi:linespacing="125%"><tspan
           sodipodi:role="line"
           id="tspan5706"
           x="62.25"
           y="114.5" /></text>
    </g>
  </g>
  <path
     style="color:#000000;font-style:normal;font-variant:normal;font-weight:normal;font-stretch:normal;font-size:medium;line-height:normal;font-family:sans-serif;text-indent:0;text-align:start;text-decoration:none;text-decoration-line:none;text-decoration-style:solid;text-decoration-color:#000000;letter-spacing:normal;word-spacing:normal;text-transform:none;direction:ltr;block-progression:tb;writing-mode:lr-tb;baseline-shift:baseline;text-anchor:start;white-space:normal;clip-rule:nonzero;display:inline;overflow:visible;visibility:visible;opacity:1;isolation:auto;mix-blend-mode:normal;color-interpolation:sRGB;color-interpolation-filters:linearRGB;solid-color:#000000;solid-opacity:1;fill:#000000;fill-opacity:1;fill-rule:nonzero;stroke:none;stroke-width:7;stroke-linecap:butt;stroke-linejoin:miter;stroke-miterlimit:4;stroke-dasharray:none;stroke-dashoffset:0;stroke-opacity:1;color-rendering:auto;image-rendering:auto;shape-rendering:auto;text-rendering:auto;enable-background:accumulate"
     d="m 66.019531,11.019531 0.06836,0.0039 c -1.155123,-0.06022 -2.175001,-0.05204 -3.134766,0.06836 -0.479883,0.0602 -0.939274,0.13687 -1.503906,0.333984 -0.564632,0.197115 -1.424736,0.38085 -2.248047,1.769531 l 0,0.002 c -0.445279,0.751286 -0.367264,0.842241 -0.40625,0.998046 -0.03899,0.155806 -0.05684,0.254904 -0.07422,0.351563 -0.03476,0.193319 -0.05966,0.362155 -0.08594,0.558594 -0.05255,0.392878 -0.107154,0.87178 -0.169922,1.441406 -0.125536,1.139251 -0.277385,2.622837 -0.449219,4.185547 -0.343668,3.12542 -0.859863,6.821802 -1.099609,7.716797 l -0.837891,3.132812 c -1.505014,-1.603858 -3.270178,-3.026846 -5.439453,-4.005859 -3.864487,-1.744077 -7.359091,-2.390588 -11.25586,-1.400391 -8.311851,2.112101 -13.109602,10.840775 -13.9375,19.591797 -0.413948,4.375511 0.204841,8.930116 2.322266,12.939453 2.117425,4.009337 5.843602,7.382659 10.966797,9.013672 l 0.08008,0.02539 0.08203,0.02148 c 4.8978,1.300731 9.80125,0.251281 13.560547,-1.482422 2.561927,-1.181502 4.863404,-3.155965 6.767578,-5.460937 0.612263,1.453028 1.302538,2.743257 2.19336,3.845703 1.663878,2.059152 4.345608,3.302734 6.851562,3.302734 2.849421,0 5.578635,-1.601706 7.21875,-3.894531 1.640116,-2.292825 2.543616,-5.167171 3.083985,-8.634766 0.147437,-0.94611 0.336777,-1.624783 0.06445,-2.9375 -0.136163,-0.656358 -0.522363,-1.634871 -1.394531,-2.349609 -0.872169,-0.714738 -1.925185,-0.898437 -2.574219,-0.898438 -2.334518,1e-6 -3.087171,1.328246 -3.59375,2.117188 -0.506579,0.788942 -0.787523,1.571449 -0.957031,2.455078 -0.194062,1.011614 -1.282472,1.726563 -1.511719,1.726563 -0.279413,0 -0.07598,0.167294 -0.484375,-0.353516 -0.408396,-0.52081 -1.074382,-1.875731 -1.640625,-4.056641 l -0.722657,-2.77539 c 0.383164,-1.138084 2.624959,-7.770495 3.890626,-12.019532 2.118089,-7.110747 4.998046,-20.941406 4.998046,-20.941406 l 0.855469,-4.082031 -9.482422,-0.308594 z m -22.746093,26.34375 c 0.606805,-0.0057 1.23521,0.161347 1.96875,0.541016 1.467079,0.759338 3.451485,2.692165 5.324218,6.716797 0.670578,1.441117 1.253893,4.795492 0.800782,7.464844 -0.453112,2.669351 -1.409744,4.33612 -3.582032,5.017578 -3.757678,1.178802 -5.957418,0.509183 -7.738281,-1.076172 -1.780863,-1.585356 -3.147789,-4.572299 -3.386719,-8.496094 l -0.0039,-0.07422 -0.0078,-0.07227 c -0.38944,-3.789134 2.218603,-8.279298 4.791015,-9.525391 0.643103,-0.311523 1.227179,-0.490358 1.833985,-0.496094 z m -13.59961,10.591797 c 0.0021,0.03477 0.01143,0.06683 0.01367,0.101563 0.0015,0.01522 -0.0035,0.0297 -0.002,0.04492 l -0.01172,-0.146484 z"
     id="path5728"
     inkscape:connector-curvature="0"
     sodipodi:nodetypes="ccsscccscssccsssscccscsssssssssssccscccccssssscccsccccccc" />
  <g
     id="g5732"
     transform="translate(-2,0)">
    <path
       sodipodi:nodetypes="ccccccc"
       d="m 19.403246,46.619823 -10.8499547,20.96624 3.9314597,0 6.94046,-12.62616 7.00634,12.62616 3.93146,0 z"
       style="font-style:normal;font-variant:normal;font-weight:normal;font-stretch:normal;font-size:medium;line-height:125%;font-family:Arial;-inkscape-font-specification:Arial;letter-spacing:0px;word-spacing:0px;fill:#000000;fill-opacity:1;stroke:#000000;stroke-width:2;stroke-linecap:butt;stroke-linejoin:miter;stroke-miterlimit:4;stroke-dasharray:none;stroke-opacity:1"
       id="path4156"
       inkscape:connector-curvature="0" />
    <path
       style="color:#000000;font-style:normal;font-variant:normal;font-weight:normal;font-stretch:normal;font-size:medium;line-height:normal;font-family:sans-serif;text-indent:0;text-align:start;text-decoration:none;text-decoration-line:none;text-decoration-style:solid;text-decoration-color:#000000;letter-spacing:normal;word-spacing:normal;text-transform:none;direction:ltr;block-progression:tb;writing-mode:lr-tb;baseline-shift:baseline;text-anchor:start;white-space:normal;clip-rule:nonzero;display:inline;overflow:visible;visibility:visible;opacity:1;isolation:auto;mix-blend-mode:normal;color-interpolation:sRGB;color-interpolation-filters:linearRGB;solid-color:#000000;solid-opacity:1;fill:#000000;fill-opacity:1;fill-rule:evenodd;stroke:none;stroke-width:4.09886122;stroke-linecap:butt;stroke-linejoin:miter;stroke-miterlimit:4;stroke-dasharray:none;stroke-dashoffset:0;stroke-opacity:1;color-rendering:auto;image-rendering:auto;shape-rendering:auto;text-rendering:auto;enable-background:accumulate"
       d="m 11.316406,64.451172 -0.0332,4.099609 c 7.762906,0.06032 15.675781,0.04492 15.675781,0.04492 l -0.03125,-6.099563 c 0,0 -7.85913,0.01531 -15.611328,-0.04492 z"
       id="path5730"
       inkscape:connector-curvature="0"
       sodipodi:nodetypes="cccccc" />
  </g>
</svg>
