<?xml version="1.0" encoding="UTF-8" standalone="no"?>
<svg
   viewBox="0 0 85 85"
   version="1.1"
   id="svg2"
   inkscape:version="1.1 (c68e22c387, 2021-05-23)"
   sodipodi:docname="eg-efn.svg"
   xmlns:inkscape="http://www.inkscape.org/namespaces/inkscape"
   xmlns:sodipodi="http://sodipodi.sourceforge.net/DTD/sodipodi-0.dtd"
   xmlns="http://www.w3.org/2000/svg"
   xmlns:svg="http://www.w3.org/2000/svg"
   xmlns:rdf="http://www.w3.org/1999/02/22-rdf-syntax-ns#"
   xmlns:cc="http://creativecommons.org/ns#"
   xmlns:dc="http://purl.org/dc/elements/1.1/">
  <metadata
     id="metadata26">
    <rdf:RDF>
      <cc:Work
         rdf:about="">
        <dc:format>image/svg+xml</dc:format>
        <dc:type
           rdf:resource="http://purl.org/dc/dcmitype/StillImage" />
        <dc:title />
      </cc:Work>
    </rdf:RDF>
  </metadata>
  <defs
     id="defs24" />
  <sodipodi:namedview
     pagecolor="#ffffff"
     bordercolor="#666666"
     borderopacity="1"
     objecttolerance="10"
     gridtolerance="10"
     guidetolerance="10"
     inkscape:pageopacity="0"
     inkscape:pageshadow="2"
     inkscape:window-width="1904"
     inkscape:window-height="1008"
     id="namedview22"
     showgrid="false"
     inkscape:zoom="2.7764706"
     inkscape:cx="-34.756356"
     inkscape:cy="42.5"
     inkscape:window-x="0"
     inkscape:window-y="0"
     inkscape:window-maximized="0"
     inkscape:current-layer="svg2"
     inkscape:pagecheckerboard="0" />
  <g
     id="g4151">
    <path
       style="color:#000000;fill:#000000;-inkscape-stroke:none"
       d="m 39.375,56.601562 v 12.919922 h 6.25 V 56.601562 Z"
       id="path6" />
    <path
       style="color:#000000;fill:#000000;-inkscape-stroke:none"
       d="m 26.5,65.992187 v 5 h 32 v -5 z"
       id="path8" />
    <path
       style="color:#000000;fill:#000000;-inkscape-stroke:none"
       d="m 30.5,72.992187 v 5 h 24 v -5 z"
       id="path10" />
    <path
       style="color:#000000;fill:#000000;-inkscape-stroke:none"
       d="m 37,79.992187 v 5 h 11 v -5 z"
       id="path12" />
    <path
       style="color:#000000;fill:#000000;-inkscape-stroke:none"
       d="m 43.78125,0.08398437 c -4.230812,10e-9 -7.886284,0.63389905 -10.845703,2.43164063 -2.959419,1.7977416 -4.949219,5.1589586 -4.949219,8.779297 0,3.538808 1.544666,6.976858 4.308594,9.345703 2.763928,2.368845 6.622759,3.666016 11.126953,3.666016 v -7 c -3.181002,0 -5.290321,-0.881769 -6.572266,-1.980469 -1.281945,-1.098701 -1.863281,-2.416166 -1.863281,-4.03125 0,-1.5335542 0.315493,-2.0274984 1.582031,-2.7968751 1.266538,-0.7693767 3.758507,-1.4140625 7.212891,-1.4140625 z"
       id="path14" />
    <path
       style="color:#000000;fill:#000000;-inkscape-stroke:none"
       d="M 42.285156,0.00585938 V 7.0917969 h 11.25 V 0.00585938 Z"
       id="path16" />
    <path
       style="color:#000000;fill:#000000;-inkscape-stroke:none"
       d="m 43.421875,22.378906 c -4.145904,0 -7.64591,0.441199 -10.572266,2.095703 -2.926355,1.654505 -4.863281,5.017833 -4.863281,8.556641 0,3.538809 1.857801,6.903513 4.763672,8.675781 2.905871,1.772269 6.471294,2.335938 10.671875,2.335938 v -7 c -3.484616,0 -5.887342,-0.617222 -7.027344,-1.3125 -1.140002,-0.695278 -1.408203,-1.084135 -1.408203,-2.699219 0,-1.615084 0.189076,-1.829937 1.308594,-2.462891 1.119518,-0.632953 3.58766,-1.189453 7.126953,-1.189453 z"
       id="path18" />
    <path
       style="color:#000000;fill:#000000;-inkscape-stroke:none"
       d="m 43.421875,42.115234 c -4.145904,0 -7.64591,0.441199 -10.572266,2.095703 -2.926355,1.654505 -4.863281,5.017833 -4.863281,8.556641 0,3.538809 1.857801,6.903513 4.763672,8.675781 2.905871,1.772269 6.471294,2.335938 10.671875,2.335938 v -7 c -3.484615,0 -5.887342,-0.617222 -7.027344,-1.3125 -1.140001,-0.695278 -1.408203,-1.084135 -1.408203,-2.699219 0,-1.615084 0.189076,-1.829937 1.308594,-2.462891 1.119518,-0.632953 3.58766,-1.189453 7.126953,-1.189453 z"
       id="path20" />
  </g>
</svg>
