<?xml version="1.0" encoding="UTF-8" standalone="no"?>
<svg
   viewBox="0 0 85 85"
   version="1.1"
   id="svg2"
   inkscape:version="1.1 (c68e22c387, 2021-05-23)"
   sodipodi:docname="eg-fgc-colored.svg"
   xmlns:inkscape="http://www.inkscape.org/namespaces/inkscape"
   xmlns:sodipodi="http://sodipodi.sourceforge.net/DTD/sodipodi-0.dtd"
   xmlns="http://www.w3.org/2000/svg"
   xmlns:svg="http://www.w3.org/2000/svg"
   xmlns:rdf="http://www.w3.org/1999/02/22-rdf-syntax-ns#"
   xmlns:cc="http://creativecommons.org/ns#"
   xmlns:dc="http://purl.org/dc/elements/1.1/">
  <metadata
     id="metadata22">
    <rdf:RDF>
      <cc:Work
         rdf:about="">
        <dc:format>image/svg+xml</dc:format>
        <dc:type
           rdf:resource="http://purl.org/dc/dcmitype/StillImage" />
        <dc:title />
      </cc:Work>
    </rdf:RDF>
  </metadata>
  <defs
     id="defs20">
    <linearGradient
       id="linearGradient4699"
       inkscape:swatch="solid">
      <stop
         style="stop-color:#000000;stop-opacity:1;"
         offset="0"
         id="stop4701" />
    </linearGradient>
  </defs>
  <sodipodi:namedview
     pagecolor="#ffffff"
     bordercolor="#666666"
     borderopacity="1"
     objecttolerance="10"
     gridtolerance="10"
     guidetolerance="10"
     inkscape:pageopacity="0"
     inkscape:pageshadow="2"
     inkscape:window-width="1920"
     inkscape:window-height="1018"
     id="namedview18"
     showgrid="false"
     inkscape:zoom="3.9265224"
     inkscape:cx="1.4007306"
     inkscape:cy="44.5687"
     inkscape:window-x="-8"
     inkscape:window-y="-8"
     inkscape:window-maximized="1"
     inkscape:current-layer="svg2"
     showguides="false"
     inkscape:pagecheckerboard="0" />
  <path
     style="color:#000000;fill:#000000;-inkscape-stroke:none;fill-opacity:1"
     d="m 45.378906,1.9316406 c -0.713968,0.031029 -1.176948,0.2933959 -1.414062,0.765625 -0.237114,0.4722291 -0.271485,1.111685 -0.271485,1.9453125 0,0.6139157 -0.01469,1.0729891 -0.06055,1.3554688 -0.02293,0.1412398 -0.05702,0.2375733 -0.08203,0.2773437 -0.02501,0.039771 -0.0086,0.026944 -0.02539,0.025391 -0.0168,-0.00155 -0.08592,-0.028459 -0.179688,-0.1054687 C 43.251933,6.1183025 43.133278,5.9974837 42.992187,5.8339844 42.710007,5.5069856 42.337901,5.0110162 41.859375,4.3515625 41.353834,3.6548803 40.934034,3.1211819 40.439453,2.75 39.944872,2.3788181 39.37591,2.182133 38.621094,2.1621094 37.111461,2.1220621 34.840986,2.749847 30.580078,3.9980469 25.850272,5.3836088 21.135693,7.7306912 17.595703,10.222656 c -1.769995,1.245983 -3.245327,2.527997 -4.285156,3.75 -1.039829,1.222003 -1.652344,2.385013 -1.652344,3.417969 0,1.16953 -0.904862,2.117187 -1.9999999,2.117187 -0.9844761,0 -1.9641939,0.842923 -2.9121094,2.203125 -0.9479154,1.360203 -1.8664341,3.263592 -2.6738281,5.470704 -1.614788,4.414223 -2.7841772,10.045987 -2.7988281,14.970703 -0.012067,4.050453 0.049533,6.281387 0.5078125,7.501953 0.2291398,0.610283 0.5836261,0.977957 1.0644531,1.130859 0.480827,0.152903 1.0617154,0.106693 1.7910156,-0.01367 0.782575,-0.12916 1.3699025,-0.223221 1.7519532,-0.255859 0.1891886,-0.01616 0.3283132,-0.01389 0.4023437,-0.002 -0.00814,0.01305 -0.0066,0.0183 -0.0625,0.08203 -0.08088,0.09221 -0.2157846,0.218982 -0.3984375,0.373047 -0.3653058,0.30813 -0.9243507,0.734413 -1.671875,1.298828 -0.750385,0.56658 -1.3204255,1.005102 -1.7050781,1.478516 -0.3846526,0.473413 -0.5732829,0.992084 -0.5390625,1.646484 0.068441,1.3088 0.9564391,3.170585 2.7050781,6.810547 2.191671,4.562187 5.6436564,9.033413 9.0820314,12.234375 1.719188,1.600481 3.434504,2.884076 4.99414,3.701172 1.559637,0.817096 2.96873,1.1767 4.083985,0.882812 0.885383,-0.233312 1.600532,-0.210894 2.072265,0.002 0.471734,0.212848 0.722657,0.595181 0.722657,1.195313 0,0.805181 0.537341,1.498495 1.482422,2.054687 0.94508,0.556193 2.310491,0.99703 4.054687,1.326172 3.488393,0.658285 8.490936,0.86569 14.605469,0.548828 h 0.0039 l 0.0059,-0.002 C 72.637418,81.085722 84.62139,59.228104 82.525391,41.478516 82.404784,37.07413 81.091645,31.611139 79.351562,27.234375 c -0.870041,-2.188382 -1.84517,-4.104055 -2.839843,-5.482422 -0.994673,-1.378367 -2.010622,-2.244141 -3.013672,-2.244141 -0.623249,0 -1.04723,-0.219977 -1.273438,-0.570312 -0.226208,-0.350335 -0.26416,-0.855176 -0.03125,-1.466797 0.330838,-0.868773 -0.109995,-1.957681 -1.03125,-3.142578 C 70.240855,13.143228 68.816624,11.844339 67.066406,10.556641 63.56597,7.9812447 58.767204,5.4515737 54.128906,4.0449219 49.350732,2.5958494 46.806842,1.869582 45.378906,1.9316406 Z m 0.01367,0.3203125 c 1.298041,-0.056413 3.866705,0.6531878 8.642578,2.1015625 4.594672,1.3934213 9.371505,3.9111098 12.839844,6.4628904 1.734169,1.275891 3.140935,2.56137 4.033203,3.708985 0.892268,1.147615 1.247423,2.139317 0.984375,2.830078 -0.258491,0.678796 -0.231214,1.300975 0.0625,1.755859 0.293715,0.454884 0.841609,0.71875 1.542969,0.71875 0.80996,0 1.781713,0.764866 2.751953,2.109375 0.97024,1.344509 1.939425,3.242613 2.802734,5.414063 1.72662,4.3429 3.033292,9.787181 3.152344,14.134765 v 0.0078 0.0059 c 2.082908,17.57737 -9.758491,39.277009 -36.005859,42.324219 -6.098214,0.316015 -11.082042,0.107184 -14.527344,-0.542969 -1.722651,-0.325077 -3.061366,-0.762298 -3.953125,-1.287109 -0.891759,-0.524812 -1.324219,-1.113766 -1.324219,-1.777344 0,-0.697661 -0.339495,-1.229915 -0.912109,-1.488281 -0.572615,-0.258366 -1.354726,-0.264714 -2.285156,-0.01953 -0.985615,0.259726 -2.330709,-0.05962 -3.853516,-0.857421 C 17.820943,77.055715 16.123703,75.789263 14.419922,74.203125 11.012359,71.030849 7.5782679,66.581664 5.4082031,62.064453 3.6599989,58.425396 2.7958115,56.549858 2.734375,55.375 c -0.030718,-0.587429 0.1214596,-0.998351 0.46875,-1.425781 0.3472904,-0.42743 0.8999043,-0.8606 1.6484375,-1.425782 0.7479102,-0.564706 1.3081409,-0.990257 1.6855469,-1.308593 0.188703,-0.159168 0.3328727,-0.29142 0.4335937,-0.40625 0.1007211,-0.11483 0.1800461,-0.208028 0.1679688,-0.357422 -0.00604,-0.0747 -0.05477,-0.150621 -0.1113282,-0.189453 -0.056559,-0.03883 -0.1158815,-0.05575 -0.1796875,-0.06641 -0.1276119,-0.02132 -0.2833969,-0.01734 -0.4863281,0 -0.4058623,0.03467 -0.9941037,0.130496 -1.7773437,0.259766 -0.7133809,0.117738 -1.2515484,0.147164 -1.640625,0.02344 C 2.5542827,50.35479 2.2894122,50.093347 2.0820313,49.541016 1.6672693,48.436353 1.5836483,46.200541 1.5957031,42.154297 1.6102042,37.279931 2.7733458,31.669336 4.375,27.291016 5.1758271,25.101855 6.0866902,23.21909 7.0097656,21.894531 7.932841,20.569972 8.8649537,19.830078 9.6582031,19.830078 c 1.2801489,0 2.3203129,-1.103623 2.3203129,-2.439453 0,-0.903047 0.561884,-2.016998 1.576172,-3.208984 1.014287,-1.191987 2.472667,-2.460664 4.226562,-3.695313 3.507791,-2.4692982 8.197656,-4.8054889 12.888672,-6.1796874 4.258875,-1.2476046 6.533557,-1.8596646 7.943359,-1.8222656 0.704901,0.018699 1.1875,0.1892318 1.632813,0.5234375 0.445312,0.3342057 0.852143,0.8422657 1.353515,1.5332031 0.480027,0.6615216 0.852791,1.159349 1.148438,1.5019531 0.147823,0.1713021 0.276933,0.3038111 0.394531,0.4003907 0.117599,0.09658 0.224735,0.1658229 0.353516,0.1777343 0.12878,0.011912 0.259634,-0.068027 0.326172,-0.1738281 0.06654,-0.105801 0.100607,-0.2361567 0.126953,-0.3984375 0.05269,-0.3245615 0.06445,-0.7878527 0.06445,-1.40625 0,-0.8227077 0.05028,-1.4263672 0.238281,-1.8007812 0.187999,-0.3744141 0.491605,-0.5616371 1.140625,-0.5898438 z"
     id="path4742" />
  <g
     id="path4740"
     style="fill:#000000;fill-opacity:1">
    <path
       style="color:#000000;fill:#000000;stroke-width:0.321578;-inkscape-stroke:none;fill-opacity:1"
       d="m 51.705498,79.244122 c 7.454619,-3.699388 3.701935,-11.110354 2.560261,-21.704568 L 50.925436,26.542888 35.81619,56.64818 c -9.205279,18.341591 -5.397644,22.116737 -3.27945,23.116896 2.553724,1.205804 17.669042,0.223287 19.168758,-0.520954 z"
       id="path73" />
    <path
       style="color:#000000;fill:#000000;-inkscape-stroke:none;fill-opacity:1"
       d="m 51.027344,25.982422 -15.355469,30.59375 c -4.608605,9.182682 -5.969279,14.72875 -5.902344,18.136719 0.06694,3.407968 1.60313,4.679719 2.699219,5.197265 0.701432,0.331199 2.117524,0.480804 3.923828,0.546875 1.806304,0.06607 3.984995,0.03356 6.130859,-0.06055 2.145865,-0.0941 4.257395,-0.249332 5.929688,-0.427734 0.836146,-0.0892 1.563816,-0.184624 2.130859,-0.28125 0.567044,-0.09663 0.964036,-0.185025 1.19336,-0.298828 1.887613,-0.936737 3.08229,-2.121254 3.777343,-3.535156 0.695054,-1.413902 0.889605,-3.047828 0.814454,-4.882813 -0.150304,-3.66997 -1.374106,-8.166805 -1.94336,-13.449219 z m -0.203125,1.11914 3.28125,30.455079 c 0.572419,5.311789 1.795557,9.818828 1.943359,13.427734 0.0739,1.804453 -0.118999,3.379389 -0.78125,4.726562 -0.662251,1.347174 -1.79312,2.475717 -3.632812,3.388672 -0.145605,0.07226 -0.548864,0.176637 -1.105469,0.271485 -0.556605,0.09485 -1.277663,0.188616 -2.109375,0.277343 -1.663425,0.177456 -3.770516,0.333904 -5.910156,0.427735 -2.139641,0.09383 -4.312553,0.126128 -6.105469,0.06055 -1.792916,-0.06558 -3.223399,-0.245875 -3.798828,-0.517578 -1.022103,-0.482612 -2.448562,-1.597074 -2.513672,-4.91211 -0.06511,-3.315035 1.270523,-8.827438 5.867187,-17.986328 z"
       id="path75" />
  </g>
  <g
     id="path4738"
     style="fill:#000000;fill-opacity:1">
    <path
       style="color:#000000;fill:#000000;stroke-width:0.321578;-inkscape-stroke:none;fill-opacity:1"
       d="M 32.915088,53.052536 49.562335,26.009506 24.188506,40.728636 C 2.3198787,53.41443 6.3286257,55.685255 8.6587944,60.249922 10.725652,64.298772 19.837059,74.546188 21.3702,74.546188 c 0.503028,0 5.698219,-9.672143 11.544888,-21.493652 z"
       id="path65" />
    <path
       style="color:#000000;fill:#000000;-inkscape-stroke:none;fill-opacity:1"
       d="m 49.482422,25.871094 -25.375,14.71875 C 13.165829,46.936964 8.6829159,50.667322 7.2070312,53.458984 6.4690889,54.854816 6.503002,56.02669 6.875,57.109375 c 0.371998,1.082685 1.0641172,2.083545 1.640625,3.212891 1.051954,2.060714 3.845307,5.627625 6.578125,8.701171 1.366409,1.536774 2.716178,2.947073 3.824219,3.976563 0.55402,0.514745 1.048071,0.93388 1.457031,1.228516 0.40896,0.294635 0.714893,0.478515 0.996094,0.478515 0.08013,0 0.118579,-0.03216 0.15625,-0.06055 0.03767,-0.02839 0.07171,-0.06213 0.109375,-0.103515 0.07534,-0.08277 0.162648,-0.196876 0.265625,-0.34375 0.205954,-0.293748 0.475107,-0.719987 0.800781,-1.267578 0.651347,-1.095183 1.531236,-2.674004 2.578125,-4.623047 2.091957,-3.894696 4.850315,-9.26586 7.771484,-15.171875 L 49.699219,26.09375 Z m -0.390625,0.595703 -16.31836,26.507812 -0.002,0.0059 c -2.922667,5.909405 -5.6822,11.282426 -7.773437,15.175781 -1.045619,1.946677 -1.925331,3.523564 -2.572266,4.611328 -0.323467,0.543882 -0.58983,0.966673 -0.787109,1.248047 -0.09864,0.140687 -0.179401,0.245862 -0.238281,0.310547 -0.02197,0.02413 -0.03567,0.03736 -0.04883,0.04883 C 21.242049,74.368612 20.94397,74.241627 20.5625,73.966797 20.171654,73.685212 19.684784,73.272884 19.136719,72.763672 18.040588,71.745247 16.695424,70.339778 15.333984,68.808594 12.611105,65.746226 9.8176359,62.165866 8.8027344,60.177734 8.214159,59.024749 7.5312942,58.029196 7.1796875,57.005859 6.8280808,55.982523 6.7900107,54.937555 7.4921875,53.609375 8.8965411,50.953015 13.342519,47.205849 24.269531,40.867187 Z"
       id="path67" />
  </g>
  <g
     id="path4736"
     style="fill:#000000;fill-opacity:1">
    <path
       style="color:#000000;fill:#000000;stroke-width:0.321578;-inkscape-stroke:none;fill-opacity:1"
       d="M 77.399225,55.321866 C 77.993161,53.033192 74.318913,53.567729 67.377626,45.934311 62.07102,40.098576 53.044417,25.973032 52.636188,26.384396 c -0.737018,0.742685 9.678607,41.371232 11.182466,46.007483 0.573666,1.768558 2.437854,1.114251 6.882054,-3.891948 3.346161,-3.769306 6.244453,-11.428378 6.698517,-13.178065 z"
       id="path57" />
    <path
       style="color:#000000;fill:#000000;-inkscape-stroke:none;fill-opacity:1"
       d="m 52.669922,26.214844 c -0.04443,-0.0025 -0.108761,0.01666 -0.148438,0.05664 -0.05212,0.05252 -0.06119,0.09886 -0.07031,0.144532 -0.0091,0.04567 -0.01263,0.09505 -0.01367,0.15039 -0.0021,0.110691 0.0089,0.250346 0.02734,0.423828 0.03696,0.346965 0.111722,0.826219 0.220703,1.423828 0.217961,1.19522 0.57112,2.861449 1.019531,4.855469 0.896822,3.988041 2.175332,9.281802 3.525391,14.697266 2.700116,10.830929 5.674701,22.128995 6.435547,24.474609 0.1522,0.469218 0.407541,0.815832 0.792968,0.945313 0.385428,0.12948 0.856801,0.03693 1.423828,-0.257813 1.134056,-0.589476 2.710302,-2.012641 4.9375,-4.521484 1.693674,-1.90785 3.257855,-4.774516 4.460938,-7.386719 1.203083,-2.612202 2.039841,-4.959235 2.273437,-5.859375 0.158227,-0.60971 0.01787,-1.089898 -0.376953,-1.507812 -0.394819,-0.417915 -1.022062,-0.802866 -1.876953,-1.355469 -1.709782,-1.105206 -4.344804,-2.867 -7.804687,-6.671875 -2.640387,-2.903663 -6.22491,-7.892984 -9.195313,-12.101563 -1.485201,-2.104289 -2.816445,-4.015089 -3.804687,-5.375 -0.494122,-0.679955 -0.902298,-1.222132 -1.203125,-1.585937 -0.150414,-0.181903 -0.272146,-0.317731 -0.373047,-0.410156 -0.05045,-0.04621 -0.09474,-0.0821 -0.148438,-0.109375 -0.02685,-0.01364 -0.05713,-0.02684 -0.101562,-0.0293 z m 0.0957,0.445312 c 0.07579,0.076 0.160647,0.165105 0.279297,0.308594 0.29168,0.352743 0.698961,0.892664 1.191406,1.570312 0.98489,1.355297 2.316934,3.265956 3.802734,5.371094 2.971602,4.210278 6.552536,9.200747 9.21875,12.132813 3.481398,3.828535 6.154965,5.616563 7.869141,6.724609 0.857088,0.554023 1.472435,0.942548 1.816406,1.306641 0.343972,0.364092 0.439523,0.672405 0.300782,1.207031 -0.220467,0.849545 -1.059743,3.207611 -2.25586,5.804687 -1.196116,2.597077 -2.755718,5.445189 -4.408203,7.306641 -2.216996,2.497351 -3.7932,3.904086 -4.845703,4.451172 -0.526251,0.273543 -0.907543,0.327081 -1.171875,0.238281 -0.264332,-0.0888 -0.457164,-0.325174 -0.591797,-0.740234 C 63.227691,70.051164 60.24237,58.716729 57.542969,47.888672 56.193268,42.474643 54.913394,37.182786 54.017578,33.199219 53.56967,31.207435 53.2184,29.542386 53.001953,28.355469 c -0.108224,-0.593459 -0.183377,-1.068353 -0.21875,-1.400391 -0.01362,-0.127889 -0.0155,-0.212746 -0.01758,-0.294922 z"
       id="path59" />
  </g>
  <g
     id="path4734"
     style="fill:#000000;fill-opacity:1">
    <path
       style="color:#000000;fill:#000000;stroke-width:0.321578;-inkscape-stroke:none;fill-opacity:1"
       d="M 24.287649,36.678741 C 35.239203,30.300791 49.28047,23.886718 47.285427,23.675626 45.549897,23.491992 29.461687,22.450012 22.655872,22.873145 l -12.387886,0.770182 -2.4282432,6.115432 c -2.2095574,5.564693 -3.3590167,15.734436 -1.778416,15.734436 0.357413,0 8.6993272,-3.266139 18.2263222,-8.814454 z"
       id="path49" />
    <path
       style="color:#000000;fill:#000000;-inkscape-stroke:none;fill-opacity:1"
       d="m 22.646484,22.712891 -12.490234,0.77539 -2.4667969,6.210938 c -1.1136465,2.80468 -1.9528778,6.74524 -2.3203125,9.996093 -0.1837173,1.625427 -0.2493337,3.076466 -0.1679687,4.134766 0.040682,0.52915 0.1158139,0.959302 0.2421875,1.275391 0.063187,0.158044 0.1390348,0.288148 0.2402343,0.386718 0.1011996,0.09857 0.2350603,0.16211 0.3769532,0.16211 0.08356,0 0.1199834,-0.01843 0.2070312,-0.04492 0.087048,-0.02649 0.1998469,-0.06463 0.3417969,-0.115234 0.2838999,-0.101211 0.6779594,-0.252222 1.1699219,-0.449219 0.9839249,-0.393994 2.3608261,-0.976432 4.0234371,-1.732422 3.325223,-1.511981 7.797135,-3.71662 12.566407,-6.494141 5.470203,-3.185729 11.716533,-6.382747 16.347656,-8.810547 2.315561,-1.213899 4.224979,-2.235478 5.439453,-2.970703 0.607237,-0.367612 1.038418,-0.658722 1.275391,-0.888672 0.118486,-0.114974 0.216296,-0.207554 0.205078,-0.373046 -0.0056,-0.08275 -0.06528,-0.163887 -0.128907,-0.201172 -0.06363,-0.03729 -0.129688,-0.05062 -0.205078,-0.05859 C 45.5271,23.327748 29.484272,22.28777 22.646484,22.712891 Z m 0.01953,0.320312 c 6.773828,-0.421144 22.90614,0.623344 24.601562,0.802734 0.0073,7.78e-4 0.0054,9.52e-4 0.01172,0.002 -0.01101,0.0156 -0.0089,0.01856 -0.07227,0.08008 -0.191824,0.186138 -0.617101,0.480703 -1.216797,0.84375 -1.199391,0.726093 -3.109513,1.747691 -5.423828,2.960937 -4.628629,2.426493 -10.878035,5.624192 -16.359375,8.816406 -4.757713,2.77079 -9.22028,4.972305 -12.537109,6.480469 -1.658415,0.754082 -3.0313427,1.334772 -4.0097658,1.726563 -0.4892115,0.195895 -0.8802792,0.346233 -1.1582031,0.445312 -0.1389619,0.04954 -0.2490586,0.08531 -0.328125,0.109375 -0.079066,0.02406 -0.152165,0.03125 -0.1132812,0.03125 -0.055682,0 -0.09781,-0.0172 -0.1523438,-0.07031 C 5.8536695,45.208602 5.794523,45.117231 5.7421875,44.986328 5.6375166,44.724523 5.5607876,44.315898 5.5214844,43.804687 5.4428778,42.782266 5.5071864,41.343061 5.6894531,39.730469 6.0539865,36.505284 6.8923726,32.578367 7.9882812,29.818359 l 2.3906248,-6.021484 z"
       id="path51" />
  </g>
  <g
     id="path4732"
     style="fill:#000000;fill-opacity:1">
    <path
       style="color:#000000;fill:#000000;stroke-width:0.321578;-inkscape-stroke:none;fill-opacity:1"
       d="m 77.779566,29.915731 c -2.17311,-6.902457 -1.860293,-7.402726 -6.460549,-7.368855 -2.646234,0.01948 -14.962555,0.108672 -15.954189,1.708974 -0.663209,1.070289 5.63584,11.668817 13.903401,19.217211 9.045399,8.258571 8.838641,6.852633 10.325614,1.173884 0.467466,-1.785255 -0.564559,-10.761731 -1.814277,-14.731214 z"
       id="path41" />
    <path
       style="color:#000000;fill:#000000;-inkscape-stroke:none;fill-opacity:1"
       d="m 71.318359,22.386719 c -1.323085,0.0097 -5.067257,0.03654 -8.607422,0.261718 -1.770082,0.112588 -3.487918,0.2742 -4.833984,0.509766 -0.673033,0.117783 -1.254034,0.253373 -1.705078,0.414063 -0.451044,0.160689 -0.780334,0.336518 -0.943359,0.599609 -0.0721,0.11636 -0.08158,0.250285 -0.06836,0.40625 0.01322,0.155965 0.05453,0.338336 0.119141,0.548828 0.129215,0.420985 0.356239,0.957863 0.671875,1.59375 0.631272,1.271773 1.617022,2.936574 2.882812,4.804688 2.531581,3.736227 6.179739,8.280657 10.326172,12.066406 2.2628,2.065967 3.94695,3.528649 5.232422,4.476562 1.285473,0.947913 2.169845,1.395123 2.876953,1.378907 0.353554,-0.0081 0.656749,-0.144722 0.900391,-0.382813 0.243642,-0.238091 0.4334,-0.570647 0.603515,-0.982422 C 79.113669,47.258482 79.3789,46.10473 79.75,44.6875 79.878903,44.19522 79.894544,43.302969 79.84375,42.142578 79.792956,40.982187 79.668515,39.56698 79.490234,38.082031 79.133674,35.112134 78.56507,31.872949 77.933594,29.867187 76.848038,26.419132 76.395264,24.567191 75.585937,23.53125 75.181274,23.01328 74.677293,22.712557 74,22.556641 73.322707,22.400724 72.471323,22.37823 71.318359,22.386719 Z m 0.002,0.320312 c 1.147163,-0.0084 1.981638,0.01805 2.607422,0.16211 0.625785,0.144059 1.040495,0.393706 1.404297,0.859375 0.727606,0.931338 1.20737,2.781933 2.294922,6.236328 0.61824,1.963718 1.189908,5.197277 1.544922,8.154297 0.177507,1.478509 0.301273,2.890217 0.351562,4.039062 0.05029,1.148846 0.01889,2.046919 -0.08594,2.447266 -0.372386,1.422142 -0.639057,2.574385 -0.960938,3.353515 -0.16094,0.389566 -0.335907,0.684109 -0.53125,0.875 -0.195342,0.190892 -0.40472,0.284621 -0.683593,0.291016 -0.557748,0.01279 -1.41149,-0.380719 -2.677735,-1.314453 -1.266244,-0.933734 -2.947136,-2.393717 -5.207031,-4.457031 -4.12112,-3.762638 -7.756363,-8.290113 -10.275391,-12.007813 -1.259513,-1.85885 -2.241648,-3.517177 -2.863281,-4.769531 -0.310816,-0.626177 -0.531727,-1.151954 -0.652344,-1.544922 -0.06031,-0.196484 -0.09525,-0.359911 -0.105468,-0.480469 -0.01022,-0.120557 0.01069,-0.193511 0.02148,-0.210937 0.08488,-0.136984 0.356652,-0.314272 0.779297,-0.464844 0.422645,-0.150572 0.987974,-0.284465 1.650391,-0.400391 1.324833,-0.23185 3.037053,-0.393676 4.800781,-0.505859 3.527456,-0.224366 7.264745,-0.251979 8.58789,-0.261719 z"
       id="path43" />
  </g>
  <path
     style="color:#000000;fill:#000000;-inkscape-stroke:none;fill-opacity:1"
     d="M 51.148437,20.240234 C 50.145429,20.075878 49.1235,20.34233 48.470703,21.28125 l -0.002,0.0039 -0.0039,0.0039 c -0.903957,1.473876 -1.043067,2.74297 -0.41211,3.636719 0.630958,0.893749 1.970868,1.359375 3.904297,1.359375 h 0.01758 l 0.01758,-0.0039 c 1.727616,-0.396524 2.591433,-1.145873 2.806641,-2.017578 0.215208,-0.871705 -0.220643,-1.797885 -0.933594,-2.541016 -0.71295,-0.743131 -1.713788,-1.318066 -2.716797,-1.482422 z m -0.05273,0.31836 c 0.917521,0.150348 1.871743,0.693186 2.537109,1.386718 0.665367,0.693533 1.031184,1.522539 0.853516,2.242188 -0.176731,0.715853 -0.900109,1.3901 -2.546875,1.773437 -1.869171,-0.0035 -3.08934,-0.464708 -3.623047,-1.220703 -0.535149,-0.758036 -0.44493,-1.863943 0.421875,-3.279297 0.580927,-0.831381 1.441782,-1.052383 2.357422,-0.902343 z"
     id="path4730" />
  <g
     id="path4728"
     style="fill:#000000;fill-opacity:1">
    <path
       style="color:#000000;fill:#000000;stroke-width:0.321578;-inkscape-stroke:none;fill-opacity:1"
       d="m 49.06071,20.697544 c 0,-2.543835 -8.704251,-15.8942309 -10.585232,-15.8942309 -2.974888,0 -16.079042,3.9160087 -24.504091,13.7258919 11.489785,-0.155478 20.430256,0.570855 29.976449,1.963669 0.660719,0.111708 5.112874,0.597801 5.112874,0.20467 z"
       id="path27" />
    <path
       style="color:#000000;fill:#000000;-inkscape-stroke:none;fill-opacity:1"
       d="m 38.474609,4.6425781 c -0.778997,0 -2.156436,0.2486145 -3.943359,0.7714844 -1.786923,0.5228699 -3.973848,1.3215186 -6.332031,2.4277344 -4.716367,2.2124321 -10.117134,5.6538591 -14.34961,10.5820311 l -0.232421,0.271484 0.355468,-0.0059 c 11.481093,-0.15536 20.410054,0.57118 29.949219,1.962891 0.351093,0.05936 1.617649,0.206256 2.818359,0.292968 0.600356,0.04336 1.179919,0.07065 1.617188,0.0625 0.218634,-0.0041 0.400063,-0.01534 0.541015,-0.04297 0.07048,-0.01381 0.131188,-0.03048 0.189454,-0.0625 0.05826,-0.03202 0.132812,-0.104637 0.132812,-0.205078 0,-0.363827 -0.14377,-0.856044 -0.388672,-1.472657 -0.244901,-0.616612 -0.593113,-1.350193 -1.017578,-2.158203 -0.84893,-1.61602 -1.998937,-3.527793 -3.207031,-5.359375 C 43.399328,9.8754499 42.13363,8.1249509 41.046875,6.8261719 40.503497,6.1767824 40.004302,5.6406842 39.576172,5.2617187 39.148041,4.8827533 38.804832,4.6425781 38.474609,4.6425781 Z m 0,0.3222656 c 0.140022,0 0.480758,0.176039 0.888672,0.5371094 0.407914,0.3610704 0.898389,0.8892938 1.435547,1.53125 1.074316,1.2839125 2.337927,3.0275689 3.541016,4.8515629 1.203089,1.823993 2.347557,3.727448 3.189453,5.330078 0.420948,0.801315 0.765447,1.528514 1.003906,2.128906 0.227421,0.572598 0.338354,1.013185 0.349609,1.291016 -0.01617,0.005 -0.02013,0.0088 -0.04492,0.01367 -0.105106,0.0206 -0.27725,0.03321 -0.486329,0.03711 -0.418157,0.0078 -0.992618,-0.01756 -1.58789,-0.06055 -1.190545,-0.08598 -2.479437,-0.238667 -2.789063,-0.291016 h -0.002 -0.002 c -9.438017,-1.377031 -18.32492,-2.087928 -29.625,-1.955078 4.156171,-4.735558 9.392983,-8.089539 13.990234,-10.2460935 2.342843,-1.0990196 4.515084,-1.8922167 6.285157,-2.4101563 1.770073,-0.5179395 3.14507,-0.7578125 3.853515,-0.7578125 z"
       id="path29" />
  </g>
  <g
     id="path4697"
     style="fill:#000000;fill-opacity:1">
    <path
       style="color:#000000;fill:#000000;stroke-width:0.321578;-inkscape-stroke:none;fill-opacity:1"
       d="M 70.073709,17.71974 C 68.431413,12.049344 60.078339,6.9211776 52.231716,5.0408125 48.851371,4.0071296 45.504553,5.0971755 46.545039,8.5035031 47.181928,10.588533 52.300752,20.221573 52.441298,20.2478 c 4.694673,0.876043 13.074861,-0.727308 17.632411,-2.52806 z"
       id="path19" />
    <path
       style="color:#000000;fill:#000000;-inkscape-stroke:none;fill-opacity:1"
       d="m 49.767578,4.5039062 c -0.792006,0.010169 -1.516609,0.16024 -2.109375,0.4589844 -0.592766,0.2987444 -1.053162,0.7542068 -1.289062,1.359375 -0.2359,0.6051682 -0.246373,1.3516108 0.02148,2.2285157 0.166696,0.5457253 0.60694,1.5334057 1.179687,2.7324217 0.572748,1.199017 1.277843,2.600424 1.966797,3.9375 0.688955,1.337076 1.360775,2.610101 1.871094,3.550781 0.25516,0.47034 0.471178,0.856979 0.626953,1.128907 0.07789,0.135963 0.140034,0.244454 0.1875,0.320312 0.02373,0.03793 0.04271,0.06721 0.06055,0.0918 0.0089,0.01229 0.01766,0.02239 0.0293,0.03516 0.0058,0.0064 0.01169,0.01398 0.02344,0.02344 0.0059,0.0047 0.01426,0.0094 0.02539,0.01563 0.01113,0.0063 0.05023,0.01943 0.05078,0.01953 4.763364,0.888861 13.130846,-0.723592 17.720703,-2.537109 l 0.136719,-0.05273 -0.04102,-0.140625 C 69.390707,14.78306 66.863227,12.064656 63.570312,9.8261719 60.277888,7.5880209 56.213881,5.829755 52.271484,4.8847656 h -0.002 C 51.413169,4.6239289 50.556483,4.4937776 49.767578,4.5039062 Z m 0.0059,0.3261719 c 0.753728,-0.00994 1.581677,0.1112945 2.41211,0.3652344 h 0.0039 l 0.0039,0.00195 c 3.903669,0.9354753 7.939467,2.6812462 11.195313,4.8945314 3.195663,2.172374 5.61509,4.796819 6.464844,7.519531 -4.537864,1.761879 -12.73515,3.318472 -17.328125,2.482422 -0.0092,-0.01376 -0.01624,-0.02405 -0.0293,-0.04492 -0.04327,-0.06915 -0.106819,-0.172619 -0.183594,-0.306641 -0.15355,-0.268043 -0.366648,-0.654023 -0.621094,-1.123046 -0.50889,-0.938047 -1.181211,-2.209834 -1.86914,-3.544922 -0.68793,-1.335088 -1.392343,-2.735277 -1.962891,-3.929688 C 47.288827,9.950121 46.850967,8.9538198 46.699219,8.4570313 46.446833,7.630774 46.465295,6.9624413 46.669922,6.4375 46.874549,5.9125587 47.266314,5.5203471 47.802734,5.25 48.339154,4.9796529 49.01971,4.8400176 49.773437,4.8300781 Z"
       id="path21" />
  </g>
</svg>
