<?xml version="1.0" encoding="UTF-8" standalone="no"?>
<svg
   xmlns:dc="http://purl.org/dc/elements/1.1/"
   xmlns:cc="http://creativecommons.org/ns#"
   xmlns:rdf="http://www.w3.org/1999/02/22-rdf-syntax-ns#"
   xmlns:svg="http://www.w3.org/2000/svg"
   xmlns="http://www.w3.org/2000/svg"
   xmlns:sodipodi="http://sodipodi.sourceforge.net/DTD/sodipodi-0.dtd"
   xmlns:inkscape="http://www.inkscape.org/namespaces/inkscape"
   viewBox="0 0 85 85"
   version="1.1"
   id="svg2"
   inkscape:version="0.91 r13725"
   sodipodi:docname="eg-fgc2.svg">
  <metadata
     id="metadata22">
    <rdf:RDF>
      <cc:Work
         rdf:about="">
        <dc:format>image/svg+xml</dc:format>
        <dc:type
           rdf:resource="http://purl.org/dc/dcmitype/StillImage" />
        <dc:title></dc:title>
      </cc:Work>
    </rdf:RDF>
  </metadata>
  <defs
     id="defs20">
    <inkscape:path-effect
       effect="skeletal"
       id="path-effect4270"
       is_visible="true"
       pattern="M 0,0 1,0"
       copytype="repeated"
       prop_scale="1"
       scale_y_rel="false"
       spacing="0"
       normal_offset="0"
       tang_offset="0"
       prop_units="false"
       vertical_pattern="false"
       fuse_tolerance="0" />
    <inkscape:path-effect
       effect="gears"
       id="path-effect4268"
       is_visible="true"
       teeth="10"
       phi="5" />
    <linearGradient
       id="linearGradient4699"
       inkscape:swatch="solid">
      <stop
         style="stop-color:#000000;stop-opacity:1;"
         offset="0"
         id="stop4701" />
    </linearGradient>
  </defs>
  <sodipodi:namedview
     pagecolor="#ffffff"
     bordercolor="#666666"
     borderopacity="1"
     objecttolerance="10"
     gridtolerance="10"
     guidetolerance="10"
     inkscape:pageopacity="0"
     inkscape:pageshadow="2"
     inkscape:window-width="1920"
     inkscape:window-height="1008"
     id="namedview18"
     showgrid="false"
     inkscape:zoom="4.8"
     inkscape:cx="21.39809"
     inkscape:cy="48.392557"
     inkscape:window-x="-4"
     inkscape:window-y="-4"
     inkscape:window-maximized="1"
     inkscape:current-layer="svg2"
     showguides="false"
     inkscape:pagecheckerboard="0" />
  <g
     id="g4237"
     transform="matrix(1.1533906,0,0,1.1530574,-7.7762645,-5.7220598)">
    <path
       style="color:#000000;font-style:normal;font-variant:normal;font-weight:normal;font-stretch:normal;font-size:medium;line-height:normal;font-family:sans-serif;text-indent:0;text-align:start;text-decoration:none;text-decoration-line:none;text-decoration-style:solid;text-decoration-color:#000000;letter-spacing:normal;word-spacing:normal;text-transform:none;direction:ltr;block-progression:tb;writing-mode:lr-tb;baseline-shift:baseline;text-anchor:start;white-space:normal;clip-rule:nonzero;display:inline;overflow:visible;visibility:visible;opacity:1;isolation:auto;mix-blend-mode:normal;color-interpolation:sRGB;color-interpolation-filters:linearRGB;solid-color:#000000;solid-opacity:1;fill:#000000;fill-opacity:1;fill-rule:evenodd;stroke:none;stroke-width:1.96778584px;stroke-linecap:butt;stroke-linejoin:miter;stroke-miterlimit:4;stroke-dasharray:none;stroke-dashoffset:0;stroke-opacity:1;color-rendering:auto;image-rendering:auto;shape-rendering:auto;text-rendering:auto;enable-background:accumulate"
       d="m 55.789062,28.373047 c -0.003,0.0083 -0.0047,0.01709 -0.0078,0.02539 -0.11476,0.309922 -0.259135,0.607791 -0.427734,0.890624 -0.168599,0.282834 -0.361401,0.551099 -0.576172,0.802735 -0.21477,0.251637 -0.449852,0.486791 -0.703125,0.703125 -0.109106,0.09319 -0.232424,0.169762 -0.347657,0.255859 L 75.48634,58.423827 c 0.125892,-0.265053 0.249434,-0.530798 0.369141,-0.798828 0.13611,-0.304759 0.268634,-0.611682 0.396484,-0.919922 0.12785,-0.308239 0.251604,-0.618223 0.371094,-0.929687 0.11949,-0.311464 0.234663,-0.62502 0.345703,-0.939453 0.08596,-0.243415 0.1692,-0.487364 0.25,-0.732422 0.0236,-0.0715 0.04711,-0.143204 0.07031,-0.214844 0.10252,-0.317208 0.200822,-0.635138 0.294922,-0.955078 0.09407,-0.31994 0.183932,-0.642426 0.269532,-0.964844 0.08557,-0.322419 0.16714,-0.646059 0.24414,-0.970703 0.07701,-0.324644 0.148397,-0.649946 0.216797,-0.976563 0.06838,-0.326616 0.133659,-0.654086 0.193359,-0.982422 0.0597,-0.328336 0.115016,-0.656526 0.166016,-0.986328 0.05092,-0.329801 0.09647,-0.661173 0.138672,-0.992187 0.04212,-0.331013 0.07998,-0.662168 0.113281,-0.994141 0.0333,-0.331973 0.06349,-0.665369 0.08789,-0.998047 0.0244,-0.332681 0.04319,-0.664914 0.05859,-0.998047 0.0154,-0.333131 0.0272,-0.666665 0.0332,-1 0.0069,-0.333333 0.0089,-0.666719 0.0059,-1 -0.0028,-0.333279 -0.0096,-0.667026 -0.02148,-1 -0.0119,-0.332973 -0.02968,-0.665633 -0.05078,-0.998046 -0.0211,-0.332414 -0.04587,-0.664494 -0.07617,-0.996094 -0.03032,-0.331601 -0.06577,-0.661653 -0.105469,-0.992188 -0.03971,-0.330534 -0.08371,-0.661019 -0.132813,-0.990234 -0.04907,-0.329215 -0.103609,-0.656732 -0.162109,-0.984375 -0.05852,-0.327643 -0.121453,-0.654652 -0.189453,-0.980469 -0.06803,-0.325817 -0.14115,-0.650871 -0.21875,-0.974609 -0.07759,-0.323739 -0.158894,-0.647344 -0.246094,-0.96875 -0.08721,-0.321406 -0.180444,-0.640164 -0.277344,-0.958985 -0.04395,-0.144495 -0.08886,-0.289666 -0.134765,-0.433593 -0.05068,-0.175072 -0.10265,-0.349335 -0.15625,-0.523438 -0.01351,-0.04386 -0.02928,-0.08703 -0.04297,-0.130859 L 55.789062,28.373047 Z"
       id="path4222"
       transform="translate(-0.12733914,0)"
       inkscape:connector-curvature="0" />
    <path
       style="color:#000000;font-style:normal;font-variant:normal;font-weight:normal;font-stretch:normal;font-size:medium;line-height:normal;font-family:sans-serif;text-indent:0;text-align:start;text-decoration:none;text-decoration-line:none;text-decoration-style:solid;text-decoration-color:#000000;letter-spacing:normal;word-spacing:normal;text-transform:none;direction:ltr;block-progression:tb;writing-mode:lr-tb;baseline-shift:baseline;text-anchor:start;white-space:normal;clip-rule:nonzero;display:inline;overflow:visible;visibility:visible;opacity:1;isolation:auto;mix-blend-mode:normal;color-interpolation:sRGB;color-interpolation-filters:linearRGB;solid-color:#000000;solid-opacity:1;fill:#000000;fill-opacity:1;fill-rule:evenodd;stroke:none;stroke-width:1.96778584px;stroke-linecap:butt;stroke-linejoin:miter;stroke-miterlimit:4;stroke-dasharray:none;stroke-dashoffset:0;stroke-opacity:1;color-rendering:auto;image-rendering:auto;shape-rendering:auto;text-rendering:auto;enable-background:accumulate"
       d="m 51.776747,32.193359 c -0.12119,0.02824 -0.242149,0.05598 -0.364631,0.07825 -0.211811,0.03851 -0.427429,0.06729 -0.642851,0.08779 -0.156627,0.01491 -0.31453,0.0079 -0.472125,0.01335 l 2.366952,44.403932 c 0.03154,-0.0072 0.06334,-0.01376 0.09484,-0.02099 0.348942,-0.08007 0.695027,-0.162994 1.041205,-0.251926 0.346178,-0.08894 0.69177,-0.182772 1.034884,-0.280554 0.343113,-0.09779 0.684617,-0.200659 1.024343,-0.307274 0.339725,-0.106615 0.677772,-0.216654 1.013805,-0.332085 0.336024,-0.115431 0.669128,-0.23648 1.00116,-0.360712 0.332021,-0.124232 0.662906,-0.252507 0.990621,-0.385524 0.327715,-0.133018 0.652771,-0.270457 0.975866,-0.412244 0.323085,-0.141787 0.645068,-0.28842 0.963221,-0.438962 0.318165,-0.15054 0.63345,-0.304494 0.946359,-0.463774 0.312919,-0.159279 0.622135,-0.322489 0.929497,-0.490492 0.307362,-0.168003 0.613252,-0.340504 0.914744,-0.517214 0.301502,-0.176708 0.598336,-0.35853 0.893666,-0.543931 0.295329,-0.185401 0.58796,-0.374667 0.876804,-0.568744 0.02816,-0.01895 0.05614,-0.03823 0.08431,-0.05726 0.266117,-0.168318 0.529862,-0.340362 0.790389,-0.515304 0.288714,-0.193867 0.573975,-0.39179 0.855728,-0.593554 0.281743,-0.201764 0.559965,-0.407046 0.83465,-0.616455 0.274685,-0.209412 0.546065,-0.422551 0.813574,-0.639359 0.267509,-0.21681 0.53226,-0.436395 0.792497,-0.660353 0.260225,-0.223956 0.516479,-0.452399 0.769311,-0.683255 0.252833,-0.230856 0.500794,-0.464835 0.746127,-0.702339 0.245344,-0.237506 0.487315,-0.477524 0.72505,-0.721428 0.237725,-0.243902 0.471847,-0.492367 0.701866,-0.742418 0.18426,-0.200319 0.364446,-0.403147 0.543787,-0.606914 L 51.776747,32.193359 Z"
       id="path4220"
       inkscape:connector-curvature="0" />
    <path
       style="color:#000000;font-style:normal;font-variant:normal;font-weight:normal;font-stretch:normal;font-size:medium;line-height:normal;font-family:sans-serif;text-indent:0;text-align:start;text-decoration:none;text-decoration-line:none;text-decoration-style:solid;text-decoration-color:#000000;letter-spacing:normal;word-spacing:normal;text-transform:none;direction:ltr;block-progression:tb;writing-mode:lr-tb;baseline-shift:baseline;text-anchor:start;white-space:normal;clip-rule:nonzero;display:inline;overflow:visible;visibility:visible;opacity:1;isolation:auto;mix-blend-mode:normal;color-interpolation:sRGB;color-interpolation-filters:linearRGB;solid-color:#000000;solid-opacity:1;fill:#000000;fill-opacity:1;fill-rule:evenodd;stroke:none;stroke-width:1.96778584px;stroke-linecap:butt;stroke-linejoin:miter;stroke-miterlimit:4;stroke-dasharray:none;stroke-dashoffset:0;stroke-opacity:1;color-rendering:auto;image-rendering:auto;shape-rendering:auto;text-rendering:auto;enable-background:accumulate"
       d="M 46.940971,31.20638 22.255473,71.272587 c 0.248806,0.159896 0.499252,0.317302 0.752052,0.472021 0.294617,0.180304 0.590561,0.356798 0.89048,0.529586 0.299918,0.172788 0.602056,0.343305 0.907009,0.508479 0.304954,0.165163 0.613822,0.326082 0.923537,0.483534 0.309717,0.157464 0.621722,0.310878 0.935933,0.46051 0.314209,0.149641 0.629898,0.29576 0.94833,0.437484 0.31843,0.141723 0.638342,0.278821 0.960725,0.412539 0.322384,0.133716 0.647058,0.263912 0.973123,0.389513 0.326066,0.125602 0.653975,0.247181 0.983453,0.36457 0.329476,0.117389 0.661165,0.230538 0.993783,0.339625 0.257492,0.08445 0.515549,0.166226 0.774779,0.245604 0.07563,0.02319 0.151486,0.04629 0.227269,0.06907 0.335553,0.100722 0.67187,0.197292 1.010312,0.289738 0.338444,0.09242 0.679579,0.180697 1.020643,0.264792 0.341065,0.08406 0.683422,0.164204 1.02684,0.239849 0.343419,0.07564 0.687533,0.145789 1.033039,0.212986 0.345504,0.06718 0.691914,0.131309 1.039236,0.189959 0.347325,0.05865 0.694495,0.112995 1.04337,0.163098 0.348874,0.05008 0.699411,0.09478 1.049569,0.136232 0.350155,0.04133 0.700462,0.07858 1.051632,0.11129 0.351171,0.03271 0.703849,0.06237 1.055766,0.08634 0.351921,0.02397 0.703367,0.04243 1.055765,0.05757 0.352398,0.01513 0.705221,0.02672 1.057832,0.03262 0.249307,0.0048 0.498618,0.0038 0.747922,0.0038 L 48.930603,32.22516 c -0.03979,-0.01262 -0.08239,-0.0174 -0.121898,-0.0307 -0.33065,-0.111342 -0.651578,-0.244856 -0.956594,-0.402945 -0.305015,-0.15809 -0.593567,-0.339085 -0.863621,-0.543018 -0.01697,-0.01282 -0.0307,-0.02922 -0.04753,-0.04221 z"
       id="path4218"
       inkscape:connector-curvature="0" />
    <path
       style="color:#000000;font-style:normal;font-variant:normal;font-weight:normal;font-stretch:normal;font-size:medium;line-height:normal;font-family:sans-serif;text-indent:0;text-align:start;text-decoration:none;text-decoration-line:none;text-decoration-style:solid;text-decoration-color:#000000;letter-spacing:normal;word-spacing:normal;text-transform:none;direction:ltr;block-progression:tb;writing-mode:lr-tb;baseline-shift:baseline;text-anchor:start;white-space:normal;clip-rule:nonzero;display:inline;overflow:visible;visibility:visible;opacity:1;isolation:auto;mix-blend-mode:normal;color-interpolation:sRGB;color-interpolation-filters:linearRGB;solid-color:#000000;solid-opacity:1;fill:#000000;fill-opacity:1;fill-rule:evenodd;stroke:none;stroke-width:1.96778584px;stroke-linecap:butt;stroke-linejoin:miter;stroke-miterlimit:4;stroke-dasharray:none;stroke-dashoffset:0;stroke-opacity:1;color-rendering:auto;image-rendering:auto;shape-rendering:auto;text-rendering:auto;enable-background:accumulate"
       d="m 64.888672,13.707031 -11.15625,7.212891 c 0.07115,0.05914 0.150103,0.107892 0.21875,0.169922 0.248055,0.224143 0.48018,0.466218 0.691406,0.724609 0.08038,0.09833 0.158022,0.199984 0.232422,0.302735 0.121091,0.167244 0.232773,0.339415 0.337891,0.517578 0.169699,0.287623 0.319722,0.588588 0.445312,0.898437 0.12559,0.309849 0.228221,0.628744 0.306641,0.953125 0.07842,0.324381 0.131966,0.655111 0.160156,0.986328 0.0282,0.331218 0.03096,0.663782 0.0059,0.994141 -0.0028,0.03684 -0.01409,0.0726 -0.01758,0.109375 l 18.910157,-0.865234 c -0.149356,-0.286815 -0.303636,-0.572959 -0.460938,-0.855469 -0.16197,-0.290893 -0.327757,-0.579005 -0.498047,-0.865235 -0.17029,-0.28623 -0.345037,-0.570179 -0.523437,-0.851562 -0.1784,-0.281382 -0.360565,-0.559586 -0.546875,-0.835938 -0.1863,-0.276352 -0.376303,-0.551128 -0.570313,-0.822265 -0.19402,-0.271137 -0.39223,-0.538947 -0.59375,-0.804688 -0.20152,-0.26574 -0.406414,-0.528902 -0.615234,-0.789062 -0.20882,-0.26016 -0.420799,-0.517088 -0.636719,-0.771485 -0.21593,-0.254396 -0.435383,-0.505456 -0.658203,-0.753906 -0.22281,-0.24845 -0.450168,-0.494007 -0.679688,-0.736328 -0.22951,-0.24232 -0.461255,-0.482743 -0.697265,-0.71875 -0.236,-0.236007 -0.474497,-0.467756 -0.716797,-0.697266 -0.2423,-0.229511 -0.487948,-0.456856 -0.736328,-0.679687 -0.24838,-0.222832 -0.499636,-0.442234 -0.753906,-0.658203 -0.254271,-0.215969 -0.511535,-0.427796 -0.771485,-0.636719 -0.2227,-0.178986 -0.448851,-0.35381 -0.675781,-0.527344 z"
       transform="translate(-0.12733914,0)"
       id="path4224"
       inkscape:connector-curvature="0" />
    <path
       style="color:#000000;font-style:normal;font-variant:normal;font-weight:normal;font-stretch:normal;font-size:medium;line-height:normal;font-family:sans-serif;text-indent:0;text-align:start;text-decoration:none;text-decoration-line:none;text-decoration-style:solid;text-decoration-color:#000000;letter-spacing:normal;word-spacing:normal;text-transform:none;direction:ltr;block-progression:tb;writing-mode:lr-tb;baseline-shift:baseline;text-anchor:start;white-space:normal;clip-rule:nonzero;display:inline;overflow:visible;visibility:visible;opacity:1;isolation:auto;mix-blend-mode:normal;color-interpolation:sRGB;color-interpolation-filters:linearRGB;solid-color:#000000;solid-opacity:1;fill:#000000;fill-opacity:1;fill-rule:evenodd;stroke:none;stroke-width:1.96778584px;stroke-linecap:butt;stroke-linejoin:miter;stroke-miterlimit:4;stroke-dasharray:none;stroke-dashoffset:0;stroke-opacity:1;color-rendering:auto;image-rendering:auto;shape-rendering:auto;text-rendering:auto;enable-background:accumulate"
       d="m 43.390625,6.3710938 -0.951172,0.00195 c -0.33306,0.00585 -0.665487,0.017003 -0.998047,0.033203 -0.33256,0.0162 -0.666237,0.038033 -0.998047,0.064453 -0.33181,0.02642 -0.66331,0.05726 -0.99414,0.09375 -0.33082,0.03649 -0.660645,0.07858 -0.990235,0.125 -0.32958,0.046423 -0.658218,0.098077 -0.986328,0.1542969 -0.32811,0.056215 -0.656042,0.1177237 -0.982422,0.1835938 -0.32638,0.065867 -0.650199,0.1355574 -0.974609,0.2109374 -0.32442,0.07538 -0.648513,0.1554844 -0.970703,0.2402344 -0.3222,0.084752 -0.643161,0.1735981 -0.962891,0.2675782 -0.04444,0.013062 -0.08843,0.027735 -0.132812,0.041016 L 46.554688,20.302734 c 0.100309,-0.06352 0.193629,-0.139793 0.296874,-0.197265 0.291956,-0.162514 0.59477,-0.302448 0.90625,-0.41211 0.311481,-0.109661 0.631873,-0.190005 0.957032,-0.240234 0.325158,-0.0502 0.655291,-0.06851 0.988281,-0.05273 l 0.675781,0.02539 c 0.329774,0.03406 0.655426,0.09891 0.97461,0.191407 0.296377,0.08589 0.585394,0.200481 0.867187,0.332031 l 7.830078,-9.373047 C 59.939307,10.515974 59.828995,10.453673 59.716797,10.394531 59.421457,10.238858 59.123709,10.08691 58.824219,9.9394531 58.524729,9.7919975 58.223332,9.6488446 57.919922,9.5097656 57.616512,9.3706866 57.310986,9.2360137 57.003906,9.1054688 56.696826,8.9749237 56.388635,8.8484145 56.078125,8.7265625 55.767605,8.6047105 55.454325,8.4860489 55.140625,8.3730469 54.826905,8.2600459 54.511972,8.1528221 54.195312,8.0488281 53.878653,7.9448351 53.561568,7.84483 53.242188,7.75 52.922808,7.655174 52.601147,7.5640156 52.279297,7.4785156 c -0.32185,-0.085502 -0.64467,-0.1661675 -0.96875,-0.2421875 -0.32408,-0.076019 -0.64853,-0.1465106 -0.974609,-0.2128906 -0.32607,-0.066378 -0.654592,-0.1270137 -0.982422,-0.1835937 -0.32782,-0.05658 -0.655035,-0.1096301 -0.984375,-0.15625 -0.32934,-0.04662 -0.659625,-0.08849 -0.990235,-0.125 -0.33061,-0.03651 -0.6625,-0.06752 -0.99414,-0.09375 -0.33164,-0.02623 -0.663664,-0.0467 -0.996094,-0.0625 -0.33243,-0.0158 -0.665077,-0.02605 -0.998047,-0.03125 -0.33298,-0.0052 -0.66671,-0.0055 -1,0 z"
       transform="translate(-0.12733914,0)"
       id="path4226"
       inkscape:connector-curvature="0" />
    <path
       style="color:#000000;font-style:normal;font-variant:normal;font-weight:normal;font-stretch:normal;font-size:medium;line-height:normal;font-family:sans-serif;text-indent:0;text-align:start;text-decoration:none;text-decoration-line:none;text-decoration-style:solid;text-decoration-color:#000000;letter-spacing:normal;word-spacing:normal;text-transform:none;direction:ltr;block-progression:tb;writing-mode:lr-tb;baseline-shift:baseline;text-anchor:start;white-space:normal;clip-rule:nonzero;display:inline;overflow:visible;visibility:visible;opacity:1;isolation:auto;mix-blend-mode:normal;color-interpolation:sRGB;color-interpolation-filters:linearRGB;solid-color:#000000;solid-opacity:1;fill:#000000;fill-opacity:1;fill-rule:evenodd;stroke:none;stroke-width:1.96778584px;stroke-linecap:butt;stroke-linejoin:miter;stroke-miterlimit:4;stroke-dasharray:none;stroke-dashoffset:0;stroke-opacity:1;color-rendering:auto;image-rendering:auto;shape-rendering:auto;text-rendering:auto;enable-background:accumulate"
       d="m 25.885761,11.341797 c -0.105347,0.05523 -0.211396,0.109412 -0.316036,0.165651 -0.289793,0.155741 -0.576371,0.316252 -0.861197,0.479138 -0.284828,0.162885 -0.567764,0.328831 -0.847373,0.498732 -0.136456,0.08292 -0.271724,0.166581 -0.406896,0.251147 -0.141807,0.08871 -0.282276,0.178437 -0.422697,0.26896 -0.274279,0.176809 -0.546931,0.357899 -0.815769,0.541479 -0.268837,0.183582 -0.534785,0.369103 -0.79799,0.559293 -0.263205,0.190191 -0.522845,0.384029 -0.780214,0.580667 -0.257379,0.196637 -0.51308,0.397339 -0.764412,0.600259 -0.251341,0.202919 -0.499546,0.409031 -0.744659,0.618071 -0.245103,0.20904 -0.486238,0.420888 -0.724907,0.635883 -0.238661,0.214996 -0.47312,0.432908 -0.705156,0.653696 -0.232026,0.220789 -0.462179,0.443307 -0.687378,0.669725 -0.22519,0.22642 -0.445515,0.455654 -0.663676,0.687538 -0.21816,0.231885 -0.433003,0.46638 -0.643923,0.703568 -0.210919,0.237188 -0.418718,0.477272 -0.622195,0.719599 -0.203487,0.242329 -0.402653,0.488325 -0.598494,0.73563 -0.19585,0.247304 -0.388762,0.49598 -0.576765,0.748098 -0.188004,0.252118 -0.371125,0.507362 -0.551089,0.764129 -0.179973,0.256767 -0.355652,0.515341 -0.527384,0.776596 -0.171721,0.261254 -0.340396,0.525268 -0.503683,0.790847 -0.163276,0.265577 -0.321378,0.533577 -0.476029,0.803314 -0.154639,0.269738 -0.306525,0.540268 -0.452326,0.814001 -0.145811,0.273736 -0.28594,0.550683 -0.422698,0.828252 -0.136761,0.277568 -0.269504,0.555919 -0.39702,0.837157 -0.118961,0.26237 -0.232939,0.527203 -0.34369,0.792629 l -0.02567,0.057 C 10.08123,28.20508 9.9604974,28.488937 9.8449648,28.77426 9.7294321,29.059585 9.619042,29.346388 9.513127,29.634574 9.4072121,29.92276 9.3052804,30.2112 9.2089425,30.50201 c -0.096343,0.290814 -0.187745,0.583139 -0.2745563,0.876344 -0.086813,0.293204 -0.1676027,0.588107 -0.2449278,0.883468 -0.077328,0.295362 -0.1513604,0.591528 -0.21925,0.888811 -0.067889,0.297284 -0.1311271,0.595184 -0.1896215,0.894155 -0.058495,0.29897 -0.1108433,0.599076 -0.1599932,0.899499 -0.04915,0.300423 -0.09447,0.601421 -0.1343152,0.903062 -0.039845,0.30164 -0.074105,0.603999 -0.104687,0.906623 -0.016368,0.161973 -0.027462,0.324232 -0.04148,0.486263 7.1841825,-2.142323 29.4166045,-9.723809 36.2256195,-12.04972 -0.01464,-0.213978 -0.03174,-0.428012 -0.02173,-0.643007 0.0142,-0.304934 0.05372,-0.609731 0.116539,-0.910186 0.06282,-0.300455 0.150409,-0.596926 0.260729,-0.885249 0.07485,-0.195631 0.160483,-0.388236 0.256779,-0.575324 0.04562,-0.08864 0.09368,-0.175197 0.144193,-0.261833 0.07581,-0.130015 0.172489,-0.249091 0.258754,-0.374049 C 40.449943,19.028542 30.31032,13.539623 25.885765,11.341798 Z"
       id="path4228"
       inkscape:connector-curvature="0" />
    <path
       style="color:#000000;font-style:normal;font-variant:normal;font-weight:normal;font-stretch:normal;font-size:medium;line-height:normal;font-family:sans-serif;text-indent:0;text-align:start;text-decoration:none;text-decoration-line:none;text-decoration-style:solid;text-decoration-color:#000000;letter-spacing:normal;word-spacing:normal;text-transform:none;direction:ltr;block-progression:tb;writing-mode:lr-tb;baseline-shift:baseline;text-anchor:start;white-space:normal;clip-rule:nonzero;display:inline;overflow:visible;visibility:visible;opacity:1;isolation:auto;mix-blend-mode:normal;color-interpolation:sRGB;color-interpolation-filters:linearRGB;solid-color:#000000;solid-opacity:1;fill:#000000;fill-opacity:1;fill-rule:evenodd;stroke:none;stroke-width:1.96778584px;stroke-linecap:butt;stroke-linejoin:miter;stroke-miterlimit:4;stroke-dasharray:none;stroke-dashoffset:0;stroke-opacity:1;color-rendering:auto;image-rendering:auto;shape-rendering:auto;text-rendering:auto;enable-background:accumulate"
       d="M 44.191661,28.154948 7.9130254,45.73188 c 0.017999,0.220394 0.035409,0.440865 0.057598,0.660801 0.033181,0.328603 0.07111,0.655845 0.1132093,0.983475 0.04212,0.32763 0.088083,0.655139 0.1390291,0.981541 0.050987,0.326401 0.1069395,0.652758 0.1668347,0.977677 0.059845,0.32492 0.1240139,0.648697 0.1926546,0.971879 0.068651,0.323182 0.1410882,0.644895 0.2184742,0.966085 0.077416,0.321191 0.1601487,0.641343 0.24628,0.960288 0.00691,0.0257 0.012743,0.05162 0.019861,0.07729 0.079847,0.293079 0.1649885,0.585995 0.2522384,0.877204 0.094948,0.316718 0.1942467,0.630571 0.2979194,0.94483 0.1036727,0.31426 0.2114224,0.627491 0.3237391,0.939034 0.1123168,0.311544 0.2286908,0.622733 0.3495598,0.931305 0.120868,0.308572 0.24605,0.614368 0.375377,0.919711 0.12934,0.305343 0.26348,0.610126 0.401199,0.911984 0.137718,0.301858 0.279024,0.602275 0.425031,0.90039 0.146008,0.298116 0.296639,0.592749 0.450851,0.886866 0.154213,0.294116 0.312358,0.587342 0.474686,0.877204 0.162327,0.289861 0.328156,0.576397 0.498518,0.861747 0.170361,0.285348 0.344049,0.569574 0.522351,0.850153 0.178294,0.28058 0.362019,0.559144 0.548173,0.834696 0.186153,0.275555 0.376106,0.547036 0.570019,0.817307 0.193921,0.270272 0.390267,0.539051 0.591866,0.803783 0.2016,0.264732 0.408499,0.525525 0.617687,0.784461 0.192516,0.238292 0.923592,0.98819 1.050662,1.118724 L 45.524353,30.56243 c -0.02574,-0.03254 -0.05249,-0.06337 -0.07746,-0.09661 -0.14784,-0.158675 -0.284186,-0.324981 -0.409143,-0.498501 -0.192407,-0.267185 -0.357466,-0.550751 -0.496532,-0.846289 -0.139067,-0.295537 -0.252785,-0.604124 -0.339628,-0.919712 -0.0042,-0.01522 -0.0058,-0.03112 -0.0099,-0.04638 z"
       id="path4230"
       inkscape:connector-curvature="0" />
  </g>
</svg>
