<?xml version="1.0" encoding="UTF-8" standalone="no"?>
<svg
   viewBox="0 0 85 85"
   version="1.1"
   id="svg2"
   inkscape:version="1.1 (c68e22c387, 2021-05-23)"
   sodipodi:docname="eg-generator.svg"
   xmlns:inkscape="http://www.inkscape.org/namespaces/inkscape"
   xmlns:sodipodi="http://sodipodi.sourceforge.net/DTD/sodipodi-0.dtd"
   xmlns="http://www.w3.org/2000/svg"
   xmlns:svg="http://www.w3.org/2000/svg"
   xmlns:rdf="http://www.w3.org/1999/02/22-rdf-syntax-ns#"
   xmlns:cc="http://creativecommons.org/ns#"
   xmlns:dc="http://purl.org/dc/elements/1.1/">
  <metadata
     id="metadata14">
    <rdf:RDF>
      <cc:Work
         rdf:about="">
        <dc:format>image/svg+xml</dc:format>
        <dc:type
           rdf:resource="http://purl.org/dc/dcmitype/StillImage" />
        <dc:title />
      </cc:Work>
    </rdf:RDF>
  </metadata>
  <defs
     id="defs12" />
  <sodipodi:namedview
     pagecolor="#ffffff"
     bordercolor="#666666"
     borderopacity="1"
     objecttolerance="10"
     gridtolerance="10"
     guidetolerance="10"
     inkscape:pageopacity="0"
     inkscape:pageshadow="2"
     inkscape:window-width="1920"
     inkscape:window-height="1018"
     id="namedview10"
     showgrid="false"
     inkscape:zoom="2.7764706"
     inkscape:cx="42.680085"
     inkscape:cy="42.5"
     inkscape:window-x="-8"
     inkscape:window-y="-8"
     inkscape:window-maximized="1"
     inkscape:current-layer="svg2"
     inkscape:pagecheckerboard="0" />
  <g
     id="g4144">
    <path
       style="color:#000000;fill:#000000;-inkscape-stroke:none"
       d="m 43.138672,0.5 c -23.161644,0 -42.0000001,18.838355 -42.0000001,42 0,23.161645 18.8383561,42 42.0000001,42 23.161644,0 42,-18.838355 42,-42 0,-23.161645 -18.838356,-42 -42,-42 z m 0,5.7910156 c 20.032368,0 36.210937,16.1766144 36.210937,36.2089844 0,20.03237 -16.178569,36.208984 -36.210937,36.208984 C 23.106304,78.708984 6.9296875,62.53237 6.9296875,42.5 6.9296875,22.46763 23.106304,6.2910156 43.138672,6.2910156 Z"
       id="circle6" />
    <path
       style="color:#000000;fill:#000000;-inkscape-stroke:none"
       d="m 54.099609,30.904297 c -3.319088,0.215016 -6.02183,1.80296 -8.191406,3.677734 -2.169576,1.874774 -3.983544,4.058368 -5.988281,6.107422 -3.195973,3.266625 -6.243502,6.633879 -8.8125,6.853516 -1.381482,0.11811 -5.22817,-1.367831 -8.25,-3.244141 -3.02183,-1.87631 -5.376953,-3.822266 -5.376953,-3.822266 l -3.826172,4.621094 c 0,0 2.622141,2.176458 6.037109,4.296875 3.414969,2.120417 7.464948,4.506381 11.925781,4.125 6.205068,-0.530504 9.812987,-5.796522 12.589844,-8.634765 2.200683,-2.249333 3.986625,-4.347654 5.623047,-5.761719 1.636422,-1.414065 2.946227,-2.121644 4.65625,-2.232422 1.48851,-0.09643 5.467082,1.636304 8.574219,3.773437 3.107136,2.137134 5.507812,4.333985 5.507812,4.333985 L 72.625,40.576172 c 0,0 -2.663423,-2.447678 -6.164063,-4.855469 -3.500639,-2.407791 -7.672721,-5.120142 -12.361328,-4.816406 z"
       id="path8" />
  </g>
</svg>
