<?xml version="1.0" encoding="UTF-8" standalone="no"?>
<svg
   viewBox="0 0 85 85"
   version="1.1"
   id="svg2"
   inkscape:version="1.1 (c68e22c387, 2021-05-23)"
   sodipodi:docname="eg-gas-protection.svg"
   xmlns:inkscape="http://www.inkscape.org/namespaces/inkscape"
   xmlns:sodipodi="http://sodipodi.sourceforge.net/DTD/sodipodi-0.dtd"
   xmlns="http://www.w3.org/2000/svg"
   xmlns:svg="http://www.w3.org/2000/svg"
   xmlns:rdf="http://www.w3.org/1999/02/22-rdf-syntax-ns#"
   xmlns:cc="http://creativecommons.org/ns#"
   xmlns:dc="http://purl.org/dc/elements/1.1/">
  <metadata
     id="metadata16">
    <rdf:RDF>
      <cc:Work
         rdf:about="">
        <dc:format>image/svg+xml</dc:format>
        <dc:type
           rdf:resource="http://purl.org/dc/dcmitype/StillImage" />
        <dc:title />
      </cc:Work>
    </rdf:RDF>
  </metadata>
  <defs
     id="defs14">
    <inkscape:path-effect
       effect="spiro"
       id="path-effect4193"
       is_visible="true" />
    <inkscape:path-effect
       effect="spiro"
       id="path-effect4189"
       is_visible="true" />
    <inkscape:path-effect
       effect="spiro"
       id="path-effect4163"
       is_visible="true" />
    <inkscape:path-effect
       effect="spiro"
       id="path-effect4159"
       is_visible="true" />
    <inkscape:path-effect
       effect="spiro"
       id="path-effect4155"
       is_visible="true" />
    <inkscape:path-effect
       effect="spiro"
       id="path-effect4155-8"
       is_visible="true" />
    <inkscape:path-effect
       effect="spiro"
       id="path-effect4189-5"
       is_visible="true" />
    <inkscape:path-effect
       effect="spiro"
       id="path-effect4189-8"
       is_visible="true" />
    <inkscape:path-effect
       effect="spiro"
       id="path-effect4189-9"
       is_visible="true" />
  </defs>
  <sodipodi:namedview
     pagecolor="#ffffff"
     bordercolor="#666666"
     borderopacity="1"
     objecttolerance="10"
     gridtolerance="10"
     guidetolerance="10"
     inkscape:pageopacity="0"
     inkscape:pageshadow="2"
     inkscape:window-width="1920"
     inkscape:window-height="1018"
     id="namedview12"
     showgrid="false"
     inkscape:zoom="5.5529411"
     inkscape:cx="40.068856"
     inkscape:cy="51.684323"
     inkscape:window-x="-8"
     inkscape:window-y="-8"
     inkscape:window-maximized="1"
     inkscape:current-layer="svg2"
     inkscape:pagecheckerboard="0" />
  <g
     id="g4244">
    <g
       transform="matrix(0.59873694,0,0,0.59873694,32.719916,11.183144)"
       id="g4139">
      <path
         style="color:#000000;fill:#000000;-inkscape-stroke:none"
         d="m 41.599609,0.21875 c -23.433325,0 -42.46289025,19.027612 -42.46289025,42.460937 0,23.433326 19.02956525,42.462891 42.46289025,42.462891 23.433326,0 42.462891,-19.029565 42.462891,-42.462891 C 84.0625,19.246362 65.032935,0.21875 41.599609,0.21875 Z m 0,3 c 21.812007,0 39.462891,17.648931 39.462891,39.460937 0,21.812007 -17.650884,39.462891 -39.462891,39.462891 -21.812007,0 -39.4628902,-17.650884 -39.4628902,-39.462891 0,-21.812006 17.6508832,-39.460937 39.4628902,-39.460937 z"
         id="circle6" />
      <path
         style="color:#000000;fill:#000000;-inkscape-stroke:none"
         d="m 41.599609,5.1796875 c -20.690059,0 -37.4999996,16.8099405 -37.4999996,37.4999995 0,20.69006 16.8099406,37.5 37.4999996,37.5 20.69006,0 37.5,-16.80994 37.5,-37.5 0,-20.690059 -16.80994,-37.4999995 -37.5,-37.4999995 z m 0,3.4785156 c 18.810493,0 34.021485,15.2109919 34.021485,34.0214839 0,18.810493 -15.210992,34.023438 -34.021485,34.023438 -18.810492,0 -34.021484,-15.212945 -34.021484,-34.023438 0,-18.810492 15.210992,-34.0214839 34.021484,-34.0214839 z"
         id="circle8" />
    </g>
    <g
       id="path4145">
      <path
         style="color:#000000;fill:#000000;fill-rule:evenodd;stroke-width:1px;-inkscape-stroke:none"
         d="m 67.53178,59.608051 0.180085,14.887843 H 7.4453787 v 7.176908 H 70.863349 V 57.356991"
         id="path45" />
      <path
         style="color:#000000;fill:#000000;fill-rule:evenodd;-inkscape-stroke:none"
         d="M 70.363281,57.357422 V 81.171875 H 7.9453125 V 74.996094 H 68.21875 l -0.1875,-15.394532 -1,0.01172 0.173828,14.382813 H 6.9453125 v 8.175781 H 71.363281 V 57.357422 Z"
         id="path47" />
    </g>
    <g
       id="path4147">
      <path
         style="color:#000000;fill:#000000;fill-rule:evenodd;stroke-width:1px;-inkscape-stroke:none"
         d="M 42.364937,56.096398 V 74.834745"
         id="path53" />
      <path
         style="color:#000000;fill:#000000;fill-rule:evenodd;-inkscape-stroke:none"
         d="m 41.865234,56.095703 v 18.738281 h 1 V 56.095703 Z"
         id="path55" />
    </g>
    <g
       id="path4149">
      <path
         style="color:#000000;fill:#000000;fill-rule:evenodd;stroke-width:1px;-inkscape-stroke:none"
         d="M 39.1875,52.333686 39.09746,74.834745"
         id="path61" />
      <path
         style="color:#000000;fill:#000000;fill-rule:evenodd;-inkscape-stroke:none"
         d="m 38.6875,52.332031 -0.08984,22.5 1,0.0039 0.08984,-22.5 z"
         id="path63" />
    </g>
    <g
       id="path4153">
      <path
         style="color:#000000;fill:#000000;fill-rule:evenodd;stroke-width:1px;-inkscape-stroke:none"
         d="M 11.165254,74.375 C 11.31796,64.596476 12.282587,54.830754 14.045948,45.211325 16.274892,33.052067 20.072782,20.60828 28.670772,11.726257 30.054374,10.296948 31.568303,8.96217 33.33003,8.0382688 36.122779,6.5736695 39.485058,6.2325204 42.515071,7.106321 c 3.030012,0.8738005 5.694331,2.952912 7.278362,5.679695 l -4.465081,2.547279 C 44.99839,14.415362 44.41354,13.590536 43.65649,12.975432 42.89944,12.360329 41.972359,11.956711 41.006319,11.821643 39.548798,11.617857 38.052948,12.02508 36.765654,12.738362 35.47836,13.451645 34.377053,14.45667 33.352717,15.513379 25.440559,23.675595 21.745748,34.998119 19.33369,46.106944 17.286226,55.536618 15.981074,65.12737 15.434283,74.761262"
         id="path69" />
      <path
         style="color:#000000;fill:#000000;fill-rule:evenodd;-inkscape-stroke:none"
         d="m 37.783203,6.1972656 c -1.630378,0.1654241 -3.230225,0.635224 -4.685547,1.3984375 -1.832801,0.9611745 -3.384933,2.334706 -4.787109,3.7832029 -8.709124,8.996829 -12.519664,21.543372 -14.755859,33.742188 -1.76835,9.646643 -2.735534,19.439906 -2.888672,29.246093 l 1,0.01563 c 0.152273,-9.75084 1.112725,-19.489835 2.871093,-29.082031 2.221688,-12.119676 6.005349,-24.459363 14.492188,-33.226562 1.365025,-1.410118 2.842553,-2.7071242 4.533203,-3.5937502 2.674848,-1.4027687 5.912357,-1.7314429 8.814453,-0.8945313 2.736426,0.7891356 5.10333,2.6692305 6.644531,5.0644535 l -3.564453,2.033203 c -0.37515,-0.78162 -0.810156,-1.5479 -1.484375,-2.095703 -0.829018,-0.673578 -1.838608,-1.113811 -2.896484,-1.261719 -1.594447,-0.222931 -3.192379,0.220844 -4.552735,0.974609 -1.355707,0.751191 -2.490578,1.793689 -3.529296,2.865235 C 24.975295,23.438291 21.265276,34.856565 18.845703,46 16.792674,55.455307 15.483824,65.072342 14.935547,74.732422 l 0.998047,0.05664 c 0.545303,-9.607685 1.846777,-19.172149 3.888672,-28.576171 2.404538,-11.074193 6.083217,-22.299423 13.888671,-30.351563 1.009952,-1.04187 2.077998,-2.010173 3.296875,-2.685547 1.21423,-0.672797 2.609096,-1.044016 3.929688,-0.859375 0.874202,0.122228 1.719217,0.490248 2.404297,1.046875 0.68508,0.556629 1.217031,1.308004 1.515625,2.138672 l 0.201172,0.560547 5.419922,-3.091797 -0.251954,-0.435547 C 48.575662,9.6932629 45.81222,7.5356878 42.654297,6.625 41.075335,6.1696561 39.413581,6.0318415 37.783203,6.1972656 Z"
         id="path71" />
    </g>
    <path
       style="color:#000000;fill:#000000;fill-rule:evenodd;-inkscape-stroke:none"
       d="m 56.486328,61.318359 v 4.919922 H 3.421875 v 3 h 56.064453 v -7.919922 z"
       id="path4161" />
    <path
       style="color:#000000;fill:#000000;stroke-linecap:round;stroke-linejoin:round;-inkscape-stroke:none"
       d="m 23.142578,62.636719 a 1.0001,1.0001 0 0 0 -1,1 v 8.375 a 1.0001,1.0001 0 0 0 1,1 h 11.4375 a 1.0001,1.0001 0 0 0 1,-1 v -8.375 a 1.0001,1.0001 0 0 0 -1,-1 z m 1,2 h 9.4375 v 6.375 h -9.4375 z"
       id="rect4165" />
    <path
       style="color:#000000;fill:#000000;fill-rule:evenodd;-inkscape-stroke:none"
       d="m 59.859375,35.671875 c -0.457256,0.06531 -0.866241,0.246742 -1.224609,0.464844 -0.357146,0.217357 -0.664292,0.47016 -0.953125,0.708984 -0.288724,0.238733 -0.561725,0.464525 -0.839844,0.644531 -0.27712,0.17936 -0.563691,0.312771 -0.845703,0.369141 -0.375099,0.07497 -0.799609,0.02351 -1.212891,-0.111328 -0.416014,-0.135724 -0.828793,-0.353276 -1.259766,-0.589844 -0.431223,-0.236705 -0.883972,-0.493765 -1.394531,-0.6875 -0.512644,-0.194528 -1.087838,-0.323288 -1.685547,-0.261719 -0.90171,0.09289 -1.625898,0.576714 -2.255859,0.996094 -0.624667,0.415857 -1.21647,0.789361 -1.810547,0.873047 -0.388083,0.05467 -0.80969,-0.007 -1.21875,-0.148438 -0.41106,-0.142109 -0.814546,-0.363271 -1.220703,-0.613281 -0.813844,-0.500961 -1.672691,-1.150723 -2.765625,-1.404297 -1.034734,-0.24007 -2.143252,-0.05837 -3.046875,0.5 -0.903623,0.558366 -1.562354,1.469137 -1.810547,2.501953 l 0.972656,0.232422 c 0.184417,-0.76742 0.691857,-1.467926 1.363282,-1.882812 0.671425,-0.414887 1.52803,-0.555334 2.296875,-0.376953 0.826239,0.191697 1.600915,0.74946 2.464843,1.28125 0.432728,0.266365 0.898022,0.527277 1.417969,0.707031 0.521949,0.180447 1.100139,0.276099 1.6875,0.193359 0.891601,-0.125597 1.598417,-0.615677 2.222656,-1.03125 0.618946,-0.412047 1.215903,-0.773128 1.806641,-0.833984 0.388611,-0.04003 0.812164,0.04392 1.226562,0.201172 0.416483,0.158037 0.829603,0.390447 1.267579,0.630859 0.438228,0.240552 0.906966,0.492251 1.433593,0.664063 0.529359,0.172703 1.119589,0.259993 1.716797,0.140625 0.448308,-0.08961 0.845246,-0.284458 1.19336,-0.509766 0.347114,-0.224663 0.648348,-0.478987 0.933593,-0.714844 0.285134,-0.235765 0.556878,-0.455165 0.835938,-0.625 0.277837,-0.16909 0.567629,-0.288131 0.847656,-0.328125 0.400663,-0.05722 0.849006,0.04102 1.271484,0.236328 0.426196,0.197026 0.837227,0.490944 1.269532,0.802735 0.432666,0.312053 0.893841,0.645709 1.435547,0.896484 0.545413,0.252492 1.176844,0.415128 1.832031,0.322266 0.42909,-0.06082 0.81653,-0.224745 1.158203,-0.421875 0.340637,-0.196532 0.636258,-0.425766 0.914062,-0.644531 0.553449,-0.43583 1.06721,-0.83307 1.601563,-0.962891 0.415641,-0.10098 0.888224,-0.05237 1.341797,0.0957 0.456846,0.149144 0.904527,0.39767 1.355469,0.679688 0.451277,0.282228 0.910973,0.599311 1.425781,0.875 0.51591,0.276279 1.090897,0.509781 1.722656,0.582031 0.947946,0.108408 1.91669,-0.173007 2.658203,-0.773438 0.741514,-0.60043 1.219444,-1.489685 1.310547,-2.439453 l -0.996094,-0.0957 c -0.06457,0.673129 -0.417826,1.33227 -0.943359,1.757813 -0.525532,0.425542 -1.244175,0.635425 -1.916016,0.558593 -0.455007,-0.05204 -0.914904,-0.230589 -1.363281,-0.470703 -0.449479,-0.240703 -0.893001,-0.545973 -1.369141,-0.84375 -0.476477,-0.297987 -0.991223,-0.590922 -1.574218,-0.78125 -0.586268,-0.191395 -1.241383,-0.272494 -1.888672,-0.115234 -0.823933,0.200174 -1.4377,0.71948 -1.982422,1.148437 -0.271281,0.213629 -0.532143,0.411716 -0.796875,0.564453 -0.263694,0.15214 -0.535935,0.259614 -0.798828,0.296875 -0.400818,0.05681 -0.849022,-0.04271 -1.271485,-0.238281 -0.426171,-0.19729 -0.837154,-0.49089 -1.269531,-0.802734 -0.432738,-0.312104 -0.893627,-0.645961 -1.435547,-0.896485 -0.545636,-0.252242 -1.178804,-0.413888 -1.833984,-0.320312 z"
       id="path4187" />
    <path
       style="color:#000000;fill:#000000;fill-rule:evenodd;-inkscape-stroke:none"
       d="M 52.736328,2.1992188 45.623047,12.554688 48.919922,14.818359 56.033203,4.4648437 Z"
       id="path4191" />
    <path
       style="color:#000000;fill:#000000;fill-rule:evenodd;-inkscape-stroke:none"
       d="m 60.039062,41.855469 c -0.456811,0.06634 -0.866647,0.2485 -1.224609,0.466797 -0.35675,0.217557 -0.662422,0.470336 -0.951172,0.708984 -0.288638,0.238556 -0.561646,0.46487 -0.839844,0.644531 -0.277199,0.179017 -0.563686,0.313201 -0.845703,0.369141 -0.375168,0.07442 -0.79971,0.02023 -1.21289,-0.115235 -0.415915,-0.136364 -0.828712,-0.352901 -1.259766,-0.589843 -0.431307,-0.237082 -0.885329,-0.496173 -1.396484,-0.689453 -0.513275,-0.194084 -1.087526,-0.319763 -1.685547,-0.25586 -0.902262,0.09642 -1.625841,0.583837 -2.253906,1.003906 -0.622571,0.416396 -1.212808,0.787406 -1.804688,0.863282 -0.386323,0.04952 -0.80857,-0.01902 -1.214844,-0.167969 -0.408374,-0.149714 -0.80714,-0.377458 -1.21289,-0.632813 -0.813632,-0.512052 -1.690192,-1.169511 -2.808594,-1.36914 -0.931062,-0.16619 -1.906744,0.03448 -2.695313,0.55664 -0.788569,0.522163 -1.355947,1.341609 -1.566406,2.263672 l 0.97461,0.222657 c 0.151399,-0.663313 0.577251,-1.276712 1.144531,-1.652344 0.56728,-0.375632 1.297012,-0.525804 1.966797,-0.40625 0.820296,0.146418 1.598067,0.693574 2.451172,1.230469 0.427618,0.269117 0.886219,0.535393 1.402343,0.724609 0.518227,0.189987 1.095193,0.298336 1.685547,0.222656 0.896633,-0.114944 1.609541,-0.607481 2.234375,-1.02539 0.61934,-0.414234 1.212798,-0.776802 1.802735,-0.839844 0.387967,-0.04146 0.812326,0.04063 1.226562,0.197265 0.416355,0.157434 0.82991,0.388328 1.267578,0.628907 0.43792,0.240717 0.905304,0.493447 1.431641,0.666015 0.529069,0.173464 1.119314,0.263052 1.716797,0.144532 0.448479,-0.08896 0.846903,-0.284761 1.195312,-0.509766 0.347412,-0.22436 0.648189,-0.477007 0.933594,-0.712891 0.285296,-0.235793 0.556862,-0.456764 0.835937,-0.626953 0.277864,-0.169449 0.567471,-0.289388 0.847657,-0.330078 0.400752,-0.0582 0.84852,0.04064 1.271484,0.234375 0.426662,0.195423 0.839186,0.486305 1.271484,0.796875 0.432653,0.310823 0.891667,0.644784 1.431641,0.896484 0.543548,0.253366 1.173728,0.418158 1.828125,0.332032 0.854521,-0.112462 1.520149,-0.605758 2.083984,-1.044922 0.558759,-0.435208 1.071366,-0.839693 1.609375,-0.988281 0.441186,-0.121848 0.94806,-0.08933 1.439454,0.04687 0.494566,0.137086 0.983743,0.375276 1.486328,0.638671 0.502877,0.26355 1.024799,0.555728 1.605468,0.779297 0.58249,0.22427 1.229054,0.377051 1.904297,0.326172 0.733469,-0.05526 1.434764,-0.354691 1.982422,-0.845703 0.547659,-0.491013 0.921938,-1.155801 1.056641,-1.878906 l -0.982422,-0.183594 c -0.0933,0.50086 -0.360896,0.978257 -0.740234,1.318359 -0.379339,0.340102 -0.884546,0.555473 -1.392579,0.59375 -0.473085,0.03565 -0.976558,-0.07417 -1.46875,-0.263671 -0.494011,-0.190204 -0.984835,-0.459457 -1.501953,-0.730469 -0.51741,-0.271166 -1.068419,-0.54628 -1.683593,-0.716797 -0.618347,-0.171395 -1.30186,-0.23355 -1.970704,-0.04883 -0.808991,0.223429 -1.413318,0.740573 -1.957031,1.164062 -0.538635,0.419536 -1.070602,0.771919 -1.601562,0.841797 -0.402642,0.05299 -0.850656,-0.04902 -1.273438,-0.246094 -0.426353,-0.198737 -0.838265,-0.491504 -1.271484,-0.802734 -0.433573,-0.311485 -0.894847,-0.645981 -1.4375,-0.894531 -0.546351,-0.250247 -1.17965,-0.409476 -1.833985,-0.314453 z"
       id="path4187-4" />
    <path
       style="color:#000000;fill:#000000;fill-rule:evenodd;-inkscape-stroke:none"
       d="m 70.300781,46.84375 c -0.654935,0.04297 -1.30016,0.218578 -1.886719,0.525391 -0.693568,0.362787 -1.239394,0.854681 -1.779296,1.24414 -0.536058,0.386687 -1.096525,0.68415 -1.644532,0.71875 -0.414683,0.02618 -0.863657,-0.09434 -1.289062,-0.300781 -0.428101,-0.207752 -0.843951,-0.500659 -1.283203,-0.806641 -0.43956,-0.306195 -0.908621,-0.629779 -1.455078,-0.865234 -0.54989,-0.236936 -1.180107,-0.379221 -1.828125,-0.279297 -0.453182,0.06988 -0.859559,0.250486 -1.216797,0.466797 -0.356132,0.21564 -0.664917,0.46428 -0.955078,0.701172 -0.577563,0.471531 -1.12238,0.897041 -1.69336,1.019531 -0.377507,0.08098 -0.804144,0.04106 -1.220703,-0.08203 -0.419051,-0.123833 -0.835018,-0.329609 -1.265625,-0.556641 -0.430839,-0.227154 -0.880582,-0.477373 -1.378906,-0.677734 -0.499703,-0.200915 -1.053278,-0.350461 -1.640625,-0.337891 -0.8903,0.01906 -1.674135,0.398469 -2.34961,0.802735 -0.672293,0.402362 -1.266914,0.837105 -1.886718,1.107421 -0.908302,0.39614 -1.960425,0.48002 -2.919922,0.232422 -0.959496,-0.247597 -1.840155,-0.831004 -2.44336,-1.617187 l -0.794921,0.609375 c 0.742626,0.967897 1.807011,1.669783 2.988281,1.974609 1.181271,0.304826 2.45207,0.204499 3.570312,-0.283203 0.757145,-0.330215 1.383306,-0.796929 2,-1.166016 0.613515,-0.367183 1.24586,-0.647063 1.857422,-0.660156 0.402281,-0.0086 0.827398,0.09728 1.246094,0.265625 0.420075,0.168899 0.840388,0.400267 1.285156,0.634766 0.444998,0.234619 0.918997,0.474174 1.449219,0.630859 0.532714,0.15742 1.122564,0.228203 1.712891,0.101563 0.884182,-0.189681 1.541895,-0.752979 2.117187,-1.222657 0.286266,-0.233711 0.559436,-0.451304 0.839844,-0.621093 0.279299,-0.169118 0.569301,-0.29046 0.851562,-0.333985 0.402961,-0.06214 0.854537,0.02708 1.28125,0.210938 0.430146,0.185339 0.846294,0.463997 1.279297,0.765625 0.433313,0.301844 0.889373,0.630197 1.417969,0.886719 0.531292,0.257829 1.140505,0.439259 1.787109,0.398437 0.850198,-0.05368 1.567806,-0.473321 2.167969,-0.90625 0.596321,-0.430156 1.108404,-0.881405 1.65625,-1.167969 0.913874,-0.478023 2.052985,-0.553732 3.021484,-0.199218 0.968501,0.354513 1.788427,1.146517 2.177735,2.101562 l 0.927734,-0.376953 c -0.499745,-1.225967 -1.518479,-2.20703 -2.761719,-2.662109 -0.621619,-0.22754 -1.286471,-0.318364 -1.941406,-0.275391 z"
       id="path4187-2" />
    <path
       style="color:#000000;fill:#000000;fill-rule:evenodd;-inkscape-stroke:none"
       d="m 58.916016,52.128906 c -0.85949,0.203074 -1.521792,0.729049 -2.109375,1.185547 -0.583656,0.453447 -1.142295,0.861302 -1.726563,0.998047 -0.387748,0.09075 -0.818604,0.07193 -1.244141,-0.02539 -0.42735,-0.09773 -0.855488,-0.272064 -1.287109,-0.476562 -0.864433,-0.409564 -1.773919,-0.964075 -2.871094,-1.148438 -0.879576,-0.147798 -1.793657,-0.02406 -2.603515,0.34961 -0.809858,0.37367 -1.496725,0.988784 -1.955078,1.753906 l 0.857421,0.515625 c 0.352828,-0.588969 0.892219,-1.073687 1.515625,-1.361328 0.623406,-0.28764 1.342458,-0.385256 2.019532,-0.271485 0.853044,0.143341 1.686688,0.62729 2.609375,1.064454 0.461938,0.218863 0.955643,0.426126 1.492187,0.548828 0.538359,0.123117 1.120298,0.159973 1.695313,0.02539 0.860252,-0.201337 1.523441,-0.726859 2.111328,-1.183593 0.583959,-0.453683 1.140294,-0.863896 1.724609,-1.001954 0.416952,-0.09851 0.881979,-0.0675 1.332031,0.05469 0.452288,0.1228 0.896976,0.336884 1.335938,0.591797 0.878887,0.510385 1.755674,1.206866 2.861328,1.597656 0.959416,0.339103 2.009215,0.396047 3,0.164063 0.990784,-0.231985 1.90609,-0.748733 2.615234,-1.478516 l -0.716796,-0.697266 c -0.573331,0.590016 -1.325923,1.01557 -2.126954,1.203125 -0.801031,0.187556 -1.661829,0.139393 -2.4375,-0.134765 -0.900148,-0.318155 -1.732548,-0.961572 -2.693359,-1.519532 -0.480887,-0.279259 -0.999967,-0.535492 -1.574219,-0.691406 -0.576484,-0.156512 -1.205971,-0.208575 -1.824218,-0.0625 z"
       id="path4187-7" />
    <g
       id="rect4165-3">
      <path
         style="color:#000000;fill:#000000;stroke-width:1.12396;stroke-linecap:round;stroke-linejoin:round;-inkscape-stroke:none"
         d="m 25.718708,58.224003 h 6.369788 v 4.749025 h -6.369788 z"
         id="path119" />
      <path
         style="color:#000000;fill:#000000;stroke-linecap:round;stroke-linejoin:round;-inkscape-stroke:none"
         d="m 25.71875,57.662109 a 0.56203776,0.56203776 0 0 0 -0.5625,0.5625 v 4.748047 a 0.56203776,0.56203776 0 0 0 0.5625,0.5625 h 6.369141 a 0.56203776,0.56203776 0 0 0 0.5625,-0.5625 v -4.748047 a 0.56203776,0.56203776 0 0 0 -0.5625,-0.5625 z m 0.5625,1.123047 h 5.246094 v 3.625 H 26.28125 Z"
         id="path121" />
    </g>
  </g>
</svg>
