<?xml version="1.0" encoding="UTF-8" standalone="no"?>
<svg
   viewBox="0 0 85 85"
   version="1.1"
   id="svg2"
   inkscape:version="1.1 (c68e22c387, 2021-05-23)"
   sodipodi:docname="eg-high-frequency-setting-element.svg"
   xmlns:inkscape="http://www.inkscape.org/namespaces/inkscape"
   xmlns:sodipodi="http://sodipodi.sourceforge.net/DTD/sodipodi-0.dtd"
   xmlns="http://www.w3.org/2000/svg"
   xmlns:svg="http://www.w3.org/2000/svg"
   xmlns:rdf="http://www.w3.org/1999/02/22-rdf-syntax-ns#"
   xmlns:cc="http://creativecommons.org/ns#"
   xmlns:dc="http://purl.org/dc/elements/1.1/">
  <metadata
     id="metadata20">
    <rdf:RDF>
      <cc:Work
         rdf:about="">
        <dc:format>image/svg+xml</dc:format>
        <dc:type
           rdf:resource="http://purl.org/dc/dcmitype/StillImage" />
        <dc:title />
      </cc:Work>
    </rdf:RDF>
  </metadata>
  <defs
     id="defs18">
    <inkscape:path-effect
       effect="spiro"
       id="path-effect4166"
       is_visible="true" />
    <inkscape:path-effect
       effect="spiro"
       id="path-effect4162"
       is_visible="true" />
  </defs>
  <sodipodi:namedview
     pagecolor="#ffffff"
     bordercolor="#666666"
     borderopacity="1"
     objecttolerance="10"
     gridtolerance="10"
     guidetolerance="10"
     inkscape:pageopacity="0"
     inkscape:pageshadow="2"
     inkscape:window-width="1920"
     inkscape:window-height="1018"
     id="namedview16"
     showgrid="false"
     inkscape:zoom="2.7764706"
     inkscape:cx="41.239407"
     inkscape:cy="38.898305"
     inkscape:window-x="-8"
     inkscape:window-y="-8"
     inkscape:window-maximized="1"
     inkscape:current-layer="svg2"
     inkscape:pagecheckerboard="0" />
  <g
     id="g4250">
    <g
       transform="matrix(0.89096757,0,0,-0.76487235,3.3021373,69.189443)"
       id="g4151">
      <path
         style="color:#000000;fill:#000000;-inkscape-stroke:none"
         d="m 8.2246094,58.082031 c 0,5.993154 1.1908776,10.834831 3.4355466,14.363281 2.24467,3.528451 5.759432,5.697266 9.605469,5.697266 3.846037,0 7.420334,-2.128046 9.78125,-5.646484 2.360916,-3.518439 3.675781,-8.390331 3.675781,-14.414063 h -5 c 0,5.283759 -1.194617,9.19256 -2.828125,11.626953 -1.633508,2.434394 -3.537937,3.433594 -5.628906,3.433594 -2.090968,0 -3.844417,-0.958431 -5.386719,-3.382812 -1.542301,-2.424382 -2.654297,-6.363398 -2.654297,-11.677735 z"
         id="path10" />
      <path
         style="color:#000000;fill:#000000;-inkscape-stroke:none"
         d="m 30.316406,58.082031 c 0,5.993155 1.190877,10.834831 3.435547,14.363281 2.24467,3.528451 5.759432,5.697266 9.605469,5.697266 3.846037,0 7.420334,-2.128046 9.78125,-5.646484 2.360916,-3.518439 3.677734,-8.390331 3.677734,-14.414063 h -5 c 0,5.283759 -1.19657,9.19256 -2.830078,11.626953 -1.633508,2.434394 -3.537939,3.433594 -5.628906,3.433594 -2.090967,0 -3.844417,-0.958431 -5.386719,-3.382812 -1.542302,-2.424382 -2.654297,-6.363398 -2.654297,-11.677735 z"
         id="path12" />
      <path
         style="color:#000000;fill:#000000;-inkscape-stroke:none"
         d="m 52.275391,58.082031 c 0,5.993154 1.190877,10.834831 3.435546,14.363281 2.24467,3.528451 5.75943,5.697266 9.605469,5.697266 3.846037,0 7.420335,-2.128046 9.78125,-5.646484 2.360916,-3.518439 3.677735,-8.390331 3.677735,-14.414063 h -5 c 0,5.283759 -1.196571,9.19256 -2.830079,11.626953 -1.633507,2.434394 -3.537939,3.433594 -5.628906,3.433594 -2.090971,0 -3.844417,-0.958431 -5.386719,-3.382812 -1.542301,-2.424382 -2.654296,-6.363398 -2.654296,-11.677735 z"
         id="path12-5" />
    </g>
    <path
       style="color:#000000;fill:#000000;fill-rule:evenodd;-inkscape-stroke:none"
       d="m 0.90039063,21.763672 v 3 H 12.605469 v -3 z"
       id="path4156" />
    <path
       style="color:#000000;fill:#000000;fill-rule:evenodd;-inkscape-stroke:none"
       d="m 70.953125,21.763672 v 3 h 13.705078 v -3 z"
       id="path4158" />
    <path
       style="color:#000000;fill:#000000;fill-rule:evenodd;-inkscape-stroke:none"
       d="m 9.6152344,29.830078 c -0.61403,-0.02659 -1.2679214,0.105911 -1.9101563,0.417969 -0.6422348,0.312057 -1.3138336,0.855561 -1.5527344,1.728515 l -0.019531,0.07227 -0.00977,0.07617 c -0.069307,0.597848 0.2330601,1.171361 0.5449218,1.488281 0.3118618,0.31692 0.6297994,0.495849 0.8964844,0.658203 0.2396012,0.145867 0.4113749,0.263662 0.515625,0.34961 -0.1085546,0.09511 -0.2861277,0.224065 -0.5273437,0.382812 -0.2701326,0.177778 -0.5849742,0.372701 -0.890625,0.691406 -0.3056508,0.318706 -0.6186471,0.88492 -0.5351563,1.5 0.070032,0.515932 0.4120844,0.987122 0.7519531,1.222657 0.3398688,0.235534 0.6476462,0.323675 0.8867188,0.40039 0.2390726,0.07672 0.415348,0.138689 0.4785156,0.173828 0.063168,0.03514 -0.00479,-0.01655 -0.015625,-0.04687 L 10.113281,38.271484 C 9.9379735,37.780709 9.5483286,37.428566 9.2167969,37.244141 8.8852652,37.059715 8.5932554,36.983471 8.3769531,36.914062 c -0.018829,-0.006 -0.013676,-0.0058 -0.03125,-0.01172 0.099835,-0.07521 0.1578295,-0.130582 0.3066407,-0.228516 C 8.9174392,36.499366 9.2354985,36.305983 9.5449219,36.001953 9.8543452,35.697924 10.18899,35.191144 10.169922,34.574219 10.151405,33.975158 9.8146818,33.484095 9.4980469,33.191406 9.181412,32.898718 8.8617887,32.721686 8.6035156,32.564453 8.4341105,32.461321 8.3637124,32.401554 8.2695313,32.332031 c 0.079863,-0.09617 0.1144132,-0.189856 0.3105468,-0.285156 0.3144613,-0.152795 0.7520568,-0.227289 0.9492188,-0.21875 z"
       id="path4204" />
    <path
       style="color:#000000;fill:#000000;fill-rule:evenodd;-inkscape-stroke:none"
       d="m 78.382812,29.693359 c -0.715823,0.01712 -1.407555,0.154189 -2.017578,0.507813 -0.610022,0.353624 -1.112181,0.962061 -1.314453,1.701172 l -0.01953,0.07422 -0.0098,0.07617 c -0.06931,0.597849 0.233061,1.171361 0.544922,1.488282 0.311862,0.31692 0.6298,0.495848 0.896485,0.658203 0.239601,0.145866 0.411375,0.263662 0.515625,0.349609 -0.108555,0.09511 -0.286128,0.224065 -0.527344,0.382813 -0.270133,0.177777 -0.584974,0.3727 -0.890625,0.691406 -0.305651,0.318705 -0.6206,0.88492 -0.53711,1.5 0.07003,0.515931 0.414038,0.987122 0.753907,1.222656 0.339869,0.235534 0.647646,0.321722 0.886718,0.398438 0.239073,0.07672 0.415349,0.140642 0.478516,0.175781 0.06317,0.03514 -0.0048,-0.01851 -0.01563,-0.04883 l 1.884766,-0.671875 C 78.836411,37.708443 78.446766,37.3563 78.115234,37.171875 77.783703,36.98745 77.491693,36.909252 77.275391,36.839844 c -0.01883,-0.006 -0.01368,-0.0058 -0.03125,-0.01172 0.09979,-0.07515 0.158028,-0.128759 0.30664,-0.226563 0.265096,-0.174462 0.583155,-0.369798 0.892578,-0.673828 0.309424,-0.304029 0.644068,-0.808856 0.625,-1.425781 -0.01852,-0.599061 -0.357193,-1.090124 -0.673828,-1.382812 -0.316635,-0.292689 -0.634305,-0.471673 -0.892578,-0.628907 -0.186993,-0.113839 -0.276621,-0.185248 -0.369141,-0.255859 0.06461,-0.102177 0.101527,-0.225723 0.234375,-0.302734 0.219335,-0.127146 0.587068,-0.226864 1.064454,-0.238282 z"
       id="path4204-4" />
    <path
       style="color:#000000;fill:#000000;stroke-linecap:round;-inkscape-stroke:none"
       d="m 1.9375,37.195312 v 1.654297 33.695313 h 81.695312 v -35.34961 z m 3.3105469,3.308594 H 80.324219 V 69.236328 H 5.2480469 Z"
       id="rect4221" />
    <text
       id="text4225"
       y="63.599716"
       x="25.542681"
       style="font-weight:bold;line-height:0%;font-family:sans-serif;-inkscape-font-specification:'sans-serif Bold';letter-spacing:0px;word-spacing:0px;fill:#000000;stroke-width:1px"
       xml:space="preserve"><tspan
         y="63.599716"
         x="25.542681"
         id="tspan4227"
         sodipodi:role="line"
         style="font-size:22.5px;line-height:1.25">ЭН</tspan></text>
    <path
       style="color:#000000;fill:#000000;fill-rule:evenodd;-inkscape-stroke:none"
       d="m 8.2519531,22.205078 c -0.063168,0.03514 -0.239443,0.09907 -0.4785156,0.175781 -0.2390726,0.07672 -0.54685,0.162904 -0.8867188,0.398438 -0.3398687,0.235534 -0.6819211,0.706725 -0.7519531,1.222656 -0.083491,0.61508 0.2295055,1.181295 0.5351563,1.5 0.3056508,0.318706 0.6204924,0.513629 0.890625,0.691406 0.241216,0.158748 0.4187891,0.287699 0.5273437,0.382813 -0.1042501,0.08595 -0.2760238,0.203743 -0.515625,0.349609 -0.266685,0.162355 -0.5846226,0.341283 -0.8964844,0.658203 -0.3118617,0.316921 -0.6142288,0.892386 -0.5449218,1.490235 l 0.00977,0.07422 0.019531,0.07422 c 0.4302117,1.572014 1.9236638,2.250998 3.1289063,2.451172 l 0.328125,-1.974609 C 9.0442693,29.604065 8.5567063,29.205907 8.3144531,28.841797 8.4075696,28.775079 8.4606428,28.726501 8.6113281,28.634766 8.8696012,28.477532 9.1872713,28.298548 9.5039063,28.005859 9.8205412,27.713171 10.159218,27.222108 10.177734,26.623047 10.196802,26.006122 9.8621577,25.501295 9.5527344,25.197266 9.243311,24.893236 8.9252517,24.6979 8.6601563,24.523437 8.5115442,24.425634 8.453303,24.372025 8.3535156,24.296875 c 0.017574,-0.0059 0.012421,-0.0057 0.03125,-0.01172 C 8.6010679,24.215748 8.8930777,24.13755 9.2246094,23.953125 9.5561411,23.7687 9.945786,23.416557 10.121094,22.925781 L 8.2363281,22.253906 c 0.010831,-0.03032 0.078793,-0.08397 0.015625,-0.04883 z"
       id="path4204-1" />
    <path
       style="color:#000000;fill:#000000;fill-rule:evenodd;-inkscape-stroke:none"
       d="m 77.015625,22.205078 c -0.06317,0.03514 -0.239443,0.09907 -0.478516,0.175781 -0.239072,0.07672 -0.54685,0.162904 -0.886718,0.398438 -0.339869,0.235534 -0.683875,0.706725 -0.753907,1.222656 -0.08349,0.61508 0.229506,1.181295 0.535157,1.5 0.30565,0.318706 0.622445,0.513629 0.892578,0.691406 0.241216,0.158748 0.418789,0.287699 0.527343,0.382813 -0.10425,0.08595 -0.276023,0.203743 -0.515625,0.349609 -0.266685,0.162355 -0.584622,0.341283 -0.896484,0.658203 -0.311862,0.316921 -0.614229,0.892386 -0.544922,1.490235 l 0.0098,0.07422 0.01953,0.07422 c 0.430212,1.572014 1.923664,2.250998 3.128906,2.451172 l 0.326172,-1.974609 c -0.572918,-0.09515 -1.060481,-0.493312 -1.302734,-0.857422 0.09315,-0.06677 0.147865,-0.115127 0.298828,-0.207031 0.258273,-0.157234 0.575943,-0.336218 0.892578,-0.628907 0.316635,-0.292688 0.655311,-0.783751 0.673828,-1.382812 0.01907,-0.616925 -0.315576,-1.121752 -0.625,-1.425781 -0.309423,-0.30403 -0.627482,-0.499366 -0.892578,-0.673829 -0.148269,-0.09758 -0.206936,-0.151507 -0.306641,-0.226562 0.0175,-0.0059 0.01251,-0.0057 0.03125,-0.01172 0.216303,-0.06941 0.508313,-0.147606 0.839844,-0.332031 0.331532,-0.184425 0.719224,-0.536568 0.894531,-1.027344 L 77,22.253906 c 0.01083,-0.03032 0.07879,-0.08397 0.01563,-0.04883 z"
       id="path4204-0" />
  </g>
</svg>
