<?xml version="1.0" encoding="UTF-8" standalone="no"?>
<svg
   xmlns:dc="http://purl.org/dc/elements/1.1/"
   xmlns:cc="http://creativecommons.org/ns#"
   xmlns:rdf="http://www.w3.org/1999/02/22-rdf-syntax-ns#"
   xmlns:svg="http://www.w3.org/2000/svg"
   xmlns="http://www.w3.org/2000/svg"
   xmlns:sodipodi="http://sodipodi.sourceforge.net/DTD/sodipodi-0.dtd"
   xmlns:inkscape="http://www.inkscape.org/namespaces/inkscape"
   viewBox="0 0 85 85"
   version="1.1"
   id="svg2"
   inkscape:version="0.91 r13725"
   sodipodi:docname="eg-motor.svg">
  <metadata
     id="metadata16">
    <rdf:RDF>
      <cc:Work
         rdf:about="">
        <dc:format>image/svg+xml</dc:format>
        <dc:type
           rdf:resource="http://purl.org/dc/dcmitype/StillImage" />
        <dc:title />
      </cc:Work>
    </rdf:RDF>
  </metadata>
  <defs
     id="defs14" />
  <sodipodi:namedview
     pagecolor="#ffffff"
     bordercolor="#666666"
     borderopacity="1"
     objecttolerance="10"
     gridtolerance="10"
     guidetolerance="10"
     inkscape:pageopacity="0"
     inkscape:pageshadow="2"
     inkscape:window-width="1920"
     inkscape:window-height="1008"
     id="namedview12"
     showgrid="false"
     inkscape:zoom="1.3882353"
     inkscape:cx="4.3953145"
     inkscape:cy="65.776824"
     inkscape:window-x="-4"
     inkscape:window-y="-4"
     inkscape:window-maximized="1"
     inkscape:current-layer="svg2"
     inkscape:pagecheckerboard="0" />
  <path
     inkscape:connector-curvature="0"
     id="circle6"
     d="M 42.5,-1.6887126e-8 C 19.051842,-1.6887126e-8 0,19.051842 -1.6887126e-8,42.5 0,65.948158 19.051842,85 42.5,85 65.948158,85 85,65.948158 85,42.5 85,19.051842 65.948158,0 42.5,-1.6887126e-8 Z M 42.5,3.9569032 C 63.809691,3.9569032 81.043097,21.190308 81.043097,42.5 81.043097,63.809691 63.809691,81.043097 42.5,81.043097 21.190308,81.043097 3.9569032,63.809691 3.9569032,42.5 3.9569032,21.190308 21.190308,3.9569032 42.5,3.9569032 Z"
     style="color:#000000;fill:#000000" />
  <path
     inkscape:connector-curvature="0"
     id="circle8"
     d="m 42.5,10.006251 c -17.922309,0 -32.493749,14.57144 -32.493749,32.493749 0,17.922308 14.57144,32.493749 32.493749,32.493749 17.922308,0 32.493749,-14.571441 32.493749,-32.493749 0,-17.922309 -14.571441,-32.493749 -32.493749,-32.493749 z m 0,3.956903 c 15.783841,0 28.536845,12.753004 28.536845,28.536846 0,15.783841 -12.753004,28.536845 -28.536845,28.536845 -15.783842,0 -28.536846,-12.753004 -28.536846,-28.536845 0,-15.783842 12.753004,-28.536846 28.536846,-28.536846 z"
     style="color:#000000;fill:#000000" />
  <g
     transform="scale(1.0018791,0.99812442)"
     style="font-style:normal;font-weight:normal;font-size:42.52964783px;line-height:125%;font-family:sans-serif;letter-spacing:0px;word-spacing:0px;fill:#000000;fill-opacity:1;stroke:#000000;stroke-width:1px;stroke-linecap:butt;stroke-linejoin:miter;stroke-opacity:1"
     id="text4143">
    <path
       d="m 28.236817,27.077721 6.250696,0 7.912009,21.098693 7.953543,-21.098693 6.250695,0 0,31.00428 -4.090986,0 0,-27.224789 -7.995076,21.264823 -4.215585,0 -7.995075,-21.264823 0,27.224789 -4.070221,0 0,-31.00428 z"
       style=""
       id="path4148" />
  </g>
</svg>
