<?xml version="1.0" encoding="UTF-8" standalone="no"?>
<svg
   viewBox="0 0 85 85"
   version="1.1"
   id="svg2"
   inkscape:version="1.1 (c68e22c387, 2021-05-23)"
   sodipodi:docname="eg-oil-level.svg"
   xmlns:inkscape="http://www.inkscape.org/namespaces/inkscape"
   xmlns:sodipodi="http://sodipodi.sourceforge.net/DTD/sodipodi-0.dtd"
   xmlns="http://www.w3.org/2000/svg"
   xmlns:svg="http://www.w3.org/2000/svg"
   xmlns:rdf="http://www.w3.org/1999/02/22-rdf-syntax-ns#"
   xmlns:cc="http://creativecommons.org/ns#"
   xmlns:dc="http://purl.org/dc/elements/1.1/">
  <metadata
     id="metadata16">
    <rdf:RDF>
      <cc:Work
         rdf:about="">
        <dc:format>image/svg+xml</dc:format>
        <dc:type
           rdf:resource="http://purl.org/dc/dcmitype/StillImage" />
        <dc:title />
      </cc:Work>
    </rdf:RDF>
  </metadata>
  <defs
     id="defs14">
    <inkscape:path-effect
       effect="spiro"
       id="path-effect4344"
       is_visible="true" />
    <inkscape:path-effect
       effect="spiro"
       id="path-effect4340"
       is_visible="true" />
    <inkscape:path-effect
       effect="spiro"
       id="path-effect4175"
       is_visible="true" />
    <inkscape:path-effect
       effect="spiro"
       id="path-effect4171"
       is_visible="true" />
  </defs>
  <sodipodi:namedview
     pagecolor="#ffffff"
     bordercolor="#666666"
     borderopacity="1"
     objecttolerance="10"
     gridtolerance="10"
     guidetolerance="10"
     inkscape:pageopacity="0"
     inkscape:pageshadow="2"
     inkscape:window-width="1920"
     inkscape:window-height="1018"
     id="namedview12"
     showgrid="false"
     inkscape:zoom="2.7764706"
     inkscape:cx="41.959746"
     inkscape:cy="45.741525"
     inkscape:window-x="-8"
     inkscape:window-y="-8"
     inkscape:window-maximized="1"
     inkscape:current-layer="svg2"
     inkscape:pagecheckerboard="0" />
  <g
     id="g4366">
    <path
       style="color:#000000;fill:#000000;fill-rule:evenodd;-inkscape-stroke:none"
       d="m 15.433594,60.658203 c -0.08713,0.215233 -0.0508,0.451725 -0.119141,0.671875 l -0.02539,-0.0059 c -0.0614,1.4568 -0.580303,2.924296 -1.451172,4.09375 -0.87087,1.169453 -2.127741,2.088191 -3.50586,2.564453 -1.5309582,0.529081 -3.2854476,0.529081 -4.816406,0 l -1.3066406,3.78125 c 2.3991912,0.829132 5.0304962,0.829132 7.4296876,0 1.879891,-0.649669 3.49286,-1.857187 4.794922,-3.351563 1.093133,1.579502 2.581121,2.855244 4.451172,3.384766 1.397589,0.39574 2.875829,0.420018 4.285156,0.06836 1.409328,-0.351657 2.704112,-1.068292 3.751953,-2.074218 0.178264,-0.171134 0.297342,-0.388775 0.458984,-0.574219 1.496268,1.595784 3.508745,2.635818 5.716797,2.65625 2.32929,0.02155 4.545401,-0.993836 6.087891,-2.734375 1.575431,1.760319 3.839586,2.765908 6.203125,2.734375 2.284921,-0.03048 4.406589,-1.083524 5.927734,-2.773438 0.01362,0.01543 0.01555,0.03739 0.0293,0.05273 1.709587,1.907294 4.22577,2.914735 6.779297,2.714843 2.543936,-0.199141 4.86389,-1.577497 6.257812,-3.714843 0.02167,-0.03323 0.01791,-0.07589 0.03906,-0.109375 0.0069,0.0078 0.01068,0.01766 0.01758,0.02539 1.532592,1.719494 3.51148,3.006406 5.705078,3.708985 2.555167,0.818383 5.327646,0.818383 7.882813,0 L 78.806641,67.96875 c -1.74374,0.558495 -3.697667,0.558495 -5.441407,0 -1.501439,-0.48089 -2.890449,-1.383615 -3.939453,-2.560547 -1.049003,-1.17693 -1.788036,-2.660384 -2.09375,-4.207031 l -0.04297,0.01172 c -0.02894,-0.0932 0.0011,-0.192712 -0.03125,-0.285157 l -3.849609,1.048828 c 0.01853,0.09373 0.0712,0.176325 0.0918,0.269532 l -0.01758,0.0039 c 0.414462,1.183432 0.235752,2.66846 -0.449219,3.71875 -0.684972,1.050289 -1.970617,1.812298 -3.220703,1.910156 -1.254409,0.0982 -2.648455,-0.459535 -3.488281,-1.396484 -0.839827,-0.936951 -1.244106,-2.384863 -1.009766,-3.621094 h -0.02148 c -0.02558,-0.255554 0.06964,-0.505599 0.01953,-0.759766 l -3.927734,0.01563 c -0.04838,0.255206 0.05704,0.503451 0.0332,0.759766 h -0.0293 c 0.229837,1.165754 -0.109002,2.524403 -0.857422,3.447266 -0.748421,0.922864 -2.007227,1.532979 -3.195313,1.548828 -1.167303,0.01557 -2.419866,-0.537726 -3.193359,-1.41211 -0.773494,-0.874385 -1.169577,-2.18511 -1.011719,-3.341796 h -0.04102 c -0.01711,-0.199176 0.06542,-0.391105 0.0332,-0.589844 l -3.955078,0.05078 c -0.02726,0.199771 0.05923,0.389972 0.04687,0.589844 h -0.03906 c 0.182793,1.127757 -0.183306,2.424368 -0.927734,3.291015 -0.744428,0.866647 -1.970847,1.422679 -3.113281,1.41211 -1.187372,-0.01099 -2.454563,-0.644132 -3.177735,-1.585938 -0.302485,-0.393933 -0.478764,-0.890579 -0.617187,-1.390625 0.138131,-1.017586 0.154854,-2.047573 -0.08594,-3.052734 l -3.882812,-0.0332 c -0.274189,1.065457 -0.243065,2.157632 -0.08008,3.220703 -0.212087,0.701195 -0.610658,1.368106 -1.138672,1.875 -0.536239,0.514788 -1.227991,0.898163 -1.949219,1.078125 -0.721227,0.179962 -1.513295,0.167365 -2.228516,-0.03516 -1.13636,-0.321771 -2.189855,-1.202844 -2.708984,-2.263672 -0.436588,-0.892159 -0.460458,-1.978763 -0.21875,-2.960938 0.06434,-0.415193 0.22246,-0.81067 0.240234,-1.232422 z"
       id="path4342" />
    <path
       style="color:#000000;fill:#000000;fill-rule:evenodd;-inkscape-stroke:none"
       d="M 83.634766,17.888672 59.181641,30.792969 54.509766,21.951172 H 17.179687 v 30.5625 h 2 42.056641 z m -62.455079,8.0625 h 30.919922 l 5.414063,10.246094 14.445312,-7.623047 -12.898437,19.939453 h -37.88086 z"
       id="path4346" />
    <path
       style="color:#000000;fill:#000000;fill-rule:evenodd;-inkscape-stroke:none"
       d="m 6.0410156,12.8125 -2.5234375,16.144531 16.1367189,22.322266 -0.1875,-6.496094 -0.5625,-19.542969 z m 2.7617188,8.232422 6.1503906,5.939453 0.328125,11.417969 -7.5566406,-10.453125 z"
       id="path4348" />
    <path
       style="color:#000000;fill:#000000;fill-rule:evenodd;-inkscape-stroke:none"
       d="m 31.144531,14.767578 v 9.003906 h 2 v -9.003906 z"
       id="path4350" />
    <path
       style="color:#000000;fill:#000000;fill-rule:evenodd;-inkscape-stroke:none"
       d="m 25.572266,12.546875 v 3 H 38.71875 v -3 z"
       id="path4352" />
    <g
       id="path4364">
      <path
         style="color:#000000;fill:#000000;fill-rule:evenodd;stroke-width:2;-inkscape-stroke:none"
         d="m 75.815678,36.377118 c 0,0 -5.229904,12.161428 -2.701271,15.847458 1.969824,2.871446 4.066551,2.753362 5.942796,-0.180085 2.403941,-3.758483 -3.241525,-15.667373 -3.241525,-15.667373 z"
         id="path49" />
      <path
         style="color:#000000;fill:#000000;fill-rule:evenodd;-inkscape-stroke:none"
         d="m 75.771484,33.949219 -0.875,2.033203 c 0,0 -1.328954,3.087215 -2.341797,6.664062 -0.506421,1.788424 -0.938745,3.702788 -1.082031,5.466797 -0.143286,1.764009 -0.05182,3.412106 0.816406,4.677735 1.082156,1.577477 2.383544,2.574629 3.869141,2.519531 1.485598,-0.0551 2.716243,-1.122531 3.742188,-2.726563 0.825869,-1.29122 0.861707,-2.938676 0.658203,-4.689453 -0.203504,-1.750776 -0.701952,-3.639196 -1.269532,-5.40039 -1.135158,-3.522389 -2.570312,-6.544922 -2.570312,-6.544922 z m 0.0957,5.289062 c 0.503222,1.16153 0.852471,1.799255 1.519532,3.869141 0.543293,1.685835 1.006634,3.48032 1.185547,5.019531 0.178912,1.539211 0.01868,2.790887 -0.357422,3.378906 -0.850298,1.329413 -1.606578,1.787197 -2.13086,1.806641 -0.524281,0.01944 -1.256865,-0.360331 -2.144531,-1.654297 -0.396088,-0.577384 -0.598799,-1.831814 -0.472656,-3.384766 0.126142,-1.552951 0.526744,-3.369347 1.011719,-5.082031 0.597236,-2.109135 0.925952,-2.769476 1.388671,-3.953125 z"
         id="path51" />
    </g>
  </g>
</svg>
