<?xml version="1.0" encoding="UTF-8" standalone="no"?>
<svg
   viewBox="0 0 85 85"
   version="1.1"
   id="svg2"
   inkscape:version="1.1 (c68e22c387, 2021-05-23)"
   sodipodi:docname="eg-potential-transformer-phase.svg"
   xmlns:inkscape="http://www.inkscape.org/namespaces/inkscape"
   xmlns:sodipodi="http://sodipodi.sourceforge.net/DTD/sodipodi-0.dtd"
   xmlns="http://www.w3.org/2000/svg"
   xmlns:svg="http://www.w3.org/2000/svg"
   xmlns:rdf="http://www.w3.org/1999/02/22-rdf-syntax-ns#"
   xmlns:cc="http://creativecommons.org/ns#"
   xmlns:dc="http://purl.org/dc/elements/1.1/">
  <metadata
     id="metadata20">
    <rdf:RDF>
      <cc:Work
         rdf:about="">
        <dc:format>image/svg+xml</dc:format>
        <dc:type
           rdf:resource="http://purl.org/dc/dcmitype/StillImage" />
        <dc:title />
      </cc:Work>
    </rdf:RDF>
  </metadata>
  <defs
     id="defs18" />
  <sodipodi:namedview
     pagecolor="#ffffff"
     bordercolor="#666666"
     borderopacity="1"
     objecttolerance="10"
     gridtolerance="10"
     guidetolerance="10"
     inkscape:pageopacity="0"
     inkscape:pageshadow="2"
     inkscape:window-width="1920"
     inkscape:window-height="1018"
     id="namedview16"
     showgrid="false"
     inkscape:zoom="2.7764706"
     inkscape:cx="34.396186"
     inkscape:cy="64.110169"
     inkscape:window-x="-8"
     inkscape:window-y="-8"
     inkscape:window-maximized="1"
     inkscape:current-layer="svg2"
     inkscape:pagecheckerboard="0" />
  <g
     id="g4275">
    <path
       style="color:#000000;fill:#000000;fill-rule:evenodd;-inkscape-stroke:none"
       d="m 8.8027344,15.289063 v 20.908203 0.359375 H 11.802734 V 36.197266 15.289063 Z"
       id="path4177" />
    <path
       style="color:#000000;fill:#000000;fill-rule:evenodd;-inkscape-stroke:none"
       d="m 75.884766,7.828125 v 28.908203 0.361328 h 3 V 36.736328 7.828125 Z"
       id="path4177-5" />
    <g
       id="path4199">
      <path
         style="color:#000000;fill:#000000;stroke-width:2.85943;stroke-linecap:round;stroke-linejoin:round;-inkscape-stroke:none"
         d="m 11.420632,15.518673 a 1.0702834,1.0702834 0 0 1 -1.070284,1.070283 1.0702834,1.0702834 0 0 1 -1.0702829,-1.070283 1.0702834,1.0702834 0 0 1 1.0702829,-1.070283 1.0702834,1.0702834 0 0 1 1.070284,1.070283 z"
         id="path39" />
      <path
         style="color:#000000;fill:#000000;stroke-linecap:round;stroke-linejoin:round;-inkscape-stroke:none"
         d="m 10.349609,13.019531 c -1.3637757,0 -2.4999996,1.136224 -2.4999996,2.5 0,1.363776 1.1362239,2.5 2.4999996,2.5 1.363776,0 2.5,-1.136224 2.5,-2.5 0,-1.363776 -1.136224,-2.5 -2.5,-2.5 z m 0,2.140625 c 0.181575,0 0.359375,0.1778 0.359375,0.359375 0,0.181575 -0.1778,0.359375 -0.359375,0.359375 -0.181574,0 -0.3593746,-0.1778 -0.3593746,-0.359375 0,-0.181575 0.1778006,-0.359375 0.3593746,-0.359375 z"
         id="path41" />
    </g>
    <path
       style="color:#000000;fill:#000000;-inkscape-stroke:none"
       d="m 25.898437,36.316406 c 0,4.513737 0.902446,8.130199 2.556641,10.730469 1.654195,2.60027 4.190932,4.154297 6.980469,4.154297 2.789537,0 5.378358,-1.530737 7.11914,-4.125 1.740783,-2.594263 2.734376,-6.227682 2.734375,-10.759766 h -3 c 0,4.0881 -0.920271,7.146008 -2.224609,9.089844 -1.304338,1.943836 -2.89241,2.794922 -4.628906,2.794922 -1.736496,0 -3.216444,-0.827797 -4.449219,-2.765625 -1.232775,-1.937829 -2.087891,-5.012694 -2.087891,-9.119141 z"
       id="path10" />
    <path
       style="color:#000000;fill:#000000;-inkscape-stroke:none"
       d="m 42.740234,36.316406 c 0,4.513737 0.902445,8.130199 2.556641,10.730469 1.654196,2.60027 4.190932,4.154297 6.980469,4.154297 2.789536,0 5.378358,-1.530737 7.11914,-4.125 1.740783,-2.594263 2.734375,-6.227682 2.734375,-10.759766 h -3 c 0,4.0881 -0.920271,7.146008 -2.224609,9.089844 -1.304338,1.943836 -2.892411,2.794922 -4.628906,2.794922 -1.736495,0 -3.216444,-0.827796 -4.449219,-2.765625 -1.232775,-1.937829 -2.087891,-5.012694 -2.087891,-9.119141 z"
       id="path12" />
    <path
       style="color:#000000;fill:#000000;-inkscape-stroke:none"
       d="m 59.480469,36.316406 c 0,4.513737 0.902445,8.130199 2.55664,10.730469 1.654196,2.60027 4.190931,4.154297 6.980469,4.154297 2.789536,0 5.378359,-1.530737 7.119141,-4.125 1.740782,-2.594263 2.734375,-6.227682 2.734375,-10.759766 h -3 c 0,4.0881 -0.920272,7.146008 -2.22461,9.089844 -1.304337,1.943836 -2.892412,2.794922 -4.628906,2.794922 -1.736498,0 -3.216444,-0.827797 -4.449219,-2.765625 -1.232774,-1.937829 -2.08789,-5.012694 -2.08789,-9.119141 z"
       id="path12-5" />
    <path
       style="color:#000000;fill:#000000;-inkscape-stroke:none"
       d="m 8.8417969,36.316406 c 0,4.513737 0.902445,8.130199 2.5566411,10.730469 1.654195,2.60027 4.19093,4.154297 6.980468,4.154297 2.789537,0 5.378359,-1.530737 7.119141,-4.125 1.740782,-2.594263 2.734375,-6.227682 2.734375,-10.759766 h -3 c 0,4.0881 -0.920272,7.146008 -2.22461,9.089844 -1.304337,1.943836 -2.892412,2.794922 -4.628906,2.794922 -1.736498,0 -3.216444,-0.827797 -4.449218,-2.765625 -1.232775,-1.937829 -2.087891,-5.012694 -2.087891,-9.119141 z"
       id="path12-5-2" />
    <path
       style="color:#000000;fill:#000000;-inkscape-stroke:none"
       d="m 35.431641,63.171875 c -2.789537,0 -5.328227,1.554027 -6.982422,4.154297 -1.654196,2.60027 -2.554688,6.216732 -2.554688,10.730469 h 3 c 0,-4.106447 0.853163,-7.181312 2.085938,-9.119141 1.232775,-1.937829 2.714677,-2.765625 4.451172,-2.765625 1.736494,0 3.324568,0.851086 4.628906,2.794922 1.304338,1.943836 2.224609,5.001744 2.224609,9.089844 h 3 c 0,-4.532084 -0.993593,-8.167456 -2.734375,-10.761719 -1.740782,-2.594263 -4.329604,-4.123047 -7.11914,-4.123047 z"
       id="path12-6" />
    <path
       style="color:#000000;fill:#000000;-inkscape-stroke:none"
       d="m 52.171875,63.171875 c -2.789539,0 -5.328226,1.554027 -6.982422,4.154297 -1.654195,2.60027 -2.554687,6.216732 -2.554687,10.730469 h 3 c 0,-4.106447 0.853162,-7.181313 2.085937,-9.119141 1.232775,-1.937828 2.714674,-2.765625 4.451172,-2.765625 1.736494,0 3.324569,0.851086 4.628906,2.794922 1.304338,1.943836 2.22461,5.001744 2.22461,9.089844 h 3 c 0,-4.532084 -0.993594,-8.167456 -2.734375,-10.761719 -1.740782,-2.594263 -4.329605,-4.123047 -7.119141,-4.123047 z"
       id="path12-5-22" />
    <path
       style="color:#000000;fill:#000000;fill-rule:evenodd;-inkscape-stroke:none"
       d="m 3.7636719,6.2441406 v 3 H 83.056641 v -3 z"
       id="path4198" />
    <path
       style="color:#000000;fill:#000000;fill-rule:evenodd;-inkscape-stroke:none"
       d="m 4.2128906,13.806641 v 3 H 83.507812 v -3 z"
       id="path4198-8" />
    <path
       style="color:#000000;fill:#000000;stroke-linecap:round;-inkscape-stroke:none"
       d="m 4.78125,20.25 v 1.095703 11.888672 H 15.785156 V 20.25 Z m 2.1933594,2.193359 H 13.59375 v 8.59961 H 6.9746094 Z"
       id="rect4217" />
    <path
       style="color:#000000;fill:#000000;stroke-linecap:round;-inkscape-stroke:none"
       d="m 71.414062,19.980469 v 1.095703 11.888672 H 82.417969 V 19.980469 Z m 2.191407,2.191406 h 6.61914 v 8.601562 h -6.61914 z"
       id="rect4217-7" />
    <g
       id="path4199-7">
      <path
         style="color:#000000;fill:#000000;stroke-width:2.85943;stroke-linecap:round;stroke-linejoin:round;-inkscape-stroke:none"
         d="M 78.33703,7.7409167 A 1.0702834,1.0702834 0 0 1 77.266747,8.8112001 1.0702834,1.0702834 0 0 1 76.196463,7.7409167 1.0702834,1.0702834 0 0 1 77.266747,6.6706333 1.0702834,1.0702834 0 0 1 78.33703,7.7409167 Z"
         id="path107" />
      <path
         style="color:#000000;fill:#000000;stroke-linecap:round;stroke-linejoin:round;-inkscape-stroke:none"
         d="m 77.267578,5.2402344 c -1.363776,0 -2.5,1.1362239 -2.5,2.5 0,1.363776 1.136224,2.4999996 2.5,2.4999996 1.363776,0 2.5,-1.1362236 2.5,-2.4999996 0,-1.3637761 -1.136224,-2.5 -2.5,-2.5 z m 0,2.140625 c 0.181575,0 0.359375,0.1778002 0.359375,0.359375 0,0.1815748 -0.1778,0.359375 -0.359375,0.359375 -0.181575,0 -0.359375,-0.1778002 -0.359375,-0.359375 0,-0.1815748 0.1778,-0.359375 0.359375,-0.359375 z"
         id="path109" />
    </g>
    <text
       id="text4249"
       y="76.901489"
       x="5.5015063"
       style="line-height:0%;font-family:sans-serif;letter-spacing:0px;word-spacing:0px;fill:#000000;stroke-width:1px"
       xml:space="preserve"><tspan
         style="font-weight:bold;font-size:17.5px;line-height:1.25;-inkscape-font-specification:'sans-serif Bold'"
         y="76.901489"
         x="5.5015063"
         id="tspan4251"
         sodipodi:role="line">ф</tspan></text>
    <text
       id="text4253"
       y="76.683014"
       x="64.75061"
       style="line-height:0%;font-family:sans-serif;letter-spacing:0px;word-spacing:0px;fill:#000000;stroke-width:1px"
       xml:space="preserve"><tspan
         style="font-weight:bold;font-size:17.5px;line-height:1.25;-inkscape-font-specification:'sans-serif Bold'"
         y="76.683014"
         x="64.75061"
         id="tspan4255"
         sodipodi:role="line">х</tspan></text>
  </g>
</svg>
