<?xml version="1.0" encoding="UTF-8" standalone="no"?>
<svg
   viewBox="0 0 85 85"
   version="1.1"
   id="svg2"
   inkscape:version="1.1 (c68e22c387, 2021-05-23)"
   sodipodi:docname="eg-pmes-alter.svg"
   xmlns:inkscape="http://www.inkscape.org/namespaces/inkscape"
   xmlns:sodipodi="http://sodipodi.sourceforge.net/DTD/sodipodi-0.dtd"
   xmlns="http://www.w3.org/2000/svg"
   xmlns:svg="http://www.w3.org/2000/svg"
   xmlns:rdf="http://www.w3.org/1999/02/22-rdf-syntax-ns#"
   xmlns:cc="http://creativecommons.org/ns#"
   xmlns:dc="http://purl.org/dc/elements/1.1/">
  <metadata
     id="metadata22">
    <rdf:RDF>
      <cc:Work
         rdf:about="">
        <dc:format>image/svg+xml</dc:format>
        <dc:type
           rdf:resource="http://purl.org/dc/dcmitype/StillImage" />
        <dc:title />
      </cc:Work>
    </rdf:RDF>
  </metadata>
  <defs
     id="defs20">
    <inkscape:path-effect
       effect="spiro"
       id="path-effect4676"
       is_visible="true" />
    <inkscape:path-effect
       effect="spiro"
       id="path-effect4416"
       is_visible="true" />
    <inkscape:perspective
       sodipodi:type="inkscape:persp3d"
       inkscape:vp_x="-8.2838982 : 41.779661 : 1"
       inkscape:vp_y="0 : 1000 : 0"
       inkscape:vp_z="87.881356 : 113.09322 : 1"
       inkscape:persp3d-origin="42.5 : 28.333333 : 1"
       id="perspective4307" />
    <linearGradient
       id="linearGradient4699"
       inkscape:swatch="solid">
      <stop
         style="stop-color:#000000;stop-opacity:1;"
         offset="0"
         id="stop4701" />
    </linearGradient>
  </defs>
  <sodipodi:namedview
     pagecolor="#ffffff"
     bordercolor="#666666"
     borderopacity="1"
     objecttolerance="10"
     gridtolerance="10"
     guidetolerance="10"
     inkscape:pageopacity="0"
     inkscape:pageshadow="2"
     inkscape:window-width="1920"
     inkscape:window-height="1018"
     id="namedview18"
     showgrid="false"
     inkscape:zoom="1.9632612"
     inkscape:cx="14.007306"
     inkscape:cy="39.220456"
     inkscape:window-x="-8"
     inkscape:window-y="-8"
     inkscape:window-maximized="1"
     inkscape:current-layer="svg2"
     showguides="false"
     inkscape:snap-intersection-paths="true"
     inkscape:object-nodes="true"
     inkscape:snap-smooth-nodes="true"
     inkscape:snap-others="false"
     inkscape:snap-bbox="true"
     inkscape:pagecheckerboard="0" />
  <path
     style="color:#000000;fill:#000000;fill-rule:evenodd;stroke-linecap:round;stroke-linejoin:round;-inkscape-stroke:none"
     d="M 41.945312,2.4375 2.3789063,37.703125 a 3,3 0 0 0 -0.2441407,4.236328 3,3 0 0 0 4.2363281,0.244141 L 43.873047,8.7578125 81.435547,44.585937 a 3,3 0 0 0 4.242187,-0.101562 3,3 0 0 0 -0.09961,-4.240234 L 46.011719,2.5058594 A 3.0003,3.0003 0 0 0 41.945312,2.4375 Z"
     id="path4325" />
  <path
     style="color:#000000;fill:#000000;fill-rule:evenodd;stroke-linecap:round;-inkscape-stroke:none"
     d="m 41.082031,32.818359 c -4.521206,0.588626 -8.565392,3.017369 -11.066406,7.683594 -0.809564,1.510433 -1.105729,3.532718 -0.921875,5.732422 0.183854,2.199704 0.894977,4.574226 2.425781,6.546875 2.596331,3.345738 3.517578,5.123047 3.517578,5.123047 a 1.3884612,1.3884612 0 0 0 1.875,0.585937 1.3884612,1.3884612 0 0 0 0.585938,-1.875 c 0,0 -1.088193,-2.061692 -3.785156,-5.537109 -1.115854,-1.437929 -1.70414,-3.31039 -1.851563,-5.074219 -0.147423,-1.763828 0.191018,-3.423484 0.601563,-4.189453 2.827508,-5.275375 7.419424,-6.921862 12.912109,-6.230469 3.641668,0.458395 6.1592,1.664135 7.775391,3.257813 1.616191,1.593678 2.402466,3.600153 2.455078,5.980469 0.04723,2.136632 -0.456466,3.286292 -1.341797,4.53125 -0.885331,1.244958 -2.250586,2.529475 -3.677735,4.435546 -1.264354,1.688639 -3.982612,5.364888 -4.439453,5.982422 l -9.136718,0.886719 a 1.3884612,1.3884612 0 0 0 -1.246094,1.517578 1.3884612,1.3884612 0 0 0 1.515625,1.246094 l 10.363281,-1.005859 0.367188,-0.498047 c 0,0 3.446073,-4.65814 4.798828,-6.464844 1.265119,-1.689668 2.602087,-2.919976 3.71875,-4.490234 1.116662,-1.570259 1.914372,-3.536221 1.855468,-6.201172 -0.06597,-2.984585 -1.138542,-5.783652 -3.283203,-7.898438 -2.14466,-2.114785 -5.291268,-3.520871 -9.376953,-4.035156 -1.573876,-0.198112 -3.133556,-0.205974 -4.640625,-0.0098 z"
     id="path4428" />
  <g
     id="path4430">
    <path
       style="color:#000000;fill:#000000;fill-rule:evenodd;stroke-width:2.77692;-inkscape-stroke:none"
       d="m 44.211385,39.202417 c 4.907021,0.773505 6.330123,2.117104 6.518582,6.061768 -1.33289,-3.655244 -8.103132,-4.94037 -6.518582,-6.061768 z"
       id="path41" />
    <path
       style="color:#000000;fill:#000000;fill-rule:evenodd;-inkscape-stroke:none"
       d="m 43.869141,37.742187 -0.458985,0.326172 c -0.219694,0.155479 -0.458319,0.36728 -0.634765,0.708985 -0.176447,0.341704 -0.230502,0.819038 -0.142579,1.183593 0.175848,0.729112 0.572354,0.999477 0.890625,1.246094 0.636544,0.493234 1.372588,0.843721 2.181641,1.291016 1.618106,0.89459 3.295526,2.076204 3.720703,3.242187 l 2.691406,-0.542968 C 52.015367,43.066042 51.525432,41.276876 50.1875,40.029297 48.849568,38.781718 46.982994,38.23287 44.427734,37.830078 Z"
       id="path43" />
  </g>
  <g
     id="path4432">
    <path
       style="color:#000000;fill:#000000;fill-rule:evenodd;stroke-width:2.77692;-inkscape-stroke:none"
       d="m 38.110039,66.112294 c 0,0 5.38182,-0.343566 7.35911,-0.629463 6.40278,-0.92579 -8.56991,-0.333464 -7.35911,0.629463 z"
       id="path33" />
    <path
       style="color:#000000;fill:#000000;fill-rule:evenodd;-inkscape-stroke:none"
       d="m 47.019531,63.677734 c -0.800406,-0.09851 -1.930531,-0.05278 -3.359375,0.02539 -1.428843,0.07817 -3.006766,0.212715 -4.224609,0.402344 -0.608922,0.09481 -1.10002,0.182965 -1.585938,0.367187 -0.242958,0.09211 -0.521185,0.114031 -0.908203,0.644531 -0.193509,0.265251 -0.358833,0.795761 -0.246094,1.244141 0.11274,0.44838 0.369773,0.693938 0.550782,0.837891 l 0.417968,0.332031 0.535157,-0.0332 c 0,0 5.294231,-0.326211 7.46875,-0.640625 0.827897,-0.119707 1.260392,-0.180705 1.724609,-0.339844 0.116054,-0.03978 0.230113,-0.05659 0.488281,-0.25 0.129084,-0.0967 0.336916,-0.246833 0.486328,-0.644531 0.149413,-0.397698 0.03332,-1.035189 -0.185546,-1.332031 -0.437724,-0.593685 -0.672404,-0.508716 -0.81836,-0.548829 -0.145955,-0.04011 -0.243699,-0.05214 -0.34375,-0.06445 z"
       id="path35" />
  </g>
  <g
     id="path4432-4">
    <path
       style="color:#000000;fill:#ffffff;fill-rule:evenodd;stroke-width:2.77692;-inkscape-stroke:none"
       d="m 38.995989,70.272145 c -1.48058,0.86383 3.20487,0.765417 4.88971,0.490493 5.11105,-0.834085 -3.21492,-1.467602 -4.88971,-0.490493 z"
       id="path25" />
    <path
       style="color:#000000;fill:#000000;fill-rule:evenodd;-inkscape-stroke:none"
       d="m 41.089844,68.433594 c -1.020339,0.07082 -1.885354,0.109149 -2.792969,0.638672 -0.317779,0.185405 -0.839737,0.351719 -0.962891,1.302734 -0.06158,0.475508 0.180644,1.000847 0.417969,1.248047 0.237325,0.2472 0.439671,0.338976 0.609375,0.410156 0.678815,0.284719 1.176337,0.271819 1.835938,0.298828 1.3192,0.05402 2.893777,-0.03305 3.912109,-0.199219 0.682238,-0.111336 1.154831,-0.209617 1.582031,-0.367187 0.213601,-0.07878 0.419571,-0.143393 0.71875,-0.416016 0.14959,-0.136311 0.343107,-0.352559 0.445313,-0.710937 0.102206,-0.358379 0.03204,-0.822913 -0.123047,-1.107422 -0.310164,-0.569018 -0.621266,-0.634642 -0.830078,-0.724609 -0.208812,-0.08997 -0.382698,-0.135661 -0.56836,-0.177735 -0.371322,-0.08415 -0.776108,-0.135184 -1.230468,-0.173828 -0.908721,-0.07729 -1.993334,-0.0923 -3.013672,-0.02148 z"
       id="path27" />
  </g>
  <path
     style="color:#000000;fill:#000000;fill-rule:evenodd;-inkscape-stroke:none"
     d="M 7.9941406,35.929687 V 86.441406 H 78.757812 V 35.929687 h -6 V 80.441406 H 13.994141 V 35.929687 Z"
     id="path4607" />
</svg>
