<?xml version="1.0" encoding="UTF-8" standalone="no"?>
<svg
   viewBox="0 0 85 85"
   version="1.1"
   id="svg2"
   inkscape:version="1.1 (c68e22c387, 2021-05-23)"
   sodipodi:docname="eg-psh-phase.svg"
   xmlns:inkscape="http://www.inkscape.org/namespaces/inkscape"
   xmlns:sodipodi="http://sodipodi.sourceforge.net/DTD/sodipodi-0.dtd"
   xmlns="http://www.w3.org/2000/svg"
   xmlns:svg="http://www.w3.org/2000/svg"
   xmlns:rdf="http://www.w3.org/1999/02/22-rdf-syntax-ns#"
   xmlns:cc="http://creativecommons.org/ns#"
   xmlns:dc="http://purl.org/dc/elements/1.1/">
  <metadata
     id="metadata24">
    <rdf:RDF>
      <cc:Work
         rdf:about="">
        <dc:format>image/svg+xml</dc:format>
        <dc:type
           rdf:resource="http://purl.org/dc/dcmitype/StillImage" />
        <dc:title />
      </cc:Work>
    </rdf:RDF>
  </metadata>
  <defs
     id="defs22" />
  <sodipodi:namedview
     pagecolor="#ffffff"
     bordercolor="#666666"
     borderopacity="1"
     objecttolerance="10"
     gridtolerance="10"
     guidetolerance="10"
     inkscape:pageopacity="0"
     inkscape:pageshadow="2"
     inkscape:window-width="1920"
     inkscape:window-height="1018"
     id="namedview20"
     showgrid="false"
     inkscape:zoom="5.5529412"
     inkscape:cx="24.761652"
     inkscape:cy="38.538135"
     inkscape:window-x="-8"
     inkscape:window-y="-8"
     inkscape:window-maximized="1"
     inkscape:current-layer="g4190"
     inkscape:pagecheckerboard="0" />
  <g
     id="g4190">
    <path
       style="color:#000000;fill:#000000;-inkscape-stroke:none;fill-opacity:1"
       d="m 40.884766,44.523437 -0.386719,27.16211 4,0.05664 0.384765,-27.162109 z"
       id="path6" />
    <path
       style="color:#000000;fill:#000000;-inkscape-stroke:none;fill-opacity:1"
       d="m 39.320312,26.693359 v 4 c 9.521823,0 17.894532,6.258757 17.894532,15.761719 0,4.895506 -1.613574,8.853541 -4.314453,11.621094 -2.70088,2.767553 -6.527005,4.40039 -11.271485,4.40039 -4.744479,0 -8.545692,-1.631454 -11.226562,-4.396484 -2.680871,-2.76503 -4.279297,-6.724474 -4.279297,-11.625 h -4 c 0,5.783892 1.941018,10.836142 5.40625,14.410156 3.465232,3.574015 8.41707,5.611328 14.099609,5.611328 5.682539,0 10.649317,-2.035931 14.134766,-5.607421 3.485449,-3.571491 5.451172,-8.625151 5.451172,-14.414063 0,-11.865882 -10.562317,-19.761719 -21.894532,-19.761719 z"
       id="path8" />
    <path
       style="color:#000000;fill:#000000;-inkscape-stroke:none;fill-opacity:1"
       d="m 44.847656,44.244141 -22.716797,0.002 0.002,4.054687 22.714844,-0.0039 z"
       id="path12" />
    <path
       style="color:#000000;fill:#000000;-inkscape-stroke:none;fill-opacity:1"
       d="m 26.425781,69.615234 v 4 h 32 v -4 z"
       id="path14" />
    <path
       style="color:#000000;fill:#000000;-inkscape-stroke:none;fill-opacity:1"
       d="m 30.425781,75.560547 v 4 h 24 v -4 z"
       id="path16" />
    <path
       style="color:#000000;fill:#000000;-inkscape-stroke:none;fill-opacity:1"
       d="m 36.925781,81.210937 v 4 h 11 v -4 z"
       id="path18" />
    <path
       style="color:#000000;fill:#000000;-inkscape-stroke:none;fill-opacity:1"
       d="M 39.339844,0.0390625 V 28.460937 h 4 V 0.0390625 Z"
       id="path10" />
    <g
       id="path4171"
       style="fill:#000000;fill-opacity:1">
      <path
         style="color:#000000;fill:#000000;stroke-width:2.94346;stroke-linecap:round;stroke-linejoin:round;-inkscape-stroke:none;fill-opacity:1"
         d="m 42.777211,17.510593 a 1.5282713,1.5282713 0 0 1 -1.528271,1.528272 1.5282713,1.5282713 0 0 1 -1.528272,-1.528272 1.5282713,1.5282713 0 0 1 1.528272,-1.528271 1.5282713,1.5282713 0 0 1 1.528271,1.528271 z"
         id="path61" />
      <path
         style="color:#000000;fill:#000000;stroke-linecap:round;stroke-linejoin:round;-inkscape-stroke:none;fill-opacity:1"
         d="m 41.248047,14.509766 c -1.639421,0 -3,1.360579 -3,3 0,1.63942 1.360579,3 3,3 1.63942,0 3,-1.36058 3,-3 0,-1.639421 -1.36058,-3 -3,-3 z m 0,2.943359 c 0.04866,0 0.05664,0.008 0.05664,0.05664 0,0.04866 -0.008,0.05664 -0.05664,0.05664 -0.04866,0 -0.05469,-0.008 -0.05469,-0.05664 0,-0.04866 0.006,-0.05664 0.05469,-0.05664 z"
         id="path63" />
    </g>
    <path
       style="color:#000000;fill:#000000;fill-rule:evenodd;-inkscape-stroke:none;fill-opacity:1"
       d="M 13.757813,0.32226563 V 8.9140625 L 40.5,19.558594 41.978516,15.841797 17.757812,6.2011719 V 0.32226563 Z"
       id="path4173" />
    <path
       style="color:#000000;fill:#000000;fill-rule:evenodd;-inkscape-stroke:none;fill-opacity:1"
       d="M 65.1875,0.18945312 V 6.0703125 L 40.966797,15.710938 42.445312,19.427734 69.1875,8.7832031 V 0.18945312 Z"
       id="path4173-2" />
  </g>
</svg>
