<?xml version="1.0" encoding="UTF-8" standalone="no"?>
<svg
   viewBox="0 0 85 85"
   version="1.1"
   id="svg2"
   inkscape:version="1.1 (c68e22c387, 2021-05-23)"
   sodipodi:docname="eg-psh.svg"
   xmlns:inkscape="http://www.inkscape.org/namespaces/inkscape"
   xmlns:sodipodi="http://sodipodi.sourceforge.net/DTD/sodipodi-0.dtd"
   xmlns="http://www.w3.org/2000/svg"
   xmlns:svg="http://www.w3.org/2000/svg"
   xmlns:rdf="http://www.w3.org/1999/02/22-rdf-syntax-ns#"
   xmlns:cc="http://creativecommons.org/ns#"
   xmlns:dc="http://purl.org/dc/elements/1.1/">
  <metadata
     id="metadata24">
    <rdf:RDF>
      <cc:Work
         rdf:about="">
        <dc:format>image/svg+xml</dc:format>
        <dc:type
           rdf:resource="http://purl.org/dc/dcmitype/StillImage" />
        <dc:title />
      </cc:Work>
    </rdf:RDF>
  </metadata>
  <defs
     id="defs22" />
  <sodipodi:namedview
     pagecolor="#ffffff"
     bordercolor="#666666"
     borderopacity="1"
     objecttolerance="10"
     gridtolerance="10"
     guidetolerance="10"
     inkscape:pageopacity="0"
     inkscape:pageshadow="2"
     inkscape:window-width="1920"
     inkscape:window-height="1018"
     id="namedview20"
     showgrid="false"
     inkscape:zoom="1.3882353"
     inkscape:cx="42.860169"
     inkscape:cy="25.932203"
     inkscape:window-x="-8"
     inkscape:window-y="-8"
     inkscape:window-maximized="1"
     inkscape:current-layer="svg2"
     inkscape:pagecheckerboard="0" />
  <g
     id="g4159">
    <path
       style="color:#000000;fill:#000000;-inkscape-stroke:none"
       d="M 39.382812,34.369141 39,71.703125 l 7,0.07227 0.380859,-37.333985 z"
       id="path6" />
    <path
       style="color:#000000;fill:#000000;-inkscape-stroke:none"
       d="m 38.767578,7.2597656 v 6.0000004 c 7.306011,0 14.254337,2.444957 19.269531,6.585937 5.015195,4.14098 8.138672,9.851524 8.138672,16.912109 0,7.281958 -2.454123,13.161155 -6.585937,17.292969 -4.131815,4.131815 -10.012965,6.585938 -17.294922,6.585938 -7.281957,0 -13.161485,-2.452212 -17.292969,-6.583985 C 20.87047,49.920962 18.417969,44.039853 18.417969,36.757812 h -6 c 0,8.655065 3.016537,16.213431 8.339843,21.53711 5.323307,5.323679 12.881963,8.341797 21.53711,8.341797 8.655148,0 16.213472,-3.01816 21.537109,-8.341797 5.323638,-5.323637 8.34375,-12.881962 8.34375,-21.53711 0,-8.876523 -4.114069,-16.416261 -10.318359,-21.539062 C 55.653131,10.095949 47.398672,7.2597656 38.767578,7.2597656 Z"
       id="path8" />
    <path
       style="color:#000000;fill:#000000;-inkscape-stroke:none"
       d="M 38.853516,0.05078125 V 11.287109 h 6 V 0.05078125 Z"
       id="path10" />
    <path
       style="color:#000000;fill:#000000;-inkscape-stroke:none"
       d="m 46.208984,29.853516 -34.003906,0.380859 0.07813,7 34.003906,-0.380859 z"
       id="path12" />
    <path
       style="color:#000000;fill:#000000;-inkscape-stroke:none"
       d="m 26.425781,69.615234 v 4 h 32 v -4 z"
       id="path14" />
    <path
       style="color:#000000;fill:#000000;-inkscape-stroke:none"
       d="m 30.425781,75.560547 v 4 h 24 v -4 z"
       id="path16" />
    <path
       style="color:#000000;fill:#000000;-inkscape-stroke:none"
       d="m 36.925781,81.210937 v 4 h 11 v -4 z"
       id="path18" />
  </g>
</svg>
