<?xml version="1.0" encoding="UTF-8" standalone="no"?>
<svg
   xmlns:dc="http://purl.org/dc/elements/1.1/"
   xmlns:cc="http://creativecommons.org/ns#"
   xmlns:rdf="http://www.w3.org/1999/02/22-rdf-syntax-ns#"
   xmlns:svg="http://www.w3.org/2000/svg"
   xmlns="http://www.w3.org/2000/svg"
   xmlns:sodipodi="http://sodipodi.sourceforge.net/DTD/sodipodi-0.dtd"
   xmlns:inkscape="http://www.inkscape.org/namespaces/inkscape"
   viewBox="0 0 85 85"
   version="1.1"
   id="svg2"
   inkscape:version="0.91 r13725"
   sodipodi:docname="eg-reactor-twin.svg">
  <metadata
     id="metadata18">
    <rdf:RDF>
      <cc:Work
         rdf:about="">
        <dc:format>image/svg+xml</dc:format>
        <dc:type
           rdf:resource="http://purl.org/dc/dcmitype/StillImage" />
        <dc:title />
      </cc:Work>
    </rdf:RDF>
  </metadata>
  <defs
     id="defs16" />
  <sodipodi:namedview
     pagecolor="#ffffff"
     bordercolor="#666666"
     borderopacity="1"
     objecttolerance="10"
     gridtolerance="10"
     guidetolerance="10"
     inkscape:pageopacity="0"
     inkscape:pageshadow="2"
     inkscape:window-width="1920"
     inkscape:window-height="1008"
     id="namedview14"
     showgrid="false"
     inkscape:zoom="2.7764706"
     inkscape:cx="37.439951"
     inkscape:cy="49.297705"
     inkscape:window-x="-4"
     inkscape:window-y="-4"
     inkscape:window-maximized="1"
     inkscape:current-layer="svg2"
     inkscape:pagecheckerboard="0" />
  <path
     inkscape:connector-curvature="0"
     id="path6"
     d="M 41.971865,12.699819 C 31.779953,12.396744 22.884767,16.301241 16.304336,23.23928 9.4988268,30.414626 7.0393174,40.299861 6.8350851,47.831354 l -0.00173,0.04197 0,0.04197 c 0,17.486484 15.9778709,32.250609 33.0600209,32.250609 l 0,-6.196616 c -13.496582,0 -26.771716,-11.305113 -26.789155,-26.013775 0.178453,-6.238046 2.47551,-14.84435 7.748522,-20.403918 5.497557,-5.796318 12.423506,-8.859079 20.979244,-8.5914 l 0.05947,0.002 0.06121,0 c 7.97761,-0.05901 14.992869,2.917383 20.40392,7.793989 5.423023,4.887397 9.388529,11.589609 9.540947,21.091163 -0.01289,14.713945 -13.290993,26.024231 -26.790912,26.024231 l 0,6.190834 c 17.082152,0 33.060023,-14.758341 33.060023,-32.244827 l 0,-0.02448 0,-0.02274 C 77.992572,36.507584 73.019251,27.929631 66.551699,22.10087 60.083263,16.271316 51.52332,12.646245 41.971865,12.699819 Z"
     style="color:#000000;fill:#000000"
     sodipodi:nodetypes="csccscccscccscccsccsc" />
  <path
     inkscape:connector-curvature="0"
     id="path10"
     d="m 51.295493,43.459717 -6.381033,0 0.171374,36.602694 6.381033,-2 z"
     style="color:#000000;fill:#000000"
     sodipodi:nodetypes="ccccc" />
  <path
     inkscape:connector-curvature="0"
     id="path12"
     d="m 45.25374,43.459717 0,6.317969 40.106269,0 0,-6.317969 z"
     style="color:#000000;fill:#000000"
     sodipodi:nodetypes="ccccc" />
  <path
     inkscape:connector-curvature="0"
     id="path10-8"
     d="m 39.850181,43.459717 -6.381034,0 0.298714,36.005821 6.253694,0.700365 z"
     style="color:#000000;fill:#000000"
     sodipodi:nodetypes="ccccc" />
  <path
     inkscape:connector-curvature="0"
     id="path12-1"
     d="m -0.3595416,43.459717 0,6.427343 38.1062696,0 0,-6.427343 z"
     style="color:#000000;fill:#000000"
     sodipodi:nodetypes="ccccc" />
  <path
     inkscape:connector-curvature="0"
     id="path12-1-7"
     d="m 45.713671,-0.14423668 -6.427343,0 0,18.10627068 6.427343,0 z"
     style="color:#000000;fill:#000000"
     sodipodi:nodetypes="ccccc" />
</svg>
