<?xml version="1.0" encoding="UTF-8" standalone="no"?>
<svg
   viewBox="0 0 85 85"
   version="1.1"
   id="svg2"
   inkscape:version="1.1 (c68e22c387, 2021-05-23)"
   sodipodi:docname="eg-rrc.svg"
   xmlns:inkscape="http://www.inkscape.org/namespaces/inkscape"
   xmlns:sodipodi="http://sodipodi.sourceforge.net/DTD/sodipodi-0.dtd"
   xmlns="http://www.w3.org/2000/svg"
   xmlns:svg="http://www.w3.org/2000/svg"
   xmlns:rdf="http://www.w3.org/1999/02/22-rdf-syntax-ns#"
   xmlns:cc="http://creativecommons.org/ns#"
   xmlns:dc="http://purl.org/dc/elements/1.1/">
  <metadata
     id="metadata16">
    <rdf:RDF>
      <cc:Work
         rdf:about="">
        <dc:format>image/svg+xml</dc:format>
        <dc:type
           rdf:resource="http://purl.org/dc/dcmitype/StillImage" />
        <dc:title />
      </cc:Work>
    </rdf:RDF>
  </metadata>
  <defs
     id="defs14" />
  <sodipodi:namedview
     pagecolor="#ffffff"
     bordercolor="#666666"
     borderopacity="1"
     objecttolerance="10"
     gridtolerance="10"
     guidetolerance="10"
     inkscape:pageopacity="0"
     inkscape:pageshadow="2"
     inkscape:window-width="1920"
     inkscape:window-height="1018"
     id="namedview12"
     showgrid="false"
     inkscape:zoom="0.34705882"
     inkscape:cx="41.779661"
     inkscape:cy="43.220339"
     inkscape:window-x="-8"
     inkscape:window-y="-8"
     inkscape:window-maximized="1"
     inkscape:current-layer="svg2"
     inkscape:pagecheckerboard="0" />
  <path
     style="color:#000000;fill:#000000;-inkscape-stroke:none"
     d="M 42.5,-0.99804688 C 18.505991,-0.99804688 -0.99804687,18.505991 -0.99804688,42.5 -0.99804687,66.494009 18.505991,85.998047 42.5,85.998047 66.494009,85.998047 85.998047,66.494009 85.998047,42.5 85.998047,18.505991 66.494009,-0.99804687 42.5,-0.99804688 Z m 0,4.99999998 C 63.791812,4.0019531 80.998047,21.208188 80.998047,42.5 80.998047,63.791812 63.791812,80.998047 42.5,80.998047 21.208188,80.998047 4.0019531,63.791812 4.0019531,42.5 4.0019531,21.208188 21.208188,4.0019531 42.5,4.0019531 Z"
     id="circle6" />
  <path
     style="color:#000000;fill:#000000;-inkscape-stroke:none"
     d="m 26.818359,35.132812 v 5 h 31 v -5 z"
     id="path8" />
  <path
     style="color:#000000;fill:#000000;-inkscape-stroke:none"
     d="m 26.818359,45.132812 v 5 h 31 v -5 z"
     id="path10" />
</svg>
