<?xml version="1.0" encoding="UTF-8" standalone="no"?>
<svg
   viewBox="0 0 85 85"
   version="1.1"
   id="svg2"
   inkscape:version="1.1 (c68e22c387, 2021-05-23)"
   sodipodi:docname="eg-reactor-twin.svg"
   xmlns:inkscape="http://www.inkscape.org/namespaces/inkscape"
   xmlns:sodipodi="http://sodipodi.sourceforge.net/DTD/sodipodi-0.dtd"
   xmlns="http://www.w3.org/2000/svg"
   xmlns:svg="http://www.w3.org/2000/svg"
   xmlns:rdf="http://www.w3.org/1999/02/22-rdf-syntax-ns#"
   xmlns:cc="http://creativecommons.org/ns#"
   xmlns:dc="http://purl.org/dc/elements/1.1/">
  <metadata
     id="metadata18">
    <rdf:RDF>
      <cc:Work
         rdf:about="">
        <dc:format>image/svg+xml</dc:format>
        <dc:type
           rdf:resource="http://purl.org/dc/dcmitype/StillImage" />
        <dc:title />
      </cc:Work>
    </rdf:RDF>
  </metadata>
  <defs
     id="defs16" />
  <sodipodi:namedview
     pagecolor="#ffffff"
     bordercolor="#666666"
     borderopacity="1"
     objecttolerance="10"
     gridtolerance="10"
     guidetolerance="10"
     inkscape:pageopacity="0"
     inkscape:pageshadow="2"
     inkscape:window-width="1920"
     inkscape:window-height="1018"
     id="namedview14"
     showgrid="false"
     inkscape:zoom="7.8530448"
     inkscape:cx="30.370386"
     inkscape:cy="37.437708"
     inkscape:window-x="-8"
     inkscape:window-y="-8"
     inkscape:window-maximized="1"
     inkscape:current-layer="svg2"
     inkscape:pagecheckerboard="0" />
  <g
     id="g4170"
     transform="translate(-0.89039095,1.1068916)">
    <path
       style="color:#000000;fill:#000000;-inkscape-stroke:none"
       d="M 42.800781,3.6464844 C 31.417471,3.3079809 21.48247,7.6689008 14.132813,15.417969 6.5317639,23.432087 3.784747,34.472869 3.5566406,42.884766 l -0.00195,0.04687 v 0.04687 c 0,19.53059 13.3780385,36.099609 32.4570315,36.099609 v -7 c -15.074284,0 -25.433647,-12.626637 -25.453125,-29.054688 0.199313,-6.967251 2.764888,-16.579601 8.654297,-22.789062 6.140202,-6.473885 13.875767,-9.894673 23.43164,-9.595703 l 0.06641,0.002 h 0.06836 c 8.910162,-0.06591 16.74548,3.258414 22.789062,8.705078 6.056956,5.458716 10.486016,12.944391 10.65625,23.556641 C 76.21024,59.336335 65.84754,71.96875 50.769531,71.96875 v 7 c 19.078991,0 32.457031,-16.569016 32.457031,-36.099609 v -0.02734 -0.02539 C 83.032175,30.237289 77.477492,20.656604 70.253906,14.146484 63.029334,7.6354759 53.468766,3.586648 42.800781,3.6464844 Z"
       id="path6" />
    <path
       style="color:#000000;fill:#000000;-inkscape-stroke:none"
       d="m 52.548828,38.046875 -7.126953,0.0332 0.191406,40.974609 7.126953,-0.0332 z"
       id="path10" />
    <path
       style="color:#000000;fill:#000000;-inkscape-stroke:none"
       d="m 46.267578,38.037109 v 7 h 35.859375 v -7 z"
       id="path12" />
    <path
       style="color:#000000;fill:#000000;-inkscape-stroke:none"
       d="m 41.103516,38.154297 -7.126954,0.0332 0.191407,40.976562 7.126953,-0.0332 z"
       id="path10-8" />
    <path
       style="color:#000000;fill:#000000;-inkscape-stroke:none"
       d="m 4.6542969,38.146484 v 7 H 40.513672 v -7 z"
       id="path12-1" />
  </g>
</svg>
