<?xml version="1.0" encoding="UTF-8" standalone="no"?>
<svg
   xmlns:dc="http://purl.org/dc/elements/1.1/"
   xmlns:cc="http://creativecommons.org/ns#"
   xmlns:rdf="http://www.w3.org/1999/02/22-rdf-syntax-ns#"
   xmlns:svg="http://www.w3.org/2000/svg"
   xmlns="http://www.w3.org/2000/svg"
   xmlns:sodipodi="http://sodipodi.sourceforge.net/DTD/sodipodi-0.dtd"
   xmlns:inkscape="http://www.inkscape.org/namespaces/inkscape"
   viewBox="0 0 85 85"
   version="1.1"
   id="svg2"
   inkscape:version="0.91 r13725"
   sodipodi:docname="eg-smc.svg">
  <metadata
     id="metadata18">
    <rdf:RDF>
      <cc:Work
         rdf:about="">
        <dc:format>image/svg+xml</dc:format>
        <dc:type
           rdf:resource="http://purl.org/dc/dcmitype/StillImage" />
        <dc:title />
      </cc:Work>
    </rdf:RDF>
  </metadata>
  <defs
     id="defs16" />
  <sodipodi:namedview
     pagecolor="#ffffff"
     bordercolor="#666666"
     borderopacity="1"
     objecttolerance="10"
     gridtolerance="10"
     guidetolerance="10"
     inkscape:pageopacity="0"
     inkscape:pageshadow="2"
     inkscape:window-width="1920"
     inkscape:window-height="1008"
     id="namedview14"
     showgrid="false"
     inkscape:zoom="2.7764706"
     inkscape:cx="-50.423728"
     inkscape:cy="42.5"
     inkscape:window-x="-4"
     inkscape:window-y="-4"
     inkscape:window-maximized="1"
     inkscape:current-layer="g4145"
     inkscape:pagecheckerboard="0" />
  <g
     id="g4145">
    <path
       style="color:#000000;fill:#000000"
       d="M 42.5,0 C 19.051842,0 1.95e-7,19.051842 1.85e-7,42.5 1.95e-7,65.948158 19.051842,85 42.5,85 65.948158,85 85,65.948158 85,42.5 85,19.051842 65.948158,1.0000006e-8 42.5,0 Z m 0,3.9569032 C 63.809692,3.9569032 81.043097,21.190308 81.043097,42.5 81.043097,63.809691 63.809692,81.043097 42.5,81.043097 21.190309,81.043097 3.9569034,63.809691 3.9569034,42.5 3.9569034,21.190308 21.190309,3.9569032 42.5,3.9569032 Z"
       id="circle6"
       inkscape:connector-curvature="0" />
    <path
       style="color:#000000;fill:#000000"
       d="M 42.5,9.6523439 C 24.38249,9.6523439 9.6523439,24.38249 9.6523439,42.5 9.6523439,60.61751 24.38249,75.347656 42.5,75.347656 60.61751,75.347656 75.347656,60.61751 75.347656,42.5 75.347656,24.38249 60.61751,9.6523439 42.5,9.6523439 Z m 0,4.0000001 c 15.955752,0 28.847656,12.891904 28.847656,28.847656 0,15.955752 -12.891904,28.847656 -28.847656,28.847656 -15.955752,0 -28.847656,-12.891904 -28.847656,-28.847656 0,-15.955752 12.891904,-28.847656 28.847656,-28.847656 z"
       id="circle8"
       inkscape:connector-curvature="0" />
    <g
       aria-label="Д"
       transform="matrix(0.97499877,0,0,1.0256423,4,-1.3281175)"
       id="text4141"
       style="line-height:0%;-inkscape-font-specification:sans-serif;letter-spacing:0px;word-spacing:0px;stroke:#000000">
      <path
         d="m 63.18222,57.644175 -3.070559,0 0,-5.569472 -17.182068,0 0,5.569472 -3.07056,0 0,-8.378708 1.959932,0 q 2.123259,-3.495211 3.380882,-9.113682 1.273956,-5.634804 1.273956,-12.331237 l 14.405498,0 0,21.444919 2.302919,0 z m -5.536807,-8.378708 0,-18.635684 -8.133716,0 q -0.228659,5.830797 -1.437284,10.681628 -1.208624,4.834498 -3.13589,7.954056 z"
         style="font-size:33.44950104px;line-height:1.25"
         id="path1319"
         inkscape:connector-curvature="0" />
    </g>
    <g
       transform="scale(0.87208711,1.1466744)"
       style="font-style:normal;font-weight:normal;font-size:37.76985168px;line-height:125%;font-family:sans-serif;letter-spacing:0px;word-spacing:0px;fill:#000000;fill-opacity:1;stroke:#000000;stroke-width:0.92802739px;stroke-linecap:butt;stroke-linejoin:miter;stroke-opacity:1"
       id="text4160">
      <path
         d="m 45.178936,24.869123 0,3.928212 q -1.881115,-1.752019 -4.020423,-2.618808 -2.120866,-0.866788 -4.518366,-0.866788 -4.721232,0 -7.229386,2.895443 -2.508154,2.877 -2.508154,8.335924 0,5.440481 2.508154,8.335924 2.508154,2.877001 7.229386,2.877001 2.3975,0 4.518366,-0.866789 2.139308,-0.866789 4.020423,-2.618808 l 0,3.891327 q -1.954885,1.327847 -4.149519,1.99177 -2.176193,0.663923 -4.610578,0.663923 -6.251943,0 -9.848194,-3.817558 -3.59625,-3.836001 -3.59625,-10.45679 0,-6.639232 3.59625,-10.45679 3.596251,-3.836001 9.848194,-3.836001 2.47127,0 4.647462,0.663923 2.194635,0.645481 4.112635,1.954885 z"
         style="stroke-width:0.92802739px"
         id="path4165" />
    </g>
  </g>
</svg>
