<?xml version="1.0" encoding="UTF-8" standalone="no"?>
<svg
   viewBox="0 0 85 85"
   version="1.1"
   id="svg2"
   inkscape:version="1.1 (c68e22c387, 2021-05-23)"
   sodipodi:docname="eg-scr.svg"
   xmlns:inkscape="http://www.inkscape.org/namespaces/inkscape"
   xmlns:sodipodi="http://sodipodi.sourceforge.net/DTD/sodipodi-0.dtd"
   xmlns="http://www.w3.org/2000/svg"
   xmlns:svg="http://www.w3.org/2000/svg"
   xmlns:rdf="http://www.w3.org/1999/02/22-rdf-syntax-ns#"
   xmlns:cc="http://creativecommons.org/ns#"
   xmlns:dc="http://purl.org/dc/elements/1.1/">
  <metadata
     id="metadata28">
    <rdf:RDF>
      <cc:Work
         rdf:about="">
        <dc:format>image/svg+xml</dc:format>
        <dc:type
           rdf:resource="http://purl.org/dc/dcmitype/StillImage" />
        <dc:title />
      </cc:Work>
    </rdf:RDF>
  </metadata>
  <defs
     id="defs26" />
  <sodipodi:namedview
     pagecolor="#ffffff"
     bordercolor="#666666"
     borderopacity="1"
     objecttolerance="10"
     gridtolerance="10"
     guidetolerance="10"
     inkscape:pageopacity="0"
     inkscape:pageshadow="2"
     inkscape:window-width="1657"
     inkscape:window-height="926"
     id="namedview24"
     showgrid="false"
     inkscape:zoom="2.7764706"
     inkscape:cx="42.5"
     inkscape:cy="42.5"
     inkscape:window-x="0"
     inkscape:window-y="0"
     inkscape:window-maximized="0"
     inkscape:current-layer="svg2"
     inkscape:pagecheckerboard="0" />
  <g
     id="g4165">
    <path
       style="color:#000000;fill:#000000;-inkscape-stroke:none"
       d="M 3.6875,14.931641 6.1269531,17.470703 29.03125,41.306641 v -26.375 z m 7.042969,3 H 26.03125 v 15.921875 z"
       id="path6" />
    <path
       style="color:#000000;fill:#000000;-inkscape-stroke:none"
       d="M 19.130859,3.8085938 17.009766,5.9296875 35.126953,24.046875 h 7.691406 v -3 h -6.449218 z"
       id="path8" />
    <path
       style="color:#000000;fill:#000000;-inkscape-stroke:none"
       d="M 68.818359,2.6640625 66.283203,5.0761719 42.226562,27.984375 h 26.591797 z m -3,6.9980469 V 24.984375 H 49.726562 Z"
       id="path10" />
    <path
       style="color:#000000;fill:#000000;-inkscape-stroke:none"
       d="M 77.845703,15.746094 59.728516,33.863281 v 7.691406 h 3 V 35.105469 L 79.966797,17.867187 Z"
       id="path12" />
    <path
       style="color:#000000;fill:#000000;-inkscape-stroke:none"
       d="M 28.716797,44.464844 26.175781,46.914062 2.4140625,69.816406 H 28.716797 Z m -3,7.058593 V 66.816406 H 9.8476563 Z"
       id="path14" />
    <path
       style="color:#000000;fill:#000000;-inkscape-stroke:none"
       d="M 37.400391,57.730469 19.283203,75.847656 v 7.691406 h 3 V 77.089844 L 39.521484,59.851562 Z"
       id="path16" />
    <path
       style="color:#000000;fill:#000000;-inkscape-stroke:none"
       d="m 43.818359,56.039062 2.560547,2.560547 23.773438,23.773438 V 56.039062 Z m 7.242188,3 h 16.091797 v 16.091797 z"
       id="path18" />
    <path
       style="color:#000000;fill:#000000;-inkscape-stroke:none"
       d="m 59.697266,44.988281 -2.123047,2.123047 18.117187,18.115234 h 7.69336 v -3 h -6.449219 z"
       id="path20" />
    <path
       style="color:#000000;fill:#000000;-inkscape-stroke:none"
       d="M 42.636719,-0.66015625 -0.7265625,42.664062 0.34570313,43.726562 42.820312,85.744141 85.648437,42.726562 Z M 42.626953,3.5917969 81.419922,42.720703 42.802734,81.507812 3.5273438,42.654297 Z"
       id="path22" />
  </g>
</svg>
