<?xml version="1.0" encoding="UTF-8" standalone="no"?>
<svg
   viewBox="0 0 85 85"
   version="1.1"
   id="svg2"
   inkscape:version="1.1 (c68e22c387, 2021-05-23)"
   sodipodi:docname="eg-transformer-t2-b.svg"
   xmlns:inkscape="http://www.inkscape.org/namespaces/inkscape"
   xmlns:sodipodi="http://sodipodi.sourceforge.net/DTD/sodipodi-0.dtd"
   xmlns="http://www.w3.org/2000/svg"
   xmlns:svg="http://www.w3.org/2000/svg"
   xmlns:rdf="http://www.w3.org/1999/02/22-rdf-syntax-ns#"
   xmlns:cc="http://creativecommons.org/ns#"
   xmlns:dc="http://purl.org/dc/elements/1.1/">
  <metadata
     id="metadata16">
    <rdf:RDF>
      <cc:Work
         rdf:about="">
        <dc:format>image/svg+xml</dc:format>
        <dc:type
           rdf:resource="http://purl.org/dc/dcmitype/StillImage" />
        <dc:title />
      </cc:Work>
    </rdf:RDF>
  </metadata>
  <defs
     id="defs14" />
  <sodipodi:namedview
     pagecolor="#ffffff"
     bordercolor="#666666"
     borderopacity="1"
     objecttolerance="10"
     gridtolerance="10"
     guidetolerance="10"
     inkscape:pageopacity="0"
     inkscape:pageshadow="2"
     inkscape:window-width="1435"
     inkscape:window-height="900"
     id="namedview12"
     showgrid="false"
     inkscape:zoom="2.7764706"
     inkscape:cx="42.5"
     inkscape:cy="42.5"
     inkscape:window-x="235"
     inkscape:window-y="46"
     inkscape:window-maximized="0"
     inkscape:current-layer="svg2"
     inkscape:pagecheckerboard="0" />
  <g
     id="g4147">
    <path
       style="color:#000000;fill:#000000;-inkscape-stroke:none"
       d="m 41.117187,0.1484375 c -14.876139,0 -27,12.1238605 -26.999999,26.9999995 0,14.87614 12.12386,27 26.999999,27 14.87614,0 27,-12.12386 27,-27 0,-14.876139 -12.12386,-26.9999995 -27,-26.9999995 z m 0,6 c 11.633503,0 21,9.3664975 21,20.9999995 0,11.633503 -9.366497,21 -21,21 -11.633502,0 -21,-9.366497 -21,-21 0,-11.633502 9.366498,-20.9999995 21,-20.9999995 z"
       id="circle6" />
    <path
       style="color:#000000;fill:#000000;-inkscape-stroke:none"
       d="m 27,31.0625 c -14.876139,0 -27,12.123861 -27,27 0,14.876139 12.123861,27 27,27 14.876139,0 27,-12.123861 27,-27 0,-14.876139 -12.123861,-27 -27,-27 z m 0,6 c 11.633502,0 21,9.366498 21,21 0,11.633502 -9.366498,21 -21,21 -11.633502,0 -21,-9.366498 -21,-21 0,-11.633502 9.366498,-21 21,-21 z"
       id="circle8" />
    <path
       style="color:#000000;fill:#000000;-inkscape-stroke:none"
       d="m 57.763672,31.0625 c -14.87614,0 -27,12.123861 -27,27 0,14.876139 12.12386,27 27,27 14.876139,0 27,-12.123861 27,-27 0,-14.876139 -12.123861,-27 -27,-27 z m 0,6 c 11.633502,0 21,9.366498 21,21 0,11.633502 -9.366498,21 -21,21 -11.633502,0 -21,-9.366498 -21,-21 0,-11.633502 9.366498,-21 21,-21 z"
       id="circle10" />
  </g>
</svg>
