<?xml version="1.0" encoding="UTF-8" standalone="no"?>
<svg
   xmlns:dc="http://purl.org/dc/elements/1.1/"
   xmlns:cc="http://creativecommons.org/ns#"
   xmlns:rdf="http://www.w3.org/1999/02/22-rdf-syntax-ns#"
   xmlns:svg="http://www.w3.org/2000/svg"
   xmlns="http://www.w3.org/2000/svg"
   xmlns:sodipodi="http://sodipodi.sourceforge.net/DTD/sodipodi-0.dtd"
   xmlns:inkscape="http://www.inkscape.org/namespaces/inkscape"
   version="1.1"
   viewBox="0 0 85 85"
   id="svg2"
   inkscape:version="0.91 r13725"
   sodipodi:docname="eg-transformer-at3.svg">
  <metadata
     id="metadata16">
    <rdf:RDF>
      <cc:Work
         rdf:about="">
        <dc:format>image/svg+xml</dc:format>
        <dc:type
           rdf:resource="http://purl.org/dc/dcmitype/StillImage" />
        <dc:title />
      </cc:Work>
    </rdf:RDF>
  </metadata>
  <defs
     id="defs14" />
  <sodipodi:namedview
     pagecolor="#ffffff"
     bordercolor="#666666"
     borderopacity="1"
     objecttolerance="10"
     gridtolerance="10"
     guidetolerance="10"
     inkscape:pageopacity="0"
     inkscape:pageshadow="2"
     inkscape:window-width="1920"
     inkscape:window-height="1008"
     id="namedview12"
     showgrid="false"
     inkscape:zoom="2.7764706"
     inkscape:cx="-34.576271"
     inkscape:cy="42.5"
     inkscape:window-x="-4"
     inkscape:window-y="-4"
     inkscape:window-maximized="1"
     inkscape:current-layer="svg2"
     inkscape:pagecheckerboard="0" />
  <path
     style="color:#000000;fill:#000000;stroke:#000000;stroke-width:2;stroke-miterlimit:4;stroke-dasharray:none;stroke-opacity:1"
     d="m 41.644531,16.269531 c -12.880431,0 -23.365234,10.484803 -23.365234,23.365234 C 18.279297,52.515196 28.7641,63 41.644531,63 54.524962,63 65.009766,52.515196 65.009766,39.634765 c 0,-12.880431 -10.484804,-23.365234 -23.365235,-23.365234 z m 0,4 c 10.718673,0 19.365235,8.646562 19.365235,19.365234 C 61.009766,50.353438 52.363204,59 41.644531,59 30.925859,59 22.279297,50.353438 22.279297,39.634765 c 0,-10.718672 8.646562,-19.365234 19.365234,-19.365234 z"
     id="circle6"
     inkscape:connector-curvature="0" />
  <path
     style="color:#000000;fill:#000000;stroke:#000000;stroke-width:2;stroke-miterlimit:4;stroke-dasharray:none;stroke-opacity:1"
     d="m 41.644531,37.271484 c -12.880431,0 -23.365234,10.482851 -23.365234,23.363281 C 18.279297,73.515196 28.7641,84 41.644531,84 54.524962,84 65.009766,73.515196 65.009766,60.634765 c 0,-12.88043 -10.484804,-23.363281 -23.365235,-23.363281 z m 0,4 c 10.718673,0 19.365235,8.644609 19.365235,19.363281 C 61.009766,71.353438 52.363204,80 41.644531,80 30.925859,80 22.279297,71.353438 22.279297,60.634765 c 0,-10.718672 8.646562,-19.363281 19.365234,-19.363281 z"
     id="circle8"
     inkscape:connector-curvature="0" />
  <path
     style="color:#000000;fill:#000000;stroke:#000000;stroke-width:2;stroke-miterlimit:4;stroke-dasharray:none;stroke-opacity:1"
     d="m 37,1.5292974 0,5.8808593 1.289062,0.4882813 c 4.827916,1.834608 9.066253,4.21469 12.296875,7.445313 l 0.03906,0.03906 0.04102,0.03711 C 57.890883,21.894154 61,30.890462 61,40 l 4,0 C 65,29.982179 61.512751,19.790769 53.357422,12.466797 49.92656,9.0541579 45.626967,6.6633202 41,4.7714849 l 0,-3.2421875 z"
     id="path10"
     inkscape:connector-curvature="0" />
</svg>
