<?xml version="1.0" encoding="UTF-8" standalone="no"?>
<svg
   viewBox="0 0 85 85"
   version="1.1"
   id="svg2"
   inkscape:version="1.1 (c68e22c387, 2021-05-23)"
   sodipodi:docname="eg-tap-changer.svg"
   xmlns:inkscape="http://www.inkscape.org/namespaces/inkscape"
   xmlns:sodipodi="http://sodipodi.sourceforge.net/DTD/sodipodi-0.dtd"
   xmlns="http://www.w3.org/2000/svg"
   xmlns:svg="http://www.w3.org/2000/svg"
   xmlns:rdf="http://www.w3.org/1999/02/22-rdf-syntax-ns#"
   xmlns:cc="http://creativecommons.org/ns#"
   xmlns:dc="http://purl.org/dc/elements/1.1/">
  <metadata
     id="metadata20">
    <rdf:RDF>
      <cc:Work
         rdf:about="">
        <dc:format>image/svg+xml</dc:format>
        <dc:type
           rdf:resource="http://purl.org/dc/dcmitype/StillImage" />
        <dc:title />
      </cc:Work>
    </rdf:RDF>
  </metadata>
  <defs
     id="defs18" />
  <sodipodi:namedview
     pagecolor="#ffffff"
     bordercolor="#666666"
     borderopacity="1"
     objecttolerance="10"
     gridtolerance="10"
     guidetolerance="10"
     inkscape:pageopacity="0"
     inkscape:pageshadow="2"
     inkscape:window-width="1920"
     inkscape:window-height="1018"
     id="namedview16"
     showgrid="false"
     inkscape:zoom="6.7882251"
     inkscape:cx="42.500064"
     inkscape:cy="50.8233"
     inkscape:window-x="-8"
     inkscape:window-y="-8"
     inkscape:window-maximized="1"
     inkscape:current-layer="svg2"
     inkscape:pagecheckerboard="0" />
  <path
     style="color:#000000;fill:#000000;stroke-linecap:round;stroke-linejoin:round;-inkscape-stroke:none"
     d="m 42.333984,31.066406 c -6.19506,0 -11.271484,5.074471 -11.271484,11.269531 0,6.195061 5.076424,11.271485 11.271484,11.271485 6.195061,0 11.269532,-5.076424 11.269532,-11.271485 0,-6.19506 -5.074471,-11.269531 -11.269532,-11.269531 z m 0,5 c 3.492863,0 6.269532,2.776669 6.269532,6.269531 0,3.492863 -2.776669,6.271485 -6.269532,6.271485 -3.492863,0 -6.271484,-2.778622 -6.271484,-6.271485 0,-3.492862 2.778621,-6.269531 6.271484,-6.269531 z"
     id="path4199-2" />
  <path
     style="color:#000000;fill:#000000;fill-rule:evenodd;-inkscape-stroke:none"
     d="M 34.533203,48.113281 13.945313,67.345703 C 13.841118,67.238312 13.83422,67.228435 13.720703,67.111328 12.711115,66.06981 11.434804,64.760983 10.181641,63.476562 7.6753132,60.907722 5.2597656,58.439453 5.2597656,58.439453 L 1.6875,61.9375 c 0,0 2.4137534,2.464623 4.9160156,5.029297 1.2511311,1.282337 2.524769,2.590717 3.5273434,3.625 1.002575,1.034283 1.84104,1.918335 1.847657,1.925781 l 1.703125,1.916016 24.263671,-22.667969 z"
     id="path4178" />
  <path
     style="color:#000000;fill:#000000;fill-rule:evenodd;-inkscape-stroke:none"
     d="m 72.208984,11.488281 -24.169922,22.580078 3.414063,3.654297 20.613281,-19.257812 8.75,8.873047 3.560547,-3.509766 z"
     id="path4178-3" />
</svg>
