<?xml version="1.0" encoding="UTF-8" standalone="no"?>
<svg
   xmlns:osb="http://www.openswatchbook.org/uri/2009/osb"
   xmlns:dc="http://purl.org/dc/elements/1.1/"
   xmlns:cc="http://creativecommons.org/ns#"
   xmlns:rdf="http://www.w3.org/1999/02/22-rdf-syntax-ns#"
   xmlns:svg="http://www.w3.org/2000/svg"
   xmlns="http://www.w3.org/2000/svg"
   xmlns:sodipodi="http://sodipodi.sourceforge.net/DTD/sodipodi-0.dtd"
   xmlns:inkscape="http://www.inkscape.org/namespaces/inkscape"
   viewBox="0 0 85 85"
   version="1.1"
   id="svg2"
   inkscape:version="0.91 r13725"
   sodipodi:docname="eg-tznp.svg">
  <metadata
     id="metadata16">
    <rdf:RDF>
      <cc:Work
         rdf:about="">
        <dc:format>image/svg+xml</dc:format>
        <dc:type
           rdf:resource="http://purl.org/dc/dcmitype/StillImage" />
        <dc:title />
      </cc:Work>
    </rdf:RDF>
  </metadata>
  <defs
     id="defs14">
    <linearGradient
       id="linearGradient5678"
       osb:paint="solid">
      <stop
         style="stop-color:#000000;stop-opacity:1;"
         offset="0"
         id="stop5680" />
    </linearGradient>
  </defs>
  <sodipodi:namedview
     pagecolor="#ffffff"
     bordercolor="#666666"
     borderopacity="1"
     objecttolerance="10"
     gridtolerance="10"
     guidetolerance="10"
     inkscape:pageopacity="0"
     inkscape:pageshadow="2"
     inkscape:window-width="1920"
     inkscape:window-height="1008"
     id="namedview12"
     showgrid="false"
     inkscape:zoom="4"
     inkscape:cx="-36.625001"
     inkscape:cy="39.59798"
     inkscape:window-x="-4"
     inkscape:window-y="-4"
     inkscape:window-maximized="1"
     inkscape:current-layer="svg2"
     inkscape:pagecheckerboard="0" />
  <text
     xml:space="preserve"
     style="font-style:normal;font-weight:normal;font-size:17.5px;line-height:125%;font-family:'Times New Roman';letter-spacing:0px;word-spacing:0px;fill:#000000;fill-opacity:1;stroke:none;stroke-width:1px;stroke-linecap:butt;stroke-linejoin:miter;stroke-opacity:1;-inkscape-font-specification:'Times New Roman, ';font-stretch:normal;font-variant:normal;"
     x="-182.78709"
     y="31.966991"
     id="text4145"
     sodipodi:linespacing="125%"><tspan
       sodipodi:role="line"
       id="tspan4147"
       x="-182.78709"
       y="31.966991" /></text>
  <path
     inkscape:connector-curvature="0"
     id="rect4356-8-5"
     d="m 4.363548,8.1732223 0,68.6535557 76.272904,0 0,-68.6535558 z m -4.00000002,-4 84.27290402,0 0,76.6535557 -84.27290402,0 z"
     style="color:#000000;fill:#000000;fill-opacity:1;stroke:#000000;stroke-width:0.89699173;stroke-linecap:butt;stroke-linejoin:round;stroke-opacity:1"
     sodipodi:nodetypes="cccccccccc" />
  <path
     style="font-style:normal;font-variant:normal;font-weight:normal;font-stretch:normal;font-size:medium;line-height:125%;font-family:'Times New Roman';-inkscape-font-specification:'Times New Roman, ';letter-spacing:0px;word-spacing:0px;fill:#000000;fill-opacity:1;stroke:#000000;stroke-width:5;stroke-linecap:butt;stroke-linejoin:miter;stroke-miterlimit:4;stroke-dasharray:none;stroke-opacity:1"
     inkscape:connector-curvature="0"
     id="path4186"
     d="m 35.902309,60.033746 0,4.568987 -24.547618,0 0,-4.568987 c 2.161013,-0.07587 7.987492,-0.386437 8.196622,-3.403604 l 0,-28.408902 c -1.705931,-3.919513 -5.846322,-3.256018 -8.196622,-3.254988 l 0,-4.568985 24.547618,0 0,4.568985 c -2.1714,0.07713 -8.033649,0.287957 -8.238873,3.254988 l -0.178841,28.408902 c 2.357949,3.611485 5.476779,3.403604 8.417714,3.403604 z"
     sodipodi:nodetypes="ccccccccccccc" />
  <path
     inkscape:connector-curvature="0"
     id="path4156"
     style="font-style:normal;font-variant:normal;font-weight:normal;font-stretch:normal;font-size:medium;line-height:125%;font-family:Arial;-inkscape-font-specification:Arial;letter-spacing:0px;word-spacing:0px;fill:#000000;fill-opacity:1;stroke:#000000;stroke-width:4;stroke-linecap:butt;stroke-linejoin:miter;stroke-miterlimit:4;stroke-dasharray:none;stroke-opacity:1"
     d="m 75.48312,44.286367 0,-3.68987 -20.966239,-9.00501 0,3.93146 16.626164,6.94045 -16.626164,7.00634 0,3.93146 20.966239,-9.11483 z" />
  <g
     style="font-style:normal;font-variant:normal;font-weight:bold;font-stretch:normal;font-size:12.5px;line-height:125%;font-family:sans-serif;-inkscape-font-specification:'sans-serif Bold';letter-spacing:0px;word-spacing:0px;fill:#000000;fill-opacity:1;fill-rule:evenodd;stroke:#000000;stroke-width:3;stroke-linecap:butt;stroke-linejoin:miter;stroke-miterlimit:4;stroke-dasharray:none;stroke-opacity:1"
     id="text4212"
     transform="translate(143.92872,-6.161246)">
    <path
       d="m -96.427422,66.645988 q 0,-1.708984 -0.323486,-2.404785 -0.317383,-0.701904 -1.074219,-0.701904 -0.756836,0 -1.080322,0.701904 -0.323486,0.695801 -0.323486,2.404785 0,1.727295 0.323486,2.435303 0.323486,0.708008 1.080322,0.708008 0.750733,0 1.074219,-0.708008 0.323486,-0.708008 0.323486,-2.435303 z m 2.349854,0.01831 q 0,2.264404 -0.976563,3.497314 -0.976562,1.226807 -2.770996,1.226807 -1.800537,0 -2.777103,-1.226807 -0.97656,-1.23291 -0.97656,-3.497314 0,-2.270508 0.97656,-3.497314 0.976566,-1.232911 2.777103,-1.232911 1.794434,0 2.770996,1.232911 0.976563,1.226806 0.976563,3.497314 z"
       id="path4217"
       inkscape:connector-curvature="0"
       style="fill:#000000;fill-opacity:1;fill-rule:evenodd;stroke:#000000;stroke-width:3;stroke-miterlimit:4;stroke-dasharray:none;stroke-opacity:1" />
  </g>
</svg>
