<?xml version="1.0" encoding="UTF-8" standalone="no"?>
<svg
   viewBox="0 0 85 85"
   version="1.1"
   id="svg2"
   inkscape:version="1.1 (c68e22c387, 2021-05-23)"
   sodipodi:docname="eg-temp-oil.svg"
   xmlns:inkscape="http://www.inkscape.org/namespaces/inkscape"
   xmlns:sodipodi="http://sodipodi.sourceforge.net/DTD/sodipodi-0.dtd"
   xmlns="http://www.w3.org/2000/svg"
   xmlns:svg="http://www.w3.org/2000/svg"
   xmlns:rdf="http://www.w3.org/1999/02/22-rdf-syntax-ns#"
   xmlns:cc="http://creativecommons.org/ns#"
   xmlns:dc="http://purl.org/dc/elements/1.1/">
  <metadata
     id="metadata16">
    <rdf:RDF>
      <cc:Work
         rdf:about="">
        <dc:format>image/svg+xml</dc:format>
        <dc:type
           rdf:resource="http://purl.org/dc/dcmitype/StillImage" />
        <dc:title />
      </cc:Work>
    </rdf:RDF>
  </metadata>
  <defs
     id="defs14">
    <inkscape:path-effect
       effect="spiro"
       id="path-effect4175"
       is_visible="true" />
    <inkscape:path-effect
       effect="spiro"
       id="path-effect4171"
       is_visible="true" />
  </defs>
  <sodipodi:namedview
     pagecolor="#ffffff"
     bordercolor="#666666"
     borderopacity="1"
     objecttolerance="10"
     gridtolerance="10"
     guidetolerance="10"
     inkscape:pageopacity="0"
     inkscape:pageshadow="2"
     inkscape:window-width="1920"
     inkscape:window-height="1018"
     id="namedview12"
     showgrid="false"
     inkscape:zoom="2.7764706"
     inkscape:cx="41.959746"
     inkscape:cy="45.741525"
     inkscape:window-x="-8"
     inkscape:window-y="-8"
     inkscape:window-maximized="1"
     inkscape:current-layer="svg2"
     inkscape:pagecheckerboard="0" />
  <g
     id="g4314">
    <path
       style="color:#000000;fill:#000000;-inkscape-stroke:none"
       d="m 42.658203,13.976563 c -16.104684,-2e-6 -29.193359,13.088675 -29.193359,29.193359 0,8.052342 3.269711,15.361509 8.550781,20.642578 l 2.121094,-2.123047 c -4.741566,-4.741565 -7.671875,-11.277848 -7.671875,-18.519531 0,-14.483365 11.709994,-26.19336 26.193359,-26.19336 14.483365,0 26.191406,11.709994 26.191406,26.19336 0,7.241683 -2.93031,13.777966 -7.671875,18.519531 l 2.121094,2.123047 c 5.281069,-5.281069 8.550781,-12.590236 8.550781,-20.642578 0,-16.104684 -13.086722,-29.19336 -29.191406,-29.193359 z"
       id="ellipse6" />
    <path
       style="color:#000000;fill:#000000;-inkscape-stroke:none"
       d="m 42.230469,35.544922 c -3.700519,0 -6.732422,3.031903 -6.732422,6.732422 0,3.700518 3.031903,6.732422 6.732422,6.732422 3.700518,0 6.732422,-3.031904 6.732422,-6.732422 0,-3.700519 -3.031904,-6.732422 -6.732422,-6.732422 z m 0,3 c 2.0792,0 3.732422,1.653222 3.732422,3.732422 0,2.0792 -1.653222,3.732422 -3.732422,3.732422 -2.0792,0 -3.732422,-1.653222 -3.732422,-3.732422 0,-2.0792 1.653222,-3.732422 3.732422,-3.732422 z"
       id="ellipse8" />
    <path
       style="color:#000000;fill:#000000;-inkscape-stroke:none"
       d="m 42.658203,2.75 c -22.28357,0 -40.423828,18.138305 -40.423828,40.421875 0,22.28357 18.140258,40.423828 40.423828,40.423828 22.28357,0 40.421875,-18.140258 40.421875,-40.423828 C 83.080078,20.888305 64.941773,2.75 42.658203,2.75 Z m 0,7 c 18.500493,0 33.421875,14.921382 33.421875,33.421875 0,18.500493 -14.921382,33.423828 -33.421875,33.423828 C 24.15771,76.595703 9.234375,61.672368 9.234375,43.171875 9.234375,24.671382 24.15771,9.75 42.658203,9.75 Z"
       id="ellipse10" />
    <path
       style="color:#000000;fill:#000000;-inkscape-stroke:none"
       d="m 28.335937,63.15625 -3.359375,4.972656 c 1.632525,1.102912 3.377743,2.05305 5.214844,2.830078 3.674204,1.554058 7.720384,2.414063 11.949219,2.414063 4.228835,-10e-7 8.273062,-0.860006 11.947266,-2.414063 1.837102,-0.777028 3.582319,-1.727166 5.214843,-2.830078 L 55.943359,63.15625 c -1.313954,0.88769 -2.717402,1.653067 -4.193359,2.277344 -2.951915,1.248554 -6.191198,1.939452 -9.609375,1.939453 -3.418177,0 -6.659415,-0.690899 -9.611328,-1.939453 -1.475958,-0.624278 -2.879405,-1.389654 -4.19336,-2.277344 z"
       id="ellipse6-4" />
    <g
       id="path4169">
      <path
         style="color:#000000;fill:#000000;fill-rule:evenodd;stroke-width:1px;-inkscape-stroke:none"
         d="m 39.396714,37.120481 2.546783,-22.28435 3.183479,22.28435 v 0"
         id="path55" />
      <path
         style="color:#000000;fill:#000000;fill-rule:evenodd;-inkscape-stroke:none"
         d="m 42.4375,14.765625 -0.990234,0.01367 -2.546875,22.285156 0.992187,0.113281 2.105469,-18.425781 2.634765,18.439453 0.988282,-0.142578 z"
         id="path57" />
    </g>
    <g
       id="path4173">
      <path
         style="color:#000000;fill:#000000;fill-rule:evenodd;stroke-width:1px;-inkscape-stroke:none"
         d="m 39.418519,47.562291 -1.52807,7.640349 h 8.696488 l -1.310818,-7.640349 z"
         id="path63" />
      <path
         style="color:#000000;fill:#000000;fill-rule:evenodd;-inkscape-stroke:none"
         d="m 39.007812,47.0625 -0.08008,0.402344 -1.646484,8.238281 h 9.898437 L 45.697266,47.0625 Z m 0.820313,1 h 5.027344 l 1.138672,6.640625 H 38.5 Z"
         id="path65" />
    </g>
    <path
       style="color:#000000;fill:#000000;fill-rule:evenodd;-inkscape-stroke:none"
       d="m 28.179687,55.259766 -7.689453,6.128906 1.869141,2.345703 7.689453,-6.128906 z"
       id="path4177" />
    <path
       style="color:#000000;fill:#000000;fill-rule:evenodd;-inkscape-stroke:none"
       d="m 25.292969,48.740234 -8.548828,4.197266 1.324218,2.693359 8.546875,-4.199218 z"
       id="path4177-4" />
    <path
       style="color:#000000;fill:#000000;fill-rule:evenodd;-inkscape-stroke:none"
       d="m 24.537109,43.636719 -9.478515,0.935547 0.294922,2.986328 9.478515,-0.935547 z"
       id="path4177-3" />
    <path
       style="color:#000000;fill:#000000;fill-rule:evenodd;-inkscape-stroke:none"
       d="m 15.458984,36.527344 -0.148437,2.996093 9.40625,0.466797 0.148437,-2.996093 z"
       id="path4177-5" />
    <path
       style="color:#000000;fill:#000000;fill-rule:evenodd;-inkscape-stroke:none"
       d="m 18.705078,27.167969 -1.298828,2.703125 8.585937,4.123047 1.298829,-2.705079 z"
       id="path4177-37" />
    <path
       style="color:#000000;fill:#000000;fill-rule:evenodd;-inkscape-stroke:none"
       d="m 25.248047,20.058594 -2.189453,2.050781 6.511718,6.951172 2.189454,-2.050781 z"
       id="path4177-37-9" />
    <path
       style="color:#000000;fill:#000000;fill-rule:evenodd;-inkscape-stroke:none"
       d="m 32.669922,15.648438 -2.570313,1.548828 4.917969,8.15625 2.570313,-1.548829 z"
       id="path4177-37-3" />
    <path
       style="color:#000000;fill:#000000;fill-rule:evenodd;-inkscape-stroke:none"
       d="m 56.951172,55.798828 -1.710938,2.464844 8.050782,5.58789 1.710937,-2.464843 z"
       id="path4177-9" />
    <path
       style="color:#000000;fill:#000000;fill-rule:evenodd;-inkscape-stroke:none"
       d="m 59.916016,49.337891 -1.322266,2.693359 8.548828,4.197266 1.322266,-2.69336 z"
       id="path4177-4-0" />
    <path
       style="color:#000000;fill:#000000;fill-rule:evenodd;-inkscape-stroke:none"
       d="m 60.673828,44.234375 -0.294922,2.986328 9.478516,0.935547 0.294922,-2.986328 z"
       id="path4177-3-5" />
    <path
       style="color:#000000;fill:#000000;fill-rule:evenodd;-inkscape-stroke:none"
       d="m 69.751953,37.125 -9.40625,0.466797 0.148438,2.996094 9.40625,-0.466797 z"
       id="path4177-5-7" />
    <path
       style="color:#000000;fill:#000000;fill-rule:evenodd;-inkscape-stroke:none"
       d="m 66.505859,27.765625 -8.585937,4.121094 1.298828,2.705078 8.585937,-4.121094 z"
       id="path4177-37-6" />
    <path
       style="color:#000000;fill:#000000;fill-rule:evenodd;-inkscape-stroke:none"
       d="m 59.960937,20.65625 -6.509765,6.951172 2.189453,2.050781 6.509766,-6.951172 z"
       id="path4177-37-9-0" />
    <path
       style="color:#000000;fill:#000000;fill-rule:evenodd;-inkscape-stroke:none"
       d="m 52.541016,16.246094 -4.917969,8.15625 2.570312,1.548828 4.916016,-8.15625 z"
       id="path4177-37-3-6" />
  </g>
</svg>
