<?xml version="1.0" encoding="UTF-8" standalone="no"?>
<svg
   viewBox="0 0 85 85"
   version="1.1"
   id="svg2"
   inkscape:version="1.1 (c68e22c387, 2021-05-23)"
   sodipodi:docname="eg-technology-protection.svg"
   xmlns:inkscape="http://www.inkscape.org/namespaces/inkscape"
   xmlns:sodipodi="http://sodipodi.sourceforge.net/DTD/sodipodi-0.dtd"
   xmlns="http://www.w3.org/2000/svg"
   xmlns:svg="http://www.w3.org/2000/svg"
   xmlns:rdf="http://www.w3.org/1999/02/22-rdf-syntax-ns#"
   xmlns:cc="http://creativecommons.org/ns#"
   xmlns:dc="http://purl.org/dc/elements/1.1/">
  <metadata
     id="metadata20">
    <rdf:RDF>
      <cc:Work
         rdf:about="">
        <dc:format>image/svg+xml</dc:format>
        <dc:type
           rdf:resource="http://purl.org/dc/dcmitype/StillImage" />
        <dc:title />
      </cc:Work>
    </rdf:RDF>
  </metadata>
  <defs
     id="defs18">
    <inkscape:path-effect
       effect="spiro"
       id="path-effect4395"
       is_visible="true" />
    <inkscape:path-effect
       effect="spiro"
       id="path-effect4391"
       is_visible="true" />
    <inkscape:path-effect
       effect="spiro"
       id="path-effect4387"
       is_visible="true" />
    <inkscape:path-effect
       effect="spiro"
       id="path-effect4383"
       is_visible="true" />
    <inkscape:path-effect
       effect="spiro"
       id="path-effect4379"
       is_visible="true" />
    <inkscape:path-effect
       effect="spiro"
       id="path-effect4375"
       is_visible="true" />
    <inkscape:path-effect
       effect="spiro"
       id="path-effect4371"
       is_visible="true" />
    <inkscape:path-effect
       effect="spiro"
       id="path-effect4188"
       is_visible="true" />
    <inkscape:path-effect
       effect="spiro"
       id="path-effect4188-1"
       is_visible="true" />
    <inkscape:path-effect
       effect="spiro"
       id="path-effect4188-5"
       is_visible="true" />
    <inkscape:path-effect
       effect="spiro"
       id="path-effect4188-59"
       is_visible="true" />
    <inkscape:path-effect
       effect="spiro"
       id="path-effect4188-8"
       is_visible="true" />
    <inkscape:path-effect
       effect="spiro"
       id="path-effect4188-9"
       is_visible="true" />
    <inkscape:path-effect
       effect="spiro"
       id="path-effect4188-85"
       is_visible="true" />
    <inkscape:path-effect
       effect="spiro"
       id="path-effect4188-3"
       is_visible="true" />
    <inkscape:path-effect
       effect="spiro"
       id="path-effect4188-7"
       is_visible="true" />
    <inkscape:path-effect
       effect="spiro"
       id="path-effect4188-94"
       is_visible="true" />
    <inkscape:path-effect
       effect="spiro"
       id="path-effect4188-2"
       is_visible="true" />
    <inkscape:path-effect
       effect="spiro"
       id="path-effect4188-0"
       is_visible="true" />
    <inkscape:path-effect
       effect="spiro"
       id="path-effect4188-56"
       is_visible="true" />
  </defs>
  <sodipodi:namedview
     pagecolor="#ffffff"
     bordercolor="#666666"
     borderopacity="1"
     objecttolerance="10"
     gridtolerance="10"
     guidetolerance="10"
     inkscape:pageopacity="0"
     inkscape:pageshadow="2"
     inkscape:window-width="1920"
     inkscape:window-height="1018"
     id="namedview16"
     showgrid="false"
     inkscape:zoom="5.5529412"
     inkscape:cx="45.471398"
     inkscape:cy="43.580508"
     inkscape:window-x="-8"
     inkscape:window-y="-8"
     inkscape:window-maximized="1"
     inkscape:current-layer="svg2"
     inkscape:pagecheckerboard="0" />
  <g
     id="g4397"
     transform="translate(-0.45021367,3.2151585)">
    <path
       style="color:#000000;fill:#000000;stroke-linecap:round;stroke-linejoin:round;-inkscape-stroke:none"
       d="M 3.7949219,7.3632812 A 2.0293596,2.0293596 0 0 0 1.7675781,9.3925781 V 69.177734 a 2.0293596,2.0293596 0 0 0 2.0273438,2.029297 H 82.105469 a 2.0293596,2.0293596 0 0 0 2.027343,-2.029297 V 9.3925781 A 2.0293596,2.0293596 0 0 0 82.105469,7.3632812 Z M 5.8242187,11.421875 H 80.076172 V 67.148437 H 5.8242187 Z"
       id="rect4167" />
    <path
       style="color:#000000;fill:#000000;stroke-linecap:round;stroke-linejoin:round;-inkscape-stroke:none"
       d="m 17.800781,21.591797 a 2.3323207,2.3323207 0 0 0 -2.332031,2.332031 v 24.90625 a 2.3323207,2.3323207 0 0 0 2.332031,2.333984 h 27.427735 a 2.3323207,2.3323207 0 0 0 2.332031,-2.333984 v -24.90625 a 2.3323207,2.3323207 0 0 0 -2.332031,-2.332031 z m 2.332031,4.664062 H 42.896484 V 46.498047 H 20.132812 Z"
       id="rect4340" />
    <g
       id="rect4342">
      <path
         style="color:#000000;fill:#000000;stroke-width:4;stroke-linecap:round;stroke-linejoin:round;-inkscape-stroke:none"
         d="m 9.724576,25.391949 h 2.161017 V 28.09322 H 9.724576 Z"
         id="path53" />
      <path
         style="color:#000000;fill:#000000;stroke-linecap:round;stroke-linejoin:round;-inkscape-stroke:none"
         d="m 9.7246094,23.392578 a 2.0002,2.0002 0 0 0 -2,2 v 2.701172 a 2.0002,2.0002 0 0 0 2,2 h 2.1601566 a 2.0002,2.0002 0 0 0 2,-2 v -2.701172 a 2.0002,2.0002 0 0 0 -2,-2 z"
         id="path55" />
    </g>
    <g
       id="rect4342-1">
      <path
         style="color:#000000;fill:#000000;stroke-width:4;stroke-linecap:round;stroke-linejoin:round;-inkscape-stroke:none"
         d="m 9.724576,34.306145 h 2.161017 v 2.701271 H 9.724576 Z"
         id="path61" />
      <path
         style="color:#000000;fill:#000000;stroke-linecap:round;stroke-linejoin:round;-inkscape-stroke:none"
         d="m 9.7246094,32.306641 a 2.0002,2.0002 0 0 0 -2,2 v 2.701171 a 2.0002,2.0002 0 0 0 2,2 h 2.1601566 a 2.0002,2.0002 0 0 0 2,-2 v -2.701171 a 2.0002,2.0002 0 0 0 -2,-2 z"
         id="path63" />
    </g>
    <g
       id="rect4342-6">
      <path
         style="color:#000000;fill:#000000;stroke-width:4;stroke-linecap:round;stroke-linejoin:round;-inkscape-stroke:none"
         d="m 9.724576,42.950211 h 2.161017 v 2.701271 H 9.724576 Z"
         id="path69" />
      <path
         style="color:#000000;fill:#000000;stroke-linecap:round;stroke-linejoin:round;-inkscape-stroke:none"
         d="m 9.7246094,40.951172 a 2.0002,2.0002 0 0 0 -2,2 v 2.701172 a 2.0002,2.0002 0 0 0 2,2 h 2.1601566 a 2.0002,2.0002 0 0 0 2,-2 v -2.701172 a 2.0002,2.0002 0 0 0 -2,-2 z"
         id="path71" />
    </g>
    <path
       style="color:#000000;fill:#000000;fill-rule:evenodd;-inkscape-stroke:none"
       d="m 51.404297,21.060547 v 1 35.125 h 26.492187 v -36.125 z m 2,2 h 22.492187 v 32.125 H 53.404297 Z"
       id="path4369" />
    <path
       style="color:#000000;fill:#000000;fill-rule:evenodd;-inkscape-stroke:none"
       d="m 52.673828,26.597656 v 2 h 24.492188 v -2 z"
       id="path4373" />
    <path
       style="color:#000000;fill:#000000;fill-rule:evenodd;-inkscape-stroke:none"
       d="m 52.765625,32.529297 v 2 h 23.769531 v -2 z"
       id="path4377" />
    <path
       style="color:#000000;fill:#000000;fill-rule:evenodd;-inkscape-stroke:none"
       d="m 52.224609,44.392578 v 2 h 25.03125 v -2 z"
       id="path4381" />
    <path
       style="color:#000000;fill:#000000;fill-rule:evenodd;-inkscape-stroke:none"
       d="m 52.945312,50.324219 v 2 h 23.771485 v -2 z"
       id="path4385" />
    <path
       style="color:#000000;fill:#000000;fill-rule:evenodd;-inkscape-stroke:none"
       d="m 52.583984,38.460937 v 2 h 23.951172 v -2 z"
       id="path4389" />
    <path
       style="color:#000000;fill:#000000;fill-rule:evenodd;-inkscape-stroke:none"
       d="m 64.009766,21.791016 v 34.394531 h 2 V 21.791016 Z"
       id="path4393" />
  </g>
</svg>
