<?xml version="1.0" encoding="UTF-8" standalone="no"?>
<svg
   viewBox="0 0 85 85"
   version="1.1"
   id="svg2"
   inkscape:version="1.1 (c68e22c387, 2021-05-23)"
   sodipodi:docname="eg-transformer-th.svg"
   xmlns:inkscape="http://www.inkscape.org/namespaces/inkscape"
   xmlns:sodipodi="http://sodipodi.sourceforge.net/DTD/sodipodi-0.dtd"
   xmlns="http://www.w3.org/2000/svg"
   xmlns:svg="http://www.w3.org/2000/svg"
   xmlns:rdf="http://www.w3.org/1999/02/22-rdf-syntax-ns#"
   xmlns:cc="http://creativecommons.org/ns#"
   xmlns:dc="http://purl.org/dc/elements/1.1/">
  <metadata
     id="metadata16">
    <rdf:RDF>
      <cc:Work
         rdf:about="">
        <dc:format>image/svg+xml</dc:format>
        <dc:type
           rdf:resource="http://purl.org/dc/dcmitype/StillImage" />
        <dc:title />
      </cc:Work>
    </rdf:RDF>
  </metadata>
  <defs
     id="defs14" />
  <sodipodi:namedview
     pagecolor="#ffffff"
     bordercolor="#666666"
     borderopacity="1"
     objecttolerance="10"
     gridtolerance="10"
     guidetolerance="10"
     inkscape:pageopacity="0"
     inkscape:pageshadow="2"
     inkscape:window-width="1920"
     inkscape:window-height="1018"
     id="namedview12"
     showgrid="false"
     inkscape:zoom="3.9265224"
     inkscape:cx="-34.763586"
     inkscape:cy="42.531274"
     inkscape:window-x="-8"
     inkscape:window-y="-8"
     inkscape:window-maximized="1"
     inkscape:current-layer="svg2"
     inkscape:pagecheckerboard="0" />
  <g
     id="g4154"
     transform="matrix(0.95,0,0,0.95,0.43347729,1.439271)">
    <path
       style="color:#000000;fill:#000000;-inkscape-stroke:none"
       d="m 44.291016,9.9082031 c -11.027462,0 -20,8.9725389 -20,19.9999999 0,11.027462 8.972538,20 20,20 11.027461,0 20,-8.972538 20,-20 0,-11.027461 -8.972539,-19.9999999 -20,-19.9999999 z m 0,3.0761719 c 9.36457,0 16.923828,7.559258 16.923828,16.923828 0,9.36457 -7.559258,16.921875 -16.923828,16.921875 -9.364571,0 -16.921875,-7.557305 -16.921875,-16.921875 0,-9.36457 7.557304,-16.923828 16.921875,-16.923828 z"
       id="circle6" />
    <path
       style="color:#000000;fill:#000000;-inkscape-stroke:none"
       d="m 19.957031,23.892578 c -11.0274611,0 -19.99999975,8.972539 -19.99999975,20 0,11.027462 8.97253865,20 19.99999975,20 11.027462,0 20,-8.972538 20,-20 0,-11.027461 -8.972538,-20 -20,-20 z m 0,3.078125 c 9.364571,0 16.923828,7.557305 16.923828,16.921875 0,9.36457 -7.559257,16.923828 -16.923828,16.923828 -9.36457,0 -16.9218747,-7.559258 -16.9218747,-16.923828 0,-9.36457 7.5573047,-16.921875 16.9218747,-16.921875 z"
       id="circle8" />
    <path
       style="color:#000000;fill:#000000;-inkscape-stroke:none"
       d="m 68.691406,23.892578 c -11.027461,0 -20,8.972539 -20,20 0,11.027462 8.972539,20 20,20 11.027462,0 20,-8.972538 20,-20 0,-11.027461 -8.972538,-20 -20,-20 z m 0,3.078125 c 9.364571,0 16.923828,7.557305 16.923828,16.921875 0,9.36457 -7.559257,16.923828 -16.923828,16.923828 -9.36457,0 -16.923828,-7.559258 -16.923828,-16.923828 0,-9.36457 7.559258,-16.921875 16.923828,-16.921875 z"
       id="circle10" />
    <path
       style="color:#000000;fill:#000000;-inkscape-stroke:none"
       d="m 44.291016,38.224609 c -11.027462,0 -20,8.972539 -20,20 0,11.027462 8.972538,20 20,20 11.027461,0 20,-8.972538 20,-20 0,-11.027461 -8.972539,-20 -20,-20 z m 0,3.076172 c 9.36457,0 16.923828,7.559258 16.923828,16.923828 0,9.364571 -7.559258,16.923828 -16.923828,16.923828 -9.364571,0 -16.921875,-7.559257 -16.921875,-16.923828 0,-9.36457 7.557304,-16.923828 16.921875,-16.923828 z"
       id="circle8-4" />
  </g>
</svg>
