<?xml version="1.0" encoding="UTF-8" standalone="no"?>
<svg
   viewBox="0 0 85 85"
   version="1.1"
   id="svg2"
   inkscape:version="1.1 (c68e22c387, 2021-05-23)"
   sodipodi:docname="eg-transformer-t3-itc.svg"
   xmlns:inkscape="http://www.inkscape.org/namespaces/inkscape"
   xmlns:sodipodi="http://sodipodi.sourceforge.net/DTD/sodipodi-0.dtd"
   xmlns="http://www.w3.org/2000/svg"
   xmlns:svg="http://www.w3.org/2000/svg"
   xmlns:rdf="http://www.w3.org/1999/02/22-rdf-syntax-ns#"
   xmlns:cc="http://creativecommons.org/ns#"
   xmlns:dc="http://purl.org/dc/elements/1.1/">
  <metadata
     id="metadata17">
    <rdf:RDF>
      <cc:Work
         rdf:about="">
        <dc:format>image/svg+xml</dc:format>
        <dc:type
           rdf:resource="http://purl.org/dc/dcmitype/StillImage" />
        <dc:title />
      </cc:Work>
    </rdf:RDF>
  </metadata>
  <defs
     id="defs15" />
  <sodipodi:namedview
     pagecolor="#ffffff"
     bordercolor="#666666"
     borderopacity="1"
     objecttolerance="10"
     gridtolerance="10"
     guidetolerance="10"
     inkscape:pageopacity="0"
     inkscape:pageshadow="2"
     inkscape:window-width="1508"
     inkscape:window-height="881"
     id="namedview13"
     showgrid="false"
     inkscape:zoom="1.9632612"
     inkscape:cx="42.531274"
     inkscape:cy="42.531274"
     inkscape:window-x="87"
     inkscape:window-y="48"
     inkscape:window-maximized="0"
     inkscape:current-layer="svg2"
     inkscape:pagecheckerboard="0" />
  <g
     id="g4155">
    <path
       style="color:#000000;fill:#000000;-inkscape-stroke:none"
       d="M 25,-1 C 10.6643,-1 -1,10.6643 -1,25 -1,39.3357 10.6643,51 25,51 39.3357,51 51,39.3357 51,25 51,10.6643 39.3357,-1 25,-1 Z m 0,4 C 37.173942,3 47,12.826058 47,25 47,37.173942 37.173942,47 25,47 12.826058,47 3,37.173942 3,25 3,12.826058 12.826058,3 25,3 Z"
       id="ellipse6" />
    <path
       style="color:#000000;fill:#000000;-inkscape-stroke:none"
       d="M 25,34 C 10.6643,34 -1,45.6643 -1,60 -1,74.3357 10.6643,86 25,86 39.3357,86 51,74.3357 51,60 51,45.6643 39.3357,34 25,34 Z m 0,4 C 37.173942,38 47,47.826058 47,60 47,72.173942 37.173942,82 25,82 12.826058,82 3,72.173942 3,60 3,47.826058 12.826058,38 25,38 Z"
       id="ellipse8" />
    <path
       style="color:#000000;fill:#000000;-inkscape-stroke:none"
       d="M 60,14 C 45.6643,14 34,25.6643 34,40 34,54.3357 45.6643,66 60,66 74.3357,66 86,54.3357 86,40 86,25.6643 74.3357,14 60,14 Z m 0,4 C 72.173942,18 82,27.826058 82,40 82,52.173942 72.173942,62 60,62 47.826058,62 38,52.173942 38,40 38,27.826058 47.826058,18 60,18 Z"
       id="ellipse10" />
    <path
       style="color:#000000;fill:#000000;-inkscape-stroke:none"
       d="M 83.945312,0.68945312 64.337891,0.890625 l 0.04102,4 9.509766,-0.097656 L 6.6035156,45.595703 8.6777344,49.015625 76.666016,7.7851562 l -2.730469,6.5800778 3.693359,1.535157 z"
       id="path10" />
  </g>
</svg>
