<?xml version="1.0" encoding="UTF-8" standalone="no"?>
<svg
   viewBox="0 0 85 85"
   version="1.1"
   id="svg2"
   inkscape:version="1.1 (c68e22c387, 2021-05-23)"
   sodipodi:docname="eg-transformer-at3-ltc.svg"
   xmlns:inkscape="http://www.inkscape.org/namespaces/inkscape"
   xmlns:sodipodi="http://sodipodi.sourceforge.net/DTD/sodipodi-0.dtd"
   xmlns="http://www.w3.org/2000/svg"
   xmlns:svg="http://www.w3.org/2000/svg"
   xmlns:rdf="http://www.w3.org/1999/02/22-rdf-syntax-ns#"
   xmlns:cc="http://creativecommons.org/ns#"
   xmlns:dc="http://purl.org/dc/elements/1.1/">
  <metadata
     id="metadata18">
    <rdf:RDF>
      <cc:Work
         rdf:about="">
        <dc:format>image/svg+xml</dc:format>
        <dc:type
           rdf:resource="http://purl.org/dc/dcmitype/StillImage" />
        <dc:title />
      </cc:Work>
    </rdf:RDF>
  </metadata>
  <defs
     id="defs16" />
  <sodipodi:namedview
     pagecolor="#ffffff"
     bordercolor="#666666"
     borderopacity="1"
     objecttolerance="10"
     gridtolerance="10"
     guidetolerance="10"
     inkscape:pageopacity="0"
     inkscape:pageshadow="2"
     inkscape:window-width="1920"
     inkscape:window-height="1018"
     id="namedview14"
     showgrid="false"
     inkscape:zoom="1.9632612"
     inkscape:cx="42.531274"
     inkscape:cy="42.276596"
     inkscape:window-x="-8"
     inkscape:window-y="-8"
     inkscape:window-maximized="1"
     inkscape:current-layer="svg2"
     inkscape:pagecheckerboard="0" />
  <g
     id="g4156"
     transform="translate(-3.0561395,0)">
    <path
       style="color:#000000;fill:#000000;-inkscape-stroke:none"
       d="m 41.644531,14.669922 c -12.880431,0 -23.365234,10.484803 -23.365234,23.365234 0,12.880431 10.484803,23.365235 23.365234,23.365235 12.880431,0 23.365235,-10.484804 23.365235,-23.365235 0,-12.880431 -10.484804,-23.365234 -23.365235,-23.365234 z m 0,4 c 10.718673,0 19.365235,8.646562 19.365235,19.365234 0,10.718673 -8.646562,19.365235 -19.365235,19.365235 -10.718672,0 -19.365234,-8.646562 -19.365234,-19.365235 0,-10.718672 8.646562,-19.365234 19.365234,-19.365234 z"
       id="circle6" />
    <path
       style="color:#000000;fill:#000000;-inkscape-stroke:none"
       d="m 41.644531,39.175781 c -12.880431,0 -23.365234,10.482851 -23.365234,23.363281 0,12.880431 10.484803,23.365235 23.365234,23.365235 12.880431,0 23.365235,-10.484804 23.365235,-23.365235 0,-12.88043 -10.484804,-23.363281 -23.365235,-23.363281 z m 0,4 c 10.718673,0 19.365235,8.644609 19.365235,19.363281 0,10.718673 -8.646562,19.365235 -19.365235,19.365235 -10.718672,0 -19.365234,-8.646562 -19.365234,-19.365235 0,-10.718672 8.646562,-19.363281 19.365234,-19.363281 z"
       id="circle8" />
    <path
       style="color:#000000;fill:#000000;-inkscape-stroke:none"
       d="M 37,0.09960937 V 5.9804687 L 38.289062,6.46875 c 4.827916,1.834608 9.066253,4.21469 12.296875,7.445313 l 0.03906,0.03906 0.04102,0.03711 C 57.890883,20.464466 61,29.460774 61,38.570312 h 4 C 65,28.552491 61.512751,18.361081 53.357422,11.037109 49.92656,7.6244699 45.626967,5.2336322 41,3.3417969 V 0.09960937 Z"
       id="path10" />
    <path
       style="color:#000000;fill:#000000;-inkscape-stroke:none"
       d="m 84.880859,4.2890625 -19.822265,0.203125 0.04102,4 9.509766,-0.097656 -67.2871094,40.8027347 2.0742188,3.419921 67.3613276,-40.849609 -4.572265,9.328125 3.591797,1.759766 z"
       id="path10-5" />
  </g>
</svg>
