<?xml version="1.0" encoding="UTF-8" standalone="no"?>
<svg
   xmlns:dc="http://purl.org/dc/elements/1.1/"
   xmlns:cc="http://creativecommons.org/ns#"
   xmlns:rdf="http://www.w3.org/1999/02/22-rdf-syntax-ns#"
   xmlns:svg="http://www.w3.org/2000/svg"
   xmlns="http://www.w3.org/2000/svg"
   xmlns:sodipodi="http://sodipodi.sourceforge.net/DTD/sodipodi-0.dtd"
   xmlns:inkscape="http://www.inkscape.org/namespaces/inkscape"
   viewBox="0 0 85 85"
   version="1.1"
   id="svg2"
   inkscape:version="0.91 r13725"
   sodipodi:docname="eg-zmn.svg">
  <metadata
     id="metadata16">
    <rdf:RDF>
      <cc:Work
         rdf:about="">
        <dc:format>image/svg+xml</dc:format>
        <dc:type
           rdf:resource="http://purl.org/dc/dcmitype/StillImage" />
        <dc:title />
      </cc:Work>
    </rdf:RDF>
  </metadata>
  <defs
     id="defs14" />
  <sodipodi:namedview
     pagecolor="#ffffff"
     bordercolor="#666666"
     borderopacity="1"
     objecttolerance="10"
     gridtolerance="10"
     guidetolerance="10"
     inkscape:pageopacity="0"
     inkscape:pageshadow="2"
     inkscape:window-width="1920"
     inkscape:window-height="1008"
     id="namedview12"
     showgrid="false"
     inkscape:zoom="2"
     inkscape:cx="10.577891"
     inkscape:cy="73.324117"
     inkscape:window-x="-4"
     inkscape:window-y="-4"
     inkscape:window-maximized="1"
     inkscape:current-layer="svg2"
     inkscape:pagecheckerboard="0" />
  <text
     xml:space="preserve"
     style="font-style:normal;font-weight:normal;font-size:17.5px;line-height:125%;font-family:'Times New Roman';letter-spacing:0px;word-spacing:0px;fill:#000000;fill-opacity:1;stroke:none;stroke-width:1px;stroke-linecap:butt;stroke-linejoin:miter;stroke-opacity:1;-inkscape-font-specification:'Times New Roman, ';font-stretch:normal;font-variant:normal;"
     x="-182.78709"
     y="31.966991"
     id="text4145"
     sodipodi:linespacing="125%"><tspan
       sodipodi:role="line"
       id="tspan4147"
       x="-182.78709"
       y="31.966991" /></text>
  <path
     inkscape:connector-curvature="0"
     id="path4156"
     style="font-style:normal;font-variant:normal;font-weight:normal;font-stretch:normal;font-size:medium;line-height:125%;font-family:Arial;-inkscape-font-specification:Arial;letter-spacing:0px;word-spacing:0px;fill:#000000;fill-opacity:1;stroke:#000000;stroke-width:5;stroke-linecap:butt;stroke-linejoin:miter;stroke-miterlimit:4;stroke-dasharray:none;stroke-opacity:1"
     d="m 50.852061,43.838184 0,-4.312208 24.010518,-10.523842 0,4.594556 -19.040266,8.111058 19.040266,8.188062 0,4.594555 -24.010518,-10.652181 z" />
  <path
     inkscape:connector-curvature="0"
     id="rect4356-8-5"
     d="m 4.363548,8.1732221 0,68.6535559 76.272904,0 0,-68.653556 z m -4.00000002,-4 84.27290402,0 0,76.6535559 -84.27290402,0 z"
     style="color:#000000;fill:#000000;fill-opacity:1;stroke:#000000;stroke-width:0.89699173;stroke-linecap:butt;stroke-linejoin:round;stroke-opacity:1"
     sodipodi:nodetypes="cccccccccc" />
  <path
     inkscape:connector-curvature="0"
     id="path4142"
     style="font-style:normal;font-variant:normal;font-weight:bold;font-stretch:normal;font-size:medium;line-height:125%;font-family:'Times New Roman';-inkscape-font-specification:'Times New Roman, Bold';letter-spacing:0px;word-spacing:0px;fill:#000000;fill-opacity:1;stroke:#000000;stroke-width:6;stroke-linecap:butt;stroke-linejoin:miter;stroke-miterlimit:4;stroke-dasharray:none;stroke-opacity:1"
     d="m 8.4028902,22.882234 17.0130718,0 0,1.045905 -0.950654,0 c -1.430507,0 -0.417376,0.160184 -0.960606,0.480551 -0.525123,0.301521 -0.905384,0.725536 -1.140785,1.272044 -0.217292,0.546509 -0.325938,1.91278 -0.325938,4.098814 l 0,18.769734 c 0,3.429811 0.244454,5.700648 0.733361,6.812509 0.507015,1.111862 1.330915,2.035273 2.4717,2.770232 1.140784,0.734959 2.580345,1.102439 4.318683,1.102439 1.991846,0 3.684915,-0.461705 5.079207,-1.385116 1.412399,-0.942256 2.462645,-2.233146 3.150738,-3.872671 0.7062,-1.639525 1.0593,-4.49456 1.0593,-8.565105 l 0,-15.632022 c 0,-1.714906 -0.172023,-2.939839 -0.51607,-3.674799 -0.344045,-0.734959 -0.77863,-1.243776 -1.303753,-1.526453 -0.814846,-0.433438 -1.964684,-0.650157 -3.449515,-0.650157 l 0,-1.045905 12.738759,0 0,1.045905 -0.760523,0 c -1.032139,0 -1.892254,0.216719 -2.580346,0.650157 -0.688092,0.433437 -1.186053,1.083594 -1.493884,1.950469 -0.235399,0.603043 -0.353099,1.686638 -0.353099,3.250783 l 0,14.557851 c 0,4.503982 -0.289723,7.754764 -0.86917,9.752347 -0.561339,1.997582 -1.946577,3.834981 -4.155715,5.512196 -2.209137,1.677215 -5.224067,2.515823 -9.044789,2.515823 -3.186953,0 -5.649599,-0.44286 -7.387937,-1.328581 -2.372107,-1.206087 -4.047068,-2.751387 -5.024883,-4.635898 -0.977816,-1.884512 -1.466724,-4.41918 -1.466724,-7.604004 l 0,-18.769734 c 0,-2.204879 -0.1177,-3.57115 -0.353099,-4.098814 -0.235401,-0.546508 -0.642824,-0.979946 -1.22227,-1.300313 -0.579446,-0.320367 -1.6477993,-0.471127 -3.2050598,-0.452282 z"
     sodipodi:nodetypes="cccsccsscssccssscccccsscsscsscssscscc" />
</svg>
