<?xml version="1.0" encoding="UTF-8" standalone="no"?>
<svg
   xmlns:dc="http://purl.org/dc/elements/1.1/"
   xmlns:cc="http://creativecommons.org/ns#"
   xmlns:rdf="http://www.w3.org/1999/02/22-rdf-syntax-ns#"
   xmlns:svg="http://www.w3.org/2000/svg"
   xmlns="http://www.w3.org/2000/svg"
   xmlns:sodipodi="http://sodipodi.sourceforge.net/DTD/sodipodi-0.dtd"
   xmlns:inkscape="http://www.inkscape.org/namespaces/inkscape"
   viewBox="0 0 85 85"
   version="1.1"
   id="svg2"
   inkscape:version="0.91 r13725"
   sodipodi:docname="eg-zmn.svg">
  <metadata
     id="metadata16">
    <rdf:RDF>
      <cc:Work
         rdf:about="">
        <dc:format>image/svg+xml</dc:format>
        <dc:type
           rdf:resource="http://purl.org/dc/dcmitype/StillImage" />
        <dc:title />
      </cc:Work>
    </rdf:RDF>
  </metadata>
  <defs
     id="defs14" />
  <sodipodi:namedview
     pagecolor="#ffffff"
     bordercolor="#666666"
     borderopacity="1"
     objecttolerance="10"
     gridtolerance="10"
     guidetolerance="10"
     inkscape:pageopacity="0"
     inkscape:pageshadow="2"
     inkscape:window-width="1920"
     inkscape:window-height="1008"
     id="namedview12"
     showgrid="false"
     inkscape:zoom="8"
     inkscape:cx="17"
     inkscape:cy="42.968778"
     inkscape:window-x="-4"
     inkscape:window-y="-4"
     inkscape:window-maximized="1"
     inkscape:current-layer="svg2"
     inkscape:pagecheckerboard="0" />
  <text
     xml:space="preserve"
     style="font-style:normal;font-weight:normal;font-size:17.5px;line-height:125%;font-family:'Times New Roman';letter-spacing:0px;word-spacing:0px;fill:#000000;fill-opacity:1;stroke:none;stroke-width:1px;stroke-linecap:butt;stroke-linejoin:miter;stroke-opacity:1;-inkscape-font-specification:'Times New Roman, ';font-stretch:normal;font-variant:normal;"
     x="-182.78709"
     y="31.966991"
     id="text4145"
     sodipodi:linespacing="125%"><tspan
       sodipodi:role="line"
       id="tspan4147"
       x="-182.78709"
       y="31.966991" /></text>
  <path
     style="color:#000000;font-style:normal;font-variant:normal;font-weight:normal;font-stretch:normal;font-size:medium;line-height:125%;font-family:Arial;-inkscape-font-specification:Arial;text-indent:0;text-align:start;text-decoration:none;text-decoration-line:none;text-decoration-style:solid;text-decoration-color:#000000;letter-spacing:0px;word-spacing:0px;text-transform:none;direction:ltr;block-progression:tb;writing-mode:lr-tb;baseline-shift:baseline;text-anchor:start;white-space:normal;clip-rule:nonzero;display:inline;overflow:visible;visibility:visible;opacity:1;isolation:auto;mix-blend-mode:normal;color-interpolation:sRGB;color-interpolation-filters:linearRGB;solid-color:#000000;solid-opacity:1;fill:#000000;fill-opacity:1;fill-rule:nonzero;stroke:none;stroke-width:6;stroke-linecap:butt;stroke-linejoin:miter;stroke-miterlimit:4;stroke-dasharray:none;stroke-dashoffset:0;stroke-opacity:1;color-rendering:auto;image-rendering:auto;shape-rendering:auto;text-rendering:auto;enable-background:accumulate"
     d="m 77.863281,24.412109 -30.011719,13.152344 0,8.224609 1.783204,0.791016 28.228515,12.523438 0,-11.183594 -14.416015,-6.199219 14.416015,-6.140625 0,-11.167969 z"
     id="path4156"
     inkscape:connector-curvature="0" />
  <path
     inkscape:connector-curvature="0"
     id="rect4356-8-5"
     d="m 4.363548,8.1732221 0,68.6535559 76.272904,0 0,-68.653556 z m -4.00000002,-4 84.27290402,0 0,76.6535559 -84.27290402,0 z"
     style="color:#000000;fill:#000000;fill-opacity:1;stroke:#000000;stroke-width:0.89699173;stroke-linecap:butt;stroke-linejoin:round;stroke-opacity:1"
     sodipodi:nodetypes="cccccccccc" />
  <path
     style="color:#000000;font-style:normal;font-variant:normal;font-weight:bold;font-stretch:normal;font-size:medium;line-height:125%;font-family:'Times New Roman';-inkscape-font-specification:'Times New Roman, Bold';text-indent:0;text-align:start;text-decoration:none;text-decoration-line:none;text-decoration-style:solid;text-decoration-color:#000000;letter-spacing:0px;word-spacing:0px;text-transform:none;direction:ltr;block-progression:tb;writing-mode:lr-tb;baseline-shift:baseline;text-anchor:start;white-space:normal;clip-rule:nonzero;display:inline;overflow:visible;visibility:visible;opacity:1;isolation:auto;mix-blend-mode:normal;color-interpolation:sRGB;color-interpolation-filters:linearRGB;solid-color:#000000;solid-opacity:1;fill:#000000;fill-opacity:1;fill-rule:nonzero;stroke:none;stroke-width:6;stroke-linecap:butt;stroke-linejoin:miter;stroke-miterlimit:4;stroke-dasharray:none;stroke-dashoffset:0;stroke-opacity:1;color-rendering:auto;image-rendering:auto;shape-rendering:auto;text-rendering:auto;enable-background:accumulate"
     d="m 5.4023438,19.882812 0,3 0,4.082032 3.0371093,-0.03711 c 1.2980717,-0.01571 1.9901239,0.270275 1.6542969,0.07617 -0.04674,-0.09314 -0.02484,-0.06891 0.01172,0.355469 0.04701,0.545646 0.07813,1.370864 0.07813,2.419922 l 0,18.769531 c 0,3.491848 0.506722,6.488568 1.802734,8.986328 1.313837,2.532115 3.540513,4.511076 6.326172,5.927735 2.399106,1.222396 5.285126,1.654297 8.75,1.654297 4.259701,0 7.986824,-0.94411 10.859375,-3.125 2.565147,-1.947503 4.443273,-4.31294 5.224609,-7.082032 0.744498,-2.5753 0.986329,-5.947571 0.986328,-10.572265 l 0,-14.558594 c 0,-1.413648 0.230571,-2.375568 0.146485,-2.160156 l 0.01758,-0.04297 0.01563,-0.04297 c 0.124718,-0.351216 0.169986,-0.355772 0.265625,-0.416015 0.115725,-0.0729 0.370224,-0.189454 0.982422,-0.189454 l 3.759765,0 0,-7.044922 -18.738281,0 0,7.044922 3,0 c 1.184934,0 1.873169,0.216905 2.027344,0.296875 -0.173768,-0.09816 -0.146428,-0.177149 0.0078,0.152344 -0.0358,-0.07648 0.234374,0.888059 0.234374,2.402344 l 0,15.632812 c 0,3.897055 -0.465101,6.565893 -0.814453,7.376953 l -0.0059,0.01367 -0.0059,0.01367 c -0.48295,1.150729 -1.115026,1.912663 -2.042969,2.533203 -0.845624,0.559444 -1.892908,0.884766 -3.419922,0.884766 -1.315543,0 -2.137737,-0.265778 -2.695312,-0.625 -0.723379,-0.466042 -1.09367,-0.917634 -1.351563,-1.474609 -0.03416,-0.08622 -0.478516,-2.310141 -0.478516,-5.585938 l 0,-18.769531 c 0,-1.043317 0.02796,-1.868681 0.07227,-2.425781 0.03342,-0.420295 0.05367,-0.453179 0.0332,-0.425782 l 3.273438,0 0,-7.044922 -23.0136722,0 z m 35.1562502,35.253907 -0.01172,0.02734 c 0.0017,-0.004 0.0022,-0.0096 0.0039,-0.01367 0.0021,-0.0049 0.0058,-0.0088 0.0078,-0.01367 z"
     id="path4142"
     inkscape:connector-curvature="0"
     sodipodi:nodetypes="cccccsssscsscssccccsccccsccssccccsscssccccccccccc" />
</svg>
