<?xml version="1.0" encoding="UTF-8" standalone="no"?>
<svg
   viewBox="0 0 85 85"
   version="1.1"
   id="svg2"
   inkscape:version="1.1 (c68e22c387, 2021-05-23)"
   sodipodi:docname="electrical-unit.svg"
   xmlns:inkscape="http://www.inkscape.org/namespaces/inkscape"
   xmlns:sodipodi="http://sodipodi.sourceforge.net/DTD/sodipodi-0.dtd"
   xmlns="http://www.w3.org/2000/svg"
   xmlns:svg="http://www.w3.org/2000/svg"
   xmlns:rdf="http://www.w3.org/1999/02/22-rdf-syntax-ns#"
   xmlns:cc="http://creativecommons.org/ns#"
   xmlns:dc="http://purl.org/dc/elements/1.1/">
  <metadata
     id="metadata16">
    <rdf:RDF>
      <cc:Work
         rdf:about="">
        <dc:format>image/svg+xml</dc:format>
        <dc:type
           rdf:resource="http://purl.org/dc/dcmitype/StillImage" />
        <dc:title />
      </cc:Work>
    </rdf:RDF>
  </metadata>
  <defs
     id="defs14" />
  <sodipodi:namedview
     pagecolor="#ffffff"
     bordercolor="#666666"
     borderopacity="1"
     objecttolerance="10"
     gridtolerance="10"
     guidetolerance="10"
     inkscape:pageopacity="0"
     inkscape:pageshadow="2"
     inkscape:window-width="1920"
     inkscape:window-height="1018"
     id="namedview12"
     showgrid="false"
     inkscape:zoom="2"
     inkscape:cx="-45.75"
     inkscape:cy="40.5"
     inkscape:window-x="-8"
     inkscape:window-y="-8"
     inkscape:window-maximized="1"
     inkscape:current-layer="g4332"
     inkscape:pagecheckerboard="0" />
  <g
     id="g4332">
    <g
       id="path4254"
       style="fill:#000000;fill-opacity:1">
      <path
         style="color:#000000;fill:#000000;stroke-width:0;stroke-linecap:round;stroke-linejoin:round;-inkscape-stroke:none;fill-opacity:1"
         d="m 75.499698,44.020657 a 4.8042021,4.8042021 0 0 1 -4.804202,4.804202 4.8042021,4.8042021 0 0 1 -4.804202,-4.804202 4.8042021,4.8042021 0 0 1 4.804202,-4.804202 4.8042021,4.8042021 0 0 1 4.804202,4.804202 z"
         id="path20" />
      <path
         style="color:#000000;fill:#000000;stroke-linecap:round;stroke-linejoin:round;-inkscape-stroke:none;fill-opacity:1"
         d="m 75.499698,44.020657 c 0,2.653284 -2.150918,4.804202 -4.804202,4.804202 -2.653285,0 -4.804202,-2.150918 -4.804202,-4.804202 0,-2.653285 2.150917,-4.804202 4.804202,-4.804202 2.653284,0 4.804202,2.150917 4.804202,4.804202 z"
         id="path22" />
    </g>
    <path
       style="color:#000000;fill:#000000;stroke-linecap:round;stroke-linejoin:round;-inkscape-stroke:none;fill-opacity:1"
       d="m 42.90625,30.962891 c -7.123794,0 -12.929688,5.805894 -12.929688,12.929687 0,7.123794 5.805894,12.931641 12.929688,12.931641 7.123794,0 12.931641,-5.807847 12.931641,-12.931641 0,-7.123793 -5.807847,-12.929687 -12.931641,-12.929687 z m 0,3 c 5.502475,0 9.931641,4.427212 9.931641,9.929687 0,5.502475 -4.429166,9.931641 -9.931641,9.931641 -5.502475,0 -9.929687,-4.429166 -9.929688,-9.931641 0,-5.502475 4.427213,-9.929687 9.929688,-9.929687 z"
       id="path4254-4" />
    <g
       id="path4254-1"
       style="fill:#000000;fill-opacity:1">
      <path
         style="color:#000000;fill:#000000;stroke-width:0;stroke-linecap:round;stroke-linejoin:round;-inkscape-stroke:none;fill-opacity:1"
         d="m 64.760365,70.857864 a 7.9999962,7.9999957 0 0 1 -7.999997,7.999996 7.9999962,7.9999957 0 0 1 -7.999996,-7.999996 7.9999962,7.9999957 0 0 1 7.999996,-7.999995 7.9999962,7.9999957 0 0 1 7.999997,7.999995 z"
         id="path34" />
      <path
         style="color:#000000;fill:#000000;stroke-linecap:round;stroke-linejoin:round;-inkscape-stroke:none;fill-opacity:1"
         d="m 64.760365,70.857864 c 0,4.418272 -3.581725,7.999996 -7.999997,7.999996 -4.418271,0 -7.999996,-3.581724 -7.999996,-7.999996 0,-4.418271 3.581725,-7.999995 7.999996,-7.999995 4.418272,0 7.999997,3.581724 7.999997,7.999995 z"
         id="path36" />
    </g>
    <g
       id="path4254-1-5"
       style="fill:#000000;fill-opacity:1">
      <path
         style="color:#000000;fill:#000000;stroke-width:0;stroke-linecap:round;stroke-linejoin:round;-inkscape-stroke:none;fill-opacity:1"
         d="m 80.180336,14.99643 a 9.9999924,9.9999924 0 0 1 -9.999992,9.999993 9.9999924,9.9999924 0 0 1 -9.999993,-9.999993 9.9999924,9.9999924 0 0 1 9.999993,-9.999992 9.9999924,9.9999924 0 0 1 9.999992,9.999992 z"
         id="path42" />
      <path
         style="color:#000000;fill:#000000;stroke-linecap:round;stroke-linejoin:round;-inkscape-stroke:none;fill-opacity:1"
         d="m 80.180336,14.99643 c 0,5.522838 -4.477155,9.999993 -9.999992,9.999993 -5.522838,0 -9.999993,-4.477155 -9.999993,-9.999993 0,-5.5228374 4.477155,-9.999992 9.999993,-9.999992 5.522837,0 9.999992,4.4771546 9.999992,9.999992 z"
         id="path44" />
    </g>
    <g
       id="path4254-1-2"
       style="fill:#000000;fill-opacity:1">
      <path
         style="color:#000000;fill:#000000;stroke-width:0;stroke-linecap:round;stroke-linejoin:round;-inkscape-stroke:none;fill-opacity:1"
         d="m 31.334518,70.857864 a 7.9999962,7.9999957 0 0 1 -7.999996,7.999996 7.9999962,7.9999957 0 0 1 -7.999996,-7.999996 7.9999962,7.9999957 0 0 1 7.999996,-7.999995 7.9999962,7.9999957 0 0 1 7.999996,7.999995 z"
         id="path50" />
      <path
         style="color:#000000;fill:#000000;stroke-linecap:round;stroke-linejoin:round;-inkscape-stroke:none;fill-opacity:1"
         d="m 31.334518,70.857864 c 0,4.418272 -3.581724,7.999996 -7.999996,7.999996 -4.418271,0 -7.999996,-3.581724 -7.999996,-7.999996 0,-4.418271 3.581725,-7.999995 7.999996,-7.999995 4.418272,0 7.999996,3.581724 7.999996,7.999995 z"
         id="path52" />
    </g>
    <path
       style="color:#000000;fill:#000000;stroke-linecap:round;stroke-linejoin:round;-inkscape-stroke:none;fill-opacity:1"
       d="m 18.738281,7.1777344 c -6.03959,0 -10.9999998,4.9604096 -10.9999998,10.9999996 0,6.03959 4.9604098,11 10.9999998,11 6.03959,0 11,-4.96041 11,-11 0,-6.03959 -4.96041,-10.9999996 -11,-10.9999996 z m 0,5.9999996 c 2.796953,0 5,2.203048 5,5 0,2.796953 -2.203047,5 -5,5 -2.796953,0 -5,-2.203047 -5,-5 0,-2.796952 2.203047,-5 5,-5 z"
       id="path4254-1-7" />
    <path
       style="color:#000000;fill:#000000;fill-rule:evenodd;-inkscape-stroke:none;fill-opacity:1"
       d="m 36.349609,53.431641 -9.546875,11.666015 1.548828,1.267578 9.544922,-11.667968 z"
       id="path4322" />
    <path
       style="color:#000000;fill:#000000;fill-rule:evenodd;-inkscape-stroke:none;fill-opacity:1"
       d="m 48.603516,53.576172 -1.746094,0.976562 6.27539,11.22461 1.746094,-0.976563 z"
       id="path4324" />
    <path
       style="color:#000000;fill:#000000;fill-rule:evenodd;-inkscape-stroke:none;fill-opacity:1"
       d="m 54.447266,44.048828 v 2 h 16.792968 v -2 z"
       id="path4326" />
    <path
       style="color:#000000;fill:#000000;fill-rule:evenodd;-inkscape-stroke:none;fill-opacity:1"
       d="M 64.363281,20.726562 50.220703,34.25 51.603516,35.695312 65.744141,22.171875 Z"
       id="path4328" />
    <path
       style="color:#000000;fill:#000000;fill-rule:evenodd;-inkscape-stroke:none;fill-opacity:1"
       d="m 25.220703,24.132812 -1.474609,1.34961 9.634765,10.519531 1.47461,-1.351562 z"
       id="path4330" />
  </g>
</svg>
