<?xml version="1.0" encoding="UTF-8" standalone="no"?>
<svg
   viewBox="0 0 85 85"
   version="1.1"
   id="svg2"
   inkscape:version="1.1 (c68e22c387, 2021-05-23)"
   sodipodi:docname="level.svg"
   xmlns:inkscape="http://www.inkscape.org/namespaces/inkscape"
   xmlns:sodipodi="http://sodipodi.sourceforge.net/DTD/sodipodi-0.dtd"
   xmlns="http://www.w3.org/2000/svg"
   xmlns:svg="http://www.w3.org/2000/svg"
   xmlns:rdf="http://www.w3.org/1999/02/22-rdf-syntax-ns#"
   xmlns:cc="http://creativecommons.org/ns#"
   xmlns:dc="http://purl.org/dc/elements/1.1/">
  <metadata
     id="metadata14">
    <rdf:RDF>
      <cc:Work
         rdf:about="">
        <dc:format>image/svg+xml</dc:format>
        <dc:type
           rdf:resource="http://purl.org/dc/dcmitype/StillImage" />
        <dc:title />
      </cc:Work>
    </rdf:RDF>
  </metadata>
  <defs
     id="defs12">
    <inkscape:perspective
       sodipodi:type="inkscape:persp3d"
       inkscape:vp_x="0 : 42.5 : 1"
       inkscape:vp_y="0 : 1000 : 0"
       inkscape:vp_z="85 : 42.5 : 1"
       inkscape:persp3d-origin="42.5 : 28.333333 : 1"
       id="perspective5634" />
    <linearGradient
       id="linearGradient5622"
       inkscape:swatch="solid">
      <stop
         style="stop-color:#da4e4e;stop-opacity:1;"
         offset="0"
         id="stop5624" />
    </linearGradient>
    <linearGradient
       id="linearGradient4182"
       inkscape:swatch="solid">
      <stop
         style="stop-color:#da4e4e;stop-opacity:1;"
         offset="0"
         id="stop4184" />
    </linearGradient>
    <linearGradient
       id="linearGradient4174"
       inkscape:swatch="solid">
      <stop
         style="stop-color:#e32f2f;stop-opacity:1;"
         offset="0"
         id="stop4176" />
    </linearGradient>
  </defs>
  <sodipodi:namedview
     pagecolor="#ffffff"
     bordercolor="#666666"
     borderopacity="1"
     objecttolerance="10"
     gridtolerance="10"
     guidetolerance="10"
     inkscape:pageopacity="0"
     inkscape:pageshadow="2"
     inkscape:window-width="1920"
     inkscape:window-height="1018"
     id="namedview10"
     showgrid="false"
     inkscape:zoom="5.6568544"
     inkscape:cx="33.499183"
     inkscape:cy="51.26524"
     inkscape:window-x="-8"
     inkscape:window-y="-8"
     inkscape:window-maximized="1"
     inkscape:current-layer="svg2"
     inkscape:pagecheckerboard="0" />
  <g
     id="g5800">
    <path
       style="color:#000000;fill:#000000;stroke-linecap:round;-inkscape-stroke:none"
       d="m 44.025391,12.994141 c -16.518781,0 -30,13.481219 -30,30 0,16.51878 13.481219,30 30,30 16.51878,0 30,-13.48122 30,-30 0,-16.518781 -13.48122,-30 -30,-30 z m 0,8.40039 c 11.978547,0 21.597656,9.621062 21.597656,21.59961 0,11.978547 -9.619109,21.597656 -21.597656,21.597656 -11.978548,0 -21.59961,-9.619109 -21.59961,-21.597656 0,-11.978548 9.621062,-21.59961 21.59961,-21.59961 z"
       id="path5660" />
    <g
       id="path5658-5">
      <path
         style="color:#000000;fill:#000000;fill-rule:evenodd;stroke-width:1px;-inkscape-stroke:none"
         d="m 72.853673,33.877526 7.833631,2.409009 c 0,0 1.234457,2.368348 1.237437,6.087534 0.0028,3.553684 -1.237437,5.557203 -1.237437,5.557203 l -7.833631,2.497399 c 0,0 0.841102,-5.490505 0.795496,-8.275573 -0.04561,-2.785067 -0.795496,-8.275572 -0.795496,-8.275572 z"
         id="path846" />
      <path
         style="color:#000000;fill:#000000;fill-rule:evenodd;-inkscape-stroke:none"
         d="m 72.251953,33.169922 0.105469,0.77539 c 0,0 0.746699,5.51069 0.791015,8.216797 0.04378,2.673682 -0.789062,8.191407 -0.789062,8.191407 l -0.121094,0.796875 8.777344,-2.798829 0.09766,-0.15625 c 0,0 1.313439,-2.152103 1.310547,-5.822265 -0.0031,-3.829651 -1.292969,-6.31836 -1.292969,-6.31836 l -0.09766,-0.185546 z m 1.171875,1.40625 6.886719,2.117187 c 0.117254,0.234386 1.110551,2.274391 1.113281,5.681641 0.0026,3.251881 -0.987147,4.957854 -1.099609,5.146484 l -6.902344,2.201172 c 0.129975,-0.862059 0.76956,-4.952351 0.726562,-7.578125 -0.04259,-2.600883 -0.610121,-6.717326 -0.724609,-7.568359 z"
         id="path848" />
    </g>
    <g
       id="path5658-3">
      <path
         style="color:#000000;fill:#000000;fill-rule:evenodd;stroke-width:1px;-inkscape-stroke:none"
         d="m 17.940066,28.167747 -3.17157,-6.32843 c 0,0 0.80177,-2.547562 3.42953,-5.179534 2.51085,-2.514811 4.80453,-3.054534 4.80453,-3.054534 l 6.64093,2.859072 c 0,0 -4.47712,3.287621 -6.41421,5.289211 -1.93709,2.001593 -5.28921,6.414215 -5.28921,6.414215 z"
         id="path854" />
      <path
         style="color:#000000;fill:#000000;fill-rule:evenodd;-inkscape-stroke:none"
         d="m 23.048828,13.080078 -0.160156,0.03906 c 0,0 -2.451775,0.590261 -5.044922,3.1875 -2.705808,2.710145 -3.552734,5.382812 -3.552734,5.382812 l -0.06055,0.193359 3.623047,7.226563 0.484375,-0.638672 c 0,0 3.367829,-4.424295 5.25,-6.369141 1.859617,-1.921537 6.351562,-5.234374 6.351562,-5.234375 l 0.703125,-0.517578 z m -0.06055,1.0625 5.705078,2.457031 c -0.746687,0.551473 -4.012993,2.935107 -5.824218,4.806641 -1.804538,1.864627 -4.294904,5.155249 -4.826172,5.851562 l -2.722656,-5.43164 c 0.07946,-0.239186 0.819153,-2.395363 3.232421,-4.8125 2.314635,-2.318287 4.248374,-2.824346 4.435547,-2.871094 z"
         id="path856" />
    </g>
    <g
       id="path5658-7">
      <path
         style="color:#000000;fill:#000000;fill-rule:evenodd;stroke-width:1px;-inkscape-stroke:none"
         d="m 35.753226,71.779715 2.409009,7.833631 c 0,0 2.368348,1.234457 6.087534,1.237437 3.55368,0.0028 5.5572,-1.237437 5.5572,-1.237437 l 2.4974,-7.833631 c 0,0 -5.4905,0.841102 -8.27557,0.795496 -2.785068,-0.04561 -8.275573,-0.795496 -8.275573,-0.795496 z"
         id="path862" />
      <path
         style="color:#000000;fill:#000000;fill-rule:evenodd;-inkscape-stroke:none"
         d="m 53.025391,71.164062 -0.796875,0.121094 c 0,0 -5.517723,0.834798 -8.191407,0.791016 -2.706108,-0.04432 -8.216796,-0.791016 -8.216797,-0.791016 l -0.77539,-0.107422 0.230469,0.748047 2.470703,8.035156 0.185547,0.0957 c 0,0 2.488708,1.291853 6.318359,1.294921 3.670158,0.0029 5.820312,-1.3125 5.820312,-1.3125 l 0.15625,-0.09766 z M 51.597656,72.347656 49.396484,79.25 c -0.188537,0.11241 -1.89451,1.104125 -5.146484,1.101562 -3.405289,-0.0027 -5.443182,-0.996974 -5.679688,-1.115234 l -2.11914,-6.886719 c 0.85087,0.114467 4.969367,0.682015 7.570312,0.72461 2.625105,0.04299 6.712356,-0.596334 7.576172,-0.726563 z"
         id="path864" />
    </g>
    <g
       id="path5658-5-9">
      <path
         style="color:#000000;fill:#000000;fill-rule:evenodd;stroke-width:1px;-inkscape-stroke:none"
         d="m 15.000615,33.877526 -7.8336309,2.409009 c 0,0 -1.2344573,2.368348 -1.2374373,6.087534 -0.0028,3.553684 1.2374373,5.557203 1.2374373,5.557203 l 7.8336309,2.497399 c 0,0 -0.841102,-5.490505 -0.795496,-8.275573 0.04561,-2.785067 0.795496,-8.275572 0.795496,-8.275572 z"
         id="path870" />
      <path
         style="color:#000000;fill:#000000;fill-rule:evenodd;-inkscape-stroke:none"
         d="m 15.601563,33.169922 -0.748047,0.230469 -8.0332035,2.46875 -0.097656,0.185546 c 0,0 -1.2899002,2.488709 -1.2929687,6.31836 -0.00289,3.670162 1.3125,5.822265 1.3125,5.822265 l 0.097656,0.15625 8.7773443,2.798829 -0.123047,-0.796875 c 0,0 -0.832845,-5.517725 -0.789063,-8.191407 0.04432,-2.706107 0.791016,-8.216797 0.791016,-8.216797 z m -1.169922,1.40625 c -0.114486,0.851017 -0.683969,4.967471 -0.726563,7.568359 -0.043,2.625774 0.596588,6.716066 0.726563,7.578125 L 7.5292969,47.521484 C 7.4168349,47.332854 6.4271253,45.62688 6.4296875,42.375 c 0.00273,-3.40725 0.99798,-5.447255 1.1152344,-5.681641 z"
         id="path872" />
    </g>
    <g
       id="path5658-3-7">
      <path
         style="color:#000000;fill:#000000;fill-rule:evenodd;stroke-width:1px;-inkscape-stroke:none"
         d="m 70.299972,28.264829 3.04657,-6.07843 c 0,0 -0.80177,-2.547562 -3.42953,-5.179534 -2.51085,-2.514811 -4.80453,-3.054534 -4.80453,-3.054534 l -6.51593,2.609072 c 0,0 4.47712,3.287621 6.41421,5.289211 1.93709,2.001593 5.28921,6.414215 5.28921,6.414215 z"
         id="path878" />
      <path
         style="color:#000000;fill:#000000;fill-rule:evenodd;-inkscape-stroke:none"
         d="m 65.074219,13.429688 -7.498047,3.001953 0.724609,0.533203 c 0,0 4.491946,3.312837 6.351563,5.234375 1.882171,1.944845 5.25,6.367187 5.25,6.367187 l 0.484375,0.640625 0.359375,-0.71875 3.138672,-6.259765 -0.06055,-0.191407 c 0,0 -0.846927,-2.672667 -3.552735,-5.382812 -2.593147,-2.597238 -5.044921,-3.189453 -5.044922,-3.189453 z m 0.04492,1.058593 c 0.177104,0.04401 2.122164,0.546237 4.443359,2.871094 2.414473,2.418343 3.153647,4.577205 3.232422,4.814453 l -2.597656,5.181641 c -0.530498,-0.695312 -3.023258,-3.988549 -4.828125,-5.853516 -1.80552,-1.865638 -5.041287,-4.225071 -5.804688,-4.789062 z"
         id="path880" />
    </g>
    <g
       id="path5658-3-1">
      <path
         style="color:#000000;fill:#000000;fill-rule:evenodd;stroke-width:1px;-inkscape-stroke:none"
         d="m 18.028454,57.808396 -3.04657,6.20343 c 0,0 0.80177,2.547562 3.42953,5.179534 2.51085,2.514811 4.80453,3.054534 4.80453,3.054534 l 6.51593,-2.734072 c 0,0 -4.47712,-3.287621 -6.41421,-5.289211 -1.93709,-2.001593 -5.28921,-6.414215 -5.28921,-6.414215 z"
         id="path886" />
      <path
         style="color:#000000;fill:#000000;fill-rule:evenodd;-inkscape-stroke:none"
         d="m 17.9375,56.861328 -0.357422,0.726563 -3.134765,6.382812 0.06055,0.191406 c 0,0 0.844974,2.672668 3.550782,5.382813 2.593147,2.597238 5.044922,3.1875 5.044921,3.1875 l 0.158204,0.03711 7.480468,-3.138672 -0.71289,-0.521484 c 0,0 -4.489993,-3.312838 -6.34961,-5.234375 -1.882171,-1.944845 -5.251953,-6.369141 -5.251953,-6.369141 z m 0.199219,1.861328 c 0.534324,0.700285 3.019036,3.984381 4.822265,5.847656 1.809839,1.870102 5.067593,4.246254 5.81836,4.800782 l -5.574219,2.33789 c -0.184893,-0.04613 -2.121374,-0.551314 -4.4375,-2.871093 -2.413269,-2.417137 -3.152961,-4.573315 -3.232422,-4.8125 z"
         id="path888" />
    </g>
    <g
       id="path5658-3-6">
      <path
         style="color:#000000;fill:#000000;fill-rule:evenodd;stroke-width:1px;-inkscape-stroke:none"
         d="m 70.299972,57.48266 3.42157,5.95343 c 0,0 -0.80177,2.547562 -3.42953,5.179534 -2.51085,2.514811 -4.80453,3.054534 -4.80453,3.054534 l -6.89093,-2.484072 c 0,0 4.47712,-3.287621 6.41421,-5.289211 1.93709,-2.001593 5.28921,-6.414215 5.28921,-6.414215 z"
         id="path894" />
      <path
         style="color:#000000;fill:#000000;fill-rule:evenodd;-inkscape-stroke:none"
         d="m 70.357422,56.580078 -0.455078,0.599609 c 0,0 -3.367829,4.424296 -5.25,6.369141 -1.859617,1.921538 -6.351563,5.234375 -6.351563,5.234375 l -0.755859,0.554688 7.912109,2.853515 0.144531,-0.03516 c 0,0 2.451775,-0.590262 5.044922,-3.1875 2.705808,-2.710145 3.552735,-5.382813 3.552735,-5.382813 l 0.06445,-0.208984 z m -0.13086,1.777344 2.935547,5.109375 c -0.08775,0.262407 -0.825915,2.392383 -3.224609,4.794922 -2.328352,2.332025 -4.28515,2.835916 -4.451172,2.876953 l -5.894531,-2.125 c 0.787347,-0.581945 3.980133,-2.912478 5.777344,-4.769531 1.81572,-1.876183 4.352629,-5.224831 4.857421,-5.886719 z"
         id="path896" />
    </g>
    <g
       id="path5658">
      <path
         style="color:#000000;fill:#000000;fill-rule:evenodd;stroke-width:1px;-inkscape-stroke:none"
         d="m 35.753225,13.741673 2.409009,-7.8336306 c 0,0 2.368348,-1.234457 6.087534,-1.237437 3.553684,-0.0028 5.557203,1.237437 5.557203,1.237437 l 2.497399,7.8336306 c 0,0 -5.490505,-0.841102 -8.275573,-0.795496 -2.785067,0.04561 -8.275572,0.795496 -8.275572,0.795496 z"
         id="path902" />
      <path
         style="color:#000000;fill:#000000;fill-rule:evenodd;-inkscape-stroke:none"
         d="m 44.25,4.1699219 c -3.829651,0.00307 -6.318359,1.2949218 -6.318359,1.2949218 l -0.185547,0.095703 -2.701172,8.7832031 0.77539,-0.107422 c 0,0 5.51069,-0.746699 8.216797,-0.791015 2.673682,-0.04378 8.191407,0.791015 8.191407,0.791015 l 0.796875,0.121094 -2.798829,-8.7773439 -0.15625,-0.097656 c 0,0 -2.15015,-1.3153918 -5.820312,-1.3125 z m 0,1 c 3.251978,-0.00256 4.957947,0.9891527 5.146484,1.1015625 l 2.201172,6.9023436 c -0.863801,-0.130227 -4.951063,-0.771502 -7.576172,-0.728515 -2.600949,0.04259 -6.719458,0.612097 -7.570312,0.726562 l 2.11914,-6.8867188 C 38.806818,6.1668966 40.844711,5.1726504 44.25,5.1699219 Z"
         id="path904" />
    </g>
  </g>
</svg>
