<?xml version="1.0" encoding="UTF-8" standalone="no"?>
<svg
   viewBox="0 0 85 85"
   version="1.1"
   id="svg2"
   inkscape:version="1.1 (c68e22c387, 2021-05-23)"
   sodipodi:docname="logical-node.svg"
   xmlns:inkscape="http://www.inkscape.org/namespaces/inkscape"
   xmlns:sodipodi="http://sodipodi.sourceforge.net/DTD/sodipodi-0.dtd"
   xmlns="http://www.w3.org/2000/svg"
   xmlns:svg="http://www.w3.org/2000/svg"
   xmlns:rdf="http://www.w3.org/1999/02/22-rdf-syntax-ns#"
   xmlns:cc="http://creativecommons.org/ns#"
   xmlns:dc="http://purl.org/dc/elements/1.1/">
  <metadata
     id="metadata16">
    <rdf:RDF>
      <cc:Work
         rdf:about="">
        <dc:format>image/svg+xml</dc:format>
        <dc:type
           rdf:resource="http://purl.org/dc/dcmitype/StillImage" />
        <dc:title />
      </cc:Work>
    </rdf:RDF>
  </metadata>
  <defs
     id="defs14" />
  <sodipodi:namedview
     pagecolor="#ffffff"
     bordercolor="#666666"
     borderopacity="1"
     objecttolerance="10"
     gridtolerance="10"
     guidetolerance="10"
     inkscape:pageopacity="0"
     inkscape:pageshadow="2"
     inkscape:window-width="1920"
     inkscape:window-height="1018"
     id="namedview12"
     showgrid="false"
     inkscape:zoom="2.7764706"
     inkscape:cx="-34.756356"
     inkscape:cy="42.5"
     inkscape:window-x="-8"
     inkscape:window-y="-8"
     inkscape:window-maximized="1"
     inkscape:current-layer="svg2"
     inkscape:pagecheckerboard="0" />
  <g
     id="g4152"
     transform="translate(1.440678,0.36016949)">
    <path
       style="color:#000000;fill:#000000;-inkscape-stroke:none"
       d="m -20.927734,37.380859 c -8.532645,0 -16.30922,2.372757 -22.119141,6.408203 -5.809921,4.035447 -9.742187,9.936036 -9.742187,16.638672 0,6.702637 3.932266,12.603225 9.742187,16.638672 5.809921,4.035447 13.586496,6.40625 22.119141,6.40625 8.532645,0 16.3092192,-2.370803 22.1191402,-6.40625 5.8099211,-4.035447 9.7402348,-9.936035 9.7402348,-16.638672 0,-6.702636 -3.9303137,-12.603225 -9.7402348,-16.638672 -5.809921,-4.035446 -13.5864952,-6.408203 -22.1191402,-6.408203 z m 0,6 c 7.406492,0 14.059837,2.116236 18.6953121,5.335938 4.6354751,3.219702 7.1640625,7.34259 7.1640625,11.710937 0,4.368348 -2.5285874,8.491236 -7.1640625,11.710938 -4.6354751,3.219702 -11.2888201,5.333984 -18.6953121,5.333984 -7.406492,0 -14.061791,-2.114282 -18.697266,-5.333984 -4.635475,-3.219702 -7.164062,-7.34259 -7.164062,-11.710938 0,-4.368347 2.528587,-8.491235 7.164062,-11.710937 4.635475,-3.219702 11.290774,-5.335938 18.697266,-5.335938 z"
       id="circle6-6-2-2"
       transform="matrix(0.70413868,-0.71006247,0.70413868,0.71006247,0,0)" />
    <path
       style="color:#000000;fill:#000000;-inkscape-stroke:none"
       d="m 19.349609,36.375 c -8.532645,0 -16.3092192,2.372756 -22.1191403,6.408203 -5.809921,4.035447 -9.7402347,9.936036 -9.7402347,16.638672 0,6.702636 3.9303137,12.603225 9.7402347,16.638672 5.8099211,4.035447 13.5864953,6.40625 22.1191403,6.40625 8.532645,0 16.30922,-2.370803 22.119141,-6.40625 5.809921,-4.035447 9.742187,-9.936036 9.742187,-16.638672 0,-6.702636 -3.932266,-12.603225 -9.742187,-16.638672 C 35.658829,38.747756 27.882254,36.375 19.349609,36.375 Z m 0,6 c 7.406492,0 14.059838,2.116236 18.695313,5.335937 4.635475,3.219702 7.166016,7.342591 7.166015,11.710938 0,4.368347 -2.53054,8.491236 -7.166015,11.710937 -4.635475,3.219702 -11.288821,5.333985 -18.695313,5.333985 -7.406492,0 -14.059837,-2.114283 -18.69531213,-5.333985 -4.63547507,-3.219701 -7.16406247,-7.34259 -7.16406247,-11.710937 0,-4.368347 2.5285874,-8.491236 7.16406247,-11.710938 C 5.289772,44.491236 11.943117,42.375 19.349609,42.375 Z"
       id="circle6-6-2-2-7"
       transform="matrix(0.70413868,-0.71006247,0.70413868,0.71006247,0,0)" />
  </g>
</svg>
