<?xml version="1.0" encoding="UTF-8" standalone="no"?>
<svg
   viewBox="0 0 85 85"
   version="1.1"
   id="svg2"
   inkscape:version="1.1 (c68e22c387, 2021-05-23)"
   sodipodi:docname="ps.svg"
   xmlns:inkscape="http://www.inkscape.org/namespaces/inkscape"
   xmlns:sodipodi="http://sodipodi.sourceforge.net/DTD/sodipodi-0.dtd"
   xmlns="http://www.w3.org/2000/svg"
   xmlns:svg="http://www.w3.org/2000/svg"
   xmlns:rdf="http://www.w3.org/1999/02/22-rdf-syntax-ns#"
   xmlns:cc="http://creativecommons.org/ns#"
   xmlns:dc="http://purl.org/dc/elements/1.1/">
  <metadata
     id="metadata14">
    <rdf:RDF>
      <cc:Work
         rdf:about="">
        <dc:format>image/svg+xml</dc:format>
        <dc:type
           rdf:resource="http://purl.org/dc/dcmitype/StillImage" />
        <dc:title />
      </cc:Work>
    </rdf:RDF>
  </metadata>
  <defs
     id="defs12" />
  <sodipodi:namedview
     pagecolor="#ffffff"
     bordercolor="#666666"
     borderopacity="1"
     objecttolerance="10"
     gridtolerance="10"
     guidetolerance="10"
     inkscape:pageopacity="0"
     inkscape:pageshadow="2"
     inkscape:window-width="1920"
     inkscape:window-height="1018"
     id="namedview10"
     showgrid="false"
     inkscape:zoom="4.0000001"
     inkscape:cx="17.125"
     inkscape:cy="42.499999"
     inkscape:window-x="-8"
     inkscape:window-y="-8"
     inkscape:window-maximized="1"
     inkscape:current-layer="svg2"
     inkscape:pagecheckerboard="0" />
  <g
     id="g4153">
    <path
       style="color:#000000;fill:#000000;-inkscape-stroke:none"
       d="m 21.972656,9.2558594 c -10.359253,0 -18.800781,8.4395746 -18.800781,18.7988276 0,10.359254 8.441528,18.800782 18.800781,18.800782 10.359253,0 18.800781,-8.441528 18.800781,-18.800782 0,-10.359253 -8.441528,-18.7988276 -18.800781,-18.7988276 z m 0,3.9999996 c 8.197495,0 14.800781,6.601334 14.800781,14.798828 0,8.197495 -6.603286,14.800782 -14.800781,14.800782 -8.197495,0 -14.800781,-6.603287 -14.800781,-14.800782 0,-8.197494 6.603286,-14.798828 14.800781,-14.798828 z"
       id="circle6" />
    <path
       style="color:#000000;fill:#000000;fill-rule:evenodd;-inkscape-stroke:none"
       d="M 0,0.00585938 V 6.9941406 H 85 V 0.00585938 Z"
       id="path4152" />
    <path
       style="color:#000000;fill:#000000;-inkscape-stroke:none"
       d="m 21.972656,33.292969 c -10.359253,0 -18.800781,8.441528 -18.800781,18.800781 0,10.359253 8.441528,18.800781 18.800781,18.800781 10.359253,0 18.800781,-8.441528 18.800781,-18.800781 0,-10.359253 -8.441528,-18.800781 -18.800781,-18.800781 z m 0,4 c 8.197495,0 14.800781,6.603286 14.800781,14.800781 0,8.197495 -6.603286,14.800781 -14.800781,14.800781 -8.197495,0 -14.800781,-6.603286 -14.800781,-14.800781 0,-8.197495 6.603286,-14.800781 14.800781,-14.800781 z"
       id="circle6-7" />
    <path
       style="color:#000000;fill:#000000;fill-rule:evenodd;-inkscape-stroke:none"
       d="m 0,76.005859 v 6.988282 h 85 v -6.988282 z"
       id="path4152-3" />
    <path
       style="color:#000000;fill:#000000;fill-rule:evenodd;-inkscape-stroke:none"
       d="m 19.972656,5.2402344 v 6.7968746 h 4 V 5.2402344 Z"
       id="path4186" />
    <path
       style="color:#000000;fill:#000000;fill-rule:evenodd;-inkscape-stroke:none"
       d="M 19.972656,68.578125 V 79.75 h 4 V 68.578125 Z"
       id="path4186-3" />
    <path
       style="color:#000000;fill:#000000;-inkscape-stroke:none"
       d="m 64.046875,9.8378906 c -10.359253,0 -18.798828,8.4395754 -18.798828,18.7988284 0,10.359253 8.439575,18.800781 18.798828,18.800781 10.359253,0 18.800781,-8.441528 18.800781,-18.800781 0,-10.359253 -8.441528,-18.7988284 -18.800781,-18.7988284 z m 0,4.0000004 c 8.197495,0 14.800781,6.601333 14.800781,14.798828 0,8.197495 -6.603286,14.800781 -14.800781,14.800781 -8.197495,0 -14.798828,-6.603286 -14.798828,-14.800781 0,-8.197495 6.601333,-14.798828 14.798828,-14.798828 z"
       id="circle6-5" />
    <path
       style="color:#000000;fill:#000000;-inkscape-stroke:none"
       d="m 64.046875,33.875 c -10.359253,0 -18.798828,8.441528 -18.798828,18.800781 0,10.359253 8.439575,18.800781 18.798828,18.800781 10.359253,0 18.800781,-8.441528 18.800781,-18.800781 0,-10.359253 -8.441528,-18.800781 -18.800781,-18.800781 z m 0,4 c 8.197495,0 14.800781,6.603286 14.800781,14.800781 0,8.197495 -6.603286,14.800781 -14.800781,14.800781 -8.197495,0 -14.798828,-6.603286 -14.798828,-14.800781 0,-8.197495 6.601333,-14.800781 14.798828,-14.800781 z"
       id="circle6-7-6" />
    <path
       style="color:#000000;fill:#000000;fill-rule:evenodd;-inkscape-stroke:none"
       d="m 62.046875,5.0742187 v 7.5449223 h 4 V 5.0742187 Z"
       id="path4186-2" />
    <path
       style="color:#000000;fill:#000000;fill-rule:evenodd;-inkscape-stroke:none"
       d="m 62.046875,69.160156 v 8.796875 h 4 v -8.796875 z"
       id="path4186-3-9" />
  </g>
</svg>
