<?xml version="1.0" encoding="UTF-8" standalone="no"?>
<svg
   viewBox="0 0 85 85"
   version="1.1"
   id="svg2"
   inkscape:version="1.1 (c68e22c387, 2021-05-23)"
   sodipodi:docname="scheme.svg"
   xmlns:inkscape="http://www.inkscape.org/namespaces/inkscape"
   xmlns:sodipodi="http://sodipodi.sourceforge.net/DTD/sodipodi-0.dtd"
   xmlns="http://www.w3.org/2000/svg"
   xmlns:svg="http://www.w3.org/2000/svg"
   xmlns:rdf="http://www.w3.org/1999/02/22-rdf-syntax-ns#"
   xmlns:cc="http://creativecommons.org/ns#"
   xmlns:dc="http://purl.org/dc/elements/1.1/">
  <metadata
     id="metadata16">
    <rdf:RDF>
      <cc:Work
         rdf:about="">
        <dc:format>image/svg+xml</dc:format>
        <dc:type
           rdf:resource="http://purl.org/dc/dcmitype/StillImage" />
        <dc:title />
      </cc:Work>
    </rdf:RDF>
  </metadata>
  <defs
     id="defs14" />
  <sodipodi:namedview
     pagecolor="#ffffff"
     bordercolor="#666666"
     borderopacity="1"
     objecttolerance="10"
     gridtolerance="10"
     guidetolerance="10"
     inkscape:pageopacity="0"
     inkscape:pageshadow="2"
     inkscape:window-width="1920"
     inkscape:window-height="1018"
     id="namedview12"
     showgrid="false"
     inkscape:zoom="2.8284271"
     inkscape:cx="52.502679"
     inkscape:cy="39.59798"
     inkscape:window-x="-8"
     inkscape:window-y="-8"
     inkscape:window-maximized="1"
     inkscape:current-layer="svg2"
     inkscape:pagecheckerboard="0" />
  <g
     id="g4617">
    <path
       style="color:#000000;fill:#000000;stroke-linecap:round;stroke-linejoin:round;-inkscape-stroke:none"
       d="M 52.091797,2.0097656 A 1.3568333,1.3568333 0 0 0 50.736328,3.3671875 V 20.21875 a 1.3568333,1.3568333 0 0 0 1.355469,1.357422 H 84.378906 A 1.3568333,1.3568333 0 0 0 85.736328,20.21875 V 3.3671875 A 1.3568333,1.3568333 0 0 0 84.378906,2.0097656 Z m 1.357422,2.7148438 H 83.021484 V 18.861328 H 53.449219 Z"
       id="rect4356" />
    <path
       style="color:#000000;fill:#000000;stroke-linecap:round;stroke-linejoin:round;-inkscape-stroke:none"
       d="m 0.44726563,34.791016 a 1.3987255,1.3987255 0 0 0 -1.39843751,1.398437 v 16.767578 a 1.3987255,1.3987255 0 0 0 1.39843751,1.398438 H 34.929687 a 1.3987255,1.3987255 0 0 0 1.398438,-1.398438 V 36.189453 A 1.3987255,1.3987255 0 0 0 34.929687,34.791016 Z M 1.8457031,37.587891 H 33.53125 V 51.558594 H 1.8457031 Z"
       id="rect4356-8-5" />
    <path
       style="color:#000000;fill:#000000;stroke-linecap:round;stroke-linejoin:round;-inkscape-stroke:none"
       d="m 52.091797,63.904297 a 1.3568333,1.3568333 0 0 0 -1.355469,1.355469 v 16.851562 a 1.3568333,1.3568333 0 0 0 1.355469,1.357422 h 32.287109 a 1.3568333,1.3568333 0 0 0 1.357422,-1.357422 V 65.259766 a 1.3568333,1.3568333 0 0 0 -1.357422,-1.355469 z m 1.357422,2.71289 H 83.021484 V 80.755859 H 53.449219 Z"
       id="rect4356-1" />
    <path
       style="color:#000000;fill:#000000;stroke-linecap:round;stroke-linejoin:round;-inkscape-stroke:none"
       d="m 52.091797,34.957031 a 1.3568333,1.3568333 0 0 0 -1.355469,1.357422 v 16.851563 a 1.3568333,1.3568333 0 0 0 1.355469,1.355468 h 32.287109 a 1.3568333,1.3568333 0 0 0 1.357422,-1.355468 V 36.314453 a 1.3568333,1.3568333 0 0 0 -1.357422,-1.357422 z m 1.357422,2.712891 H 83.021484 V 51.808594 H 53.449219 Z"
       id="rect4356-9" />
    <path
       style="color:#000000;fill:#000000;fill-rule:evenodd;-inkscape-stroke:none"
       d="M 40.707031,10.693359 41.4375,74.806641 h 9.828125 v -2 H 43.416016 L 42.730469,12.693359 h 8.535156 v -2 z"
       id="path4613" />
    <path
       style="color:#000000;fill:#000000;fill-rule:evenodd;-inkscape-stroke:none"
       d="m 34.648437,43.453125 v 2 h 17.324219 v -2 z"
       id="path4615" />
  </g>
</svg>
